<svg width="50" height="50" viewBox="0 0 50 50" fill="none" xmlns="http://www.w3.org/2000/svg">
<circle cx="25" cy="25" r="24.5" stroke="#2A2447"/>
<path d="M15.0635 17.2747H27.8381C29.2501 17.2747 30.4015 18.402 30.4015 19.8381V30.162C30.4015 31.5707 29.2468 32.7254 27.8381 32.7254H15.0635C13.6547 32.7254 12.5 31.5707 12.5 30.162V19.8381C12.5 18.4294 13.6547 17.2747 15.0635 17.2747Z" stroke="#2A2447"/>
<path d="M37.8156 18.9527L37.8308 18.9502L37.8458 18.9467C38.7198 18.745 39.5003 19.4166 39.5003 20.2363V29.7024C39.5003 29.9425 39.4362 30.1644 39.321 30.3735C38.9341 31.0277 38.1368 31.2397 37.4961 30.864L37.4919 30.8616L32.9336 28.2486V21.7198L37.4624 19.107L37.4625 19.1071L37.4698 19.1027C37.6076 19.02 37.7262 18.9676 37.8156 18.9527Z" stroke="#2A2447"/>
</svg>
