<svg width="50" height="50" viewBox="0 0 50 50" fill="none" xmlns="http://www.w3.org/2000/svg">
<circle cx="25" cy="25" r="24.5" stroke="#2A2447"/>
<path d="M36 16.5C37.3807 16.5 38.5 17.6193 38.5 19V32C38.5 33.3807 37.3807 34.5 36 34.5H14C12.6193 34.5 11.5 33.3807 11.5 32V25.5V19C11.5 17.6193 12.6193 16.5 14 16.5H25H36Z" stroke="#2A2447"/>
<path d="M22.25 14H27.75C28.4404 14 29 14.5596 29 15.25C29 15.9404 28.4404 16.5 27.75 16.5H22.25C21.5596 16.5 21 15.9404 21 15.25C21 14.5596 21.5596 14 22.25 14Z" stroke="#2A2447" stroke-linejoin="round"/>
</svg>
