<svg width="473" height="421" viewBox="0 0 473 421" fill="none" xmlns="http://www.w3.org/2000/svg">
<path d="M262.863 161.4H400.204L473 233.913V403.866C473 412.796 465.759 420.03 456.836 420.03H262.863C253.94 420.03 246.699 412.796 246.699 403.866V177.564C246.699 168.633 253.941 161.4 262.863 161.4Z" fill="#26A6D1"/>
<path d="M472.767 234.139H416.426C407.503 234.139 400.261 226.898 400.261 217.975V161.561L472.767 234.139Z" fill="#1E7EA0"/>
<path d="M129.336 0H266.676L339.472 72.5136V242.466C339.472 251.396 332.231 258.63 323.308 258.63H129.336C120.413 258.63 113.171 251.396 113.171 242.466V16.1642C113.171 7.23372 120.413 0 129.336 0Z" fill="#3DB39E"/>
<path d="M339.239 72.7395H282.898C273.975 72.7395 266.734 65.4982 266.734 56.5752V0.161407L339.239 72.7395Z" fill="#2F8A78"/>
<path d="M161.665 105.069V210.138H290.98V105.069H161.665ZM258.651 113.15V129.315H242.487V113.15H258.651ZM210.158 153.561H193.993V137.405H210.158V153.561ZM218.24 137.406H234.404V153.562H218.24V137.406ZM210.158 161.652V177.809H193.993V161.652H210.158ZM218.24 161.652H234.404V177.809H218.24V161.652ZM242.487 161.652H258.651V177.809H242.487V161.652ZM242.487 153.561V137.405H258.651V153.561H242.487ZM234.404 113.15V129.315H218.24V113.15H234.404ZM210.158 113.15V129.315H193.993V113.15H210.158ZM169.747 113.15H185.911V129.315H169.747V113.15ZM169.747 137.406H185.911V153.562H169.747V137.406ZM169.747 161.652H185.911V177.809H169.747V161.652ZM169.747 202.063V185.891H185.911V202.063H169.747ZM193.993 202.063V185.891H210.158V202.063H193.993ZM218.24 202.063V185.891H234.404V202.063H218.24ZM242.487 202.063V185.891H258.651V202.063H242.487ZM282.898 202.063H266.734V185.891H282.898V202.063ZM282.898 177.808H266.734V161.652H282.898V177.808ZM282.898 153.561H266.734V137.405H282.898V153.561ZM282.898 129.316H266.734V113.151H282.898V129.316Z" fill="#8BD1C5"/>
<path d="M16.1642 78.1818H153.505L226.301 150.695V320.648C226.301 329.578 219.06 336.812 210.137 336.812H16.1642C7.24125 336.812 0 329.578 0 320.648V94.3461C0 85.4155 7.24208 78.1818 16.1642 78.1818Z" fill="#E2574C"/>
<path d="M226.068 150.921H169.726C160.803 150.921 153.562 143.68 153.562 134.757V78.3432L226.068 150.921Z" fill="#B53629"/>
<path d="M73.98 201.875C75.8 201.875 77.1867 201.463 78.14 200.64C79.1367 199.773 79.635 198.473 79.635 196.74C79.635 195.093 79.115 193.837 78.075 192.97C77.0783 192.06 75.605 191.605 73.655 191.605C72.9617 191.605 72.3767 191.627 71.9 191.67C71.4667 191.67 71.0117 191.713 70.535 191.8V201.875H73.98ZM70.6 222.74C70.1233 222.87 69.365 223 68.325 223.13C67.3283 223.26 66.3317 223.325 65.335 223.325C64.3383 223.325 63.45 223.238 62.67 223.065C61.9333 222.935 61.305 222.675 60.785 222.285C60.265 221.895 59.875 221.353 59.615 220.66C59.355 219.967 59.225 219.057 59.225 217.93V187.315C59.225 186.405 59.4633 185.712 59.94 185.235C60.46 184.715 61.1533 184.303 62.02 184C63.4933 183.48 65.1617 183.112 67.025 182.895C68.9317 182.635 70.8383 182.505 72.745 182.505C78.725 182.505 83.2967 183.783 86.46 186.34C89.6233 188.897 91.205 192.363 91.205 196.74C91.205 198.863 90.8583 200.792 90.165 202.525C89.515 204.215 88.5183 205.688 87.175 206.945C85.875 208.158 84.2067 209.112 82.17 209.805C80.1767 210.455 77.8583 210.78 75.215 210.78H70.6V222.74ZM108.304 214.55C108.78 214.637 109.365 214.723 110.059 214.81C110.752 214.853 111.402 214.875 112.009 214.875C113.482 214.875 114.825 214.658 116.039 214.225C117.295 213.792 118.357 213.12 119.224 212.21C120.134 211.3 120.827 210.13 121.304 208.7C121.824 207.227 122.084 205.472 122.084 203.435C122.084 199.535 121.174 196.61 119.354 194.66C117.534 192.667 115.107 191.67 112.074 191.67C111.467 191.67 110.839 191.692 110.189 191.735C109.582 191.778 108.954 191.843 108.304 191.93V214.55ZM111.944 224.04C111.207 224.04 110.362 224.018 109.409 223.975C108.455 223.932 107.459 223.845 106.419 223.715C105.422 223.585 104.404 223.412 103.364 223.195C102.367 223.022 101.435 222.762 100.569 222.415C98.1852 221.505 96.9936 219.923 96.9936 217.67V187.315C96.9936 186.405 97.2319 185.712 97.7086 185.235C98.2286 184.715 98.9219 184.303 99.7886 184C101.652 183.393 103.624 183.003 105.704 182.83C107.784 182.613 109.647 182.505 111.294 182.505C114.674 182.505 117.729 182.917 120.459 183.74C123.232 184.563 125.594 185.842 127.544 187.575C129.537 189.265 131.075 191.41 132.159 194.01C133.242 196.61 133.784 199.687 133.784 203.24C133.784 206.707 133.264 209.74 132.224 212.34C131.184 214.897 129.689 217.063 127.739 218.84C125.832 220.573 123.535 221.873 120.849 222.74C118.162 223.607 115.194 224.04 111.944 224.04ZM167.975 183.61C168.278 184.087 168.538 184.737 168.755 185.56C169.015 186.34 169.145 187.163 169.145 188.03C169.145 189.72 168.776 190.933 168.04 191.67C167.346 192.363 166.393 192.71 165.18 192.71H151.53V200.055H165.765C166.111 200.532 166.393 201.16 166.61 201.94C166.87 202.72 167 203.543 167 204.41C167 206.057 166.631 207.248 165.895 207.985C165.201 208.678 164.248 209.025 163.035 209.025H151.66V222.74C151.183 222.87 150.425 223 149.385 223.13C148.388 223.26 147.391 223.325 146.395 223.325C145.398 223.325 144.51 223.238 143.73 223.065C142.993 222.935 142.365 222.675 141.845 222.285C141.325 221.895 140.935 221.353 140.675 220.66C140.415 219.967 140.285 219.057 140.285 217.93V189.655C140.285 187.792 140.826 186.318 141.91 185.235C142.993 184.152 144.466 183.61 146.33 183.61H167.975Z" fill="white"/>
<path d="M327.46 297.315C326.897 297.792 326.16 298.182 325.25 298.485C324.383 298.745 323.365 298.875 322.195 298.875C320.635 298.875 319.335 298.68 318.295 298.29C317.298 297.9 316.648 297.228 316.345 296.275C315.132 292.462 314.135 289.385 313.355 287.045C312.575 284.662 311.968 282.582 311.535 280.805H311.21C311.08 283.362 310.972 285.702 310.885 287.825C310.842 289.905 310.798 291.942 310.755 293.935C310.755 295.928 310.712 297.943 310.625 299.98C310.582 302.017 310.495 304.27 310.365 306.74C309.802 306.957 309.065 307.13 308.155 307.26C307.245 307.433 306.335 307.52 305.425 307.52C303.518 307.52 302.023 307.217 300.94 306.61C299.9 306.003 299.38 304.898 299.38 303.295L301.265 270.145C301.612 269.582 302.37 268.975 303.54 268.325C304.71 267.675 306.357 267.35 308.48 267.35C310.777 267.35 312.575 267.718 313.875 268.455C315.175 269.148 316.128 270.297 316.735 271.9C317.125 272.94 317.537 274.132 317.97 275.475C318.447 276.818 318.902 278.205 319.335 279.635C319.812 281.065 320.267 282.495 320.7 283.925C321.133 285.312 321.523 286.568 321.87 287.695H322.195C323.235 284.055 324.275 280.545 325.315 277.165C326.355 273.742 327.308 270.882 328.175 268.585C328.825 268.238 329.648 267.957 330.645 267.74C331.685 267.48 332.833 267.35 334.09 267.35C336.213 267.35 337.947 267.675 339.29 268.325C340.633 268.932 341.413 269.82 341.63 270.99C341.803 271.857 341.977 273.2 342.15 275.02C342.367 276.797 342.583 278.812 342.8 281.065C343.017 283.318 343.233 285.702 343.45 288.215C343.667 290.728 343.862 293.155 344.035 295.495C344.252 297.792 344.425 299.915 344.555 301.865C344.685 303.772 344.772 305.245 344.815 306.285C344.078 306.718 343.298 307.022 342.475 307.195C341.695 307.412 340.677 307.52 339.42 307.52C337.773 307.52 336.387 307.238 335.26 306.675C334.133 306.112 333.527 305.007 333.44 303.36C333.18 298.637 333.007 294.39 332.92 290.62C332.877 286.85 332.79 283.687 332.66 281.13H332.335C331.902 282.82 331.273 284.943 330.45 287.5C329.627 290.057 328.63 293.328 327.46 297.315ZM366.777 285.875C368.597 285.875 369.984 285.463 370.937 284.64C371.934 283.773 372.432 282.473 372.432 280.74C372.432 279.093 371.912 277.837 370.872 276.97C369.875 276.06 368.402 275.605 366.452 275.605C365.759 275.605 365.174 275.627 364.697 275.67C364.264 275.67 363.809 275.713 363.332 275.8V285.875H366.777ZM363.397 306.74C362.92 306.87 362.162 307 361.122 307.13C360.125 307.26 359.129 307.325 358.132 307.325C357.135 307.325 356.247 307.238 355.467 307.065C354.73 306.935 354.102 306.675 353.582 306.285C353.062 305.895 352.672 305.353 352.412 304.66C352.152 303.967 352.022 303.057 352.022 301.93V271.315C352.022 270.405 352.26 269.712 352.737 269.235C353.257 268.715 353.95 268.303 354.817 268C356.29 267.48 357.959 267.112 359.822 266.895C361.729 266.635 363.635 266.505 365.542 266.505C371.522 266.505 376.094 267.783 379.257 270.34C382.42 272.897 384.002 276.363 384.002 280.74C384.002 282.863 383.655 284.792 382.962 286.525C382.312 288.215 381.315 289.688 379.972 290.945C378.672 292.158 377.004 293.112 374.967 293.805C372.974 294.455 370.655 294.78 368.012 294.78H363.397V306.74ZM403.394 267.935C404.217 267.675 405.149 267.458 406.189 267.285C407.272 267.112 408.247 267.025 409.114 267.025C410.11 267.025 411.064 267.133 411.974 267.35C412.927 267.523 413.772 267.848 414.509 268.325C415.245 268.758 415.83 269.365 416.264 270.145C416.697 270.925 416.914 271.9 416.914 273.07V290.36H422.699C422.959 290.837 423.219 291.465 423.479 292.245C423.739 293.025 423.869 293.848 423.869 294.715C423.869 296.362 423.5 297.532 422.764 298.225C422.027 298.918 421.095 299.265 419.969 299.265H416.914V306.935C416.437 307.022 415.722 307.13 414.769 307.26C413.815 307.433 412.905 307.52 412.039 307.52C411.085 307.52 410.24 307.477 409.504 307.39C408.767 307.303 408.139 307.108 407.619 306.805C407.142 306.458 406.774 305.982 406.514 305.375C406.254 304.768 406.124 303.945 406.124 302.905V299.265H389.809C388.812 298.745 387.945 297.987 387.209 296.99C386.515 295.95 386.169 294.693 386.169 293.22C386.169 292.397 386.277 291.487 386.494 290.49C386.71 289.493 387.079 288.627 387.599 287.89L403.394 267.935ZM406.709 278.14H406.514L397.869 290.36H406.709V278.14Z" fill="white"/>
</svg>
