<svg width="100" height="50" viewBox="0 0 100 50" fill="none" xmlns="http://www.w3.org/2000/svg">
<path d="M63.9795 11.3481C63.9121 11.1406 63.781 10.9596 63.6048 10.8309C63.4286 10.7021 63.2163 10.6321 62.9981 10.6307H53.1904L50.1598 1.30734C50.0239 0.893773 49.6323 0.596069 49.1734 0.596069C48.7144 0.596069 48.3239 0.893971 48.187 1.30843L45.1553 10.6307H35.3497C34.9139 10.6328 34.5093 10.9114 34.3674 11.3481C34.2998 11.5557 34.2994 11.7794 34.3662 11.9873C34.4331 12.1952 34.5638 12.3767 34.7398 12.5061L42.6733 18.2679L39.6426 27.5902C39.5771 27.7983 39.5785 28.0218 39.6466 28.2291C39.7146 28.4365 39.8459 28.6173 40.0221 28.7462C40.3945 29.0169 40.8858 29.0038 41.2399 28.7502L49.1734 22.9884L57.1069 28.7502C57.4613 29.0038 57.9523 29.0168 58.3247 28.7462C58.5013 28.6176 58.6329 28.4368 58.701 28.2293C58.7691 28.0218 58.7702 27.7982 58.7042 27.5901L55.6735 18.2679L63.607 12.5061C63.783 12.3767 63.9137 12.1952 63.9806 11.9873C64.0474 11.7794 64.047 11.5557 63.9794 11.3481" fill="black"/>
<path d="M63.9796 10.752C63.9122 10.5445 63.7811 10.3636 63.6049 10.2348C63.4287 10.106 63.2165 10.036 62.9982 10.0347H53.1905L50.1598 0.711268C50.0239 0.297803 49.6324 0 49.1734 0C48.7144 0 48.3239 0.297803 48.187 0.712262L45.1553 10.0346H35.3497C34.9139 10.0367 34.5093 10.3153 34.3674 10.7519C34.2998 10.9595 34.2994 11.1832 34.3662 11.3911C34.4331 11.599 34.5638 11.7805 34.7398 11.9099L42.6733 17.6717L39.6426 26.9941C39.5771 27.2023 39.5785 27.4257 39.6466 27.633C39.7146 27.8403 39.846 28.0211 40.0221 28.15C40.3945 28.4207 40.8858 28.4076 41.2399 28.1541L49.1734 22.3922L57.107 28.154C57.4613 28.4076 57.9524 28.4206 58.3248 28.15C58.5013 28.0215 58.633 27.8406 58.701 27.6332C58.7691 27.4257 58.7703 27.202 58.7042 26.9939L55.6735 17.6717L63.607 11.9099C63.783 11.7805 63.9137 11.599 63.9806 11.3911C64.0474 11.1832 64.047 10.9595 63.9794 10.7519" fill="white"/>
<path d="M40.9281 27.2378C40.8942 27.2626 40.8533 27.2759 40.8114 27.2759C40.7694 27.2759 40.7285 27.2626 40.6946 27.2378C40.6221 27.1856 40.593 27.1041 40.6191 27.0246L43.7716 17.323L35.5221 11.3328C35.4883 11.3084 35.4633 11.2738 35.4506 11.2342C35.438 11.1945 35.4383 11.1519 35.4517 11.1125C35.4637 11.0725 35.4883 11.0374 35.5219 11.0126C35.5554 10.9878 35.5961 10.9744 35.6379 10.9746H45.8351L48.9856 1.28309C48.9985 1.24306 49.0237 1.20816 49.0577 1.18339C49.0917 1.15863 49.1327 1.14528 49.1748 1.14526C49.2632 1.14526 49.3368 1.20359 49.3639 1.28309L52.5134 10.9746H62.7117C62.7952 10.9746 62.8737 11.028 62.9009 11.1125C62.9139 11.1521 62.914 11.1949 62.9009 11.2345C62.8879 11.2742 62.8625 11.3086 62.8284 11.3328L54.5768 17.323L57.7294 27.0206C57.7545 27.1011 57.7263 27.1856 57.6548 27.2379C57.6209 27.2627 57.58 27.276 57.538 27.276C57.4961 27.276 57.4552 27.2627 57.4213 27.2379L49.1748 21.2458L40.9281 27.2378Z" fill="#ED1C24"/>
<path d="M25.702 26.206V24.2944H25.3266V23.6777H26.779V24.2944H26.3864V26.206H25.702ZM28.2852 24.8479C28.4653 24.8479 28.5629 24.6899 28.5629 24.526C28.5629 24.3046 28.429 24.2101 28.2418 24.2211V24.8448L28.2852 24.8479ZM28.6174 26.2062L28.238 25.1538L28.2309 25.1598C28.235 25.2836 28.2419 25.4084 28.2419 25.5321V26.2062H27.5575V23.6779H28.2178C28.8117 23.6779 29.2404 23.852 29.2404 24.5189C29.2404 24.7976 29.1206 25.0451 28.849 25.1538L29.3582 26.2062H28.6174ZM30.9516 25.3444L30.8782 24.7579C30.8581 24.6 30.8449 24.439 30.8288 24.281H30.8208C30.8017 24.439 30.7846 24.6 30.7574 24.7579L30.6638 25.3444H30.9516ZM31.0824 26.2057L31.0321 25.8806H30.5732L30.5158 26.2057H29.8113L30.4182 23.6774H31.2536L31.7901 26.2057H31.0824ZM33.1026 25.5958C33.4147 25.5928 33.4679 25.2034 33.4679 24.965C33.4679 24.6903 33.4146 24.308 33.1026 24.308V25.5958ZM32.4182 23.6783H32.9688C33.7469 23.6783 34.1656 24.1671 34.1656 24.9318C34.1656 26.0989 33.4319 26.2055 33.0151 26.2055H32.4182V23.6783ZM34.9306 23.6778H36.2019V24.2744H35.615V24.6265H36.1414V25.223H35.615V25.6085H36.2019V26.2061H34.9306V23.6778ZM63.7306 26.206L63.6672 24.6163H63.6601C63.6299 24.8004 63.6068 24.9855 63.5736 25.1697L63.3794 26.206H62.8218L62.5833 24.6163H62.5771C62.5731 24.8045 62.5771 24.9886 62.5671 25.1766L62.5097 26.2059H61.7748L62.0698 23.6776H62.9224L63.1176 25.0217H63.1237C63.1438 24.8647 63.1609 24.7098 63.1901 24.5529L63.3552 23.6776H64.1966L64.4423 26.2059H63.7306V26.206ZM66.0286 25.3444L65.9551 24.7579C65.935 24.6 65.9219 24.439 65.9048 24.281H65.8978C65.8777 24.439 65.8616 24.6 65.8343 24.7579L65.7408 25.3444H66.0286ZM66.1595 26.2057L66.1091 25.8806H65.6502L65.5929 26.2057H64.8882L65.4961 23.6774H66.3306L66.867 26.2057H66.1595ZM68.1892 24.8479C68.3703 24.8479 68.4681 24.6899 68.4681 24.526C68.4681 24.3046 68.3333 24.2101 68.146 24.2211V24.8448L68.1892 24.8479ZM68.5213 26.2062L68.142 25.1538L68.1358 25.1598C68.1389 25.2836 68.146 25.4084 68.146 25.5321V26.2062H67.4615V23.6779H68.1218C68.7167 23.6779 69.1456 23.852 69.1456 24.5189C69.1456 24.7976 69.0247 25.0451 68.753 25.1538L69.2623 26.2062H68.5213ZM71.7414 23.6778L71.1948 24.8981L71.8048 26.2061H71.0711L70.6453 25.0451H70.6413V26.2061H69.9569V23.6778H70.6413V24.7542H70.6453L71.0198 23.6778H71.7414ZM19.0583 43.0868C18.7835 42.3271 19.0029 40.0062 20.2822 39.5686C21.628 39.107 22.4553 39.7999 22.8569 41.1562C23.0068 41.6592 22.9736 42.1904 22.8096 42.3888C22.5711 42.6785 22.1453 42.8504 21.7618 42.9803L20.7542 43.3134C19.7639 43.6502 19.2908 43.7177 19.0583 43.0868ZM25.4145 45.9019C24.7602 46.5569 23.9108 47.2067 23.0743 47.4724C22.2862 47.7258 20.0395 47.922 19.3783 46.0678C19.2353 45.6655 19.3511 45.5417 19.7155 45.434C20.257 45.2731 21.6541 44.8626 23.1277 44.3102C24.4654 43.8113 25.6581 43.1985 26.0325 42.949C26.7019 42.5104 26.8005 41.8926 26.5066 41.2276C25.5685 39.118 23.4437 36.9096 19.9128 37.5807C17.1065 38.1158 15.0965 40.6411 15.0965 43.5295C15.0965 47.1071 17.2535 49.1977 19.9973 49.8466C22.5348 50.4492 25.5172 49.2199 26.7934 47.1534C27.2997 46.3576 25.8744 45.413 25.4145 45.9019ZM51.9263 43.0868C51.7631 42.6321 51.7743 41.62 52.0833 40.7861C52.2936 40.2255 52.6037 39.7869 53.1501 39.5686C53.7652 39.3212 54.2916 39.3886 54.7033 39.6259C55.1743 39.8966 55.5105 40.4328 55.7248 41.1561C55.8738 41.6591 55.8416 42.1903 55.6775 42.3887C55.4369 42.6784 55.0655 42.8232 54.6287 42.9802C54.2952 43.0989 53.9597 43.2116 53.6222 43.3182C52.6259 43.6302 52.1588 43.7177 51.9263 43.0868ZM58.2805 45.9019C57.6283 46.5569 56.7778 47.2067 55.9433 47.4724C55.1542 47.7258 52.9066 47.922 52.2464 46.0678C52.1034 45.6655 52.2201 45.5417 52.5836 45.434C53.1251 45.2731 54.5222 44.8626 55.9957 44.3102C57.3334 43.8113 58.5272 43.1985 58.8996 42.949C59.57 42.5104 59.6686 41.8926 59.3746 41.2276C58.4356 39.118 56.3127 36.9096 52.7808 37.5807C49.9746 38.1158 47.9646 40.6411 47.9646 43.5295C47.9646 47.1071 50.1207 49.1977 52.8654 49.8466C55.4019 50.4492 58.3853 49.2199 59.6615 47.1534C60.1677 46.3576 58.7425 45.413 58.2805 45.9019ZM76.9825 43.0868C76.8175 42.6321 76.8305 41.62 77.1395 40.7861C77.3498 40.2255 77.6599 39.7869 78.2064 39.5686C78.8214 39.3212 79.3477 39.3886 79.7595 39.6259C80.2305 39.8966 80.5657 40.4328 80.7811 41.1561C80.929 41.6591 80.8979 42.1903 80.7328 42.3887C80.4943 42.6784 80.1228 42.8232 79.685 42.9802C79.3512 43.0988 79.0153 43.2115 78.6775 43.3182C77.6801 43.6302 77.215 43.7177 76.9825 43.0868ZM83.3367 45.9019C82.6855 46.5569 81.834 47.2067 80.9976 47.4724C80.2105 47.7258 77.9629 47.922 77.3016 46.0678C77.1597 45.6655 77.2764 45.5417 77.6397 45.434C78.1812 45.2731 79.5773 44.8626 81.0518 44.3102C82.3885 43.8113 83.5834 43.1985 83.9558 42.949C84.625 42.5104 84.7237 41.8926 84.4308 41.2276C83.4917 39.118 81.3679 36.9096 77.837 37.5807C75.0298 38.1158 73.0207 40.6411 73.0207 43.5295C73.0207 47.1071 75.1768 49.1977 77.9216 49.8466C80.4581 50.4492 83.4404 49.2199 84.7168 47.1534C85.2231 46.3576 83.7987 45.413 83.3367 45.9019ZM5.93565 42.1467C5.84087 42.1467 5.75 42.1844 5.683 42.2514C5.616 42.3184 5.57836 42.4093 5.57836 42.504L5.57936 46.5555C5.58333 47.1841 5.77262 47.6047 6.11579 47.7567C6.30099 47.8391 6.7046 48.0252 6.93305 48.1279C7.09012 48.1993 7.09609 48.3592 7.07293 48.5646C7.05284 48.7476 6.99946 49.2699 6.97938 49.462C6.9583 49.6712 6.79517 49.7597 6.47814 49.7597H0.611038C0.314094 49.7597 0.129883 49.7075 0.104732 49.462C0.0845515 49.2698 0.0301731 48.7185 0.0100918 48.5355C-0.016153 48.303 0.0311672 48.1832 0.175116 48.1169C0.371455 48.0252 0.799126 47.8351 0.98443 47.7487C1.34878 47.5797 1.50376 47.0867 1.50376 46.5685L1.50276 36.5509C1.50177 35.9916 1.3447 35.54 0.93711 35.3508C0.751905 35.2652 0.365391 35.0902 0.177204 35.0007C0.021226 34.9262 -0.0211236 34.7824 0.00909769 34.5782C0.0352431 34.395 0.0785868 34.0822 0.104732 33.89C0.137936 33.6465 0.314094 33.5933 0.611038 33.5933H6.20536C6.50329 33.5933 6.67339 33.6465 6.70759 33.89C6.73373 34.0822 6.77707 34.395 6.80322 34.5782C6.83344 34.7824 6.79318 34.9233 6.64118 35.0048C6.44186 35.1123 6.16211 35.2693 5.98287 35.367C5.7413 35.4988 5.58324 35.7714 5.57926 36.4173L5.57826 39.337C5.57817 39.384 5.58734 39.4305 5.60526 39.4739C5.62317 39.5173 5.64946 39.5568 5.68265 39.5901C5.71583 39.6233 5.75525 39.6497 5.79864 39.6678C5.84204 39.6858 5.88856 39.6951 5.93555 39.6951H9.06793C9.11495 39.6952 9.16151 39.6859 9.20495 39.6679C9.24839 39.65 9.28784 39.6236 9.32104 39.5903C9.35424 39.557 9.38053 39.5175 9.39841 39.474C9.41629 39.4306 9.4254 39.384 9.42521 39.337L9.42422 36.4173C9.42015 35.7714 9.26218 35.4988 9.0216 35.367C8.84147 35.2694 8.56262 35.1124 8.36329 35.0048C8.21129 34.9233 8.17004 34.7824 8.20016 34.5782C8.2264 34.395 8.26965 34.0822 8.29579 33.89C8.32999 33.6465 8.50108 33.5933 8.79802 33.5933H14.3923C14.6893 33.5933 14.8654 33.6465 14.8996 33.89C14.9258 34.0822 14.968 34.395 14.9953 34.5782C15.0244 34.7824 14.9831 34.9262 14.8272 35.0007C14.6379 35.0902 14.2514 35.2652 14.0662 35.3508C13.6596 35.54 13.5025 35.9916 13.5015 36.5509L13.5005 46.5685C13.5005 47.0867 13.6545 47.5797 14.0189 47.7487C14.2041 47.8351 14.6328 48.0252 14.8291 48.1169C14.973 48.1832 15.0193 48.303 14.9942 48.5355C14.974 48.7185 14.9187 49.2699 14.8995 49.462C14.8744 49.7075 14.6892 49.7597 14.3922 49.7597H8.52544C8.20841 49.7597 8.04528 49.6712 8.0242 49.462C8.00402 49.2698 7.95073 48.7476 7.93055 48.5646C7.90839 48.3593 7.91346 48.1993 8.07142 48.1279C8.29898 48.0252 8.70259 47.8391 8.88879 47.7567C9.23096 47.6047 9.42025 47.1841 9.42422 46.5555L9.42521 42.504C9.42529 42.4571 9.41611 42.4106 9.39818 42.3672C9.38026 42.3239 9.35395 42.2844 9.32076 42.2512C9.28757 42.2181 9.24815 42.1917 9.20476 42.1738C9.16138 42.1559 9.11488 42.1466 9.06793 42.1467H5.93565Z" fill="#048743"/>
<path d="M68.8178 41.8233C68.8178 41.8233 70.9426 45.6654 71.5223 46.7208C71.9633 47.5226 72.4585 47.7449 73.1298 48.1272C73.3029 48.2248 73.3553 48.2893 73.324 48.6141C73.3009 48.8646 73.2616 49.248 73.2425 49.4473C73.2154 49.7248 73.018 49.7592 72.7423 49.7592H69.61C69.2134 49.7592 69.0584 49.6767 68.9174 49.4212C68.7664 49.1475 66.1475 44.3846 66.1475 44.3846L65.16 45.3272V46.6414C65.1651 47.2439 65.4428 47.6342 65.7135 47.7853C65.8888 47.8829 66.1545 48.0308 66.3679 48.1484C66.5319 48.239 66.5439 48.3537 66.5219 48.6112C66.5058 48.7933 66.4555 49.2691 66.4364 49.4622C66.4142 49.6754 66.2692 49.7591 65.934 49.7591H60.7202C60.4223 49.7591 60.2361 49.7076 60.2109 49.4622C60.1908 49.2691 60.1415 48.7581 60.1214 48.5758C60.0962 48.3464 60.1364 48.2298 60.2874 48.1454C60.5066 48.0215 60.7263 47.8987 60.9467 47.777C61.2034 47.6351 61.4118 47.2509 61.4118 46.6221V36.4468C61.4097 35.7425 61.1431 35.4226 60.9357 35.3068C60.7897 35.2243 60.367 34.9899 60.2704 34.9345C60.1245 34.8521 60.0963 34.6931 60.1245 34.4978C60.1506 34.3168 60.1828 34.0814 60.21 33.8892C60.2452 33.6336 60.4123 33.5925 60.7163 33.5925H64.4817C64.8018 33.5925 65.1591 33.8289 65.1591 34.2756L65.1601 42.0505C65.1601 42.0505 67.2728 40.148 67.5849 39.8683C67.8074 39.6682 67.744 39.455 67.6192 39.3965C67.4027 39.296 67.1612 39.1892 67.0253 39.1279C66.8753 39.0595 66.7988 38.9791 66.824 38.7317C66.8491 38.4973 66.8905 38.1188 66.9076 37.9388C66.9297 37.7053 67.0092 37.6097 67.3937 37.6097H71.9956C72.2845 37.6097 72.3822 37.7095 72.4013 37.8985C72.4214 38.1139 72.4738 38.5604 72.4939 38.7759C72.5099 38.9478 72.3903 39.0473 72.1366 39.14C71.4702 39.3835 71.1814 39.5555 70.2815 40.4248C69.7187 40.968 68.8178 41.8233 68.8178 41.8233ZM32.3992 46.66C32.4043 47.2626 32.6045 47.6339 32.8763 47.7849C33.0939 47.9068 33.312 48.0278 33.5305 48.148C33.6936 48.2386 33.7067 48.3542 33.6835 48.6108C33.6684 48.7938 33.6181 49.2697 33.5989 49.4618C33.5768 49.676 33.4308 49.7597 33.0967 49.7597H27.8818C27.5849 49.7597 27.4007 49.7073 27.3755 49.4618C27.346 49.1662 27.3154 48.8708 27.284 48.5754C27.2588 48.347 27.3001 48.2303 27.45 48.1448C27.669 48.0216 27.8884 47.8992 28.1083 47.7776C28.365 47.6347 28.5743 47.2515 28.5743 46.6217L28.5734 40.9191C28.5724 40.1535 28.3469 39.7954 28.0993 39.6555C27.9522 39.573 27.7459 39.4545 27.6483 39.3991C27.4943 39.3116 27.4692 39.1635 27.4973 38.9694C27.5235 38.7884 27.5637 38.4825 27.5909 38.2904C27.6241 38.0468 27.8002 37.9937 28.0972 37.9937H32.0488C32.0948 37.9936 32.1403 38.0027 32.1827 38.0202C32.2252 38.0378 32.2637 38.0636 32.2962 38.0962C32.3286 38.1287 32.3543 38.1673 32.3718 38.2098C32.3893 38.2523 32.3982 38.2978 32.398 38.3437L32.3992 46.66ZM30.1807 33.2655C29.0243 33.2655 28.0881 34.1689 28.0881 35.2837C28.0881 36.3985 29.0243 37.302 30.1807 37.302C31.3352 37.302 32.2724 36.3985 32.2724 35.2837C32.2724 34.1689 31.3352 33.2655 30.1807 33.2655ZM45.9957 40.9241C45.9957 38.8304 45.0465 38.0316 43.9474 37.6805C42.6782 37.2769 41.1463 37.9409 40.3602 38.3042C40.1524 38.4001 39.9467 38.5004 39.7432 38.605C39.5399 38.1281 39.4321 37.9933 39.1312 37.9933H35.4141C35.1172 37.9933 34.941 38.0466 34.9078 38.29C34.8807 38.4821 34.8404 38.788 34.8142 38.969C34.786 39.1633 34.8102 39.3112 34.9652 39.3987C35.0618 39.4541 35.2692 39.5738 35.4151 39.6563C35.6636 39.795 35.8882 40.1533 35.8902 40.9189L35.8912 46.6213C35.8912 47.2513 35.6818 47.6345 35.4251 47.7774C35.2048 47.8985 34.9853 48.0212 34.7668 48.1456C34.6158 48.2302 34.5746 48.3468 34.6007 48.5762C34.6209 48.7583 34.6722 49.2695 34.6923 49.4616C34.7164 49.7071 34.9016 49.7593 35.1986 49.7593H40.4124C40.7466 49.7593 40.8926 49.6758 40.9147 49.4616C40.9338 49.2694 40.9842 48.7936 41.0002 48.6104C41.0223 48.3539 41.0103 48.2392 40.8462 48.1476C40.6272 48.0281 40.4092 47.9071 40.192 47.7845C39.8547 47.5933 39.7138 47.0963 39.7138 46.6446L39.7159 42.1122C39.7159 40.928 40.2937 40.2631 41.0868 40.1654C41.6141 40.099 42.2905 40.424 42.2905 41.3566V47.4624C42.2905 49.201 43.7691 49.868 44.9296 49.868C46.1587 49.868 47.2075 49.3036 47.6765 48.3217C47.8255 48.0107 47.6433 47.7743 47.4914 47.6063C47.3172 47.4141 47.1602 47.2432 46.8763 47.3882C46.5966 47.532 46.3026 47.8097 46.1334 47.7162C46.0076 47.6478 45.9955 47.5371 45.9955 47.2654V40.9241H45.9957ZM96.6218 40.9241C96.6218 38.8304 95.6726 38.0316 94.5735 37.6805C93.3043 37.2769 91.7723 37.9409 90.9862 38.3042C90.6672 38.4511 90.3692 38.605 90.3692 38.605C90.1669 38.1281 90.0582 37.9933 89.7573 37.9933H86.04C85.7432 37.9933 85.567 38.0466 85.5327 38.29C85.5066 38.4821 85.4663 38.788 85.4401 38.969C85.411 39.1633 85.4361 39.3112 85.5901 39.3987C85.6877 39.4541 85.8941 39.5738 86.042 39.6563C86.2897 39.795 86.5151 40.1533 86.5161 40.9189L86.5172 46.6213C86.5172 47.2513 86.3079 47.6345 86.0502 47.7774C85.8303 47.8987 85.6112 48.0214 85.393 48.1456C85.242 48.2302 85.2007 48.3468 85.2269 48.5762C85.2459 48.7583 85.2983 49.2695 85.3185 49.4616C85.3437 49.7071 85.5278 49.7593 85.8248 49.7593H91.0386C91.3738 49.7593 91.5187 49.6758 91.5409 49.4616C91.56 49.2694 91.6103 48.7936 91.6275 48.6104C91.6486 48.3539 91.6365 48.2392 91.4724 48.1476C91.2535 48.0281 91.0354 47.9071 90.8182 47.7845C90.48 47.5933 90.34 47.0963 90.34 46.6446L90.3421 42.1122C90.3421 40.928 90.9199 40.2631 91.713 40.1654C92.2405 40.099 92.9168 40.424 92.9168 41.3566V47.4624C92.9168 49.201 94.3953 49.868 95.5559 49.868C96.7849 49.868 97.8337 49.3036 98.3038 48.3217C98.4508 48.0107 98.2695 47.7743 98.1165 47.6063C97.9435 47.4141 97.7865 47.2432 97.5036 47.3882C97.2217 47.532 96.9279 47.8097 96.7598 47.7162C96.635 47.6478 96.6219 47.5371 96.6219 47.2654V40.9241H96.6218ZM97.4123 33.8597C97.4123 33.6596 97.2029 33.5891 97.0289 33.5891H96.6272V34.1595H97.0842C97.2794 34.1596 97.4123 34.0309 97.4123 33.8597ZM97.9648 35.0146C98.0051 35.2844 98.1259 35.4785 98.1923 35.6204C97.9155 35.6204 97.8118 35.6194 97.5742 35.6194C97.4564 35.3549 97.4304 35.1767 97.3709 34.9937C97.2903 34.727 97.1244 34.6484 96.8365 34.6484H96.6232V35.6193H96.0544V33.1353H97.2431C97.5199 33.1353 97.998 33.2993 97.998 33.8274C97.998 34.1595 97.8138 34.3888 97.6276 34.4593C97.833 34.5943 97.9236 34.7482 97.9648 35.0146ZM98.8425 34.4644C98.8425 33.4463 98.0222 32.6254 97.0087 32.6254C95.9879 32.6254 95.1606 33.4463 95.1606 34.4644C95.1606 35.4795 95.9879 36.3045 97.0087 36.3045C98.0223 36.3045 98.8425 35.4795 98.8425 34.4644ZM99.3127 34.4644C99.3127 35.737 98.2779 36.7684 97.0087 36.7684C95.7323 36.7684 94.6956 35.737 94.6956 34.4644C94.6956 33.1876 95.7323 32.1564 97.0087 32.1594C98.2779 32.1565 99.3127 33.1877 99.3127 34.4644Z" fill="#048743"/>
</svg>
