<svg width="133" height="50" viewBox="0 0 133 50" fill="none" xmlns="http://www.w3.org/2000/svg">
<path fill-rule="evenodd" clip-rule="evenodd" d="M68.3624 20.6954V8.99455C68.3624 8.243 68.9742 7.63048 69.7257 7.63048C70.4752 7.63048 71.0884 8.243 71.0884 8.99455V20.6961H79.2587C80.1836 20.694 81.07 20.3255 81.7237 19.6711C82.3774 19.0168 82.7451 18.13 82.7462 17.2051C82.7449 16.2802 82.3771 15.3936 81.7235 14.7393C81.0699 14.085 80.1836 13.7164 79.2587 13.7141H75.9731L75.978 10.1822C75.978 4.57419 71.4081 0 65.8057 0C60.2033 0 55.6334 4.57419 55.6334 10.1822V13.7148H52.4254C51.5007 13.7171 50.6145 14.0856 49.9609 14.7397C49.3072 15.3939 48.9394 16.2804 48.9379 17.2051C48.9392 18.13 49.307 19.0166 49.9606 19.6709C50.6143 20.3252 51.5005 20.6938 52.4254 20.6961H60.6754V8.99455V8.99384C60.6754 8.24301 61.2873 7.62977 62.0381 7.62977C62.7889 7.62977 63.4008 8.2423 63.4008 8.99384V20.6954H68.3624ZM132.022 30.5184V28.8819H131.886C131.406 28.8819 130.894 28.9835 130.355 29.1847C129.841 29.3719 129.362 29.6425 128.936 29.9856C128.456 30.3942 128.056 30.9164 127.745 31.5444C127.399 30.8331 126.981 30.2883 126.501 29.9087C126.076 29.5828 125.6 29.3302 125.092 29.1614C124.555 28.9772 124.04 28.8819 123.551 28.8819H123.439V30.5184H123.462C123.847 30.5184 124.253 30.6165 124.677 30.8091C125.097 31.0008 125.481 31.2644 125.811 31.5882C126.492 32.2642 126.835 33.0885 126.835 34.0517C126.835 34.9945 126.506 35.806 125.855 36.4821C125.529 36.8081 125.147 37.072 124.718 37.2675C124.289 37.463 123.871 37.561 123.474 37.561H123.438V39.1968H123.615C124.099 39.1968 124.605 39.0987 125.126 38.9068C125.63 38.7252 126.102 38.4628 126.521 38.1298C126.989 37.7382 127.398 37.187 127.744 36.4814C128.084 37.1934 128.518 37.765 129.036 38.1947C129.42 38.4982 129.859 38.743 130.344 38.9244C130.83 39.1051 131.3 39.1968 131.75 39.1968H132.021V37.561H131.919C131.149 37.561 130.448 37.2851 129.825 36.7368C129.453 36.398 129.157 35.9835 128.958 35.5209C128.749 35.0591 128.64 34.5581 128.638 34.051C128.638 33.5323 128.757 33.025 128.988 32.5359C129.208 32.0608 129.533 31.6416 129.938 31.3095C130.225 31.0815 130.566 30.8882 130.952 30.74C131.336 30.5918 131.689 30.5177 132.009 30.5177H132.022V30.5184ZM112.176 28.6596C113.645 28.6596 114.904 29.1995 115.946 30.2749C116.986 31.3306 117.507 32.5903 117.507 34.0524C117.507 35.5223 116.983 36.7855 115.938 37.8405C114.901 38.8842 113.627 39.4092 112.129 39.4092C110.625 39.4092 109.34 38.8814 108.279 37.8292C107.228 36.7742 106.701 35.5111 106.701 34.0411C106.701 33.3228 106.843 32.6234 107.122 31.9481C107.389 31.2925 107.792 30.7005 108.304 30.2107C109.378 29.179 110.67 28.6603 112.174 28.6603H112.176V28.6596ZM112.064 30.4528C111.138 30.4528 110.328 30.7908 109.647 31.4675C108.936 32.1668 108.581 33.0179 108.581 34.02C108.581 35.0277 108.936 35.8872 109.647 36.5928C110.328 37.2745 111.158 37.6154 112.129 37.6154C113.106 37.6154 113.933 37.2654 114.602 36.5689C115.277 35.8724 115.615 35.039 115.615 34.0757C115.615 33.08 115.271 32.229 114.591 31.524C113.909 30.812 113.065 30.4528 112.064 30.4528ZM82.1456 37.4495L82.1583 39.1982H81.3899C79.6694 39.2046 78.39 38.8037 77.5609 37.9979C76.9977 37.4347 76.6308 36.6938 76.4586 35.7806C76.3507 35.192 76.2992 34.5944 76.3048 33.996V24.0353H78.3188V33.5838C78.3039 35.0686 78.6293 36.1271 79.2961 36.7495C79.6871 37.1059 80.2227 37.3246 80.8987 37.4051C81.1358 37.4347 81.5296 37.4495 82.0687 37.4495H82.1456ZM65.0196 36.1052L66.2806 36.9125C66.062 37.2846 65.7955 37.6265 65.4882 37.9294C64.4854 38.9124 63.2286 39.4092 61.7241 39.4092C60.1455 39.4092 58.8188 38.8397 57.7525 37.7078C56.7815 36.6761 56.296 35.4518 56.296 34.0411C56.296 32.4696 56.8528 31.1535 57.9628 30.0978C58.9783 29.1409 60.2048 28.6603 61.6352 28.6603C63.1693 28.6603 64.4487 29.2143 65.4642 30.3208C65.7754 30.6532 66.1042 31.1274 66.4443 31.7378L60.8356 36.0332L59.4398 35.154L64.0846 31.3588C63.8063 31.0162 63.4472 30.7482 63.0395 30.5791C62.5931 30.3885 62.112 30.2927 61.6267 30.2975C60.691 30.2975 59.8971 30.6214 59.2457 31.2671C58.5408 31.9728 58.1886 32.8499 58.1886 33.888C58.1886 34.9402 58.5499 35.8533 59.2662 36.6183C59.9768 37.3889 60.8476 37.7749 61.8695 37.7749C62.5853 37.7738 63.2868 37.5737 63.8954 37.1969C64.3466 36.921 64.7306 36.5481 65.0196 36.1052ZM54.9284 37.5766V39.1961C53.9405 39.1763 53.1579 39.0437 52.5856 38.7988C51.5638 38.3542 50.767 37.6246 50.2046 36.6168C49.7683 35.8369 49.539 34.9581 49.5385 34.0644C49.5385 33.1372 49.7847 32.2508 50.2731 31.4139C50.827 30.457 51.5814 29.7598 52.5326 29.33C53.1727 29.0456 53.9736 28.8946 54.9284 28.8833V30.4958C53.9736 30.5741 53.2023 30.8691 52.6216 31.3786C51.8277 32.0695 51.4304 32.9734 51.4304 34.0849C51.4304 35.2295 51.851 36.1335 52.6865 36.7947C53.2659 37.2477 54.0146 37.5088 54.9284 37.5766ZM99.8334 37.59V39.2095C98.8455 39.1897 98.0622 39.0571 97.4913 38.8122C96.4695 38.3676 95.6727 37.638 95.1096 36.6303C94.6736 35.8502 94.4443 34.9715 94.4435 34.0778C94.4435 33.1499 94.6897 32.2635 95.1781 31.4273C95.732 30.4704 96.4871 29.7732 97.4376 29.3434C98.0777 29.059 98.8793 28.908 99.8341 28.896V30.5092C98.8786 30.5882 98.108 30.8825 97.5266 31.392C96.7327 32.0829 96.3361 32.9868 96.3361 34.0983C96.3361 35.2429 96.7567 36.1469 97.5915 36.8081C98.1701 37.2618 98.9189 37.5222 99.8334 37.59ZM47.8032 39.1982H45.9875V28.8819H47.8032V39.1982ZM46.8795 25.6245C47.226 25.6245 47.5308 25.7551 47.7884 26.0162C48.0495 26.2674 48.1793 26.5821 48.1793 26.9498C48.1793 27.3203 48.0488 27.635 47.7884 27.8862C47.5308 28.1445 47.2168 28.275 46.8562 28.275C46.5005 28.275 46.1865 28.1445 45.9198 27.8862C45.7939 27.7654 45.6945 27.6198 45.6278 27.4587C45.5611 27.2975 45.5286 27.1242 45.5323 26.9498C45.5323 26.5821 45.6629 26.2674 45.9198 26.0162C46.0446 25.8899 46.1936 25.7902 46.3579 25.7229C46.5222 25.6556 46.6984 25.6221 46.8759 25.6245H46.8795ZM120.876 39.2095H119.06V28.8932H120.876V39.2095ZM119.952 25.6344C120.298 25.6344 120.603 25.765 120.86 26.0261C121.121 26.278 121.252 26.5927 121.252 26.9597C121.252 27.3301 121.121 27.6449 120.86 27.8961C120.603 28.1537 120.289 28.2849 119.928 28.2849C119.573 28.2849 119.259 28.1537 118.993 27.8961C118.867 27.7754 118.767 27.6298 118.7 27.4686C118.633 27.3074 118.601 27.1341 118.604 26.9597C118.604 26.592 118.735 26.278 118.993 26.0261C119.117 25.8998 119.266 25.8 119.431 25.7327C119.595 25.6654 119.771 25.632 119.949 25.6344H119.952ZM35.7164 28.8819H37.5321V34.7546C37.5321 36.1363 37.1468 37.2364 36.3833 38.0515C35.5393 38.9555 34.4342 39.4092 33.0779 39.4092C32.2577 39.4146 31.4496 39.2116 30.7294 38.8193C29.3138 38.0487 28.606 36.6938 28.606 34.7546V28.8819H30.4217V34.31C30.4217 35.3184 30.6136 36.0834 30.9989 36.5928C31.5084 37.2745 32.1986 37.6154 33.0574 37.6154C33.6198 37.6154 34.1321 37.4524 34.5915 37.1263C35.0491 36.7971 35.3821 36.3228 35.5364 35.7806C35.655 35.3805 35.7171 34.8407 35.7171 34.1646V28.8819H35.7164ZM44.042 30.6101C41.7542 30.5939 41.5911 32.1323 41.5911 33.9317V39.2144H39.7754V33.3418C39.7754 31.9608 40.1614 30.8613 40.9243 30.0456C41.7302 29.184 42.7167 28.925 44.0413 28.8848V30.6101H44.042ZM105.731 30.6045C103.444 30.5883 103.28 32.1266 103.28 33.9261V39.2088H101.464V33.3362C101.464 31.9544 101.85 30.8557 102.614 30.0392C103.42 29.1783 104.406 28.9193 105.731 28.8791V30.6045ZM23.7481 36.8074L23.7792 38.6746C23.6204 38.7819 23.4729 38.8722 23.3367 38.9435C22.7446 39.2518 22.0658 39.4085 21.3107 39.4085C19.8006 39.4085 18.5325 38.863 17.517 37.7727C16.546 36.7347 16.0598 35.4955 16.0598 34.0637C16.0598 32.5931 16.5728 31.3363 17.5939 30.2989C18.6687 29.2079 19.9657 28.6596 21.4794 28.6596C22.48 28.6596 23.4165 28.92 24.2837 29.4422C25.1722 29.9757 25.8539 30.7435 26.3217 31.7456C26.671 32.5042 26.8453 33.3609 26.8453 34.31V39.1982H25.0303V34.6776C25.0303 33.4244 24.7255 32.4223 24.1151 31.6806C23.4574 30.8628 22.5696 30.4535 21.4554 30.4535C20.4928 30.4535 19.6728 30.8035 18.9975 31.5028C18.3017 32.2205 17.9524 33.0743 17.9524 34.0524C17.9524 35.0248 18.2904 35.8604 18.9629 36.5604C19.6439 37.2632 20.4823 37.6161 21.4681 37.6161C22.1216 37.6164 22.7631 37.4401 23.3247 37.1059C23.4468 37.0318 23.5879 36.9323 23.7481 36.8074ZM89.8403 36.6077L89.8721 38.4749C89.7294 38.5724 89.5815 38.6619 89.4289 38.743C88.8369 39.0521 88.158 39.2088 87.4036 39.2088C85.8928 39.2088 84.6254 38.6633 83.6099 37.5723C82.6382 36.535 82.1534 35.2958 82.1534 33.864C82.1534 32.3934 82.6657 31.1366 83.6868 30.0985C84.7623 29.0082 86.0593 28.4599 87.573 28.4599C88.5736 28.4599 89.5094 28.7203 90.3773 29.2418C91.2665 29.776 91.9475 30.5438 92.4153 31.5459C92.7646 32.3045 92.939 33.1611 92.939 34.1103V38.9985H91.124V34.4779C91.124 33.2239 90.8191 32.2219 90.2087 31.4809C89.551 30.6631 88.6633 30.2538 87.549 30.2538C86.5872 30.2538 85.7665 30.6038 85.0911 31.3031C84.3953 32.0208 84.0467 32.8746 84.0467 33.852C84.0467 34.8251 84.384 35.6599 85.0566 36.3607C85.7375 37.0628 86.5752 37.4157 87.5617 37.4157C88.2154 37.4163 88.8572 37.2403 89.419 36.9062C89.539 36.8321 89.6801 36.7326 89.8403 36.6077ZM14.3901 39.1982H12.5744V28.6321C12.5744 27.8375 12.3945 27.2356 12.0388 26.827C11.6041 26.3281 11.0318 26.079 10.3269 26.079C9.57179 26.079 8.9755 26.3888 8.53515 27.0048C8.33294 27.286 8.19995 27.611 8.14703 27.9533C8.11457 28.1607 8.10257 28.5079 8.10257 28.9878V39.1982H6.28687V28.7987C6.28687 27.954 6.1168 27.3146 5.77455 26.8954C5.33209 26.3521 4.7492 26.0804 4.03929 26.0804C3.23976 26.0804 2.61735 26.393 2.19112 27.0175C2.00743 27.2912 1.88979 27.6038 1.84746 27.9307C1.82417 28.093 1.815 28.4141 1.815 28.8876V39.1982H0V28.6088C0 27.7486 0.0853867 27.0944 0.254043 26.6492C0.556073 25.8553 1.06698 25.2477 1.77972 24.8356C2.41482 24.4679 3.12756 24.2873 3.90592 24.2873C5.38078 24.2873 6.48234 24.9273 7.2113 26.2053C7.58743 25.5532 8.04047 25.067 8.56761 24.7551C9.09475 24.4446 9.72563 24.2873 10.4602 24.2873C11.193 24.2854 11.9136 24.4744 12.5512 24.8356C13.7748 25.5208 14.3901 26.7183 14.3901 28.4317V39.1982ZM89.496 49.8229V44.4611L90.4761 44.2875C92.2121 43.9799 93.6305 45.4032 93.5261 47.1251C93.4929 47.6684 93.3864 48.1504 93.109 48.5703C92.7792 49.0853 92.2843 49.4732 91.7054 49.6705C91.4041 49.7714 91.0132 49.8229 90.5319 49.8229H89.496ZM90.0062 49.3395H90.4959C90.781 49.3395 90.992 49.331 91.1282 49.3148C91.2644 49.2986 91.4041 49.2647 91.5445 49.2139C92.035 49.0346 92.4055 48.7375 92.6468 48.3261C92.867 47.9535 92.9785 47.564 92.9771 47.1639C92.9686 45.1125 91.5332 44.4294 90.0062 44.9438V49.3395ZM88.4988 44.4717V49.9443L85.252 45.7067V49.8342H84.7651V44.3659L88.0465 48.655V44.4717H88.4988ZM79.951 49.8229H79.4147L81.941 44.3934L84.4271 49.8229H83.8915L82.9572 47.7715H80.9051L79.951 49.8229ZM82.7405 47.2881L81.9332 45.4851L81.1125 47.2881H82.7405ZM77.0994 44.464V49.36H79.2093L79.2121 49.8426H76.5884V44.464H77.0994ZM71.2761 44.9445H68.9841V46.8731H70.5719V47.3565H68.9841V49.3395H71.2274V49.8229H68.4732V44.4611H71.2761V44.9445ZM68.0526 44.4611L65.4176 49.3395H68.121L68.1006 49.8229H64.4656L67.0929 44.941H64.8559L64.9702 44.4611H68.0526ZM63.0874 49.825H62.5772V44.953H61.0636L61.1962 44.4703H64.4064V44.953H63.0874V49.825ZM59.871 44.4668L57.5055 50L56.3863 47.4546L55.2989 50L52.9179 44.4767L53.498 44.4689L55.2989 48.7552L56.1196 46.8654L55.0914 44.4767L55.6249 44.4675L57.5055 48.7552L59.3149 44.4668H59.871ZM52.2292 44.5698L52.2207 45.188C52.0302 44.9904 51.8587 44.8902 51.6019 44.8902C51.3132 44.8902 51.0797 44.9925 50.8997 45.1894C50.7395 45.3658 50.6591 45.586 50.6591 45.8499C50.6591 46.0856 50.7113 46.291 50.8447 46.4272C51.1319 46.72 51.3831 46.768 51.7218 46.9176C51.9519 47.0199 52.1516 47.0841 52.2977 47.1907C52.4444 47.2966 52.5651 47.4342 52.6611 47.5972C52.8086 47.8484 52.8947 48.1236 52.8834 48.4186C52.829 49.8229 51.261 50.2929 50.0924 49.8222L50.1206 49.1468C50.4629 49.6084 52.3012 49.5293 52.3167 48.3932C52.3202 48.1215 52.2327 47.962 52.0676 47.7708C51.9582 47.6437 51.7543 47.5626 51.4805 47.4447L51.1615 47.3071C50.8306 47.1639 50.5638 47.039 50.393 46.8357C50.1771 46.5796 50.0677 46.2606 50.0677 45.881C50.0677 45.6093 50.1284 45.3524 50.2554 45.1153C50.386 44.8704 50.5666 44.6813 50.7924 44.5494C50.9971 44.4301 51.2286 44.3715 51.4812 44.3715C51.731 44.3715 51.9575 44.4237 52.1558 44.5275L52.2292 44.5698ZM48.1116 44.905H46.0313V46.8336H47.6515V47.317H46.0313V49.729L45.5211 49.8384V44.4216H48.0001L48.1116 44.905ZM41.7986 44.8062C41.2439 44.8062 40.7528 44.9975 40.3266 45.3799C40.1031 45.5791 39.9217 45.8209 39.7931 46.0913C39.6384 46.4094 39.558 46.7586 39.5581 47.1124C39.5581 47.7221 39.7712 48.2499 40.1967 48.6959C40.6491 49.1638 41.196 49.3981 41.8374 49.3981C42.2742 49.3981 42.6786 49.2795 43.0505 49.0445C43.4238 48.8095 43.7075 48.4715 43.898 48.0347C44.0391 47.7108 44.1097 47.3989 44.1097 47.1004C44.1097 46.6953 44.0074 46.3072 43.8027 45.941C43.6066 45.586 43.3123 45.3044 42.9206 45.097C42.5758 44.9104 42.1907 44.8106 41.7986 44.8062ZM41.8184 44.2883C42.3822 44.2883 42.9037 44.44 43.3793 44.7406C43.8187 45.0129 44.1693 45.4072 44.3884 45.8753C44.5691 46.2514 44.6594 46.6664 44.6594 47.1173C44.6594 47.8392 44.3969 48.4786 43.874 49.0297C43.3095 49.6218 42.6242 49.9174 41.8212 49.9174C41.0111 49.9174 40.3252 49.6218 39.7656 49.0297C39.2617 48.4906 39.0084 47.8562 39.0084 47.1293C39.0084 46.4744 39.2052 45.8873 39.6004 45.3694C39.887 44.996 40.2656 44.7035 40.6992 44.5204C41.0528 44.3683 41.4335 44.2894 41.8184 44.2883ZM60.1427 44.4668H60.6564V49.8229H60.1427V44.4668ZM73.2414 44.3588C74.1715 44.3567 74.9308 45.1245 74.9308 46.063C74.9308 46.6205 74.8024 46.9973 74.3903 47.3093C75.3189 47.7658 75.8701 48.6825 75.8701 49.7968L75.2413 49.7911C75.2399 48.5463 74.1616 47.5054 73.173 47.3304C73.7855 47.221 74.3888 46.7786 74.4023 46.0905C74.4171 45.4018 73.8624 44.8408 73.2012 44.8408C72.9888 44.8408 72.7898 44.898 72.6127 44.9996V49.8257H72.0284V44.7102C72.3452 44.4858 72.7446 44.3602 73.2414 44.3588Z" fill="#CC2229"/>
</svg>
