<svg width="170" height="50" viewBox="0 0 170 50" fill="none" xmlns="http://www.w3.org/2000/svg">
<path d="M23.0818 25L20.5999 26.4331L15.3857 31.6832C13.4817 33.6267 12.3031 36.2795 12.3047 39.2165C12.3047 40.4288 12.5019 41.5952 12.8708 42.6832C14.3127 46.9371 18.3409 50 23.0818 50C27.8211 50 31.8344 46.9381 33.2763 42.6832C33.6588 41.5673 33.8558 40.3962 33.8594 39.2165C33.8594 36.2795 32.6814 33.6267 30.7774 31.6832L25.5642 26.4331L23.0818 25Z" fill="#692219"/>
<path d="M35.7428 21.3333C34.7215 21.2998 33.7006 21.412 32.7109 21.6666L25.5649 23.5664L23.083 25V27.8666L25.0153 35C25.7461 37.6245 27.4545 39.9834 29.9961 41.4501C31.015 42.0382 32.1236 42.4548 33.2775 42.6832C33.9737 42.8224 34.6773 42.8832 35.3761 42.8832C39.0989 42.8832 42.7268 40.9584 44.7215 37.4997C47.0908 33.393 46.4501 28.377 43.4885 25C42.7119 24.1115 41.7946 23.3569 40.7732 22.7664C39.2404 21.8804 37.5122 21.3881 35.7428 21.3333Z" fill="#319A8D"/>
<path d="M10.7728 7.11674C7.04952 7.11674 3.43973 9.04155 1.44455 12.5002C-0.925908 16.6058 -0.284654 21.6234 2.67748 25C3.45463 25.8875 4.37167 26.6418 5.39228 27.233C7.93384 28.7024 10.8197 29.0101 13.4546 28.3333L20.6011 26.433L23.083 25V22.1333L21.1507 14.9999C20.6164 13.0783 19.5597 11.3426 18.0981 9.98613C16.6364 8.62965 14.8273 7.70558 12.872 7.31674C12.1805 7.18168 11.4774 7.1147 10.7728 7.11674Z" fill="#8D198F"/>
<path d="M10.4066 21.3333C8.64236 21.3881 6.91932 21.8806 5.39228 22.7664C4.3712 23.3572 3.45405 24.1117 2.67748 25C-0.284654 28.3765 -0.925908 33.3925 1.44455 37.4997C3.44027 40.9573 7.04952 42.8832 10.7728 42.8832C11.4774 42.8856 12.1805 42.8186 12.872 42.6832C14.8274 42.2945 16.6366 41.3705 18.0982 40.014C19.5598 38.6575 20.6165 36.9217 21.1507 35L23.083 27.8667V25L20.6011 23.5664L13.4546 21.6667C12.4595 21.4119 11.4333 21.2997 10.4066 21.3333Z" fill="#B7B705"/>
<path d="M35.3761 7.11676C34.6717 7.11445 33.9688 7.18143 33.2775 7.31676C32.1235 7.5451 31.015 7.96167 29.9961 8.54982C27.4534 10.0181 25.7461 12.3792 25.0153 15L23.083 22.1333V25L25.5649 26.433L32.7109 28.3333C35.3457 29.0106 38.2322 28.7008 40.7732 27.233C41.7943 26.6423 42.7116 25.8879 43.4885 25C46.4501 21.6224 47.0924 16.6074 44.7214 12.4997C42.7268 9.04369 39.0994 7.11676 35.3761 7.11676Z" fill="#AA1726"/>
<path d="M23.0831 6.26556e-07C18.3427 -0.00159937 14.3145 3.06133 12.8721 7.3168C12.4951 8.43361 12.3037 9.6047 12.3054 10.7835C12.3054 13.7195 13.484 16.3717 15.387 18.3168L20.6012 23.5664L23.0831 25L25.5649 23.5664L30.7787 18.3168C32.6827 16.3728 33.8607 13.7179 33.8607 10.7835C33.8607 9.57067 33.6464 8.40374 33.2776 7.3168C31.8352 3.06133 27.8219 -0.00106604 23.0831 6.26556e-07Z" fill="#D33D1F"/>
<path d="M21.1492 35.0064L23.0794 27.8704V25.0011L20.5948 26.4358L15.3838 31.6774C13.4066 33.6889 12.3007 36.3985 12.3054 39.2198C12.3054 40.4315 12.5085 41.5958 12.8769 42.6838C14.0315 42.4545 15.1406 42.0368 16.1599 41.4475C18.6036 40.039 20.3956 37.7255 21.1492 35.0064Z" fill="#3B1A14"/>
<path d="M5.38561 27.2272C7.92717 28.6965 10.8189 29.0069 13.4543 28.3306L20.595 26.4357L23.0811 25.0005L20.595 23.5642L13.4543 21.6709C10.7245 20.963 7.82587 21.3585 5.38508 22.7717C4.36467 23.3606 3.44803 24.1134 2.67188 25C3.44863 25.8855 4.36518 26.6377 5.38508 27.2266" fill="#88B832"/>
<path d="M16.1613 8.55369C15.1415 7.96426 14.0318 7.54643 12.8766 7.31689C12.4979 8.43285 12.3047 9.60342 12.3047 10.782C12.3024 13.6026 13.4084 16.3112 15.3841 18.3233L20.5951 23.5644L23.0813 25.0012V22.1292L21.15 14.9937C20.3966 12.275 18.6047 9.96182 16.1613 8.55369Z" fill="#C20E66"/>
<path d="M30.7748 18.3233C32.7506 16.3112 33.8564 13.6026 33.8536 10.7819C33.8539 9.60349 33.6604 8.43303 33.2812 7.31738C32.1264 7.54681 31.0171 7.96446 29.9976 8.55365C27.5547 9.96144 25.7632 12.274 25.0099 14.9921L23.0781 22.1286L23.0792 25.0001L25.5632 23.5643L30.7748 18.3233Z" fill="#CC3231"/>
<path d="M25.0122 35.0063C25.7648 37.7252 27.5572 40.0382 30.0015 41.4447C31.021 42.0342 32.1302 42.4522 33.285 42.682C33.6638 41.567 33.857 40.3973 33.857 39.2196C33.8603 36.3985 32.7542 33.6892 30.7776 31.6772L25.566 26.4356L23.082 25.001V27.8703L25.0122 35.0063Z" fill="#2E6E78"/>
<path d="M32.7088 28.3305C35.4386 29.0361 38.3363 28.6395 40.7765 27.2265C41.7964 26.6378 42.7126 25.8854 43.4886 24.9993C42.7131 24.1131 41.797 23.3608 40.777 22.7727C38.3367 21.3594 35.4387 20.9633 32.7088 21.6697L25.566 23.5641L23.082 25.0004L25.566 26.4351L32.7088 28.3305Z" fill="#820729"/>
<path d="M160.219 18.5285C155.619 18.5285 153.212 22.2432 153.212 25.9125C153.212 29.5813 155.619 33.2955 160.219 33.2955C164.82 33.2955 167.226 29.5813 167.226 25.9125C167.226 22.2432 164.82 18.5285 160.219 18.5285ZM160.219 35.416C154.849 35.416 150.798 31.3312 150.798 25.9125C150.798 20.4955 154.849 16.4101 160.219 16.4101C165.593 16.4101 169.644 20.4955 169.644 25.9125C169.644 31.3312 165.593 35.416 160.219 35.416ZM61.1957 34.9685H59.8674C59.6147 34.969 59.3722 34.8691 59.193 34.6908C59.0138 34.5125 58.9126 34.2704 58.9116 34.0176V18.3456L53.2933 18.3451C53.0403 18.3459 52.7973 18.2462 52.6177 18.0679C52.4381 17.8896 52.3366 17.6473 52.3354 17.3941V16.2256H66.8465C67.3737 16.2256 67.8028 16.6523 67.8028 17.176V18.3456H61.1957V34.9707V34.9685ZM95.7728 35.416C93.341 35.416 91.3768 34.5013 90.0921 32.7696L89.9701 32.6037L90.1161 32.4587L91.0218 31.56L91.0319 31.5493L91.0436 31.5413C91.2153 31.4092 91.4262 31.3383 91.6428 31.3397C91.9279 31.3397 92.1923 31.464 92.3682 31.6821C93.211 32.7157 94.4807 33.3093 95.8496 33.3093C97.5542 33.3093 99.3943 32.1563 99.3943 30.2923C99.3943 28.1323 97.5809 27.5483 95.4807 26.8715C94.8362 26.664 94.1705 26.4496 93.5452 26.1803C92.0926 25.5536 90.3602 24.2597 90.3602 21.6528C90.3602 18.0309 93.3416 16.4096 96.2973 16.4096C98.5121 16.4096 100.12 17.1056 101.358 18.6011L101.501 18.7744L101.336 18.9275L100.502 19.6955L100.495 19.7008L100.489 19.7061C100.278 19.8741 100.055 19.9605 99.8255 19.9605C99.4817 19.9605 99.2307 19.7675 99.1118 19.6528C98.2904 18.8571 97.3917 18.4859 96.2834 18.4859C94.5377 18.4859 92.7749 19.4117 92.7749 21.4779C92.7749 23.0565 93.6214 23.672 95.2893 24.3173C95.7227 24.4864 96.1774 24.6363 96.6587 24.7957C97.115 24.9461 97.5862 25.1013 98.0446 25.2763C99.6491 25.8923 101.782 27.0597 101.782 30.0736C101.782 33.544 98.687 35.416 95.7733 35.416H95.7728ZM111.11 35.4165C109.413 35.4165 107.049 34.9573 105.428 32.7691L105.304 32.6037L105.451 32.4587L106.358 31.56L106.368 31.5504L106.379 31.5419C106.546 31.4112 106.758 31.3392 106.977 31.3392C107.117 31.3378 107.255 31.368 107.381 31.4276C107.507 31.4872 107.618 31.5746 107.705 31.6832C108.547 32.7157 109.816 33.3093 111.186 33.3093C112.89 33.3093 114.732 32.1557 114.732 30.2923C114.732 28.1323 112.918 27.5477 110.817 26.872C110.172 26.664 109.506 26.4496 108.88 26.1797C107.427 25.5525 105.694 24.2571 105.694 21.6533C105.694 18.0309 108.677 16.4091 111.633 16.4091C113.848 16.4091 115.457 17.1056 116.696 18.6005L116.841 18.7744L116.675 18.9269L115.84 19.696L115.833 19.7013L115.827 19.7067C115.615 19.8747 115.392 19.96 115.163 19.96C114.821 19.96 114.57 19.768 114.45 19.6533C113.627 18.8565 112.728 18.4853 111.619 18.4853C109.873 18.4853 108.111 19.4112 108.111 21.4784C108.111 23.0565 108.958 23.6725 110.623 24.3173C111.055 24.4853 111.508 24.6352 111.988 24.7931C112.446 24.9445 112.92 25.1003 113.379 25.2763C114.985 25.8912 117.121 27.0576 117.121 30.0736C117.121 33.544 114.023 35.4165 111.11 35.4165ZM86.6055 34.9685H85.2803C84.7521 34.9685 84.3219 34.5419 84.3219 34.0176L84.3256 25.3899C84.3256 23.5525 83.638 21.8795 82.3907 20.6789C81.0101 19.352 79.2084 18.6219 77.315 18.6219C73.4664 18.6219 70.3279 21.8005 70.3199 25.7067C70.3327 29.6389 73.3183 32.7248 77.1183 32.7312H81.4632C81.992 32.7312 82.4227 33.1579 82.4227 33.6832L82.4211 34.7253V34.9632H82.1833L77.1109 34.9685C74.6445 34.9685 72.3486 34.0005 70.645 32.2432C68.9638 30.5152 68.0384 28.1952 68.0384 25.7115C68.0395 20.5899 72.2271 16.4261 77.3737 16.4261C82.6391 16.4341 86.6081 20.2512 86.6081 25.3061L86.6055 34.7339V34.9723V34.9685ZM123.836 34.9685H122.496C121.968 34.9685 121.54 34.5413 121.54 34.016V16.8576H122.88C123.406 16.8576 123.836 17.2843 123.836 17.8096V34.7307V34.9685ZM138.267 34.9744C137.901 34.9744 137.548 34.7531 137.368 34.4112L137.363 34.4016L137.359 34.3931L131.603 20.6619L131.601 34.7301V34.9685H130.346C130.093 34.9691 129.85 34.8693 129.671 34.691C129.492 34.5127 129.39 34.2705 129.389 34.0176V16.8576H131.607C132.005 16.8576 132.512 17.0432 132.744 17.5632L138.332 30.9072L144.038 17.0064L144.099 16.8592H146.271C146.8 16.8592 147.229 17.2859 147.229 17.8096V34.9685H146.992L145.86 34.9632C145.608 34.9639 145.365 34.8644 145.186 34.6864C145.007 34.5084 144.905 34.2666 144.904 34.0139V20.6517L139.131 34.3909C139.061 34.5626 138.941 34.7095 138.787 34.813C138.634 34.9165 138.452 34.972 138.267 34.9723" fill="#231F20"/>
</svg>
