<svg width="265" height="200" viewBox="0 0 265 200" fill="none" xmlns="http://www.w3.org/2000/svg">
<path d="M166.149 177.08H108.014L110.552 168.814L112.996 160.84H161.167L162.068 163.779L166.149 177.08Z" fill="white"/>
<path d="M166.148 177.412H107.987C107.936 177.413 107.885 177.402 107.839 177.378C107.792 177.355 107.753 177.321 107.722 177.279C107.691 177.237 107.67 177.188 107.661 177.136C107.652 177.084 107.655 177.031 107.669 176.981L112.651 160.741C112.673 160.673 112.715 160.614 112.772 160.572C112.83 160.53 112.899 160.508 112.969 160.509H161.14C161.211 160.508 161.28 160.53 161.337 160.572C161.394 160.614 161.437 160.673 161.458 160.741L166.466 176.954C166.481 177.005 166.484 177.058 166.475 177.11C166.466 177.162 166.445 177.211 166.413 177.253C166.386 177.3 166.348 177.339 166.301 177.367C166.255 177.395 166.202 177.41 166.148 177.412ZM108.464 176.749H165.698L160.921 161.172H113.221L108.464 176.749Z" fill="#231F20"/>
<path d="M162.068 163.779L110.552 168.814L112.996 160.84H161.167L162.068 163.779Z" fill="#231F20"/>
<path d="M110.551 169.106C110.508 169.106 110.466 169.097 110.427 169.078C110.388 169.06 110.353 169.033 110.326 169C110.296 168.962 110.276 168.918 110.267 168.87C110.258 168.823 110.26 168.774 110.273 168.728L112.718 160.767C112.737 160.708 112.774 160.657 112.824 160.62C112.874 160.583 112.934 160.563 112.996 160.562H161.166C161.228 160.563 161.288 160.583 161.338 160.62C161.388 160.657 161.425 160.708 161.444 160.767L162.345 163.706C162.358 163.747 162.362 163.79 162.356 163.833C162.35 163.875 162.335 163.916 162.312 163.952C162.287 163.988 162.255 164.019 162.217 164.041C162.18 164.064 162.137 164.079 162.094 164.084L110.578 169.12L110.551 169.106ZM113.201 161.145L110.949 168.496L161.67 163.534L160.934 161.145H113.201Z" fill="#231F20"/>
<path d="M99.8123 176.291H174.344C174.962 176.291 175.555 176.537 175.993 176.975C176.43 177.413 176.676 178.007 176.676 178.626V179.608H97.4803V178.666C97.475 178.356 97.5315 178.048 97.6463 177.76C97.7611 177.472 97.9321 177.21 98.1491 176.989C98.3662 176.768 98.6251 176.592 98.9106 176.472C99.1962 176.352 99.5027 176.291 99.8123 176.291Z" fill="white"/>
<path d="M176.675 179.92H97.4802C97.3923 179.92 97.3081 179.885 97.246 179.823C97.1838 179.76 97.1489 179.676 97.1489 179.588V178.653C97.1489 177.949 97.4281 177.274 97.9251 176.776C98.4221 176.279 99.0961 175.999 99.7989 175.999H174.343C175.046 175.999 175.72 176.279 176.217 176.776C176.714 177.274 176.993 177.949 176.993 178.653V179.608C176.989 179.69 176.953 179.768 176.895 179.825C176.836 179.883 176.758 179.917 176.675 179.92ZM97.8379 179.256H176.344V178.653C176.344 178.125 176.135 177.619 175.762 177.245C175.389 176.872 174.884 176.662 174.357 176.662H99.8188C99.2917 176.662 98.7862 176.872 98.4134 177.245C98.0407 177.619 97.8313 178.125 97.8313 178.653L97.8379 179.256Z" fill="#231F20"/>
<path d="M212.325 54.3582H61.8379C59.5767 54.3582 57.7437 56.1937 57.7437 58.458V157.344C57.7437 159.608 59.5767 161.444 61.8379 161.444H212.325C214.586 161.444 216.419 159.608 216.419 157.344V58.458C216.419 56.1937 214.586 54.3582 212.325 54.3582Z" fill="white"/>
<path d="M212.325 161.769H61.8312C60.6593 161.769 59.5353 161.303 58.7066 160.473C57.8779 159.643 57.4124 158.518 57.4124 157.344V58.4513C57.4124 57.8702 57.5266 57.2949 57.7487 56.758C57.9708 56.2212 58.2963 55.7334 58.7066 55.3225C59.1169 54.9116 59.6041 54.5857 60.1402 54.3633C60.6763 54.1409 61.2509 54.0265 61.8312 54.0265H212.325C213.497 54.0265 214.622 54.4924 215.452 55.3221C216.281 56.1517 216.748 57.2772 216.75 58.4513V157.344C216.748 158.518 216.281 159.644 215.452 160.473C214.622 161.303 213.497 161.769 212.325 161.769ZM61.8312 54.6899C60.835 54.6899 59.8795 55.0862 59.1751 55.7916C58.4706 56.497 58.0749 57.4537 58.0749 58.4513V157.344C58.0749 158.342 58.4706 159.299 59.1751 160.004C59.8795 160.709 60.835 161.106 61.8312 161.106H212.325C213.322 161.106 214.278 160.71 214.983 160.004C215.689 159.299 216.086 158.342 216.088 157.344V58.4513C216.086 57.4531 215.689 56.4964 214.983 55.7912C214.278 55.0859 213.322 54.6899 212.325 54.6899H61.8312Z" fill="#231F20"/>
<path d="M210.397 60.9391H63.7588V154.856H210.397V60.9391Z" fill="white"/>
<path d="M210.397 155.188H63.7592C63.6714 155.188 63.5871 155.153 63.525 155.091C63.4629 155.029 63.428 154.944 63.428 154.856V60.9391C63.428 60.8511 63.4629 60.7667 63.525 60.7045C63.5871 60.6423 63.6714 60.6074 63.7592 60.6074H210.397C210.485 60.6074 210.569 60.6423 210.631 60.7045C210.693 60.7667 210.728 60.8511 210.728 60.9391V154.856C210.728 154.944 210.693 155.029 210.631 155.091C210.569 155.153 210.485 155.188 210.397 155.188ZM64.0905 154.525H210.066V61.2708H64.0905V154.525Z" fill="#231F20"/>
<path d="M105.079 70.3527C105.079 70.3527 86.403 80.5359 84.6606 108.564L108.246 113.208L114.48 91.3758L105.079 70.3527Z" fill="#5094D1"/>
<path d="M110.287 54.6302C106.239 50.1523 102.284 45.1967 101.131 39.2659C100.769 37.912 100.86 36.4767 101.389 35.1793C102.005 33.9322 103.542 33.0631 104.828 33.6005C104.245 32.0282 105.192 30.2835 106.292 29.0495C108.982 25.9835 112.706 24.0184 116.753 23.5301C116.132 23.1286 115.624 22.5763 115.275 21.9246C115.11 21.594 115.073 21.2141 115.171 20.8578C115.269 20.5015 115.495 20.194 115.805 19.9941C116.136 19.8647 116.496 19.8302 116.845 19.8946C118.163 20.0607 119.403 20.607 120.416 21.4669C119.548 21.0888 119.502 19.7155 120.211 19.0919C120.59 18.8111 121.044 18.6488 121.516 18.6252C121.987 18.6016 122.455 18.7178 122.861 18.9592C123.67 19.4529 124.369 20.1077 124.915 20.8831C124.834 20.6958 124.801 20.4914 124.818 20.2882C124.835 20.0849 124.902 19.889 125.012 19.7178C125.123 19.5466 125.274 19.4053 125.452 19.3066C125.631 19.2078 125.831 19.1546 126.034 19.1516C126.37 19.195 126.69 19.3178 126.968 19.5099C130.798 21.7986 133.163 26.1439 133.494 30.6218C133.721 35.1251 132.361 39.5652 129.651 43.1667C126.941 46.737 123.469 49.6562 119.489 51.7112C116.335 53.4228 112.373 54.7032 109.26 52.9054" fill="white"/>
<path d="M110.286 54.9619C110.24 54.9626 110.194 54.9535 110.152 54.9352C110.11 54.9169 110.072 54.8898 110.041 54.8557C105.927 50.2982 101.965 45.2696 100.806 39.3322C100.435 37.9038 100.535 36.3936 101.091 35.0268C101.383 34.418 101.851 33.9115 102.435 33.5731C103.019 33.2347 103.691 33.0801 104.363 33.1294C104.079 31.4112 105.258 29.7328 106.04 28.8306C108.608 25.9074 112.103 23.9585 115.937 23.3111C115.519 22.9721 115.182 22.5437 114.95 22.0573C114.748 21.6516 114.703 21.1849 114.826 20.7483C114.948 20.3117 115.229 19.9364 115.613 19.6956C115.999 19.5377 116.422 19.494 116.832 19.5696C117.708 19.6776 118.558 19.9475 119.336 20.3656C119.319 20.0837 119.365 19.8015 119.469 19.539C119.573 19.2765 119.733 19.0401 119.939 18.8465C120.37 18.5185 120.888 18.3259 121.428 18.2928C121.968 18.2597 122.506 18.3878 122.973 18.6607C123.57 18.9852 124.104 19.4144 124.55 19.9278C124.597 19.7907 124.659 19.6594 124.735 19.5364C124.873 19.3104 125.069 19.1251 125.301 18.9992C125.534 18.8734 125.796 18.8115 126.06 18.8199C126.447 18.8674 126.817 19.0061 127.14 19.2246C130.91 21.4801 133.474 25.8586 133.825 30.5952C134.065 35.1782 132.681 39.6989 129.916 43.359C127.182 46.9679 123.672 49.9152 119.647 51.9832C115.732 54.0995 112.36 54.6368 109.75 53.5024C110.008 53.8009 110.273 54.0995 110.538 54.3914C110.569 54.4222 110.594 54.4589 110.61 54.4993C110.627 54.5397 110.636 54.5831 110.636 54.6269C110.636 54.6707 110.627 54.714 110.61 54.7544C110.594 54.7948 110.569 54.8315 110.538 54.8624C110.47 54.9273 110.38 54.963 110.286 54.9619ZM109.253 52.5737C109.311 52.5766 109.367 52.5925 109.418 52.6201C112.499 54.398 116.507 52.9451 119.356 51.4193C123.287 49.3803 126.712 46.4856 129.379 42.9477C132.042 39.4194 133.382 35.0656 133.162 30.6483C132.818 26.0974 130.38 21.9445 126.789 19.7951C126.555 19.634 126.288 19.5275 126.007 19.4833C125.863 19.4897 125.723 19.5307 125.598 19.6027C125.473 19.6748 125.367 19.7758 125.289 19.8974C125.211 20.0189 125.163 20.1575 125.15 20.3013C125.137 20.4451 125.158 20.59 125.212 20.7239C125.252 20.7966 125.262 20.8817 125.241 20.9618C125.22 21.042 125.17 21.1111 125.1 21.1551C125.032 21.2014 124.949 21.2203 124.868 21.208C124.787 21.1957 124.713 21.1531 124.662 21.0887C124.136 20.355 123.472 19.7308 122.708 19.2511C122.359 19.0445 121.957 18.9434 121.552 18.9599C121.146 18.9764 120.754 19.1097 120.422 19.344C120.275 19.4887 120.165 19.6668 120.102 19.8631C120.039 20.0595 120.024 20.2683 120.058 20.4718C120.081 20.6238 120.138 20.7687 120.224 20.8964C120.356 20.9959 120.495 21.102 120.621 21.2148C120.682 21.2654 120.722 21.3364 120.734 21.4146C120.747 21.4927 120.73 21.5726 120.687 21.6394C120.645 21.706 120.581 21.7557 120.506 21.7799C120.431 21.8042 120.35 21.8014 120.277 21.772C120.074 21.6806 119.896 21.5445 119.753 21.374C118.878 20.7527 117.863 20.3583 116.799 20.2263C116.513 20.171 116.218 20.1939 115.944 20.2927C115.711 20.4553 115.545 20.6964 115.476 20.9718C115.407 21.2472 115.439 21.5383 115.566 21.7919C115.904 22.3886 116.381 22.8941 116.958 23.2647C117.009 23.3053 117.048 23.3602 117.07 23.4226C117.091 23.4851 117.093 23.5524 117.077 23.6163C117.06 23.681 117.024 23.7388 116.973 23.7817C116.922 23.8246 116.858 23.8502 116.792 23.8551C112.829 24.3427 109.183 26.2687 106.543 29.2684C105.768 30.1574 104.556 31.8889 105.145 33.4877C105.168 33.5487 105.171 33.6149 105.156 33.6782C105.142 33.7414 105.108 33.7989 105.061 33.8434C105.014 33.8879 104.954 33.9175 104.891 33.9286C104.827 33.9397 104.761 33.9317 104.701 33.9056C103.575 33.428 102.21 34.2705 101.694 35.3253C101.177 36.3801 101.137 37.5278 101.462 39.2062C102.442 44.248 105.549 48.6596 109.014 52.6864C109.044 52.6516 109.08 52.6236 109.121 52.6041C109.162 52.5847 109.207 52.5743 109.253 52.5737Z" fill="#231F20"/>
<path d="M174.496 154.856H112.883C112.294 149.291 111.856 145.522 111.856 145.522L170.766 133.986C171.17 136.805 172.548 144.448 174.496 154.856Z" fill="#231F20"/>
<path d="M174.496 155.148H112.883C112.811 155.149 112.742 155.123 112.688 155.075C112.634 155.027 112.6 154.961 112.592 154.89C112.009 149.383 111.571 145.602 111.565 145.556C111.557 145.482 111.577 145.408 111.621 145.349C111.666 145.29 111.731 145.25 111.803 145.237L170.713 133.701C170.75 133.691 170.789 133.69 170.827 133.698C170.865 133.706 170.901 133.723 170.931 133.747C170.964 133.77 170.993 133.8 171.014 133.834C171.036 133.868 171.05 133.906 171.057 133.946C171.448 136.666 172.74 143.897 174.787 154.803C174.796 154.845 174.795 154.888 174.785 154.93C174.775 154.971 174.755 155.01 174.727 155.042C174.699 155.076 174.664 155.104 174.624 155.122C174.584 155.14 174.54 155.149 174.496 155.148ZM113.141 154.565H174.144C172.203 144.202 170.951 137.237 170.514 134.331L112.168 145.774C112.28 146.697 112.658 150.027 113.141 154.565Z" fill="#231F20"/>
<path d="M143.835 45.117C143.835 45.117 145.432 49.0974 150.54 53.1906L154.8 48.5932L146.287 37.6803L143.835 45.117Z" fill="white"/>
<path d="M150.54 53.5621C150.465 53.5612 150.393 53.5355 150.334 53.4891C145.22 49.3893 143.597 45.4421 143.531 45.2763C143.504 45.2012 143.504 45.1191 143.531 45.0441L145.982 37.614C146 37.5564 146.034 37.5049 146.08 37.4652C146.125 37.4254 146.181 37.3989 146.24 37.3884C146.299 37.3762 146.36 37.3809 146.416 37.4021C146.473 37.4232 146.522 37.4599 146.558 37.5079L155.058 48.3876C155.109 48.4477 155.138 48.5241 155.138 48.6032C155.138 48.6823 155.109 48.7587 155.058 48.8188L150.805 53.4228C150.774 53.4645 150.734 53.4986 150.688 53.5228C150.642 53.5469 150.592 53.5603 150.54 53.5621ZM144.186 45.1369C144.478 45.8003 146.174 49.2301 150.507 52.7727L154.362 48.5733L146.412 38.3769L144.186 45.1369Z" fill="#231F20"/>
<path d="M153.925 44.8384C153.925 44.8384 145.512 51.7112 146.413 53.2636C147.314 54.8159 159.252 63.4666 159.258 63.4666C158.251 62.7435 154.223 63.4666 153.071 63.4666C147.771 63.5861 142.499 63.9089 137.257 64.4352C129.869 65.1485 122.529 66.2937 115.275 67.865C112.373 68.5284 107.603 68.7937 105.079 70.3527C102.555 71.9117 103.251 74.0744 103.986 76.9336C104.311 78.1941 104.649 79.4678 104.914 80.7415C109.703 101.831 110.108 123.988 111.85 145.522C111.85 145.522 155.701 146.849 173.416 135.319L163.638 85.1001C163.638 85.1001 198.498 87.8465 202.063 74.5388C205.627 61.231 153.925 44.8384 153.925 44.8384Z" fill="#5094D1"/>
<path d="M132.274 60.1032L135.249 70.0542C135.249 70.0542 135.322 74.9833 128.22 75.4344C121.118 75.8855 118.726 71.6265 118.726 71.6265L113.843 52.8987C113.843 52.8987 117.123 48.7857 112.393 38.5759C112.393 38.5759 123.576 38.5759 133.016 34.2639C133.016 34.2639 136.885 46.278 137.654 51.6515C138.422 57.0251 132.274 60.1032 132.274 60.1032Z" fill="white"/>
<path d="M127.2 75.786C120.787 75.786 118.587 71.9449 118.462 71.8056C118.457 71.7793 118.457 71.7523 118.462 71.726L113.572 52.9916C113.56 52.9411 113.56 52.8885 113.571 52.8379C113.583 52.7873 113.606 52.74 113.639 52.6997C113.639 52.6599 116.713 48.5866 112.141 38.7285C112.12 38.6775 112.111 38.622 112.116 38.5668C112.12 38.5115 112.138 38.4583 112.169 38.4118C112.199 38.3653 112.24 38.3269 112.288 38.3C112.337 38.2731 112.391 38.2585 112.446 38.2575C112.552 38.2575 123.669 38.1912 132.937 33.972C132.98 33.9523 133.026 33.9421 133.073 33.9421C133.12 33.9421 133.166 33.9523 133.209 33.972C133.251 33.9909 133.288 34.0183 133.319 34.0526C133.35 34.0869 133.373 34.1272 133.388 34.171C133.427 34.297 137.27 46.278 138.025 51.6184C138.747 56.5341 133.865 59.6388 132.725 60.3022L135.62 69.9812C135.627 70.0119 135.627 70.0435 135.62 70.0741C135.62 70.1272 135.62 75.3216 128.28 75.786C127.862 75.7727 127.511 75.786 127.2 75.786ZM119.038 71.4739C119.29 71.8985 121.688 75.4941 128.194 75.0828C134.613 74.6781 134.905 70.5849 134.918 70.0874L131.957 60.1961C131.935 60.121 131.94 60.0405 131.971 59.9689C132.003 59.8973 132.059 59.8391 132.129 59.8047C132.189 59.8047 138.091 56.7464 137.343 51.6781C136.647 46.9016 133.461 36.7118 132.818 34.6884C124.629 38.3106 115.176 38.8015 112.903 38.8678C116.964 47.9232 114.738 52.1358 114.228 52.9385L119.038 71.4739Z" fill="#231F20"/>
<path d="M116.805 51.3795C116.301 50.5386 115.535 49.8862 114.625 49.522C113.774 49.2221 112.878 49.0696 111.975 49.0709C111.478 49.0186 110.975 49.0799 110.505 49.25C110.187 49.4155 109.903 49.6407 109.67 49.9134C109.064 50.4851 108.681 51.2541 108.59 52.0827C108.599 52.7533 108.772 53.4115 109.094 54C109.385 54.6666 109.764 55.2913 110.22 55.8575C110.69 56.4123 111.265 56.8681 111.912 57.1983C112.559 57.5285 113.266 57.7266 113.99 57.7809C114.714 57.8352 115.442 57.7448 116.131 57.5148C116.821 57.2848 117.457 56.9199 118.004 56.4413" fill="white"/>
<path d="M114.367 58.0998C114.221 58.0998 114.082 58.0998 113.936 58.0998C112.394 57.9753 110.964 57.2427 109.961 56.0631C109.484 55.4751 109.087 54.8258 108.782 54.1326C108.444 53.4945 108.262 52.7851 108.252 52.0628C108.343 51.1514 108.76 50.3035 109.425 49.6746C109.689 49.3801 110.008 49.141 110.365 48.9714C110.88 48.7761 111.434 48.7034 111.982 48.7591C112.932 48.7557 113.875 48.915 114.771 49.2301C115.744 49.6242 116.564 50.3221 117.11 51.2203C117.132 51.2577 117.148 51.2993 117.154 51.3426C117.161 51.3859 117.159 51.4301 117.149 51.4727C117.138 51.5153 117.119 51.5553 117.093 51.5906C117.067 51.6258 117.035 51.6556 116.997 51.6781C116.921 51.7225 116.831 51.7356 116.746 51.7145C116.66 51.6935 116.586 51.6399 116.54 51.5653C116.08 50.7915 115.383 50.1867 114.552 49.8404C113.725 49.5567 112.856 49.4132 111.982 49.4159C111.534 49.3656 111.081 49.4178 110.657 49.5685C110.381 49.7086 110.133 49.9 109.928 50.1323C109.381 50.6465 109.031 51.3368 108.941 52.0827C108.957 52.6998 109.118 53.3044 109.411 53.8474C109.689 54.4879 110.055 55.0864 110.498 55.6253C111.394 56.6706 112.665 57.3211 114.036 57.4364C114.716 57.4865 115.4 57.4009 116.047 57.1846C116.694 56.9682 117.291 56.6254 117.805 56.1759C117.835 56.145 117.872 56.1205 117.911 56.1037C117.951 56.087 117.994 56.0783 118.037 56.0783C118.08 56.0783 118.123 56.087 118.163 56.1037C118.203 56.1205 118.239 56.145 118.269 56.1759C118.3 56.2067 118.325 56.2434 118.341 56.2838C118.358 56.3243 118.367 56.3676 118.367 56.4114C118.367 56.4552 118.358 56.4986 118.341 56.539C118.325 56.5794 118.3 56.6161 118.269 56.6469C117.19 57.5929 115.801 58.1098 114.367 58.0998Z" fill="#231F20"/>
<path d="M130.439 43.6509C130.439 43.6509 135.647 47.5783 135.143 48.7458C134.64 49.9134 132.155 50.1323 132.155 50.1323" fill="white"/>
<path d="M132.156 50.464C132.073 50.4626 131.994 50.4306 131.934 50.3742C131.874 50.3178 131.837 50.241 131.831 50.1588C131.826 50.1156 131.831 50.0719 131.843 50.0303C131.856 49.9887 131.877 49.95 131.904 49.9166C131.932 49.8832 131.966 49.8558 132.005 49.8358C132.044 49.8159 132.086 49.8039 132.129 49.8006C132.792 49.7475 134.494 49.4291 134.839 48.6198C135.057 48.1222 132.904 45.9264 130.241 43.9163C130.206 43.8901 130.177 43.8574 130.155 43.8199C130.132 43.7824 130.118 43.7409 130.112 43.6978C130.106 43.6547 130.108 43.6108 130.119 43.5686C130.13 43.5264 130.149 43.4867 130.175 43.4519C130.201 43.417 130.233 43.3877 130.271 43.3655C130.308 43.3433 130.35 43.3287 130.393 43.3225C130.436 43.3164 130.48 43.3188 130.522 43.3296C130.564 43.3404 130.604 43.3594 130.638 43.3856C132.268 44.6128 135.998 47.6048 135.448 48.8785C134.898 50.1522 132.46 50.4375 132.189 50.4574L132.156 50.464Z" fill="#231F20"/>
<path d="M122.371 42.5829C122.371 42.5829 123.517 39.5113 126.2 41.4285L122.371 42.5829Z" fill="white"/>
<path d="M122.37 42.9477H122.251C122.21 42.9323 122.173 42.9088 122.141 42.8787C122.109 42.8486 122.083 42.8124 122.065 42.7723C122.047 42.7322 122.038 42.6889 122.036 42.645C122.035 42.6011 122.043 42.5574 122.059 42.5165C122.212 42.0821 122.453 41.6843 122.768 41.3485C123.083 41.0127 123.464 40.7463 123.888 40.5661C124.319 40.4608 124.77 40.46 125.202 40.5638C125.634 40.6677 126.035 40.8731 126.372 41.1632C126.442 41.216 126.489 41.294 126.502 41.3806C126.516 41.4672 126.495 41.5558 126.445 41.6275C126.393 41.6971 126.317 41.7436 126.231 41.7573C126.146 41.7709 126.058 41.7505 125.988 41.7005C125.731 41.4749 125.426 41.312 125.096 41.2245C124.766 41.137 124.421 41.1274 124.086 41.1963C123.761 41.3408 123.467 41.5482 123.221 41.8066C122.976 42.065 122.783 42.3694 122.655 42.7023C122.64 42.7682 122.604 42.8275 122.553 42.8716C122.502 42.9158 122.438 42.9424 122.37 42.9477Z" fill="#231F20"/>
<path d="M129.519 40.5396C129.519 40.5396 129.903 38.6157 132.832 40.0221L129.519 40.5396Z" fill="white"/>
<path d="M129.519 40.8646H129.446C129.404 40.856 129.365 40.8391 129.329 40.8151C129.294 40.791 129.264 40.7602 129.241 40.7245C129.217 40.6888 129.201 40.6488 129.193 40.6068C129.185 40.5648 129.186 40.5217 129.194 40.4799C129.252 40.2455 129.359 40.0263 129.509 39.8374C129.658 39.6484 129.847 39.4942 130.062 39.3853C130.778 39.027 131.758 39.1464 132.977 39.7302C133.057 39.7681 133.119 39.8361 133.149 39.9195C133.178 40.0028 133.174 40.0946 133.136 40.1747C133.098 40.2548 133.03 40.3165 132.947 40.3464C132.864 40.3762 132.772 40.3717 132.692 40.3339C131.685 39.8496 130.877 39.7236 130.367 39.9757C130.236 40.0402 130.121 40.1333 130.03 40.2481C129.94 40.3629 129.876 40.4964 129.844 40.6391C129.82 40.706 129.776 40.7638 129.718 40.8043C129.659 40.8448 129.59 40.8659 129.519 40.8646Z" fill="#231F20"/>
<path d="M132.275 60.1032C132.275 60.1032 127.087 61.5428 124.285 60.7666C124.285 60.7666 127.922 66.1534 133.971 66.0738L132.275 60.1032Z" fill="#231F20"/>
<path d="M133.871 66.4453C127.776 66.4453 124.166 61.1978 124.013 60.9723C123.975 60.9181 123.954 60.8532 123.954 60.7865C123.954 60.7199 123.975 60.6549 124.013 60.6008C124.052 60.5457 124.106 60.5035 124.168 60.4798C124.231 60.4561 124.299 60.452 124.364 60.4681C127.048 61.1912 132.129 59.8047 132.182 59.8047C132.266 59.7823 132.356 59.7941 132.432 59.8376C132.507 59.8811 132.563 59.9527 132.586 60.0369L134.282 66.0075C134.295 66.057 134.297 66.1089 134.288 66.1593C134.279 66.2097 134.259 66.2575 134.229 66.2993C134.198 66.3398 134.157 66.3727 134.112 66.3957C134.066 66.4186 134.015 66.431 133.964 66.432L133.871 66.4453ZM125.08 61.2708C126.239 62.6374 129.24 65.6227 133.533 65.7753L132.043 60.5079C130.989 60.7799 127.571 61.5693 125.08 61.2708Z" fill="#231F20"/>
<path d="M175.496 15.556L131.175 55.1144L185.169 37.4614L175.496 15.556Z" fill="white"/>
<path d="M131.175 55.4461C131.116 55.4444 131.059 55.4277 131.009 55.3974C130.96 55.3672 130.918 55.3246 130.89 55.2736C130.851 55.2082 130.836 55.1311 130.848 55.056C130.86 54.9808 130.899 54.9123 130.956 54.8623L175.271 15.3105C175.31 15.2755 175.356 15.2501 175.407 15.2363C175.458 15.2224 175.511 15.2206 175.562 15.2309C175.614 15.2407 175.662 15.2635 175.703 15.2972C175.743 15.3308 175.775 15.3742 175.794 15.4233L185.473 37.3154C185.493 37.3569 185.503 37.4023 185.503 37.4481C185.503 37.494 185.493 37.5393 185.473 37.5808C185.454 37.6228 185.427 37.6605 185.393 37.6913C185.358 37.7222 185.318 37.7455 185.274 37.7599L131.281 55.413C131.248 55.4306 131.212 55.4418 131.175 55.4461ZM175.377 16.1066L132.579 54.3051L184.718 37.2557L175.377 16.1066Z" fill="#231F20"/>
<path d="M143.835 45.117C146.485 44.7919 149.394 42.1118 149.135 39.2393C148.851 35.5176 145.326 37.1496 143.696 38.9938C142.802 40.0088 140.642 43.5912 142.073 44.772C142.328 44.946 142.616 45.0663 142.919 45.1256C143.222 45.1849 143.534 45.182 143.835 45.117Z" fill="white"/>
<path d="M143.365 45.4819C142.838 45.509 142.319 45.3467 141.901 45.0242C141.723 44.8735 141.578 44.687 141.476 44.4767C141.375 44.2664 141.318 44.037 141.311 43.8035C141.179 42.1649 142.683 39.6772 143.484 38.7749C144.644 37.4482 146.638 36.3071 148.036 36.7848C148.632 36.9904 149.361 37.5742 149.5 39.2261C149.745 42.3241 146.671 45.1237 143.875 45.462C143.706 45.4779 143.535 45.4845 143.365 45.4819ZM147.34 37.3287C146.273 37.3287 144.856 38.2243 143.981 39.2128C143.219 40.0752 141.861 42.3905 141.994 43.7504C141.996 43.8951 142.028 44.0376 142.089 44.1689C142.149 44.3003 142.236 44.4176 142.345 44.5134C142.559 44.6575 142.801 44.756 143.055 44.8028C143.309 44.8496 143.57 44.8436 143.822 44.7853C146.28 44.4934 149.076 41.9659 148.87 39.2659C148.784 38.231 148.446 37.6007 147.85 37.4017C147.685 37.3507 147.513 37.326 147.34 37.3287Z" fill="#231F20"/>
<path d="M128.625 53.0645C128.625 53.0645 132.712 54.0862 131.559 57.2838L128.625 53.0645Z" fill="white"/>
<path d="M131.559 57.6154C131.522 57.6217 131.484 57.6217 131.446 57.6154C131.364 57.5855 131.296 57.524 131.259 57.4443C131.222 57.3647 131.218 57.2736 131.248 57.1909C131.384 56.8749 131.449 56.5324 131.438 56.1883C131.426 55.8442 131.339 55.5069 131.181 55.2007C130.519 53.8739 128.564 53.3896 128.531 53.3896C128.446 53.3676 128.372 53.313 128.326 53.2373C128.281 53.1617 128.266 53.0711 128.286 52.9849C128.297 52.9426 128.316 52.9029 128.342 52.868C128.368 52.8331 128.401 52.8037 128.439 52.7815C128.476 52.7593 128.518 52.7447 128.561 52.7387C128.604 52.7326 128.648 52.7351 128.69 52.7461C128.783 52.7461 130.916 53.3166 131.751 54.8889C131.951 55.2735 132.064 55.6975 132.083 56.1309C132.101 56.5642 132.024 56.9963 131.857 57.3965C131.836 57.4596 131.796 57.5146 131.743 57.5538C131.69 57.5931 131.625 57.6146 131.559 57.6154Z" fill="#231F20"/>
<path d="M185.165 37.4434C188.468 36.2065 189.252 30.1293 186.915 23.8696C184.578 17.61 180.005 13.5383 176.701 14.7752C173.397 16.0121 172.613 22.0893 174.951 28.3489C177.288 34.6086 181.861 38.6803 185.165 37.4434Z" fill="#231F20"/>
<path d="M183.95 38.0054C180.677 38.0054 176.748 34.1113 174.675 28.479C172.277 22.0573 173.151 15.7749 176.616 14.4747C178.338 13.8113 180.392 14.4747 182.419 16.2791C184.6 18.3579 186.257 20.9246 187.256 23.7689C188.366 26.5712 188.798 29.5972 188.514 32.5987C188.163 35.2921 187.03 37.1297 185.315 37.7666C184.879 37.9321 184.416 38.0131 183.95 38.0054ZM177.987 14.8926C177.598 14.8897 177.212 14.9594 176.848 15.0983C173.721 16.2658 173.025 22.1634 175.291 28.2468C177.557 34.3302 181.923 38.3039 185.056 37.1496C186.534 36.599 187.521 34.9538 187.832 32.5058C188.103 29.6115 187.682 26.6943 186.606 23.9944C185.654 21.2504 184.065 18.772 181.969 16.7634C180.571 15.5361 179.186 14.8926 177.961 14.8926H177.987Z" fill="#231F20"/>
<path d="M177.265 77.0531C177.212 77.0515 177.16 77.0379 177.113 77.0133C164.452 70.4191 149.864 56.6403 149.718 56.501C149.687 56.4707 149.663 56.4346 149.646 56.3947C149.629 56.3548 149.621 56.312 149.621 56.2688C149.621 56.2255 149.629 56.1827 149.646 56.1429C149.663 56.103 149.687 56.0669 149.718 56.0366C149.749 56.0055 149.786 55.9808 149.826 55.964C149.866 55.9471 149.91 55.9385 149.953 55.9385C149.997 55.9385 150.041 55.9471 150.081 55.964C150.121 55.9808 150.158 56.0055 150.189 56.0366C150.334 56.1759 164.856 69.8884 177.431 76.4361C177.47 76.4558 177.505 76.4831 177.534 76.5166C177.563 76.5501 177.585 76.589 177.598 76.631C177.612 76.673 177.617 76.7173 177.613 76.7613C177.609 76.8053 177.597 76.8481 177.576 76.8872C177.545 76.9409 177.499 76.9848 177.444 77.014C177.389 77.0433 177.327 77.0568 177.265 77.0531Z" fill="#231F20"/>
<path d="M170.263 119.464C170.185 119.465 170.11 119.438 170.05 119.388C169.99 119.338 169.951 119.269 169.938 119.192L162.213 77.7761C162.198 77.69 162.217 77.6012 162.267 77.5291C162.316 77.457 162.392 77.4075 162.478 77.3914C162.521 77.3828 162.565 77.3829 162.608 77.3916C162.65 77.4004 162.691 77.4177 162.727 77.4424C162.762 77.4672 162.793 77.4989 162.816 77.5357C162.84 77.5726 162.855 77.6137 162.862 77.6567L170.581 119.073C170.596 119.159 170.577 119.248 170.527 119.32C170.478 119.392 170.402 119.441 170.316 119.457L170.263 119.464Z" fill="#231F20"/>
<path d="M118.281 78.8845L45.0771 99.0479L58.4046 147.565L131.608 127.401L118.281 78.8845Z" fill="white"/>
<path d="M58.3995 147.897C58.3267 147.899 58.2555 147.876 58.1968 147.833C58.1381 147.79 58.0953 147.729 58.0749 147.659L44.752 99.1376C44.7297 99.0531 44.7415 98.9633 44.7849 98.8875C44.8283 98.8118 44.8998 98.7562 44.9839 98.7329L118.19 78.5722C118.271 78.5423 118.361 78.5423 118.442 78.5722C118.519 78.6153 118.576 78.6867 118.601 78.7712L131.924 127.292C131.946 127.377 131.934 127.467 131.891 127.542C131.847 127.618 131.776 127.674 131.692 127.697L58.4856 147.891L58.3995 147.897ZM45.4808 99.2835L58.6314 147.161L131.175 127.199L118.044 79.3019L45.4808 99.2835Z" fill="#231F20"/>
<path d="M97.9371 136.984C97.9371 136.984 98.0828 138.431 96.049 139.85C94.0151 141.27 87.3901 143.121 85.9723 142.418C84.1186 141.595 82.5507 140.24 81.4673 138.524C80.3146 136.487 78.8173 133.92 79.6057 132.944C80.3941 131.969 81.9973 133.475 83.8523 136.659C83.8523 136.659 81.5535 130.908 82.9646 130.55C84.3757 130.191 85.3562 131.677 87.2973 134.437C87.2973 134.437 84.8262 128.367 86.6812 128.4C88.5362 128.433 92.604 135.246 92.604 134.888C92.604 134.53 90.219 128.692 92.2528 129.753C94.2867 130.815 95.8767 136.839 95.8767 136.839L97.9371 136.984Z" fill="white"/>
<path d="M86.96 142.902C86.5728 142.923 86.1857 142.857 85.8271 142.71C83.9157 141.859 82.301 140.457 81.1896 138.683L81.0638 138.457C79.8381 136.295 78.4535 133.847 79.3678 132.732C79.4734 132.59 79.6135 132.478 79.7747 132.406C79.9359 132.334 80.1128 132.305 80.2886 132.321C80.9511 132.374 81.7594 133.024 82.6869 134.251C82.3026 132.924 82.0244 131.379 82.3556 130.682C82.4074 130.572 82.483 130.474 82.5769 130.396C82.6708 130.318 82.7807 130.262 82.8989 130.231C84.1245 129.926 85.0123 130.729 86.2114 132.327C85.7741 130.881 85.423 129.176 85.9199 128.46C86.0044 128.332 86.1212 128.228 86.2584 128.159C86.3956 128.091 86.5485 128.059 86.7016 128.068C88.0266 128.068 89.9346 130.576 91.7101 133.104C91.1006 131.113 90.8952 129.886 91.412 129.448C91.5776 129.302 91.8956 129.19 92.419 129.448C94.3469 130.457 95.8243 135.366 96.1489 136.513L97.9774 136.639C98.0551 136.645 98.1283 136.679 98.1841 136.733C98.2398 136.788 98.2745 136.86 98.2821 136.938C98.2821 137.004 98.4212 138.597 96.2549 140.109C94.5655 141.29 89.504 142.902 86.96 142.902ZM80.1893 132.951C80.1257 132.954 80.0635 132.97 80.0073 133C79.9511 133.03 79.9024 133.072 79.8646 133.123C79.2419 133.886 80.6795 136.44 81.6269 138.106L81.7528 138.331C82.8071 139.99 84.3286 141.299 86.1253 142.093C87.3178 142.69 93.7771 141.005 95.864 139.552C96.2892 139.306 96.6611 138.977 96.9579 138.585C97.2548 138.193 97.4708 137.746 97.5931 137.27L95.8507 137.144C95.7825 137.136 95.718 137.109 95.665 137.066C95.612 137.022 95.5729 136.964 95.5526 136.898C95.122 135.26 93.6579 130.841 92.0944 130.025C92.0122 129.969 91.9158 129.937 91.8161 129.933C91.6571 130.092 91.6704 130.921 92.6708 133.913C92.7944 134.214 92.8833 134.527 92.9357 134.848C92.9355 134.922 92.9123 134.993 92.8696 135.052C92.8268 135.112 92.7666 135.157 92.6972 135.18C92.419 135.266 92.3925 135.22 91.5776 134.052C90.564 132.586 87.8676 128.745 86.6751 128.692C86.6322 128.688 86.589 128.695 86.5495 128.712C86.5101 128.73 86.4758 128.757 86.4499 128.791C85.9861 129.455 86.8474 132.407 87.6093 134.271C87.6397 134.346 87.641 134.43 87.6128 134.506C87.5846 134.583 87.529 134.645 87.4569 134.682C87.3868 134.723 87.304 134.735 87.2252 134.717C87.1464 134.698 87.0776 134.65 87.0329 134.583L86.801 134.258C84.9394 131.604 84.151 130.563 83.0513 130.835C83.0115 130.835 82.9718 130.835 82.932 130.941C82.5279 131.737 83.4686 134.769 84.1576 136.5C84.1809 136.576 84.1762 136.658 84.1446 136.73C84.1129 136.803 84.0563 136.862 83.9851 136.896C83.9138 136.931 83.8326 136.938 83.7561 136.918C83.6796 136.898 83.6128 136.851 83.568 136.785C81.5341 133.303 80.494 132.964 80.2555 132.944L80.1893 132.951Z" fill="#231F20"/>
<path d="M71.1521 104.385L73.398 103.722L78.0355 108.034L76.5515 102.813L78.2077 102.348L80.3343 109.858L78.1746 110.475L73.3847 106.057L74.9018 111.404L73.2456 111.875L71.1521 104.385Z" fill="#D1D3D4"/>
<path d="M79.8582 101.911L84.9528 100.464L85.3834 101.99L81.9384 102.972L82.3359 104.372L85.5954 103.45L86.026 104.975L82.7732 105.898L83.2038 107.43L86.8409 106.395L87.2715 107.921L81.9715 109.427L79.8582 101.911Z" fill="#D1D3D4"/>
<path d="M85.6812 100.259L87.4832 99.7413L90.047 104.219L90.2524 98.9585L91.7894 98.5206L94.7508 103.025L94.605 97.7179L96.2812 97.2403L96.2215 105.38L94.7441 105.798L91.6171 101.068L91.4383 106.74L90.0205 107.145L85.6812 100.259Z" fill="#D1D3D4"/>
<path d="M63.7461 122.363C63.5287 122.213 63.2791 122.115 63.0173 122.078C62.7261 122.041 62.4304 122.066 62.1495 122.151C61.8503 122.235 61.5725 122.382 61.3346 122.582C61.1074 122.774 60.9224 123.011 60.7913 123.279C60.6556 123.562 60.5746 123.868 60.5528 124.181C60.529 124.521 60.5672 124.863 60.6655 125.189C60.7528 125.521 60.9011 125.834 61.1027 126.111C61.2785 126.373 61.5035 126.599 61.7652 126.775C62.0109 126.938 62.2888 127.047 62.5801 127.093C62.8746 127.14 63.1757 127.119 63.4612 127.033C63.7701 126.956 64.0542 126.801 64.2861 126.583C64.5181 126.365 64.6903 126.09 64.7862 125.786L66.4557 126.45C66.2752 126.969 65.9541 127.429 65.5282 127.776C65.1137 128.118 64.6334 128.371 64.1171 128.519C63.5653 128.683 62.9885 128.746 62.4145 128.705C61.8892 128.67 61.3771 128.525 60.9106 128.281C60.4361 128.013 60.0266 127.644 59.7115 127.199C59.3655 126.747 59.1112 126.231 58.9628 125.68C58.796 125.124 58.7398 124.54 58.7972 123.962C58.8534 123.437 59.0205 122.931 59.2875 122.476C59.5569 122.02 59.9178 121.624 60.3475 121.315C60.8077 120.974 61.3263 120.72 61.8778 120.565C62.095 120.506 62.3165 120.464 62.5403 120.439C62.7825 120.413 63.0269 120.413 63.2691 120.439C63.5216 120.461 63.7706 120.512 64.0111 120.592C64.248 120.682 64.471 120.805 64.6736 120.957L63.7461 122.363Z" fill="#D1D3D4"/>
<path d="M68.0124 119.04L69.3771 118.655L74.7699 125.236L72.9083 125.766L71.8085 124.36L68.9001 125.209L68.7279 126.98L66.906 127.498L68.0124 119.04ZM69.2645 121.03L69.0194 123.624L70.8479 123.1L69.2645 121.03Z" fill="#D1D3D4"/>
<path d="M73.3918 117.514L75.8961 116.797L79.0098 121.209L79.3543 115.815L81.8453 115.106L83.9786 122.622L82.3223 123.086L80.686 117.328L80.3481 123.65L79.0893 124.008L75.5582 118.787L77.1813 124.546L75.5251 125.017L73.3918 117.514Z" fill="#D1D3D4"/>
<path d="M83.3955 114.668L86.1846 113.872C86.5548 113.767 86.9342 113.698 87.3175 113.666C87.6569 113.636 87.9988 113.672 88.3245 113.772C88.6358 113.879 88.9158 114.061 89.1394 114.303C89.4009 114.602 89.5872 114.959 89.6827 115.344C89.8035 115.719 89.8375 116.116 89.782 116.505C89.7301 116.827 89.598 117.131 89.3978 117.388C89.1871 117.646 88.9255 117.859 88.6293 118.011C88.2882 118.192 87.9283 118.334 87.556 118.436L86.3503 118.781L87.1784 121.706L85.5288 122.177L83.3955 114.668ZM85.9528 117.381L87.0525 117.063C87.1973 117.026 87.3373 116.972 87.4699 116.903C87.5947 116.84 87.7069 116.755 87.8011 116.651C87.8935 116.553 87.9575 116.432 87.9866 116.3C88.0256 116.147 88.0256 115.988 87.9866 115.835C87.9445 115.67 87.8519 115.521 87.7217 115.411C87.5998 115.317 87.4562 115.255 87.3043 115.232C87.1397 115.205 86.972 115.205 86.8074 115.232C86.6415 115.258 86.4777 115.295 86.3171 115.344L85.4691 115.583L85.9528 117.381Z" fill="#D1D3D4"/>
<path d="M91.7563 112.286L93.1277 111.901L98.5204 118.482L96.6522 119.013L95.5524 117.607L92.6441 118.436L92.4652 120.207L90.6433 120.725L91.7563 112.286ZM93.0151 114.276L92.7633 116.87L94.5984 116.346L93.0151 114.276Z" fill="#D1D3D4"/>
<path d="M97.1226 110.767L98.7722 110.296L100.905 117.806L99.2492 118.277L97.1226 110.767Z" fill="#D1D3D4"/>
<path d="M109.047 114.92C108.639 115.308 108.18 115.638 107.683 115.902C107.18 116.165 106.652 116.376 106.106 116.532C105.556 116.696 104.982 116.759 104.41 116.718C103.883 116.682 103.368 116.537 102.899 116.293C102.434 116.046 102.028 115.703 101.707 115.285C101.354 114.824 101.093 114.299 100.938 113.739C100.773 113.18 100.719 112.594 100.779 112.014C100.834 111.489 101.001 110.982 101.27 110.528C101.539 110.076 101.897 109.683 102.323 109.374C102.79 109.038 103.312 108.789 103.867 108.637C104.426 108.473 105.006 108.388 105.589 108.385C106.126 108.385 106.655 108.512 107.133 108.757L106.325 110.362C106.045 110.194 105.734 110.086 105.41 110.044C105.037 110.01 104.661 110.051 104.304 110.163C103.974 110.253 103.665 110.409 103.396 110.621C103.151 110.814 102.948 111.056 102.8 111.331C102.655 111.613 102.569 111.923 102.548 112.24C102.53 112.588 102.577 112.937 102.687 113.268C102.778 113.6 102.929 113.912 103.131 114.19C103.304 114.445 103.53 114.66 103.794 114.82C104.061 114.98 104.359 115.082 104.668 115.119C105.009 115.156 105.354 115.124 105.682 115.026C105.998 114.94 106.299 114.809 106.576 114.635C106.776 114.513 106.963 114.371 107.133 114.21L106.788 112.989L105.463 113.374L105.026 111.842L107.961 111.012L109.047 114.92Z" fill="#D1D3D4"/>
<path d="M108.524 107.523L110.77 106.86L115.44 111.178L113.95 105.971L115.606 105.5L117.733 113.009L115.573 113.626L110.783 109.208L112.3 114.555L110.644 115.026L108.524 107.523Z" fill="#D1D3D4"/>
<path d="M201.817 82.6057C201.693 82.4821 201.525 82.4128 201.35 82.4128C201.175 82.4128 201.007 82.4821 200.883 82.6057C200.295 83.3104 199.904 84.1593 199.752 85.0652C199.599 85.9711 199.69 86.9013 200.015 87.7603C200.038 87.8444 200.078 87.9231 200.131 87.992C200.185 88.0609 200.251 88.1185 200.327 88.1617C200.402 88.2048 200.486 88.2325 200.572 88.2434C200.659 88.2542 200.746 88.2478 200.83 88.2247C200.914 88.2016 200.993 88.1623 201.062 88.1088C201.131 88.0553 201.188 87.9887 201.231 87.913C201.274 87.8372 201.302 87.7536 201.313 87.6671C201.324 87.5806 201.317 87.4928 201.294 87.4087C201.226 87.24 201.168 87.0672 201.122 86.8912C201.122 86.7917 201.075 86.6922 201.056 86.5927C201.053 86.5485 201.053 86.5042 201.056 86.46C201.042 86.2767 201.042 86.0927 201.056 85.9094C201.056 85.8165 201.056 85.7303 201.056 85.6374C201.056 85.5446 201.056 85.5445 201.056 85.4981C201.054 85.4716 201.054 85.445 201.056 85.4185C201.081 85.2442 201.117 85.0714 201.162 84.901C201.162 84.8148 201.215 84.7286 201.248 84.6423C201.281 84.5561 201.334 84.4101 201.301 84.4831C201.376 84.3041 201.464 84.1311 201.566 83.9657C201.612 83.8861 201.665 83.8131 201.718 83.7335C201.74 83.695 201.767 83.6594 201.798 83.6273L201.837 83.5809C201.903 83.5174 201.955 83.4409 201.99 83.3562C202.026 83.2716 202.043 83.1806 202.041 83.0889C202.039 82.9973 202.018 82.9071 201.98 82.8239C201.941 82.7407 201.886 82.6664 201.817 82.6057Z" fill="#E6E7E8"/>
<path d="M194.205 124.99C193.41 124.177 192.471 123.518 191.436 123.046C191.36 122.677 191.21 122.326 190.996 122.015C190.782 121.704 190.508 121.439 190.19 121.235C188.733 120.313 186.779 120.764 185.248 121.235C184.44 121.487 184.784 122.774 185.606 122.509C186.573 122.133 187.612 121.977 188.647 122.051C189.147 122.109 189.604 122.362 189.919 122.755C189.839 122.755 189.766 122.755 189.687 122.755C189.264 122.773 188.851 122.888 188.479 123.09C188.107 123.292 187.786 123.577 187.54 123.922C187.299 124.25 187.186 124.654 187.221 125.06C187.256 125.465 187.438 125.844 187.733 126.125C188.958 127.173 190.707 126.125 191.244 124.864C191.302 124.726 191.351 124.584 191.39 124.44C192.076 124.846 192.709 125.339 193.271 125.906C193.894 126.536 194.835 125.574 194.205 124.99ZM189.005 125.229C188.62 125.269 188.422 125.076 188.62 124.718C188.76 124.518 188.949 124.356 189.167 124.247C189.386 124.138 189.628 124.086 189.872 124.095C189.956 124.088 190.04 124.088 190.124 124.095C190.071 124.371 189.935 124.626 189.736 124.824C189.536 125.023 189.281 125.157 189.005 125.209V125.229Z" fill="#E6E7E8"/>
<path d="M85.8934 149.549L85.847 149.496L85.741 149.344L85.5224 149.032C85.3832 148.826 85.2507 148.607 85.1315 148.368C85.0122 148.13 84.8996 147.917 84.7936 147.705C84.7936 147.705 84.681 147.479 84.7936 147.645C84.7936 147.592 84.7472 147.526 84.7207 147.473C84.6942 147.42 84.6346 147.234 84.5949 147.115C84.5719 147.03 84.5325 146.952 84.4791 146.883C84.4257 146.814 84.3593 146.756 84.2836 146.713C84.2079 146.67 84.1245 146.642 84.0381 146.631C83.9517 146.621 83.864 146.627 83.78 146.65C83.696 146.673 83.6174 146.713 83.5486 146.766C83.4798 146.82 83.4223 146.886 83.3792 146.962C83.3361 147.038 83.3084 147.121 83.2976 147.208C83.2868 147.294 83.2931 147.382 83.3163 147.466C83.6934 148.564 84.2583 149.587 84.9857 150.491C85.1099 150.615 85.2778 150.684 85.4528 150.684C85.6278 150.684 85.7957 150.615 85.9199 150.491C85.9825 150.43 86.0323 150.357 86.0664 150.276C86.1005 150.195 86.1183 150.108 86.1186 150.02C86.0991 149.842 86.0196 149.676 85.8934 149.549Z" fill="#E6E7E8"/>
<path d="M188.296 138.683C188.212 138.66 188.124 138.653 188.038 138.664C187.951 138.675 187.868 138.703 187.792 138.746C187.716 138.789 187.65 138.847 187.597 138.915C187.543 138.984 187.504 139.063 187.481 139.147L187.441 139.24C187.408 139.313 187.375 139.379 187.348 139.446C187.322 139.512 187.209 139.731 187.13 139.87C186.978 140.159 186.812 140.44 186.633 140.713C186.547 140.845 186.454 140.978 186.361 141.104L186.242 141.263C186.211 141.297 186.182 141.333 186.156 141.37C185.944 141.622 185.725 141.867 185.493 142.099C185.424 142.159 185.368 142.232 185.328 142.314C185.288 142.397 185.266 142.486 185.262 142.578C185.259 142.669 185.274 142.76 185.307 142.845C185.341 142.93 185.391 143.008 185.456 143.072C185.52 143.137 185.598 143.187 185.683 143.221C185.768 143.254 185.859 143.27 185.95 143.266C186.041 143.263 186.131 143.24 186.213 143.2C186.295 143.16 186.368 143.104 186.427 143.035C187.439 142.007 188.239 140.79 188.779 139.452C188.812 139.287 188.78 139.115 188.69 138.972C188.6 138.829 188.459 138.725 188.296 138.683Z" fill="#E6E7E8"/>
<path d="M204.209 103.443C204.165 103.368 204.107 103.302 204.037 103.249C203.968 103.196 203.889 103.157 203.805 103.135C203.72 103.113 203.632 103.107 203.546 103.119C203.46 103.131 203.376 103.16 203.301 103.204L198.498 106.262C198.423 106.306 198.357 106.365 198.304 106.434C198.251 106.504 198.213 106.583 198.19 106.667C198.168 106.752 198.163 106.84 198.175 106.926C198.187 107.013 198.216 107.096 198.26 107.171C198.303 107.247 198.362 107.313 198.431 107.366C198.5 107.419 198.58 107.457 198.664 107.479C198.748 107.502 198.836 107.507 198.922 107.495C199.009 107.483 199.092 107.454 199.167 107.41L203.97 104.352C204.046 104.308 204.112 104.25 204.164 104.18C204.217 104.111 204.256 104.031 204.278 103.947C204.3 103.863 204.305 103.775 204.294 103.688C204.282 103.602 204.253 103.518 204.209 103.443Z" fill="#E6E7E8"/>
<path d="M206.177 144.481C205.775 144.089 205.276 143.81 204.732 143.672C204.274 143.576 203.842 143.381 203.467 143.101C203.069 142.716 203.228 142.106 203.328 141.628C203.512 141.037 203.533 140.406 203.387 139.804C203.023 138.696 201.85 137.873 200.81 138.696C200.687 138.82 200.618 138.988 200.618 139.164C200.618 139.339 200.687 139.507 200.81 139.631C200.872 139.694 200.945 139.743 201.026 139.777C201.107 139.81 201.193 139.828 201.281 139.828C201.368 139.828 201.455 139.81 201.535 139.777C201.616 139.743 201.689 139.694 201.751 139.631C201.678 139.691 201.705 139.631 201.751 139.698C201.851 139.77 201.935 139.863 201.996 139.97C202.081 140.128 202.133 140.302 202.149 140.481C202.165 140.66 202.145 140.84 202.089 141.011C201.897 142.033 201.678 143.121 202.46 143.957C203.076 144.62 203.97 144.746 204.759 145.071C205.041 145.176 205.276 145.379 205.421 145.642C205.468 145.738 205.505 145.838 205.534 145.94C205.539 145.971 205.539 146.003 205.534 146.033H205.488C205.343 146.125 205.24 146.269 205.2 146.435C205.159 146.601 205.184 146.777 205.269 146.925C205.355 147.073 205.494 147.183 205.658 147.23C205.823 147.278 205.999 147.26 206.15 147.181C207.197 146.584 206.892 145.257 206.177 144.481Z" fill="#E6E7E8"/>
<path d="M105.642 140.467L106.775 139.286C107.371 138.676 106.437 137.734 105.841 138.351L104.549 139.678C104.092 140.149 103.628 140.613 103.814 141.336C103.899 141.615 104.008 141.885 104.138 142.146C104.258 142.431 104.383 142.71 104.503 142.995C104.748 143.579 104.993 144.156 105.245 144.74C105.283 144.824 105.338 144.9 105.407 144.962C105.477 145.023 105.558 145.07 105.646 145.098C105.735 145.126 105.828 145.136 105.92 145.126C106.012 145.116 106.101 145.087 106.181 145.04C106.261 144.993 106.331 144.93 106.385 144.855C106.44 144.78 106.477 144.694 106.497 144.603C106.516 144.512 106.516 144.418 106.496 144.328C106.477 144.237 106.439 144.151 106.384 144.076C105.98 143.114 105.549 142.159 105.159 141.184C105.135 141.132 105.115 141.079 105.099 141.025C105.294 140.853 105.476 140.667 105.642 140.467Z" fill="#E6E7E8"/>
<path d="M97.7054 147.042C97.6801 146.957 97.6319 146.881 97.5663 146.823L97.4338 146.723C97.3315 146.662 97.2148 146.63 97.0959 146.63H96.9237C96.8129 146.657 96.7119 146.715 96.6322 146.796L96.1353 147.3C96.0699 147.357 96.0216 147.43 95.9962 147.513C95.9563 147.591 95.9359 147.677 95.9365 147.765C95.9358 147.854 95.9562 147.943 95.9962 148.023C96.0234 148.105 96.0714 148.178 96.1353 148.236L96.2678 148.342C96.3688 148.399 96.483 148.429 96.599 148.428H96.7779C96.8884 148.397 96.9888 148.337 97.0694 148.256L97.5663 147.758C97.6277 147.696 97.6763 147.623 97.7092 147.542C97.7422 147.461 97.7589 147.374 97.7584 147.287C97.7632 147.202 97.7449 147.117 97.7054 147.042Z" fill="#E6E7E8"/>
<path d="M91.1931 72.5618C90.9417 72.2353 90.6052 71.9845 90.2206 71.8371C89.8361 71.6896 89.4184 71.6511 89.0135 71.726C89.4839 70.6756 90.1888 69.7473 91.0738 69.0127C91.7363 68.4687 90.789 67.5333 90.1331 68.0773C88.8715 69.1477 87.9408 70.5561 87.45 72.1373C87.4411 72.1755 87.43 72.2131 87.4168 72.2501C87.238 72.3496 87.0657 72.4557 86.9067 72.5618C86.2017 73.0595 85.6262 73.7193 85.2285 74.4858C84.8308 75.2522 84.6225 76.103 84.6211 76.9668C84.6211 77.1427 84.6909 77.3115 84.8151 77.4359C84.9394 77.5603 85.1079 77.6302 85.2836 77.6302C85.4593 77.6302 85.6278 77.5603 85.752 77.4359C85.8763 77.3115 85.9461 77.1427 85.9461 76.9668C85.9378 75.9884 86.2945 75.0421 86.9465 74.3132L87.1386 74.1208C87.1494 74.2513 87.1738 74.3802 87.2115 74.5056C87.3409 74.8697 87.5928 75.1774 87.924 75.3759C88.2552 75.5744 88.6451 75.6514 89.0267 75.5936C89.8379 75.5619 90.61 75.2366 91.1997 74.6781C91.4357 74.3757 91.5634 74.0026 91.5622 73.6188C91.561 73.235 91.431 72.8628 91.1931 72.5618ZM90.2126 73.7294C90.1 74.0479 89.2983 74.2004 89.0068 74.2402C88.5232 74.3066 88.3907 74.1142 88.4371 73.6498C88.4371 73.4906 88.4636 73.3314 88.5166 73.1722C88.8615 73.0357 89.2362 72.9923 89.6031 73.0461C89.8813 73.0926 90.3451 73.3646 90.2126 73.7294Z" fill="#E6E7E8"/>
<path d="M76.7836 69.6959C76.7449 69.3356 76.6222 68.9894 76.4254 68.6852C76.2286 68.381 75.9633 68.1273 75.6508 67.9446C75.0943 67.5863 74.3258 67.4006 73.9216 66.8831C73.7468 66.663 73.6317 66.4013 73.5876 66.1235C73.5435 65.8457 73.5718 65.5612 73.6699 65.2976C73.7164 65.1278 73.6937 64.9465 73.6068 64.7935C73.5198 64.6404 73.3757 64.5283 73.2061 64.4816C73.0366 64.435 72.8555 64.4578 72.7026 64.5448C72.5498 64.6319 72.4378 64.7762 72.3913 64.946C72.1803 65.6215 72.2141 66.3498 72.4868 67.0027C72.7595 67.6556 73.2535 68.1912 73.8819 68.5151C74.18 68.6743 74.498 68.807 74.7895 68.9728C74.9226 69.043 75.049 69.1251 75.1671 69.2183C75.2058 69.2526 75.2413 69.2904 75.2731 69.3311L75.3129 69.3908L75.3725 69.5036C75.3877 69.5405 75.4009 69.5781 75.4123 69.6163C75.4271 69.664 75.4382 69.7128 75.4454 69.7623C75.4454 69.7623 75.4454 69.8618 75.4454 69.8751C75.4475 69.886 75.4475 69.8973 75.4454 69.9082V69.9679C75.2875 70.0226 75.1561 70.1351 75.0774 70.2827C74.9988 70.4303 74.9788 70.6022 75.0214 70.764C75.0444 70.8481 75.0837 70.9269 75.1371 70.9957C75.1905 71.0646 75.257 71.1222 75.3327 71.1654C75.4084 71.2085 75.4918 71.2363 75.5782 71.2471C75.6646 71.2579 75.7523 71.2515 75.8363 71.2284C76.1375 71.1085 76.3922 70.8949 76.5628 70.6189C76.7334 70.3429 76.8108 70.0194 76.7836 69.6959Z" fill="#E6E7E8"/>
<path d="M175.987 89.2264C175.596 88.888 174.768 88.563 174.86 87.8996C174.953 87.2362 175.755 86.6723 176.272 86.3273C176.98 85.8629 176.318 84.7086 175.609 85.1863C174.536 85.8961 173.184 87.1035 173.622 88.5563C173.855 89.1542 174.285 89.6548 174.841 89.976C174.966 90.0623 175.417 90.3475 175.41 90.5333C175.41 90.6129 175.218 90.6991 175.139 90.7456C174.132 91.263 172.959 91.5682 172.972 92.9613C173.07 93.6596 173.295 94.334 173.635 94.9515C173.781 95.3097 173.979 95.9665 173.542 96.1722C172.767 96.5238 173.436 97.6648 174.205 97.3132C175.384 96.7759 175.212 95.2434 174.768 94.2616C174.556 93.7972 173.986 92.9348 174.456 92.4969C174.865 92.2148 175.311 91.9915 175.781 91.8335C176.941 91.3094 176.941 90.049 175.987 89.2264Z" fill="#E6E7E8"/>
<path d="M187.66 99.6417C186.844 99.5766 186.036 99.8327 185.406 100.356C184.776 100.878 184.375 101.627 184.288 102.441C184.288 102.64 184.288 102.846 184.255 103.045C184.245 103.183 184.194 103.314 184.109 103.423C183.982 103.56 183.819 103.659 183.639 103.708C183.057 103.851 182.451 103.864 181.863 103.748C181.779 103.725 181.691 103.719 181.605 103.729C181.519 103.74 181.435 103.768 181.359 103.811C181.284 103.854 181.217 103.912 181.164 103.981C181.111 104.05 181.071 104.128 181.048 104.213C181.001 104.381 181.023 104.562 181.109 104.715C181.194 104.868 181.337 104.981 181.505 105.029C182.83 105.254 184.765 105.294 185.401 103.808C185.532 103.378 185.602 102.931 185.606 102.481C185.646 102.185 185.765 101.905 185.951 101.672C186.148 101.413 186.41 101.211 186.71 101.086C187.01 100.962 187.338 100.919 187.66 100.962C187.836 100.962 188.004 100.892 188.128 100.768C188.253 100.643 188.322 100.474 188.322 100.299C188.322 100.123 188.253 99.9538 188.128 99.8294C188.004 99.705 187.836 99.6351 187.66 99.6351V99.6417Z" fill="#E6E7E8"/>
<path d="M180.253 128.208C180.23 128.124 180.191 128.045 180.137 127.976C180.084 127.907 180.018 127.849 179.942 127.806C179.866 127.763 179.783 127.735 179.696 127.725C179.61 127.714 179.522 127.72 179.438 127.743C178.334 128.016 177.349 128.639 176.629 129.521C176.511 129.65 176.443 129.817 176.437 129.992C176.44 130.168 176.508 130.336 176.629 130.463C176.691 130.525 176.764 130.575 176.845 130.608C176.926 130.642 177.012 130.659 177.1 130.659C177.187 130.659 177.274 130.642 177.355 130.608C177.435 130.575 177.509 130.525 177.57 130.463C177.722 130.268 177.891 130.086 178.074 129.919L178.206 129.8C178.231 129.786 178.253 129.768 178.272 129.747L178.325 129.707L178.392 129.661L178.557 129.548C178.77 129.421 178.991 129.311 179.22 129.216H179.286L179.458 129.15C179.578 129.11 179.7 129.077 179.823 129.05C179.907 129.024 179.984 128.981 180.052 128.924C180.119 128.867 180.174 128.798 180.214 128.719C180.254 128.641 180.279 128.555 180.285 128.467C180.292 128.38 180.281 128.291 180.253 128.208Z" fill="#E6E7E8"/>
<path d="M83.1109 84.0784C82.6923 83.6018 82.1088 83.3019 81.4781 83.2391C80.8474 83.1763 80.2163 83.3553 79.7122 83.7401C79.3106 83.3515 78.835 83.0479 78.3137 82.8473C77.7924 82.6467 77.2361 82.5533 76.678 82.5725C75.9796 82.6125 75.2997 82.8122 74.6905 83.1563C74.0886 82.7189 73.3521 82.5075 72.6102 82.5592C70.7353 82.7317 69.6091 84.5494 69.4633 86.2677C69.3905 87.1234 70.7155 87.1168 70.7883 86.2677C70.8042 85.7521 70.9743 85.2532 71.2767 84.8356C71.5792 84.418 71.9999 84.1011 72.4844 83.9258C72.8935 83.8266 73.3248 83.8809 73.6967 84.0784C73.5162 84.375 73.4328 84.7206 73.4582 85.0669C73.4837 85.3954 73.6366 85.7009 73.8843 85.9179C74.132 86.1349 74.4547 86.2462 74.7832 86.2278C75.6047 86.188 75.8962 85.4185 75.7439 84.702C75.7053 84.5208 75.6452 84.3449 75.565 84.1779C75.9315 83.9948 76.3347 83.8973 76.7442 83.8927C77.1989 83.8753 77.6509 83.9696 78.0609 84.1673C78.4708 84.3651 78.8262 84.6602 79.0961 85.0271C79.1548 85.1261 79.2381 85.2081 79.338 85.2651C79.4379 85.322 79.5509 85.352 79.6659 85.352C79.7808 85.352 79.8938 85.322 79.9937 85.2651C80.0936 85.2081 80.177 85.1261 80.2356 85.0271C80.3488 84.8786 80.4946 84.7582 80.6618 84.6753C80.829 84.5925 81.013 84.5494 81.1995 84.5494C81.3861 84.5494 81.5701 84.5925 81.7373 84.6753C81.9045 84.7582 82.0503 84.8786 82.1635 85.0271C82.7067 85.6905 83.6409 84.7418 83.1109 84.0784Z" fill="#E6E7E8"/>
</svg>
