<svg width="237" height="177" viewBox="0 0 237 177" fill="none" xmlns="http://www.w3.org/2000/svg">
<path d="M73.7323 34.5C73.7323 34.5 62.4152 41.293 60.5681 53.1438C59.292 61.2955 60.5681 100.5 60.5681 100.5H74.001L73.7323 34.5Z" fill="#5094D1"/>
<path d="M77.4266 77.988L76.001 150.295L88.1588 151.126L96.5778 99.5963L107.64 153L121.001 150.295L110.175 73L77.4266 77.988Z" fill="#231F20"/>
<path d="M102.041 148.825C101.984 148.825 101.929 148.809 101.881 148.778C101.815 148.735 101.768 148.667 101.751 148.59L92.3298 102.655L85.1724 146.911C85.1595 146.983 85.1204 147.048 85.0626 147.094C85.0047 147.139 84.9321 147.162 84.8584 147.158L74.146 146.418C74.0695 146.414 73.9978 146.38 73.9458 146.324C73.8939 146.268 73.8658 146.195 73.8675 146.119L75.1236 81.7776C75.1243 81.7089 75.1498 81.6428 75.1954 81.5911C75.2411 81.5394 75.3039 81.5056 75.3725 81.4958L104.227 77.0572C104.265 77.0508 104.305 77.0521 104.342 77.0612C104.38 77.0703 104.415 77.0869 104.446 77.1101C104.479 77.1337 104.506 77.1635 104.526 77.1978C104.547 77.2322 104.56 77.2702 104.565 77.3097L114.11 146.084C114.121 146.158 114.102 146.234 114.058 146.295C114.014 146.356 113.948 146.398 113.873 146.412L102.1 148.819L102.041 148.825ZM92.2943 100.718C92.3626 100.718 92.4288 100.741 92.4817 100.784C92.5346 100.827 92.5709 100.886 92.5846 100.953L102.272 148.185L113.482 145.896L104.002 77.6855L75.7102 82.0418L74.4659 145.86L84.6273 146.559L92.0039 100.97C92.0149 100.903 92.0494 100.841 92.1013 100.796C92.1532 100.751 92.2194 100.725 92.2883 100.724L92.2943 100.718Z" fill="#231F20"/>
<path d="M197.48 1H115.522C114.13 1 113.001 2.10632 113.001 3.47104V52.5289C113.001 53.8937 114.13 55 115.522 55H197.48C198.872 55 200.001 53.8937 200.001 52.5289V3.47104C200.001 2.10632 198.872 1 197.48 1Z" fill="white"/>
<path d="M197.174 55H115.828C115.078 55 114.359 54.7095 113.829 54.1923C113.299 53.6752 113.001 52.9738 113.001 52.2424V3.75756C113.001 3.02621 113.299 2.32482 113.829 1.80767C114.359 1.29053 115.078 1 115.828 1H197.174C197.924 1 198.643 1.29053 199.173 1.80767C199.703 2.32482 200.001 3.02621 200.001 3.75756V52.2149C200.005 52.5793 199.934 52.9409 199.794 53.2786C199.653 53.6164 199.446 53.9236 199.183 54.1826C198.92 54.4416 198.607 54.6472 198.262 54.7875C197.918 54.9278 197.548 55 197.174 55ZM115.828 1.66871C115.265 1.66871 114.726 1.8866 114.329 2.27446C113.931 2.66232 113.708 3.18837 113.708 3.73688V52.2149C113.708 52.7634 113.931 53.2894 114.329 53.6773C114.726 54.0651 115.265 54.283 115.828 54.283H197.174C197.736 54.283 198.276 54.0651 198.673 53.6773C199.071 53.2894 199.294 52.7634 199.294 52.2149V3.75756C199.294 3.20905 199.071 2.683 198.673 2.29515C198.276 1.90729 197.736 1.68939 197.174 1.68939L115.828 1.66871Z" fill="#D1D3D4"/>
<path d="M194.649 52H118.353C118.259 52 118.17 51.9636 118.104 51.8988C118.038 51.8341 118.001 51.7462 118.001 51.6546V6.3454C118.001 6.25379 118.038 6.16594 118.104 6.10117C118.17 6.03639 118.259 6 118.353 6H194.649C194.743 6 194.832 6.03639 194.898 6.10117C194.964 6.16594 195.001 6.25379 195.001 6.3454V51.6546C195.001 51.7462 194.964 51.8341 194.898 51.8988C194.832 51.9636 194.743 52 194.649 52ZM118.676 51.3092H194.298V6.69079H118.719L118.676 51.3092Z" fill="#D1D3D4"/>
<path d="M143.968 16.1793L156.814 28.7321C156.878 28.8034 156.957 28.8597 157.046 28.8967C157.135 28.9338 157.231 28.9506 157.328 28.9459H177.001C176.908 31.937 176.08 34.862 174.589 37.4733C173.097 40.0845 170.985 42.3051 168.432 43.9469C165.879 45.5888 162.96 46.6035 159.921 46.9051C156.883 47.2068 153.815 46.7865 150.978 45.6799C148.14 44.5733 145.617 42.813 143.621 40.548C141.625 38.283 140.216 35.58 139.512 32.6681C138.809 29.7561 138.832 26.7209 139.579 23.8194C140.327 20.918 141.777 18.2358 143.807 16L143.968 16.1793Z" fill="#5094D1"/>
<path d="M158.001 10V28H158.198L176.611 27.9585C177.013 27.9585 177.02 27.9585 176.991 27.5638C176.758 24.1372 175.54 20.8363 173.468 18.0185C171.396 15.2008 168.55 12.9737 165.237 11.5785C163.215 10.743 161.062 10.2262 158.863 10.0485L158.001 10Z" fill="#D1D3D4"/>
<path d="M157.001 27V10C154.976 10.1017 152.979 10.5175 151.085 11.2323C148.819 12.1193 146.752 13.4384 145.001 15.1146L157.001 27Z" fill="#D1D3D4"/>
<path d="M82.5526 20C81.894 17.5767 81.3961 15.1127 81.0622 12.624C80.8434 10.1244 81.1784 7.47447 82.6004 5.40509C83.1395 4.54491 83.9502 3.88882 84.9044 3.5406C85.6722 3.4351 86.454 3.50993 87.1878 3.75915C87.884 3.24895 88.6075 2.77701 89.355 2.34542C90.9876 1.61774 92.7388 1.19197 94.5235 1.08877C97.0394 0.849732 99.9518 0.979495 101.552 2.93277C102.728 4.36699 102.83 6.34758 102.878 8.22573L103.001 12.9723" fill="white"/>
<path d="M82.8512 20C82.773 20 82.6972 19.9731 82.6367 19.924C82.5762 19.8748 82.5347 19.8064 82.5194 19.7304C82.38 19.1123 82.2274 18.5007 82.0747 17.8891C81.6045 16.1497 81.2651 14.3781 81.0593 12.589C80.8867 10.6162 81.0128 7.72938 82.6189 5.41466C83.0274 4.59541 83.7322 3.95855 84.593 3.63077C85.4539 3.303 86.4077 3.30834 87.2648 3.64575C87.9037 3.17159 88.5684 2.73254 89.2559 2.33057C90.8793 1.61506 92.6192 1.1941 94.3928 1.08772C97.8573 0.752352 100.187 1.37706 101.514 2.98816C102.842 4.59925 102.842 6.69696 102.875 8.28175L103.001 12.8849C103.003 12.9745 102.969 13.0612 102.907 13.1264C102.845 13.1915 102.759 13.23 102.669 13.2334C102.624 13.2371 102.578 13.2313 102.535 13.2163C102.492 13.2014 102.452 13.1777 102.419 13.1466C102.386 13.1156 102.36 13.0781 102.342 13.0364C102.325 12.9947 102.316 12.9498 102.317 12.9046L102.191 8.30148C102.145 6.36817 102.019 4.66501 100.983 3.41559C99.8152 1.9952 97.6648 1.44282 94.4592 1.76504C92.7786 1.87352 91.131 2.27884 89.5943 2.96185C88.8853 3.36346 88.1985 3.80248 87.5369 4.27703C87.4936 4.30865 87.4432 4.32936 87.39 4.33738C87.3368 4.3454 87.2824 4.34049 87.2316 4.32306C86.5933 4.10114 85.9112 4.03131 85.2405 4.11921C84.3922 4.43407 83.6716 5.01628 83.1897 5.77634C81.6964 7.92666 81.5836 10.6228 81.7495 12.5101C81.9501 14.2644 82.2852 16.001 82.7517 17.705C82.8977 18.3231 83.0503 18.9413 83.1897 19.566C83.2004 19.6092 83.2022 19.6542 83.1948 19.6981C83.1875 19.742 83.1712 19.784 83.147 19.8215C83.1228 19.859 83.0912 19.8913 83.054 19.9163C83.0169 19.9413 82.975 19.9586 82.9309 19.9671L82.8512 20Z" fill="#231F20"/>
<path d="M112.001 84.5173C109.324 72.08 104.097 34.7284 102.906 34.1931C100.008 32.8714 84.6884 31.4109 81.2217 37.233C80.1442 39.057 83.2897 77.4197 84.6751 88L112.001 84.5173Z" fill="#231F20"/>
<path d="M97.167 39.6087L95.1681 44.1754L100.001 71.3365L96.5714 77L91.0061 73.0315L92.9571 43.956L88.001 38L97.167 39.6087Z" fill="white"/>
<path d="M96.4059 77.9999C96.3336 78.0014 96.2629 77.9778 96.205 77.9329L90.9364 73.9128C90.8912 73.8782 90.8551 73.8326 90.8313 73.7799C90.8076 73.7272 90.7969 73.6693 90.8003 73.6113L92.6667 44.4584L88.0591 38.5621C88.0212 38.5037 88.001 38.4349 88.001 38.3645C88.001 38.2941 88.0212 38.2253 88.0591 38.1668C88.0948 38.1065 88.1473 38.0588 88.2098 38.03C88.2723 38.0013 88.3418 37.9929 88.409 38.006L97.0799 39.6275C97.1298 39.6367 97.1768 39.6578 97.2173 39.6893C97.2579 39.7207 97.2907 39.7615 97.3132 39.8084C97.3354 39.8541 97.347 39.9046 97.347 39.9558C97.347 40.007 97.3354 40.0575 97.3132 40.1032L95.4598 44.6125L100.501 71.5C100.515 71.5813 101.051 71.3695 100.501 72L96.7105 77.8324C96.6871 77.874 96.6553 77.9099 96.6173 77.9377C96.5793 77.9654 96.5359 77.9844 96.4902 77.9932L96.4059 77.9999ZM91.4808 73.4906L96.3022 77.149L99.501 72L94.7664 44.6259C94.7471 44.5649 94.7471 44.4992 94.7664 44.4383L96.4967 40.264L89.1219 38.8838L93.2435 44.1636C93.2955 44.2319 93.321 44.318 93.3148 44.4048L91.4808 73.4906Z" fill="#231F20"/>
<path d="M90.8617 92.6473L85.4888 35.0568L100.264 34.5443L102.951 92.6473L117.001 91.2563C114.832 72.2879 113.099 37.2265 111.286 35.2698C104.469 27.9487 86.9932 30.3912 86.9932 30.3912C86.9932 30.3912 74.4139 30.9902 70.4245 38.2914C69.4238 40.1217 70.4917 89.0932 70.6327 97L90.8617 92.6473Z" fill="#5094D1"/>
<path d="M72.501 94.9999C72.3701 95 72.2443 94.9646 72.1509 94.9016C72.0574 94.8386 72.0036 94.7528 72.0011 94.6628C72.0011 94.167 72.0011 45.0844 72.0011 44.344C71.9998 44.2992 72.0115 44.2546 72.0356 44.213C72.0597 44.1713 72.0956 44.1333 72.1412 44.1013C72.1869 44.0693 72.2414 44.0439 72.3015 44.0265C72.3616 44.0092 72.4262 44.0003 72.4914 44.0003C72.5566 43.9985 72.6216 44.0057 72.6827 44.0214C72.7438 44.0372 72.7998 44.0611 72.8472 44.0919C72.8947 44.1227 72.9327 44.1597 72.9591 44.2007C72.9855 44.2417 72.9997 44.2859 73.001 44.3308C73.001 45.0447 73.001 92.6334 73.001 94.6628C73.001 94.7076 72.988 94.752 72.9628 94.7934C72.9375 94.8347 72.9005 94.8722 72.854 94.9036C72.8074 94.9349 72.7522 94.9596 72.6916 94.9762C72.631 94.9927 72.5662 95.0008 72.501 94.9999Z" fill="#231F20"/>
<path d="M70.3017 96.9872C70.2247 96.9764 70.1536 96.9419 70.0996 96.8889C70.0455 96.8359 70.0116 96.7674 70.0031 96.6943C69.9946 96.6211 70.0119 96.5473 70.0525 96.4845C70.093 96.4217 70.1545 96.3733 70.2272 96.347L90.2624 92.1985L89.8696 82.3457C89.8676 82.2589 89.9009 82.1746 89.9626 82.1103C90.0244 82.046 90.1099 82.0065 90.2015 82C90.294 81.9998 90.3831 82.0326 90.451 82.092C90.5188 82.1514 90.5604 82.2329 90.5672 82.3201L91.0007 92.4738C91.0039 92.5514 90.9777 92.6276 90.9268 92.6886C90.8759 92.7496 90.8036 92.7915 90.723 92.8067L70.4033 97L70.3017 96.9872Z" fill="#231F20"/>
<path d="M99.0103 30.3561L99.8453 35.5741C99.8453 35.5741 98.9962 43.1737 93.0529 41.8438C87.1095 40.5139 84.7588 35.3298 84.7588 35.3298L84.001 21.5351C84.001 21.5351 88.3725 19.2281 86.9902 10C91.8614 11.9793 97.1956 12.6475 102.428 11.9338C102.428 11.9338 104.533 21.4334 103.873 25.8642C103.768 27.0574 103.216 28.1724 102.32 28.9996C101.425 29.8268 100.248 30.3092 99.0103 30.3561Z" fill="white"/>
<path d="M94.388 42.099C93.9316 42.0952 93.4772 42.0416 93.0329 41.9395C91.2517 41.4989 89.59 40.6824 88.1635 39.547C86.7371 38.4116 85.5803 36.9845 84.7737 35.3654C84.7674 35.3257 84.7674 35.2853 84.7737 35.2457L84.0013 21.7451C83.9983 21.6805 84.0139 21.6163 84.0462 21.5599C84.0786 21.5035 84.1264 21.4571 84.1843 21.4261C84.2249 21.4261 88.1682 19.1328 86.8944 10.4913C86.8844 10.4294 86.8924 10.366 86.9176 10.3083C86.9428 10.2507 86.9841 10.2012 87.0367 10.1656C87.0882 10.1295 87.1486 10.1074 87.2117 10.1016C87.2748 10.0957 87.3383 10.1064 87.3958 10.1324C92.037 12.0207 97.1081 12.6586 102.085 11.9803C102.172 11.9697 102.26 11.9909 102.333 12.0399C102.405 12.0889 102.457 12.1624 102.478 12.2462C102.559 12.6318 104.51 21.6521 103.873 26.0193C103.768 27.1974 103.251 28.3036 102.41 29.1513C101.57 29.9989 100.457 30.5362 99.2594 30.6724L100.005 35.4252C100.011 35.4558 100.011 35.4876 100.005 35.5182C100.005 35.6778 99.5304 39.5664 97.0371 41.3014C96.2641 41.8391 95.3354 42.1188 94.388 42.099ZM85.4309 35.146C85.6952 35.6844 87.9988 40.0916 93.1752 41.2748C93.7568 41.4365 94.3675 41.4716 94.9644 41.3774C95.5613 41.2833 96.13 41.0622 96.6306 40.7297C98.7377 39.2606 99.2459 35.8905 99.3001 35.4717L98.5006 30.3866C98.4941 30.3381 98.498 30.2888 98.512 30.2419C98.526 30.195 98.5498 30.1514 98.5819 30.114C98.615 30.0771 98.6556 30.0474 98.7011 30.0268C98.7466 30.0062 98.796 29.9951 98.8461 29.9944C99.9531 29.952 101.006 29.5122 101.804 28.7586C102.602 28.0049 103.09 26.9899 103.176 25.9063C103.738 22.1041 102.193 14.3335 101.821 12.6916C97.0212 13.264 92.152 12.6729 87.6397 10.9699C88.6018 18.6608 85.5123 21.3131 84.6857 21.8781L85.4309 35.146Z" fill="#231F20"/>
<path d="M95.9626 18C95.9626 18 98.6525 22.9279 97.8523 23.6701C97.052 24.4123 95.001 23.6701 95.001 23.6701" fill="white"/>
<path d="M96.6845 23.9965C96.1723 23.9786 95.6655 23.8579 95.183 23.639C95.1142 23.6073 95.0581 23.5423 95.0271 23.4582C94.996 23.374 94.9925 23.2777 95.0174 23.1903C95.0291 23.1465 95.0477 23.1061 95.0719 23.0716C95.0962 23.0371 95.1258 23.0092 95.1588 22.9896C95.1918 22.97 95.2275 22.959 95.264 22.9573C95.3004 22.9557 95.3367 22.9634 95.3707 22.98C95.7626 23.1553 96.9826 23.5478 97.4298 23.0361C97.6948 22.7207 96.9274 20.085 95.8289 17.5194C95.8106 17.4792 95.799 17.4347 95.7947 17.3885C95.7904 17.3424 95.7935 17.2957 95.8038 17.2511C95.8141 17.2066 95.8314 17.1651 95.8547 17.1293C95.878 17.0935 95.9068 17.0641 95.9393 17.0428C95.9708 17.0207 96.0054 17.0068 96.0411 17.002C96.0768 16.9971 96.113 17.0013 96.1474 17.0144C96.1818 17.0274 96.2139 17.049 96.2416 17.078C96.2694 17.1069 96.2924 17.1426 96.3092 17.183C97.0102 18.8092 98.5504 22.6856 97.7997 23.5548C97.4825 23.8691 97.0862 24.0261 96.6845 23.9965Z" fill="#231F20"/>
<path d="M91.1473 18.013C91.4547 18.0002 91.6799 17.4245 91.6503 16.7272C91.6207 16.0298 91.3474 15.475 91.04 15.4878C90.7326 15.5006 90.5074 16.0763 90.537 16.7736C90.5666 17.4709 90.8399 18.0258 91.1473 18.013Z" fill="#231F20"/>
<path d="M100.059 18.0141C100.367 18.0013 100.592 17.4256 100.562 16.7283C100.533 16.0309 100.26 15.4761 99.9521 15.4889C99.6447 15.5017 99.4195 16.0774 99.4491 16.7747C99.4788 17.472 99.752 18.0269 100.059 18.0141Z" fill="#231F20"/>
<path d="M88.001 19.0357C87.4952 18.1237 86.8263 17.3232 86.0311 16.6786C85.6176 16.2987 85.103 16.0618 84.5572 16C84.1091 16.0024 83.671 16.1386 83.2938 16.3929C82.7271 16.7409 82.2369 17.211 81.8552 17.7723C81.4736 18.3337 81.2092 18.9736 81.0794 19.65C80.9554 20.2774 80.9787 20.9271 81.1473 21.5429C81.4718 22.4968 82.1071 23.299 82.9405 23.8071C83.7653 24.3102 84.6429 24.7105 85.5557 25" fill="white"/>
<path d="M85.5068 24.9952C85.4719 25.0016 85.4363 25.0016 85.4014 24.9952C84.5357 24.7205 83.7031 24.339 82.9204 23.8584C82.0983 23.343 81.4725 22.5358 81.1528 21.5782C80.9769 20.9537 80.9534 20.2918 81.0845 19.6549C81.212 18.9818 81.4712 18.3449 81.8452 17.7857C82.2193 17.2265 82.6998 16.7577 83.2554 16.4098C83.6525 16.142 84.1128 15.9999 84.5827 16C85.1458 16.0647 85.6776 16.3088 86.1085 16.7006C86.8593 17.3275 87.4908 18.1014 87.9692 18.9808C88.0041 19.0582 88.0105 19.1466 87.9872 19.2288C87.964 19.311 87.9127 19.3809 87.8435 19.4249C87.7743 19.4688 87.6921 19.4835 87.6132 19.4662C87.5343 19.4488 87.4644 19.4006 87.4172 19.3311C86.9835 18.522 86.4088 17.8086 85.7239 17.2293C85.3967 16.926 84.9937 16.7308 84.5641 16.6675C84.2163 16.6756 83.8773 16.7853 83.5841 16.9848C83.108 17.285 82.6963 17.6883 82.3758 18.1688C82.0553 18.6492 81.833 19.1961 81.7234 19.7739C81.6172 20.2989 81.6343 20.8438 81.773 21.3601C82.0494 22.1636 82.5802 22.8391 83.274 23.2702C84.0085 23.7186 84.7889 24.0757 85.5999 24.3343C85.6803 24.3643 85.7464 24.427 85.7836 24.5087C85.8208 24.5905 85.8261 24.6846 85.7983 24.7705C85.7755 24.8341 85.7358 24.8892 85.684 24.9291C85.6322 24.969 85.5707 24.992 85.5068 24.9952Z" fill="#231F20"/>
<path d="M99.2178 30.4781C95.7163 30.9337 92.1371 30.4159 89.001 29C89.001 29 94.1956 35.877 100.001 34.9061L99.2178 30.4781Z" fill="#231F20"/>
<path d="M98.6126 36C93.4941 36 89.2601 29.786 89.0711 29.5051C89.0256 29.4479 89.001 29.3779 89.001 29.3058C89.001 29.2337 89.0256 29.1636 89.0711 29.1065C89.1216 29.0538 89.1883 29.0184 89.2613 29.0055C89.3343 28.9925 89.4097 29.0027 89.4762 29.0346C92.3596 30.4692 95.6346 30.9947 98.8421 30.5375C98.9327 30.5199 99.0269 30.5362 99.1055 30.5832C99.1434 30.6091 99.1755 30.6421 99.1998 30.6803C99.2242 30.7184 99.2403 30.761 99.2473 30.8054L99.9968 35.523C100.011 35.6061 99.9899 35.6911 99.9393 35.7596C99.8888 35.828 99.8124 35.8745 99.7267 35.8889C99.3602 35.9626 98.9869 35.9998 98.6126 36ZM90.3946 30.1193C91.9004 31.988 95.4118 35.3545 99.2473 34.871L98.6328 31.2105C95.8377 31.5637 92.9958 31.1963 90.3946 30.1454V30.1193Z" fill="#231F20"/>
<path d="M96.001 28C96.5533 28 97.001 27.3284 97.001 26.5C97.001 25.6716 96.5533 25 96.001 25C95.4487 25 95.001 25.6716 95.001 26.5C95.001 27.3284 95.4487 28 96.001 28Z" fill="#231F20"/>
<path d="M91.501 21C90.611 21 89.7409 20.7361 89.0009 20.2416C88.2609 19.7471 87.6841 19.0443 87.3435 18.2221C87.0029 17.3998 86.9138 16.495 87.0874 15.6221C87.2611 14.7492 87.6897 13.9474 88.319 13.318C88.9483 12.6887 89.7502 12.2601 90.6231 12.0865C91.496 11.9128 92.4008 12.0019 93.2231 12.3425C94.0453 12.6831 94.7481 13.2599 95.2426 13.9999C95.7371 14.74 96.001 15.61 96.001 16.5C95.9992 17.6929 95.5245 18.8365 94.681 19.68C93.8375 20.5236 92.6939 20.9982 91.501 21ZM91.501 12.6887C90.7472 12.6887 90.0103 12.9122 89.3835 13.331C88.7568 13.7498 88.2683 14.3451 87.9798 15.0415C87.6913 15.7379 87.6159 16.5042 87.7629 17.2435C87.91 17.9829 88.273 18.662 88.806 19.195C89.339 19.728 90.0181 20.091 90.7574 20.2381C91.4968 20.3851 92.2631 20.3096 92.9595 20.0212C93.6559 19.7327 94.2512 19.2442 94.6699 18.6174C95.0887 17.9907 95.3123 17.2538 95.3123 16.5C95.3052 15.4932 94.9008 14.53 94.187 13.8199C93.4732 13.1099 92.5078 12.7105 91.501 12.7088V12.6887Z" fill="#231F20"/>
<path d="M100.501 21C99.611 21 98.7409 20.7361 98.0009 20.2416C97.2609 19.7471 96.6841 19.0443 96.3435 18.2221C96.0029 17.3998 95.9138 16.495 96.0874 15.6221C96.2611 14.7492 96.6897 13.9474 97.319 13.318C97.9483 12.6887 98.7502 12.2601 99.6231 12.0865C100.496 11.9128 101.401 12.0019 102.223 12.3425C103.045 12.6831 103.748 13.2599 104.243 13.9999C104.737 14.74 105.001 15.61 105.001 16.5C104.999 17.6929 104.525 18.8365 103.681 19.68C102.837 20.5236 101.694 20.9982 100.501 21ZM100.501 12.6887C99.7472 12.6887 99.0103 12.9122 98.3835 13.331C97.7568 13.7498 97.2683 14.3451 96.9798 15.0415C96.6913 15.7379 96.6159 16.5042 96.7629 17.2435C96.91 17.9829 97.273 18.662 97.806 19.195C98.339 19.728 99.0181 20.091 99.7574 20.2381C100.497 20.3851 101.263 20.3096 101.959 20.0212C102.656 19.7327 103.251 19.2442 103.67 18.6174C104.089 17.9907 104.312 17.2538 104.312 16.5C104.307 15.4927 103.903 14.5284 103.189 13.818C102.475 13.1075 101.508 12.7088 100.501 12.7088V12.6887Z" fill="#231F20"/>
<path d="M146.002 43.1946C145.948 42.5603 149.09 40.6505 149.597 40.1174C151.4 38.1873 153.22 36.2528 155.059 34.3138C155.543 33.6626 156.246 33.2075 157.039 33.0316C157.185 33.0091 157.335 33.0352 157.465 33.1058C157.843 33.3285 157.695 33.9021 157.465 34.2935C156.668 35.8348 155.765 37.3185 154.761 38.734C157.465 36.8714 160.207 35.0876 162.987 33.3825C163.419 33.1193 163.967 32.8494 164.413 33.0991C164.548 33.1945 164.662 33.3159 164.749 33.4561C164.836 33.5964 164.894 33.7526 164.92 33.9156C165.15 35.2932 164.887 36.7077 164.176 37.9107C162.209 41.791 158.675 44.5376 155.119 46.886C153.396 48.0197 151.916 49.3221 150.246 50.5368C149.915 50.7798 146.833 52.6153 146.867 53L146.002 43.1946Z" fill="white"/>
<path d="M146.256 52.9674C146.169 52.9648 146.087 52.9323 146.023 52.876C145.959 52.8197 145.918 52.7432 145.909 52.6606L145.738 50.8526C145.473 48.1048 145.003 43.1901 145.003 43.1705C144.955 42.6222 145.793 41.9826 147.584 40.7555C147.977 40.5017 148.354 40.2271 148.715 39.9331L152.345 36.2324L154.259 34.32C154.811 33.6465 155.596 33.1837 156.472 33.0146C156.706 32.9758 156.946 33.0149 157.153 33.1256C157.63 33.3997 157.691 34.0132 157.31 34.7181C156.785 35.6972 156.206 36.6762 155.593 37.59C157.821 36.141 160.095 34.7377 162.404 33.3997C162.649 33.2036 162.945 33.0742 163.26 33.0248C163.575 32.9755 163.898 33.008 164.195 33.119C164.376 33.2319 164.529 33.3796 164.647 33.5527C164.764 33.7258 164.842 33.9204 164.876 34.1242C165.183 35.3056 164.924 36.6436 164.1 38.2166C162.057 42.1327 158.27 44.8609 154.851 47.0279C153.816 47.6806 152.808 48.4181 151.895 49.1295C151.262 49.606 150.628 50.0825 149.961 50.5524L149.382 50.9114C148.422 51.4405 147.51 52.0476 146.658 52.7259C146.642 52.7994 146.601 52.8659 146.542 52.9153C146.483 52.9648 146.409 52.9945 146.331 53L146.256 52.9674ZM145.704 43.1378C145.738 43.4968 146.188 48.157 146.44 50.7939C146.481 51.2508 146.515 51.5902 146.535 51.8513C146.978 51.5184 147.707 51.0419 148.912 50.3109C149.185 50.1477 149.382 50.0237 149.457 49.9715C150.138 49.5081 150.744 49.0382 151.378 48.5617C152.331 47.8503 153.312 47.1062 154.381 46.4339C157.718 44.3127 161.396 41.6432 163.385 37.8772C164.068 36.7908 164.325 35.5061 164.107 34.2547C164.093 34.1404 164.055 34.0299 163.995 33.9301C163.936 33.8302 163.855 33.743 163.759 33.6738C163.473 33.5172 163.031 33.7326 162.677 33.9414C159.884 35.5732 157.105 37.3158 154.415 39.1042C154.348 39.1514 154.266 39.1735 154.183 39.1663C154.1 39.159 154.023 39.123 153.966 39.0651C153.906 39.0097 153.87 38.9359 153.862 38.8569C153.855 38.7779 153.877 38.699 153.925 38.6343C154.936 37.2785 155.846 35.8565 156.649 34.3787C156.826 34.0589 156.867 33.726 156.751 33.6738C156.68 33.6519 156.604 33.6519 156.533 33.6738C155.824 33.837 155.198 34.2374 154.769 34.803L152.89 36.7219L149.225 40.4096C148.837 40.7386 148.425 41.0418 147.993 41.3168C147.291 41.7933 145.827 42.7919 145.704 43.1378Z" fill="#231F20"/>
<path d="M136.628 13H124.374C124.275 13 124.18 12.9473 124.11 12.8536C124.04 12.7598 124.001 12.6326 124.001 12.5C124.001 12.3674 124.04 12.2402 124.11 12.1464C124.18 12.0527 124.275 12 124.374 12H136.628C136.727 12 136.822 12.0527 136.892 12.1464C136.962 12.2402 137.001 12.3674 137.001 12.5C137.001 12.6326 136.962 12.7598 136.892 12.8536C136.822 12.9473 136.727 13 136.628 13Z" fill="#D1D3D4"/>
<path d="M136.628 10H124.374C124.275 10 124.18 9.94732 124.11 9.85355C124.04 9.75979 124.001 9.63261 124.001 9.5C124.001 9.36739 124.04 9.24021 124.11 9.14645C124.18 9.05268 124.275 9 124.374 9H136.628C136.727 9 136.822 9.05268 136.892 9.14645C136.962 9.24021 137.001 9.36739 137.001 9.5C137.001 9.63261 136.962 9.75979 136.892 9.85355C136.822 9.94732 136.727 10 136.628 10Z" fill="#D1D3D4"/>
<path d="M188.628 46H176.374C176.275 46 176.18 45.9473 176.11 45.8536C176.04 45.7598 176.001 45.6326 176.001 45.5C176.001 45.3674 176.04 45.2402 176.11 45.1464C176.18 45.0527 176.275 45 176.374 45H188.628C188.727 45 188.822 45.0527 188.892 45.1464C188.962 45.2402 189.001 45.3674 189.001 45.5C189.001 45.6326 188.962 45.7598 188.892 45.8536C188.822 45.9473 188.727 46 188.628 46Z" fill="#D1D3D4"/>
<path d="M188.628 43H176.374C176.275 43 176.18 42.9473 176.11 42.8536C176.04 42.7598 176.001 42.6326 176.001 42.5C176.001 42.3674 176.04 42.2402 176.11 42.1464C176.18 42.0527 176.275 42 176.374 42H188.628C188.727 42 188.822 42.0527 188.892 42.1464C188.962 42.2402 189.001 42.3674 189.001 42.5C189.001 42.6326 188.962 42.7598 188.892 42.8536C188.822 42.9473 188.727 43 188.628 43Z" fill="#D1D3D4"/>
<path d="M132.642 16H124.36C124.265 16 124.174 15.9473 124.106 15.8536C124.039 15.7598 124.001 15.6326 124.001 15.5C124.003 15.3682 124.041 15.2425 124.108 15.1493C124.175 15.0561 124.266 15.0026 124.36 15H132.642C132.737 15 132.828 15.0527 132.896 15.1464C132.963 15.2402 133.001 15.3674 133.001 15.5C133.001 15.6326 132.963 15.7598 132.896 15.8536C132.828 15.9473 132.737 16 132.642 16Z" fill="#D1D3D4"/>
<path d="M174.735 109.976C175.398 105.867 182.242 104.88 181.904 109.7C181.85 111.373 181.204 112.973 180.079 114.221C179.506 114.829 178.764 115.255 177.946 115.444C177.129 115.633 176.273 115.578 175.487 115.284" fill="white"/>
<path d="M176.915 115.877C176.381 115.882 175.851 115.774 175.363 115.56C175.326 115.544 175.293 115.52 175.265 115.492C175.238 115.463 175.216 115.429 175.202 115.392C175.188 115.355 175.181 115.315 175.182 115.276C175.183 115.236 175.192 115.197 175.209 115.161C175.225 115.124 175.248 115.092 175.277 115.064C175.306 115.037 175.341 115.016 175.378 115.002C175.415 114.987 175.455 114.981 175.495 114.982C175.535 114.983 175.575 114.992 175.611 115.008C176.339 115.281 177.133 115.331 177.89 115.153C178.647 114.976 179.333 114.577 179.86 114.01C180.932 112.811 181.546 111.278 181.596 109.677C181.762 107.329 180.15 106.882 179.451 106.806C178.445 106.711 177.438 106.986 176.624 107.58C175.81 108.173 175.245 109.043 175.037 110.023C175.031 110.063 175.017 110.101 174.996 110.134C174.976 110.168 174.948 110.198 174.915 110.221C174.883 110.244 174.845 110.26 174.806 110.269C174.767 110.277 174.727 110.278 174.687 110.27C174.607 110.257 174.536 110.213 174.488 110.149C174.44 110.084 174.42 110.003 174.432 109.924C174.66 108.786 175.307 107.774 176.249 107.085C177.191 106.396 178.358 106.081 179.522 106.201C180.926 106.36 182.372 107.376 182.206 109.724C182.144 111.462 181.469 113.124 180.298 114.421C179.409 115.331 178.193 115.854 176.915 115.877Z" fill="#231F20"/>
<path d="M157.682 109.976C157.018 105.867 150.175 104.88 150.513 109.7C150.567 111.373 151.213 112.973 152.338 114.221C152.911 114.829 153.653 115.255 154.471 115.444C155.288 115.633 156.144 115.578 156.93 115.284" fill="white"/>
<path d="M155.502 115.877C154.226 115.857 153.01 115.338 152.119 114.433C150.948 113.136 150.273 111.474 150.211 109.736C150.045 107.387 151.485 106.377 152.895 106.213C154.059 106.094 155.225 106.41 156.167 107.098C157.108 107.787 157.756 108.798 157.985 109.935C157.997 110.015 157.977 110.095 157.929 110.16C157.881 110.225 157.81 110.269 157.73 110.282C157.691 110.289 157.65 110.289 157.611 110.28C157.572 110.272 157.534 110.256 157.502 110.233C157.469 110.21 157.441 110.18 157.421 110.146C157.4 110.112 157.386 110.074 157.38 110.035C157.172 109.054 156.606 108.183 155.791 107.59C154.975 106.996 153.967 106.721 152.96 106.818C152.261 106.894 150.65 107.334 150.815 109.689C150.866 111.289 151.483 112.82 152.557 114.016C153.083 114.585 153.769 114.985 154.526 115.164C155.283 115.343 156.077 115.292 156.806 115.02C156.879 114.987 156.963 114.985 157.039 115.013C157.115 115.042 157.176 115.099 157.209 115.172C157.242 115.246 157.244 115.329 157.215 115.404C157.186 115.478 157.128 115.539 157.054 115.572C156.565 115.781 156.036 115.885 155.502 115.877Z" fill="#231F20"/>
<path d="M177.377 110.276L176.192 98.2636C176.192 98.2636 172.904 94.2595 166.191 94.2595C159.478 94.2595 156.189 98.2636 156.189 98.2636L155.686 108.873C155.686 114.104 157.043 117.245 159.099 119.035L158.571 130.39C158.571 130.39 160.426 134.388 165.829 134.388C167.336 134.43 168.828 134.083 170.16 133.382C171.491 132.682 172.616 131.651 173.425 130.39L172.951 120.11C175.061 118.889 176.601 116.2 177.377 110.276Z" fill="white"/>
<path d="M166.209 94.2595C172.922 94.2595 176.21 98.2636 176.21 98.2636L177.395 110.276C176.619 116.2 175.079 118.889 172.987 120.11L173.461 130.39C172.652 131.651 171.527 132.682 170.196 133.382C168.864 134.083 167.372 134.43 165.865 134.388C160.462 134.388 158.607 130.39 158.607 130.39L159.134 119.035C157.078 117.274 155.722 114.104 155.722 108.873L156.225 98.2636C156.225 98.2636 159.508 94.2595 166.227 94.2595H166.209ZM166.227 93.6724C159.3 93.6724 155.893 97.7352 155.751 97.9055C155.667 98.0064 155.619 98.1325 155.615 98.2636L155.111 108.867C155.111 113.693 156.255 117.198 158.506 119.311L157.997 130.39C157.996 130.485 158.016 130.58 158.056 130.666C158.139 130.848 160.136 135.017 165.865 135.017C167.482 135.065 169.083 134.692 170.51 133.936C171.936 133.18 173.138 132.067 173.994 130.707C174.049 130.608 174.076 130.497 174.071 130.384L173.603 120.433C175.926 118.883 177.283 115.736 177.988 110.352C177.991 110.307 177.991 110.262 177.988 110.217L176.803 98.2108C176.793 98.0899 176.745 97.975 176.666 97.882C176.524 97.7117 173.111 93.649 166.191 93.649L166.227 93.6724Z" fill="#231F20"/>
<path d="M190.981 136.349C184.303 127.214 172.862 126.404 166.019 126.404C159.175 126.404 147.734 127.214 141.057 136.349C134.379 145.485 134.693 162.616 134.693 162.616H197.338C197.338 162.616 197.658 145.485 190.981 136.349Z" fill="#231F20"/>
<path d="M197.338 162.91H134.693C134.616 162.909 134.543 162.878 134.488 162.825C134.432 162.771 134.4 162.699 134.397 162.622C134.397 162.446 134.154 145.285 140.814 136.202C148.173 126.134 161.605 126.134 166.019 126.134C183.859 126.134 189.399 133.713 191.218 136.202C197.878 145.309 197.641 162.47 197.635 162.622C197.633 162.699 197.601 162.772 197.546 162.826C197.49 162.88 197.416 162.91 197.338 162.91ZM134.99 162.323H197.042C197.042 160.039 196.811 144.827 190.738 136.49C184.303 127.684 173.555 126.668 166.019 126.668C158.482 126.668 147.734 127.684 141.294 136.49C135.221 144.827 134.99 160.039 134.99 162.323Z" fill="#231F20"/>
<path d="M145.465 157.62C145.39 157.621 145.317 157.593 145.261 157.543C145.205 157.493 145.17 157.424 145.163 157.35L143.107 137.506C143.118 137.439 143.15 137.378 143.2 137.332C143.249 137.286 143.313 137.258 143.38 137.251C143.448 137.244 143.516 137.26 143.574 137.295C143.631 137.331 143.676 137.384 143.699 137.447L145.755 157.286C145.764 157.366 145.74 157.446 145.689 157.508C145.638 157.571 145.564 157.611 145.483 157.62H145.465Z" fill="white"/>
<path d="M183.705 162.916H183.676C183.596 162.904 183.524 162.862 183.475 162.798C183.426 162.735 183.405 162.655 183.415 162.575L185.874 144.469C185.879 144.43 185.892 144.391 185.912 144.357C185.932 144.323 185.959 144.292 185.991 144.268C186.023 144.244 186.059 144.227 186.098 144.217C186.137 144.207 186.178 144.205 186.217 144.211C186.297 144.222 186.369 144.265 186.418 144.328C186.467 144.392 186.488 144.472 186.478 144.551L184.019 162.658C184.009 162.732 183.971 162.799 183.913 162.847C183.855 162.895 183.781 162.92 183.705 162.916Z" fill="white"/>
<path d="M154.092 127.619C154.092 127.619 154.287 125.206 155.348 124.537C156.408 123.867 173.425 122.775 175.404 124.537C176.616 125.715 177.323 127.311 177.377 128.993C177.377 128.993 157.67 127.202 154.092 127.619Z" fill="#5094D1"/>
<path d="M179.889 128.476H179.801C165.059 123.985 152.741 128.423 152.617 128.476C152.538 128.504 152.451 128.5 152.376 128.465C152.3 128.43 152.242 128.366 152.214 128.288C152.185 128.21 152.189 128.125 152.225 128.05C152.261 127.975 152.325 127.917 152.403 127.889C152.528 127.842 165.035 123.327 179.978 127.889C180.049 127.909 180.109 127.954 180.149 128.015C180.188 128.076 180.204 128.149 180.193 128.221C180.183 128.293 180.146 128.358 180.09 128.405C180.034 128.452 179.963 128.477 179.889 128.476Z" fill="#231F20"/>
<path d="M151.242 111.761C151.064 112.454 150.887 113.153 150.703 113.845C149.773 117.368 148.748 120.891 148.7 124.501C148.653 128.112 149.708 131.928 152.362 134.418C154.767 136.672 158.127 137.57 161.374 138.228C164.716 138.903 168.17 139.402 171.541 138.868C174.912 138.334 178.23 136.584 179.943 133.654C181.72 130.619 181.531 126.838 180.837 123.392C179.961 119.024 178.574 114.791 178.562 110.335C178.562 105.509 178.764 100.589 177.377 95.9034C176.743 93.7605 175.695 91.6117 173.822 90.367C171.95 89.1223 169.082 89.1282 167.684 90.866C168.099 90.3611 163.536 89.2221 163.104 89.2221C161.946 89.1851 160.806 89.5051 159.839 90.138C156.515 92.1048 154.969 94.4768 154.258 98.2049C153.393 102.757 152.388 107.276 151.242 111.761Z" fill="white"/>
<path d="M168.537 139.402C166.104 139.349 163.682 139.054 161.308 138.522C157.99 137.846 154.578 136.913 152.154 134.635C149.731 132.357 148.339 128.646 148.392 124.496C148.439 121.12 149.328 117.797 150.169 114.579L150.389 113.769C150.572 113.076 150.75 112.384 150.928 111.685C152.065 107.229 153.084 102.673 153.95 98.1462C154.696 94.236 156.355 91.8406 159.679 89.8797C160.694 89.2185 161.889 88.8824 163.104 88.9168C163.281 88.9168 166.736 89.6448 167.731 90.3611C169.349 88.7818 172.187 88.9227 173.982 90.1145C175.647 91.2242 176.85 93.0912 177.655 95.8212C178.876 99.931 178.84 104.293 178.84 108.491C178.84 109.078 178.84 109.724 178.84 110.335C178.84 113.523 179.587 116.681 180.304 119.728C180.582 120.902 180.867 122.124 181.11 123.333C181.998 127.783 181.702 131.212 180.179 133.807C178.574 136.555 175.351 138.557 171.559 139.167C170.559 139.326 169.549 139.404 168.537 139.402ZM151.538 111.838C151.36 112.53 151.183 113.229 150.993 113.922L150.78 114.738C149.926 117.914 149.05 121.196 149.002 124.501C148.949 128.488 150.246 132.022 152.557 134.195C154.868 136.367 158.186 137.271 161.445 137.929C164.703 138.586 168.128 139.103 171.517 138.569C175.131 137.981 178.195 136.091 179.705 133.502C181.151 131.042 181.43 127.754 180.571 123.451C180.328 122.247 180.043 121.037 179.765 119.863C179.042 116.781 178.295 113.599 178.283 110.335C178.283 109.747 178.283 109.107 178.283 108.485C178.283 104.334 178.283 100.037 177.098 95.9915C176.334 93.4023 175.214 91.641 173.674 90.6194C171.991 89.4981 169.289 89.41 167.95 91.0539C167.909 91.104 167.852 91.1397 167.789 91.1557C167.725 91.1718 167.658 91.1674 167.597 91.1431C167.537 91.1189 167.485 91.0762 167.451 91.0211C167.416 90.966 167.4 90.9014 167.405 90.8367C166.872 90.4022 163.542 89.5392 163.121 89.5216C162.022 89.4896 160.94 89.7951 160.023 90.3963C156.871 92.2633 155.283 94.5413 154.578 98.2636C153.713 102.796 152.693 107.364 151.55 111.838H151.538Z" fill="#231F20"/>
<path d="M76.3025 109.976C76.9661 105.867 83.8095 104.88 83.4718 109.7C83.4179 111.373 82.7718 112.973 81.6469 114.221C81.0739 114.829 80.3315 115.255 79.5139 115.444C78.6963 115.633 77.8405 115.578 77.055 115.284" fill="white"/>
<path d="M78.483 115.877C77.9486 115.882 77.4194 115.774 76.9306 115.56C76.8573 115.526 76.8001 115.466 76.7713 115.391C76.7425 115.317 76.7444 115.234 76.7766 115.161C76.7926 115.124 76.8158 115.091 76.8448 115.064C76.8739 115.036 76.9082 115.015 76.9457 115C76.9832 114.986 77.0232 114.98 77.0633 114.981C77.1035 114.982 77.1429 114.991 77.1795 115.008C77.9072 115.281 78.7007 115.331 79.4578 115.153C80.2149 114.976 80.9009 114.577 81.4277 114.01C82.5014 112.812 83.1177 111.279 83.1696 109.677C83.3355 107.329 81.7239 106.882 81.0248 106.806C80.0176 106.709 79.0099 106.984 78.1944 107.578C77.3789 108.171 76.8129 109.042 76.6047 110.023C76.6021 110.065 76.5905 110.106 76.5709 110.143C76.5513 110.18 76.5239 110.213 76.4907 110.239C76.4575 110.265 76.4191 110.284 76.3781 110.295C76.3371 110.305 76.2943 110.307 76.2525 110.3C76.2107 110.293 76.1709 110.277 76.1357 110.254C76.1004 110.23 76.0705 110.2 76.0478 110.165C76.0252 110.129 76.0103 110.089 76.0042 110.048C75.998 110.006 76.0008 109.964 76.0122 109.924C76.2381 108.786 76.8848 107.774 77.8255 107.085C78.7661 106.397 79.9326 106.081 81.0959 106.201C82.506 106.36 83.9458 107.375 83.7858 109.724C83.7186 111.462 83.0418 113.123 81.872 114.421C80.9817 115.332 79.7628 115.856 78.483 115.877Z" fill="#231F20"/>
<path d="M59.2504 109.976C58.5868 105.867 51.7435 104.88 52.0812 109.7C52.1351 111.373 52.7811 112.973 53.9061 114.221C54.4791 114.829 55.2215 115.255 56.039 115.444C56.8566 115.633 57.7124 115.578 58.498 115.284" fill="white"/>
<path d="M57.0699 115.877C55.7939 115.857 54.5776 115.338 53.6868 114.433C52.5161 113.136 51.8411 111.474 51.7789 109.736C51.613 107.387 53.0587 106.377 54.4629 106.213C55.6267 106.094 56.7933 106.41 57.7346 107.098C58.6759 107.787 59.3241 108.798 59.5525 109.935C59.5645 110.015 59.5445 110.095 59.4968 110.16C59.4491 110.225 59.3776 110.269 59.2977 110.282C59.2584 110.289 59.2178 110.289 59.1786 110.28C59.1394 110.272 59.1023 110.256 59.0696 110.233C59.0369 110.21 59.0093 110.18 58.9884 110.146C58.9676 110.112 58.9539 110.074 58.9482 110.035C58.7423 109.048 58.1747 108.172 57.3552 107.576C56.5356 106.98 55.5221 106.705 54.5103 106.806C53.8112 106.882 52.1996 107.323 52.3655 109.677C52.4141 111.276 53.0286 112.808 54.1015 114.004C54.6271 114.573 55.3129 114.973 56.0702 115.152C56.8275 115.331 57.6215 115.281 58.3497 115.008C58.3863 114.992 58.4257 114.983 58.4658 114.982C58.5058 114.981 58.5457 114.987 58.5831 115.002C58.6205 115.016 58.6547 115.037 58.6838 115.064C58.7129 115.092 58.7363 115.124 58.7526 115.161C58.769 115.197 58.778 115.236 58.7791 115.276C58.7802 115.315 58.7734 115.355 58.7591 115.392C58.7448 115.429 58.7232 115.463 58.6957 115.492C58.6682 115.52 58.6352 115.544 58.5986 115.56C58.1171 115.77 57.5963 115.878 57.0699 115.877Z" fill="#231F20"/>
<path d="M78.9448 110.276L77.7598 98.2636C77.7598 98.2636 74.4773 94.2595 67.7584 94.2595C61.0394 94.2595 57.757 98.2636 57.757 98.2636L57.2593 108.873C57.2593 114.104 58.6102 117.245 60.6662 119.035L60.1448 130.39C60.1448 130.39 61.9934 134.388 67.397 134.388C68.9039 134.43 70.3959 134.083 71.7273 133.382C73.0586 132.682 74.1838 131.651 74.9928 130.39L74.5188 120.11C76.6281 118.889 78.1686 116.2 78.9448 110.276Z" fill="white"/>
<path d="M67.7767 94.2595C74.4957 94.2595 77.7781 98.2636 77.7781 98.2636L78.9631 110.276C78.187 116.2 76.6465 118.889 74.5549 120.11L75.0289 130.39C74.2199 131.651 73.0947 132.682 71.7634 133.382C70.432 134.083 68.94 134.43 67.4331 134.388C62.0295 134.388 60.1809 130.39 60.1809 130.39L60.7023 119.035C58.6463 117.274 57.2954 114.104 57.2954 108.873L57.7931 98.2636C57.7931 98.2636 61.0815 94.2595 67.7945 94.2595H67.7767ZM67.7945 93.6724C60.8682 93.6724 57.4613 97.7352 57.3191 97.9055C57.2346 98.0064 57.1866 98.1325 57.1828 98.2636L56.6792 108.867C56.6792 113.693 57.8227 117.198 60.0801 119.311L59.5706 130.39C59.5656 130.485 59.5839 130.58 59.6239 130.666C59.7069 130.848 61.7036 135.017 67.4331 135.017C69.0505 135.063 70.6523 134.691 72.0793 133.935C73.5064 133.179 74.7091 132.066 75.5681 130.707C75.6207 130.608 75.6453 130.496 75.6392 130.384L75.183 120.456C77.5056 118.906 78.8624 115.759 79.5734 110.376C79.5794 110.331 79.5794 110.285 79.5734 110.241L78.3884 98.2342C78.3784 98.1133 78.3307 97.9985 78.2521 97.9055C78.1099 97.7352 74.6971 93.6724 67.7767 93.6724H67.7945Z" fill="#231F20"/>
<path d="M55.8372 112.519C57.3481 113.658 58.9893 114.474 59.641 116.628C59.7107 116.954 59.8435 117.263 60.0321 117.538C60.2171 117.741 60.4488 117.896 60.7075 117.99C61.4324 118.302 62.2166 118.454 63.0064 118.437C63.3238 118.38 63.6503 118.398 63.9592 118.489C64.2681 118.581 64.5507 118.744 64.7839 118.965C65.4605 119.397 66.2344 119.656 67.0367 119.72C67.8389 119.783 68.6446 119.649 69.3817 119.329C69.7437 119.117 70.1483 118.987 70.5667 118.947C70.9539 119.003 71.3323 119.107 71.6925 119.259C73.4226 119.711 74.8742 118.349 76.0059 117.28C76.5984 116.722 76.9243 116.64 77.2442 115.865C77.5642 115.09 77.1494 114.256 77.7538 113.587C77.9949 113.357 78.2659 113.159 78.5596 113C79.6912 112.225 80.106 110.781 80.4319 109.477C80.8554 108.017 81.1137 106.515 81.2021 104.998C81.1416 104.395 81.2438 103.787 81.4984 103.236C81.68 102.985 81.878 102.746 82.0909 102.52C82.3629 102.19 82.5476 101.799 82.6283 101.38C82.709 100.962 82.6832 100.531 82.553 100.125C82.3279 99.4554 81.8243 98.8742 81.765 98.1697C81.7354 97.7822 81.848 97.3888 81.8302 96.9954C81.7709 95.7273 80.4497 94.9406 79.2943 94.3887C79.555 91.9698 76.3851 91.7115 74.8387 90.866C73.8743 90.2362 72.7522 89.8845 71.5977 89.8503C70.9045 89.8856 70.2409 90.138 69.5536 90.2026C67.9242 90.3611 66.1526 89.5216 64.7069 90.2907C64.3104 90.5771 63.8832 90.8193 63.433 91.0128C62.9531 91.0969 62.4607 91.0809 61.9873 90.9658C60.4414 90.7927 58.8873 91.2129 57.6443 92.1401C56.7864 93.0129 55.9943 93.947 55.2743 94.9347C54.7989 94.9878 54.3403 95.1407 53.9292 95.3833C53.5181 95.6258 53.1639 95.9525 52.8903 96.3414C52.6167 96.7303 52.4299 97.1726 52.3424 97.6387C52.2549 98.1048 52.2687 98.5841 52.3829 99.0445C52.461 99.2493 52.5166 99.4619 52.5488 99.6785C52.5473 99.9226 52.5135 100.165 52.4481 100.401C52.3578 100.932 52.3996 101.477 52.57 101.988C52.7403 102.5 53.0341 102.963 53.4257 103.336C53.107 103.621 52.8544 103.97 52.6853 104.361C52.5163 104.751 52.4349 105.174 52.4467 105.599C52.4586 106.023 52.5634 106.441 52.7539 106.822C52.9444 107.202 53.2161 107.538 53.5501 107.804C53.412 108.419 53.4273 109.058 53.5945 109.666C53.7618 110.273 54.076 110.831 54.51 111.292C54.9074 111.746 55.3522 112.157 55.8372 112.519Z" fill="white"/>
<path d="M67.4562 120.022C66.4561 120.027 65.4762 119.743 64.6359 119.206L64.4641 119.088C64.2858 118.948 64.0857 118.837 63.8716 118.76C63.6518 118.712 63.426 118.699 63.202 118.718H63.0243C62.1895 118.742 61.3598 118.581 60.595 118.249C60.2935 118.135 60.0234 117.952 59.807 117.714C59.6096 117.451 59.4721 117.149 59.4041 116.828L59.3626 116.699C58.8472 115.02 57.6859 114.198 56.4475 113.323C56.1868 113.141 55.9261 112.953 55.6654 112.736C55.1498 112.364 54.6769 111.936 54.2553 111.462C53.8272 110.989 53.5114 110.427 53.3309 109.818C53.1505 109.208 53.11 108.566 53.2125 107.939C52.5785 107.351 52.2009 106.541 52.16 105.682C52.1191 104.822 52.418 103.981 52.9933 103.336C52.6398 102.932 52.3802 102.456 52.2328 101.942C52.0853 101.428 52.0537 100.887 52.1401 100.36L52.1756 100.183C52.2143 100.028 52.2342 99.8682 52.2349 99.7079C52.2139 99.5695 52.1782 99.4337 52.1282 99.3028L52.0808 99.1443C51.9571 98.6512 51.9386 98.1381 52.0264 97.6375C52.1142 97.137 52.3065 96.6602 52.5909 96.2374C52.8753 95.8147 53.2455 95.4555 53.678 95.1826C54.1105 94.9098 54.5957 94.7294 55.1026 94.6529C55.8281 93.6824 56.62 92.7624 57.4726 91.8994C58.7746 90.9219 60.4053 90.4764 62.0289 90.6547L62.2955 90.6958C62.5992 90.7919 62.9229 90.8078 63.2346 90.7419C63.5464 90.676 63.8354 90.5306 64.073 90.32C64.2311 90.2075 64.3953 90.1036 64.5648 90.0089C65.5365 89.4922 66.6208 89.639 67.6695 89.7799C68.2814 89.8863 68.9036 89.9237 69.524 89.8914C69.8293 89.855 70.132 89.8001 70.4305 89.7271C70.8092 89.6302 71.1959 89.5673 71.5859 89.5392C72.7947 89.5728 73.971 89.9343 74.9869 90.5842C75.43 90.8048 75.8895 90.9912 76.3615 91.142C77.8427 91.6645 79.6854 92.3162 79.6143 94.1832C80.7993 94.7703 82.0672 95.604 82.1324 96.9602C82.1369 97.1564 82.127 97.3526 82.1028 97.5473C82.0828 97.7327 82.0828 97.9197 82.1028 98.1051C82.1638 98.488 82.3007 98.8552 82.5057 99.1854C82.6518 99.4422 82.7747 99.7114 82.873 99.9897C83.0172 100.444 83.0455 100.927 82.9556 101.395C82.8656 101.864 82.6602 102.302 82.3576 102.673C82.2794 102.767 82.1963 102.857 82.1087 102.943C81.9821 103.069 81.8671 103.207 81.7651 103.354C81.5591 103.792 81.4732 104.276 81.5162 104.757V104.962C81.4293 106.503 81.169 108.029 80.7401 109.513C80.3668 111.01 79.9342 112.448 78.7433 113.229C78.6604 113.288 78.5715 113.341 78.4826 113.393C78.3022 113.491 78.1366 113.614 77.9909 113.757C77.7543 114.081 77.6506 114.482 77.7005 114.879C77.7168 115.242 77.6625 115.605 77.5405 115.947C77.3619 116.417 77.0489 116.825 76.64 117.122C76.5155 117.221 76.3852 117.333 76.2311 117.48C75.0876 118.554 73.5293 120.028 71.6274 119.529C71.4852 119.488 71.3489 119.441 71.2067 119.388C70.9795 119.265 70.7215 119.209 70.4632 119.227C70.205 119.244 69.9572 119.335 69.7492 119.488L69.5418 119.581C68.8861 119.874 68.1751 120.024 67.4562 120.022ZM63.4568 118.108C63.6564 118.101 63.856 118.123 64.0493 118.172C64.3324 118.27 64.5983 118.41 64.8373 118.589L64.9973 118.701C65.6294 119.104 66.3524 119.347 67.1019 119.406C67.8515 119.466 68.6042 119.34 69.2929 119.041L69.4944 118.947C69.8323 118.77 70.2033 118.662 70.5846 118.63C70.8763 118.649 71.1627 118.717 71.4319 118.83C71.5501 118.877 71.6708 118.918 71.7933 118.953C73.3575 119.364 74.7202 118.084 75.8104 117.051C75.9763 116.893 76.1245 116.775 76.2548 116.669C76.5863 116.439 76.8385 116.113 76.9777 115.736C77.0699 115.464 77.1101 115.177 77.0962 114.89C77.0427 114.348 77.2018 113.805 77.5405 113.376C77.7216 113.184 77.9339 113.023 78.1686 112.9L78.3997 112.748C79.4188 112.055 79.8098 110.763 80.1772 109.383C80.5948 107.944 80.8492 106.463 80.9356 104.968V104.769C80.8883 104.177 81.0072 103.583 81.2792 103.054C81.3984 102.868 81.5397 102.697 81.6999 102.544L81.9191 102.303C82.1563 102.012 82.3171 101.667 82.3874 101.299C82.4577 100.931 82.4352 100.552 82.322 100.195C82.23 99.9503 82.1191 99.7128 81.9902 99.4848C81.7489 99.0831 81.5899 98.6382 81.5221 98.1755C81.5011 97.951 81.5011 97.7249 81.5221 97.5004C81.5461 97.3312 81.556 97.1604 81.5518 96.9896C81.4984 95.8799 80.266 95.1519 79.1818 94.6412C79.125 94.6138 79.0781 94.5699 79.0474 94.5153C79.0167 94.4607 79.0036 94.3981 79.01 94.3359C79.1759 92.7741 77.6472 92.2399 76.1719 91.7173C75.6697 91.5587 75.1805 91.3624 74.7084 91.1302C73.7942 90.5296 72.7296 90.1922 71.6333 90.1556C71.2773 90.1843 70.9245 90.2432 70.5787 90.3318C70.2566 90.4096 69.9301 90.4684 69.601 90.5079C68.9331 90.5451 68.2631 90.5057 67.6043 90.3905C66.6089 90.2555 65.6668 90.1263 64.867 90.5549C64.718 90.6392 64.5736 90.7313 64.4344 90.8308C64.1648 91.0406 63.8599 91.2016 63.5338 91.3064C63.1022 91.3974 62.6561 91.3974 62.2244 91.3064L61.9637 91.2653C60.48 91.1101 58.9933 91.531 57.8162 92.4395C57.0014 93.2746 56.2396 94.1589 55.5351 95.0874C55.5145 95.1418 55.4782 95.1892 55.4309 95.2236C55.3835 95.258 55.3271 95.278 55.2685 95.2811C54.8392 95.3324 54.4258 95.4729 54.0552 95.6935C53.6846 95.9141 53.3652 96.2098 53.118 96.5612C52.8707 96.9126 52.7012 97.3118 52.6205 97.7327C52.5398 98.1536 52.5497 98.5866 52.6496 99.0034L52.697 99.1443C52.7677 99.3334 52.8135 99.5307 52.8333 99.7314C52.838 99.9469 52.8141 100.162 52.7622 100.371L52.7266 100.53C52.6522 101.01 52.6952 101.502 52.8519 101.962C53.0086 102.423 53.2745 102.84 53.6272 103.178C53.6596 103.206 53.6849 103.242 53.7014 103.281C53.7178 103.321 53.7249 103.364 53.722 103.407C53.7223 103.45 53.7122 103.493 53.6926 103.532C53.6731 103.57 53.6446 103.604 53.6095 103.63C53.3303 103.887 53.1096 104.201 52.9623 104.549C52.8149 104.898 52.7442 105.273 52.7548 105.651C52.7655 106.029 52.8573 106.4 53.024 106.74C53.1908 107.08 53.4288 107.381 53.722 107.622C53.7716 107.658 53.8093 107.708 53.8304 107.766C53.8514 107.823 53.855 107.886 53.8405 107.945C53.7174 108.505 53.7322 109.086 53.8838 109.639C54.0354 110.192 54.3194 110.7 54.7115 111.121C55.1046 111.558 55.5435 111.951 56.0209 112.295C56.2757 112.489 56.5364 112.671 56.7912 112.853C58.0591 113.746 59.3626 114.667 59.9374 116.546L59.9788 116.681C60.0267 116.924 60.1256 117.154 60.2692 117.356C60.4269 117.515 60.6167 117.639 60.8261 117.72C61.5121 118.013 62.2539 118.155 63.0006 118.137H63.4568V118.108Z" fill="#231F20"/>
<path d="M55.6602 127.619C55.6602 127.619 55.8557 125.206 56.9222 124.537C57.9887 123.867 74.9993 122.775 76.9724 124.537C78.1845 125.715 78.8912 127.311 78.9454 128.993C78.9454 128.993 59.2507 127.202 55.6602 127.619Z" fill="#5094D1"/>
<path d="M92.5486 136.349C85.8711 127.214 74.43 126.404 67.5866 126.404C60.7432 126.404 49.302 127.214 42.6246 136.349C35.9471 145.485 36.2611 162.616 36.2611 162.616H98.9061C98.9061 162.616 99.2261 145.485 92.5486 136.349Z" fill="white"/>
<path d="M98.9063 162.916H36.2613C36.2219 162.917 36.1827 162.91 36.1461 162.895C36.1095 162.881 36.0761 162.859 36.048 162.832C36.0198 162.805 35.9975 162.772 35.9822 162.736C35.967 162.7 35.9591 162.661 35.9591 162.622C35.9591 162.446 35.7162 145.279 42.3759 136.173C49.7703 126.075 63.1727 126.075 67.5868 126.075C85.4329 126.075 90.9728 133.66 92.7977 136.15C99.4574 145.256 99.2204 162.423 99.2144 162.599C99.2169 162.64 99.2107 162.681 99.1962 162.72C99.1818 162.759 99.1594 162.794 99.1304 162.824C99.1015 162.854 99.0666 162.878 99.0281 162.893C98.9895 162.909 98.948 162.917 98.9063 162.916ZM36.5694 162.329H98.6042C98.6042 160.016 98.3612 144.833 92.3 136.543C85.8654 127.736 75.1175 126.727 67.5868 126.727C60.0561 126.727 49.3082 127.742 42.8736 136.543C36.8064 144.821 36.5694 159.998 36.5694 162.311V162.329Z" fill="#231F20"/>
<path d="M49.5216 162.916C49.445 162.918 49.3707 162.89 49.3144 162.838C49.258 162.787 49.224 162.716 49.2194 162.64L47.6197 141.68C47.6131 141.6 47.6386 141.521 47.6908 141.459C47.7429 141.398 47.8174 141.359 47.8981 141.351C47.9796 141.347 48.0597 141.373 48.1216 141.426C48.1836 141.478 48.2224 141.553 48.2299 141.633L49.8297 162.593C49.8346 162.673 49.8075 162.752 49.7543 162.812C49.7011 162.873 49.626 162.91 49.5453 162.916H49.5216Z" fill="#231F20"/>
<path d="M86.9435 162.916C86.9038 162.913 86.8651 162.902 86.8295 162.884C86.794 162.866 86.7624 162.842 86.7365 162.812C86.7106 162.782 86.691 162.747 86.6787 162.709C86.6665 162.672 86.6618 162.632 86.6651 162.593L88.2826 142.244C88.2856 142.204 88.2964 142.166 88.3144 142.131C88.3324 142.096 88.3573 142.064 88.3876 142.039C88.4179 142.013 88.453 141.994 88.4909 141.981C88.5288 141.969 88.5687 141.965 88.6084 141.968C88.6487 141.97 88.6881 141.98 88.7243 141.998C88.7605 142.015 88.7928 142.04 88.8193 142.07C88.8458 142.1 88.866 142.135 88.8786 142.173C88.8912 142.211 88.8961 142.251 88.8928 142.291L87.2694 162.64C87.2664 162.679 87.2556 162.718 87.2376 162.753C87.2195 162.788 87.1947 162.819 87.1644 162.845C87.1341 162.871 87.099 162.89 87.0611 162.902C87.0232 162.915 86.9832 162.919 86.9435 162.916Z" fill="#231F20"/>
<path d="M132.051 113.71C132.714 109.601 139.558 108.62 139.22 113.434C139.168 115.107 138.522 116.708 137.395 117.955C136.822 118.564 136.08 118.99 135.263 119.18C134.445 119.37 133.589 119.316 132.803 119.024" fill="white"/>
<path d="M134.231 119.617C133.697 119.619 133.168 119.511 132.679 119.3C132.642 119.283 132.608 119.26 132.581 119.23C132.553 119.201 132.531 119.167 132.517 119.129C132.502 119.091 132.496 119.051 132.497 119.011C132.498 118.971 132.508 118.931 132.525 118.895C132.558 118.822 132.619 118.765 132.695 118.737C132.77 118.708 132.854 118.71 132.928 118.742C133.655 119.015 134.449 119.065 135.206 118.887C135.963 118.71 136.649 118.311 137.176 117.744C138.248 116.545 138.863 115.012 138.912 113.411C139.078 111.063 137.466 110.622 136.767 110.54C134.989 110.335 132.702 111.603 132.353 113.757C132.34 113.837 132.296 113.907 132.23 113.955C132.165 114.002 132.083 114.022 132.003 114.01C131.923 113.997 131.852 113.953 131.804 113.888C131.757 113.824 131.737 113.743 131.749 113.663C131.974 112.525 132.622 111.512 133.564 110.823C134.506 110.134 135.674 109.82 136.838 109.941C138.242 110.1 139.688 111.115 139.522 113.464C139.461 115.204 138.784 116.867 137.608 118.161C137.17 118.612 136.646 118.973 136.066 119.223C135.487 119.472 134.863 119.606 134.231 119.617Z" fill="#231F20"/>
<path d="M114.992 113.71C114.334 109.601 107.491 108.62 107.829 113.434C107.876 115.108 108.522 116.711 109.654 117.955C110.226 118.564 110.968 118.99 111.786 119.18C112.603 119.37 113.459 119.316 114.246 119.024" fill="white"/>
<path d="M112.819 119.617C112.186 119.607 111.562 119.474 110.981 119.225C110.401 118.977 109.875 118.617 109.435 118.167C108.265 116.87 107.588 115.208 107.522 113.47C107.356 111.121 108.801 110.117 110.206 109.947C111.37 109.825 112.538 110.14 113.48 110.829C114.422 111.518 115.069 112.531 115.295 113.669C115.302 113.708 115.301 113.748 115.292 113.787C115.283 113.825 115.267 113.862 115.244 113.894C115.22 113.926 115.191 113.953 115.157 113.974C115.123 113.995 115.086 114.009 115.046 114.016C114.966 114.028 114.883 114.008 114.817 113.961C114.751 113.914 114.705 113.843 114.691 113.763C114.347 111.614 112.09 110.34 110.277 110.546C109.578 110.628 107.966 111.068 108.132 113.417C108.181 115.019 108.797 116.553 109.874 117.75C110.4 118.317 111.085 118.715 111.841 118.893C112.597 119.07 113.389 119.02 114.116 118.748C114.155 118.731 114.197 118.722 114.239 118.722C114.282 118.721 114.324 118.729 114.363 118.744C114.402 118.76 114.438 118.783 114.468 118.812C114.499 118.842 114.523 118.877 114.54 118.915C114.557 118.954 114.565 118.995 114.566 119.037C114.567 119.079 114.559 119.121 114.543 119.16C114.527 119.199 114.504 119.234 114.475 119.264C114.445 119.294 114.41 119.318 114.371 119.335C113.879 119.534 113.35 119.63 112.819 119.617Z" fill="#231F20"/>
<path d="M134.693 114.016L133.508 102.003C133.508 102.003 130.22 97.9935 123.507 97.9935C116.794 97.9935 113.523 102.003 113.523 102.003L113.02 112.607C113.02 117.838 114.371 120.979 116.427 122.769L115.905 134.13C115.905 134.13 117.76 138.128 123.163 138.128C124.67 138.168 126.162 137.821 127.493 137.121C128.824 136.42 129.949 135.39 130.759 134.13L130.285 123.844C132.377 122.623 133.905 119.94 134.693 114.016Z" fill="white"/>
<path d="M123.524 97.9935C130.237 97.9935 133.525 102.003 133.525 102.003L134.71 114.016C133.934 119.94 132.394 122.623 130.302 123.844L130.776 134.13C129.966 135.39 128.841 136.42 127.51 137.121C126.179 137.821 124.687 138.168 123.18 138.128C117.777 138.128 115.922 134.13 115.922 134.13L116.444 122.769C114.388 120.979 113.037 117.838 113.037 112.607L113.523 102.003C113.523 102.003 116.805 97.9935 123.524 97.9935ZM123.524 97.4064C116.598 97.4064 113.185 101.463 113.049 101.639C112.965 101.739 112.917 101.863 112.912 101.992L112.409 112.571C112.409 117.403 113.552 120.908 115.804 123.022L115.294 134.095C115.291 134.191 115.309 134.288 115.347 134.377C115.43 134.553 117.433 138.727 123.163 138.727C124.78 138.775 126.382 138.401 127.808 137.644C129.235 136.887 130.436 135.773 131.292 134.412C131.347 134.315 131.374 134.206 131.369 134.095L130.942 124.167C133.259 122.623 134.622 119.47 135.327 114.092C135.333 114.047 135.333 114.002 135.327 113.957L134.142 101.945C134.132 101.827 134.087 101.714 134.011 101.622C133.869 101.446 130.456 97.3888 123.536 97.3888L123.524 97.4064Z" fill="#231F20"/>
<path d="M112.368 114.961C112.581 115.548 112.806 116.094 113.049 116.652C113.642 117.973 115.283 119.517 116.059 120.762C116.989 122.229 116.859 121.936 118.53 122.094C122.165 122.482 125.83 122.523 129.473 122.218C130.333 122.147 131.251 122.018 131.843 121.396C132.128 121.048 132.343 120.649 132.477 120.221C133.876 116.699 135.146 113.121 136.287 109.489C136.807 108.019 136.989 106.453 136.82 104.904C136.785 104.493 136.56 101.005 135.635 101.322C136.228 101.111 137.046 101.504 137.674 101.669C136.933 99.9721 135.381 98.1462 133.526 98.2166C133.947 95.7801 131.648 94.1362 129.302 93.3025C126.955 92.4688 124.372 92.7859 121.907 93.1675C119.716 93.4187 117.571 93.9761 115.538 94.8232C111.687 96.5845 109.204 101.446 109.945 105.667C110.465 108.832 111.276 111.943 112.368 114.961Z" fill="white"/>
<path d="M124.669 122.699C122.606 122.698 120.545 122.588 118.495 122.37L117.772 122.312C116.723 122.241 116.587 122.147 115.799 120.897C115.422 120.347 115.012 119.819 114.572 119.317C113.869 118.551 113.272 117.696 112.795 116.775C112.558 116.223 112.327 115.648 112.108 115.067C111.01 112.032 110.197 108.903 109.678 105.72C108.92 101.393 111.509 96.379 115.443 94.5648C117.5 93.706 119.668 93.1388 121.884 92.8798C124.39 92.4923 127.033 92.1812 129.426 93.0325C132.389 94.0834 134.042 95.8976 133.894 97.9289C135.79 98.064 137.271 99.9251 137.982 101.557C138.005 101.609 138.013 101.666 138.005 101.723C137.996 101.779 137.972 101.831 137.935 101.874C137.897 101.917 137.848 101.948 137.794 101.966C137.74 101.983 137.682 101.986 137.627 101.974C137.467 101.933 137.301 101.874 137.129 101.821C136.957 101.769 136.744 101.698 136.536 101.651C136.911 102.672 137.112 103.747 137.129 104.833V104.892C137.296 106.478 137.112 108.081 136.59 109.589C135.446 113.2 134.166 116.816 132.768 120.345C132.617 120.8 132.382 121.224 132.075 121.595C131.411 122.3 130.398 122.441 129.503 122.517C127.9 122.642 126.288 122.703 124.669 122.699ZM112.659 114.855C112.872 115.442 113.097 115.994 113.328 116.534C113.795 117.401 114.37 118.206 115.04 118.93C115.502 119.45 115.929 120 116.32 120.574C117.002 121.648 117.002 121.648 117.813 121.707L118.56 121.766C122.177 122.155 125.824 122.198 129.45 121.895C130.232 121.83 131.115 121.713 131.625 121.167C131.886 120.852 132.087 120.491 132.217 120.104C133.609 116.581 134.889 112.988 136.021 109.395C136.526 107.962 136.702 106.436 136.536 104.927V104.863C136.317 102.027 135.849 101.645 135.796 101.61H135.766C135.727 101.623 135.686 101.629 135.645 101.626C135.604 101.623 135.564 101.613 135.527 101.595C135.49 101.577 135.457 101.552 135.43 101.521C135.403 101.491 135.382 101.455 135.369 101.416C135.356 101.378 135.35 101.337 135.353 101.296C135.356 101.256 135.367 101.216 135.385 101.18C135.403 101.143 135.428 101.11 135.459 101.084C135.49 101.057 135.526 101.036 135.565 101.023C136.083 100.904 136.627 100.952 137.117 101.158C136.317 99.7079 135.002 98.4221 133.562 98.5043C133.518 98.5049 133.474 98.4963 133.433 98.4791C133.392 98.4619 133.355 98.4365 133.325 98.4045C133.294 98.3706 133.271 98.3304 133.258 98.2868C133.245 98.2431 133.241 98.1972 133.248 98.1521C133.71 95.4748 130.588 94.0423 129.225 93.5785C126.962 92.78 124.402 93.0794 121.979 93.4552C119.819 93.7012 117.707 94.2508 115.704 95.0873C112.001 96.8134 109.566 101.546 110.277 105.608C110.792 108.755 111.598 111.848 112.682 114.849L112.659 114.855Z" fill="#231F20"/>
<path d="M111.39 131.359C111.39 131.359 111.585 128.94 112.646 128.277C113.707 127.613 130.723 126.515 132.696 128.277C133.911 129.451 134.62 131.046 134.675 132.727C134.675 132.727 114.986 130.936 111.39 131.359Z" fill="white"/>
<path d="M134.693 133.032H134.664C134.468 133.032 114.945 131.271 111.444 131.658C111.398 131.664 111.353 131.66 111.309 131.646C111.266 131.632 111.227 131.608 111.195 131.576C111.162 131.545 111.137 131.507 111.121 131.466C111.104 131.424 111.097 131.38 111.1 131.335C111.1 131.071 111.343 128.746 112.504 128.018C113.345 127.49 130.706 126.098 132.922 128.048C134.207 129.284 134.952 130.97 134.995 132.744C134.996 132.787 134.987 132.828 134.97 132.867C134.952 132.905 134.927 132.94 134.895 132.968C134.838 133.014 134.766 133.037 134.693 133.032ZM113.037 130.989C118.447 130.989 131.926 132.163 134.367 132.392C134.25 130.915 133.592 129.531 132.519 128.5C131.76 127.83 127.874 127.519 122.375 127.678C117.238 127.824 113.233 128.265 112.836 128.535C112.184 128.94 111.87 130.249 111.758 131.024C112.101 131.001 112.534 130.989 113.037 130.989Z" fill="#231F20"/>
<path d="M148.298 140.083C141.614 130.954 130.179 130.138 123.33 130.138C116.481 130.138 105.045 130.954 98.3678 140.083C91.6903 149.213 92.0103 162.616 92.0103 162.616H154.643C154.643 162.616 154.975 149.219 148.298 140.083Z" fill="#5094D1"/>
<path d="M154.642 162.916H92.0092C91.9295 162.916 91.8528 162.885 91.7954 162.831C91.7379 162.776 91.7041 162.701 91.7011 162.622C91.7011 162.487 91.4581 149.019 98.1238 139.907C105.483 129.838 118.915 129.838 123.329 129.838C141.181 129.838 146.721 137.418 148.54 139.907C155.235 149.019 154.962 162.476 154.962 162.622C154.961 162.662 154.951 162.702 154.934 162.738C154.917 162.775 154.893 162.808 154.864 162.835C154.834 162.862 154.799 162.883 154.761 162.897C154.723 162.911 154.683 162.917 154.642 162.916ZM92.2995 162.329H154.352C154.352 160.315 154.044 148.479 148.048 140.283C141.613 131.476 130.865 130.461 123.329 130.461C115.792 130.461 105.05 131.476 98.6155 140.283C92.6194 148.461 92.3173 160.297 92.3113 162.311L92.2995 162.329Z" fill="#5094D1"/>
<path d="M104.381 162.916C104.302 162.918 104.225 162.888 104.168 162.834C104.11 162.781 104.076 162.707 104.073 162.628L103.273 144.522C103.272 144.442 103.301 144.365 103.355 144.306C103.409 144.247 103.483 144.211 103.564 144.205C103.644 144.205 103.722 144.235 103.782 144.289C103.841 144.344 103.878 144.418 103.884 144.498L104.683 162.605C104.685 162.644 104.679 162.683 104.665 162.72C104.651 162.757 104.63 162.791 104.603 162.82C104.576 162.849 104.544 162.872 104.508 162.889C104.472 162.905 104.433 162.914 104.393 162.916H104.381Z" fill="#231F20"/>
<path d="M141.56 162.916C141.521 162.914 141.482 162.904 141.446 162.887C141.41 162.869 141.378 162.845 141.352 162.816C141.325 162.786 141.305 162.752 141.292 162.715C141.279 162.678 141.274 162.638 141.276 162.599L142.2 145.796C142.202 145.756 142.211 145.717 142.228 145.681C142.245 145.646 142.27 145.614 142.299 145.587C142.329 145.561 142.364 145.541 142.402 145.528C142.44 145.516 142.48 145.511 142.52 145.514C142.56 145.516 142.6 145.525 142.636 145.542C142.673 145.559 142.706 145.582 142.733 145.612C142.76 145.642 142.781 145.676 142.794 145.714C142.807 145.751 142.813 145.791 142.811 145.831L141.851 162.634C141.845 162.708 141.812 162.777 141.759 162.829C141.706 162.881 141.635 162.912 141.56 162.916Z" fill="#231F20"/>
<path d="M111.288 35.3C111.288 35.3 125.996 46.8065 129.026 48.3143C132.056 49.822 144.525 41.5889 144.525 41.5889L153.001 48.9755C153.001 48.9755 138.366 66.6453 129.026 66.2948C119.685 65.9444 108.001 49.8154 108.001 49.8154" fill="#5094D1"/>
<path d="M153.353 44C153.286 43.9997 153.22 43.9813 153.163 43.9469C153.085 43.8967 153.03 43.8187 153.01 43.7296C152.989 43.6404 153.005 43.547 153.054 43.4692C155.09 40.3973 153.998 38.5794 153.984 38.5595C153.953 38.5212 153.931 38.477 153.918 38.4297C153.906 38.3824 153.904 38.3331 153.913 38.285C153.922 38.2369 153.941 38.1912 153.969 38.1509C153.997 38.1105 154.033 38.0765 154.076 38.0509C154.118 38.0254 154.166 38.009 154.216 38.0028C154.265 37.9966 154.315 38.0007 154.363 38.0149C154.411 38.0291 154.455 38.0531 154.493 38.0852C154.53 38.1173 154.56 38.1568 154.581 38.2012C154.642 38.2941 155.939 40.4106 153.645 43.8408C153.613 43.8888 153.57 43.9285 153.519 43.9563C153.468 43.9841 153.411 43.9991 153.353 44Z" fill="#231F20"/>
<path d="M97.7633 95.1461C97.69 95.1462 97.6189 95.1213 97.5618 95.0756C97.5314 95.0478 97.5069 95.0143 97.4896 94.977C97.4723 94.9397 97.4626 94.8994 97.4611 94.8584L96.762 79.8519C96.7587 79.7719 96.7873 79.6938 96.8417 79.6345C96.896 79.5752 96.9716 79.5394 97.0523 79.5349C97.133 79.5316 97.2118 79.56 97.2717 79.6138C97.3315 79.6676 97.3676 79.7426 97.3722 79.8225L98.0536 94.5002L110.129 93.326C110.173 93.3096 110.22 93.3034 110.267 93.3079C110.314 93.3125 110.36 93.3277 110.4 93.3524C110.44 93.3771 110.474 93.4106 110.499 93.4503C110.524 93.49 110.539 93.5348 110.544 93.5814C110.549 93.628 110.542 93.6749 110.526 93.7188C110.509 93.7626 110.483 93.8021 110.448 93.8341C110.414 93.8662 110.373 93.89 110.327 93.9037C110.282 93.9174 110.235 93.9206 110.188 93.9131L97.7633 95.1461Z" fill="#231F20"/>
</svg>
