<svg width="136" height="32" viewBox="0 0 136 32" fill="none" xmlns="http://www.w3.org/2000/svg">
<path d="M6.81948 31.8H0V1.59998H6.81948V14L17.341 1.59998H26.4986L13.8338 15.4L27.2779 31.8H17.9255L6.81948 18V31.8Z" fill="#2A2447"/>
<path d="M99.5646 7.6C101.609 7.6 103.267 5.89868 103.267 3.8C103.267 1.70132 101.609 0 99.5646 0C97.52 0 95.8625 1.70132 95.8625 3.8C95.8625 5.89868 97.52 7.6 99.5646 7.6Z" fill="#2A2447"/>
<path d="M36.6303 31.8H29.616V1.59998H36.6303V31.8Z" fill="#2A2447"/>
<path d="M55.1403 31.8H48.3208V7.59998H40.1375V1.59998H63.5185V7.59998H55.1403V31.8Z" fill="#2A2447"/>
<path d="M73.8454 31.8H67.0259V1.59998H73.8454V14L84.3669 1.59998H93.5244L80.8597 15.4L94.3038 31.8H84.9514L73.8454 18V31.8Z" fill="#2A2447"/>
<path d="M102.877 31.8H95.8625V10.6H102.877V31.8Z" fill="#2A2447"/>
<path d="M115.736 31.8H108.722V1.59998H117.49L129.181 21.2V1.59998H136V31.8H127.622L115.736 12.2V31.8Z" fill="#2A2447"/>
</svg>
