<svg width="383" height="288" viewBox="0 0 383 288" fill="none" xmlns="http://www.w3.org/2000/svg">
<path d="M310.489 61.4721C310.489 61.4721 308.267 57.3835 304.744 51.7377C304.744 51.7377 293.426 60.1729 293.512 59.7048C293.598 59.2367 310.489 61.4721 310.489 61.4721Z" fill="#231F20"/>
<path d="M310.489 61.9498H310.422C304.466 61.1569 294.747 59.9819 293.685 60.1252C293.407 60.2399 293.321 60.1825 293.225 60.1252C293.142 60.0696 293.077 59.9913 293.038 59.8997C292.999 59.8082 292.988 59.7074 293.005 59.6094C293.005 59.4756 293.062 59.3419 293.378 59.2654C294.029 59.0075 300.502 54.2788 304.418 51.3556C304.471 51.3159 304.531 51.2877 304.596 51.2729C304.66 51.258 304.727 51.2569 304.791 51.2696C304.856 51.2802 304.918 51.3044 304.972 51.3406C305.027 51.3769 305.073 51.4243 305.107 51.4798C308.641 57.0778 310.852 61.2047 310.91 61.2429C310.95 61.3157 310.97 61.3977 310.969 61.4807C310.967 61.5637 310.944 61.6449 310.901 61.7163C310.859 61.7877 310.798 61.8467 310.726 61.8877C310.654 61.9286 310.572 61.9501 310.489 61.9498ZM295.169 59.2368C297.256 59.3514 301.383 59.8004 309.579 60.8799C308.784 59.4565 306.994 56.3327 304.543 52.4351C299.429 56.2563 296.701 58.2337 295.197 59.2368H295.169Z" fill="#231F20"/>
<path d="M160.525 231.849L154.876 222.449L162.699 215.399L160.525 231.849Z" fill="#231F20"/>
<path d="M160.525 232.327C160.443 232.325 160.362 232.304 160.29 232.264C160.218 232.224 160.157 232.167 160.113 232.097L154.464 222.697C154.407 222.601 154.386 222.489 154.403 222.379C154.421 222.269 154.476 222.169 154.56 222.095L162.373 215.045C162.446 214.98 162.538 214.938 162.635 214.926C162.733 214.914 162.832 214.932 162.919 214.978C163.004 215.025 163.074 215.097 163.118 215.184C163.163 215.271 163.18 215.369 163.168 215.466L161.004 231.887C160.991 231.987 160.948 232.081 160.879 232.155C160.81 232.228 160.72 232.279 160.621 232.298L160.525 232.327ZM155.488 222.544L160.276 230.426L162.095 216.622L155.488 222.544Z" fill="#231F20"/>
<path d="M164.192 233.798L255.155 246.723C257.02 246.969 258.913 246.544 260.492 245.523C262.072 244.502 263.235 242.953 263.772 241.153L310.843 65.4748C311.8 61.8352 309.474 58.6349 305.615 58.3197L212.862 50.8588C211.028 50.769 209.218 51.2966 207.721 52.3568C206.224 53.4171 205.128 54.9486 204.608 56.7052L159.443 226.576C159.209 227.364 159.149 228.194 159.269 229.007C159.389 229.821 159.686 230.599 160.138 231.286C160.59 231.974 161.187 232.555 161.887 232.988C162.587 233.422 163.374 233.698 164.192 233.798Z" fill="#231F20"/>
<path d="M256.16 247.305C255.792 247.304 255.424 247.278 255.059 247.229L164.096 234.294C163.217 234.186 162.371 233.891 161.616 233.428C160.86 232.964 160.214 232.344 159.721 231.61C159.23 230.855 158.907 230.004 158.773 229.114C158.639 228.225 158.698 227.317 158.945 226.451L204.11 56.6097C204.663 54.7438 205.826 53.1165 207.414 51.9875C209.002 50.8585 210.923 50.2929 212.871 50.3812L305.624 57.842C306.565 57.8979 307.481 58.1597 308.309 58.6088C309.136 59.0578 309.854 59.6832 310.412 60.4404C310.925 61.185 311.265 62.0345 311.408 62.9269C311.55 63.8193 311.491 64.7322 311.235 65.599L264.165 241.278C263.653 243.005 262.599 244.522 261.158 245.607C259.717 246.692 257.965 247.287 256.16 247.305ZM164.24 233.349L255.203 246.283C256.956 246.517 258.736 246.119 260.222 245.161C261.709 244.204 262.804 242.749 263.313 241.058L310.345 65.3888C310.567 64.6568 310.621 63.8844 310.503 63.1287C310.386 62.3731 310.099 61.6534 309.665 61.0231C309.186 60.3744 308.568 59.8405 307.855 59.4604C307.143 59.0803 306.355 58.8635 305.548 58.826L212.795 51.3364C211.071 51.2461 209.367 51.7394 207.959 52.7365C206.551 53.7335 205.522 55.1758 205.039 56.8294L159.903 226.7C159.689 227.434 159.635 228.205 159.746 228.962C159.857 229.718 160.129 230.442 160.544 231.085C160.966 231.704 161.515 232.227 162.156 232.618C162.797 233.008 163.514 233.257 164.259 233.349H164.24Z" fill="#231F20"/>
<path d="M158.275 224.13L249.237 237.055C251.103 237.298 252.993 236.871 254.572 235.85C256.15 234.83 257.314 233.283 257.855 231.486L304.916 55.8072C305.874 52.1676 303.547 48.9673 299.688 48.6521L206.916 41.1912C205.081 41.1026 203.27 41.6305 201.772 42.6904C200.274 43.7504 199.176 45.2811 198.653 47.0376L153.516 216.879C153.277 217.67 153.214 218.504 153.332 219.321C153.45 220.139 153.747 220.921 154.2 221.612C154.654 222.303 155.254 222.887 155.958 223.322C156.662 223.757 157.453 224.033 158.275 224.13Z" fill="white"/>
<path d="M250.243 237.619C249.874 237.617 249.507 237.592 249.142 237.542L158.179 224.608C157.299 224.5 156.453 224.204 155.698 223.741C154.943 223.278 154.297 222.658 153.803 221.923C153.312 221.169 152.989 220.318 152.855 219.428C152.721 218.538 152.78 217.63 153.028 216.765L198.203 46.923C198.755 45.059 199.919 43.434 201.508 42.3082C203.096 41.1824 205.017 40.6209 206.964 40.7136L299.698 48.1745C300.646 48.2241 301.571 48.4829 302.408 48.9322C303.244 49.3815 303.969 50.0101 304.533 50.7729C305.044 51.5187 305.382 52.3681 305.525 53.26C305.667 54.152 305.61 55.0643 305.356 55.9315L258.286 231.61C257.768 233.34 256.707 234.858 255.259 235.94C253.81 237.022 252.052 237.61 250.243 237.619ZM206.36 41.6498C204.731 41.6948 203.158 42.252 201.865 43.2418C200.572 44.2316 199.625 45.6035 199.16 47.1619L153.985 217.004C153.771 217.738 153.718 218.509 153.829 219.266C153.939 220.022 154.211 220.746 154.627 221.388C155.048 222.008 155.598 222.531 156.239 222.921C156.88 223.312 157.597 223.561 158.342 223.652L249.304 236.587C251.054 236.813 252.826 236.412 254.307 235.455C255.787 234.498 256.878 233.047 257.386 231.362L304.428 55.6926C304.647 54.9604 304.7 54.1884 304.583 53.433C304.465 52.6777 304.18 51.9581 303.748 51.3269C303.268 50.677 302.648 50.1423 301.934 49.7622C301.22 49.382 300.429 49.1659 299.621 49.1298L206.877 41.6689L206.36 41.6498Z" fill="#231F20"/>
<path d="M295.906 67.3664L200.951 59.1604L164.518 196.207L258.085 208.616L295.906 67.3664Z" fill="#5094D1"/>
<path d="M254.255 189.73C254.164 189.731 254.074 189.705 253.998 189.655C253.921 189.606 253.861 189.536 253.824 189.453L234.674 149.054C234.646 148.997 234.63 148.935 234.627 148.872C234.624 148.808 234.633 148.745 234.655 148.686C234.676 148.626 234.709 148.571 234.752 148.525C234.794 148.478 234.846 148.44 234.903 148.414C235.018 148.361 235.148 148.356 235.267 148.399C235.385 148.442 235.481 148.529 235.535 148.643L254.685 189.052C254.713 189.108 254.728 189.169 254.732 189.232C254.735 189.294 254.725 189.357 254.704 189.415C254.682 189.474 254.649 189.528 254.607 189.574C254.564 189.62 254.513 189.657 254.456 189.682C254.392 189.712 254.324 189.728 254.255 189.73Z" fill="white"/>
<path d="M195.857 223.108L213.609 225.601C214.736 225.74 215.876 225.474 216.825 224.851C217.774 224.228 218.47 223.288 218.789 222.2L220.551 215.599C220.698 215.098 220.733 214.571 220.653 214.054C220.573 213.538 220.38 213.046 220.087 212.612C219.795 212.179 219.41 211.815 218.96 211.547C218.511 211.279 218.008 211.114 217.487 211.062L199.715 208.654C198.599 208.533 197.474 208.807 196.54 209.428C195.605 210.05 194.919 210.98 194.602 212.055L192.85 218.599C192.703 219.094 192.666 219.616 192.743 220.127C192.82 220.638 193.008 221.126 193.295 221.556C193.582 221.986 193.96 222.348 194.403 222.616C194.845 222.885 195.342 223.052 195.857 223.108Z" fill="white"/>
<path d="M214.202 226.155C213.981 226.158 213.76 226.142 213.542 226.108L195.79 223.624C195.208 223.557 194.648 223.364 194.149 223.059C193.65 222.753 193.224 222.343 192.9 221.856C192.576 221.37 192.363 220.818 192.275 220.241C192.187 219.663 192.226 219.074 192.391 218.513L194.133 211.969C194.482 210.781 195.24 209.754 196.273 209.069C197.307 208.384 198.55 208.085 199.782 208.224L217.554 210.622C218.145 210.692 218.714 210.887 219.223 211.196C219.732 211.504 220.168 211.918 220.503 212.409C220.822 212.899 221.033 213.452 221.12 214.03C221.208 214.609 221.17 215.199 221.01 215.762L219.268 222.334C218.949 223.431 218.284 224.396 217.371 225.084C216.459 225.773 215.347 226.149 214.202 226.155ZM195.924 222.678L213.676 225.162C214.686 225.285 215.707 225.046 216.558 224.488C217.408 223.93 218.032 223.089 218.32 222.114L220.091 215.513C220.213 215.081 220.243 214.627 220.177 214.183C220.111 213.738 219.951 213.313 219.708 212.934C219.447 212.558 219.109 212.242 218.716 212.007C218.323 211.771 217.884 211.622 217.429 211.568L199.648 209.17C198.648 209.055 197.638 209.297 196.799 209.853C195.96 210.409 195.345 211.243 195.062 212.208L193.319 218.761C193.188 219.191 193.154 219.644 193.22 220.089C193.285 220.533 193.448 220.958 193.697 221.332C193.945 221.706 194.274 222.021 194.659 222.254C195.044 222.486 195.476 222.631 195.924 222.678Z" fill="#E6E7E8"/>
<path d="M267.813 55.5876L240.687 53.3236C240.624 53.3179 240.563 53.3 240.507 53.2707C240.451 53.2415 240.401 53.2016 240.361 53.1533C240.321 53.1049 240.29 53.0491 240.271 52.989C240.252 52.9289 240.246 52.8656 240.251 52.8029C240.257 52.7402 240.275 52.6792 240.304 52.6234C240.333 52.5676 240.373 52.5181 240.422 52.4778C240.47 52.4374 240.526 52.407 240.587 52.3882C240.647 52.3694 240.71 52.3626 240.773 52.3683L267.889 54.6228C268.016 54.6228 268.138 54.6731 268.228 54.7627C268.318 54.8522 268.368 54.9737 268.368 55.1004C268.368 55.2271 268.318 55.3486 268.228 55.4381C268.138 55.5277 268.016 55.578 267.889 55.578L267.813 55.5876Z" fill="#D1D3D4"/>
<path d="M236.924 53.0083L233.324 52.7121C233.261 52.7074 233.2 52.6901 233.144 52.6614C233.088 52.6327 233.039 52.5932 232.999 52.5451C232.959 52.497 232.929 52.4413 232.91 52.3814C232.892 52.3215 232.886 52.2585 232.893 52.1963C232.905 52.0704 232.966 51.9542 233.062 51.8722C233.159 51.7902 233.283 51.7488 233.41 51.7568L237 52.0625C237.127 52.0625 237.249 52.1129 237.339 52.2024C237.429 52.292 237.479 52.4135 237.479 52.5402C237.479 52.6669 237.429 52.7884 237.339 52.8779C237.249 52.9675 237.127 53.0178 237 53.0178L236.924 53.0083Z" fill="#D1D3D4"/>
<path d="M263.561 142.987C263.561 142.987 275.224 104.623 265.113 96.1206L215.629 90.1787C215.629 90.1787 207.146 98.9961 205.92 105.769C204.694 112.542 194.43 126.967 198.26 135.574L263.561 142.987Z" fill="#231F20"/>
<path d="M263.562 143.465H263.514L198.203 136.042C198.12 136.032 198.042 136.002 197.975 135.953C197.908 135.905 197.855 135.84 197.82 135.765C195.167 129.785 199.045 121.159 202.167 114.224C203.708 110.804 205.039 107.842 205.422 105.683C206.657 98.8433 214.901 90.2074 215.256 89.8444C215.307 89.7911 215.37 89.7504 215.44 89.7256C215.51 89.7007 215.584 89.6924 215.658 89.7011L265.141 95.6526C265.232 95.665 265.318 95.7013 265.39 95.7577C275.626 104.355 264.433 141.554 263.992 143.131C263.963 143.224 263.906 143.305 263.829 143.365C263.752 143.425 263.659 143.46 263.562 143.465ZM198.624 135.125L263.217 142.472C264.385 138.478 273.95 104.508 264.912 96.6175L215.811 90.7138C214.643 91.9747 207.481 99.8464 206.389 105.893C205.977 108.167 204.627 111.176 203.067 114.653C200.118 121.274 196.355 129.537 198.624 135.125Z" fill="#231F20"/>
<path d="M268.234 144.115H268.167L185.468 132.537C185.344 132.518 185.232 132.451 185.157 132.351C185.082 132.251 185.049 132.125 185.066 132.002C185.082 131.876 185.148 131.763 185.249 131.686C185.349 131.609 185.476 131.574 185.602 131.591L268.301 143.169C268.428 143.188 268.541 143.256 268.618 143.357C268.695 143.459 268.729 143.587 268.713 143.713C268.693 143.826 268.634 143.927 268.546 144.001C268.459 144.074 268.348 144.114 268.234 144.115Z" fill="#231F20"/>
<path d="M265.113 96.1207C265.113 96.1207 260.095 96.8085 257.022 107.221C252.32 123.155 246.125 156.782 242.209 169.43C236.464 187.829 221.144 190.446 221.144 190.446L156.369 181.075C156.369 181.075 182.729 171.961 187.182 156.467C191.864 140.141 198.346 109.294 200.098 102.406C203.191 90.2074 215.658 90.2074 215.658 90.2074L265.113 96.1207Z" fill="white"/>
<path d="M221.116 190.895H221.049L156.274 181.524C156.167 181.508 156.069 181.457 155.994 181.379C155.92 181.301 155.873 181.201 155.862 181.094C155.851 180.988 155.877 180.882 155.934 180.791C155.991 180.701 156.077 180.633 156.178 180.597C156.446 180.511 182.366 171.379 186.693 156.304C189.939 144.984 194.104 126.47 196.852 114.214C198.088 108.721 199.064 104.374 199.601 102.263C202.751 89.8445 215.505 89.7012 215.629 89.7012L265.17 95.6527C265.285 95.6665 265.391 95.7216 265.469 95.8077C265.546 95.8938 265.59 96.005 265.591 96.1207C265.591 96.2361 265.549 96.3474 265.473 96.4349C265.398 96.5224 265.294 96.5803 265.18 96.5984C265.103 96.5984 260.392 97.4677 257.52 107.355C255.136 115.418 252.387 127.989 249.716 140.15C247.112 152.063 244.641 163.316 242.707 169.573C239.72 179.212 234.09 184.495 229.819 187.227C227.202 188.977 224.279 190.221 221.202 190.895H221.116ZM158.237 180.846L221.106 189.94C222.226 189.711 236.426 186.549 241.75 169.287C243.665 163.068 246.145 151.833 248.749 139.95C251.411 127.77 254.178 115.179 256.562 107.088C258.583 100.257 261.436 97.5346 263.265 96.3787L215.572 90.6469C215.131 90.6469 203.498 90.8093 200.529 102.502C200.003 104.594 199.026 108.931 197.791 114.424C195.033 126.69 190.868 145.223 187.613 156.572C185.267 164.72 176.917 171.073 170.32 174.961C166.446 177.222 162.407 179.189 158.237 180.846Z" fill="#231F20"/>
<path d="M233.975 170.548H233.917L225.156 169.592C225.031 169.578 224.916 169.515 224.837 169.416C224.758 169.318 224.721 169.192 224.735 169.067C224.741 169.004 224.759 168.944 224.789 168.889C224.819 168.833 224.86 168.785 224.909 168.745C224.958 168.706 225.015 168.677 225.075 168.66C225.136 168.643 225.199 168.639 225.262 168.647L234.032 169.602C234.158 169.616 234.272 169.68 234.351 169.778C234.43 169.876 234.467 170.002 234.454 170.127C234.437 170.243 234.38 170.349 234.292 170.426C234.205 170.503 234.092 170.546 233.975 170.548Z" fill="#D1D3D4"/>
<path d="M218.09 168.752H218.033L191.807 165.781C191.681 165.766 191.566 165.703 191.487 165.605C191.409 165.506 191.372 165.381 191.385 165.255C191.391 165.193 191.41 165.132 191.44 165.077C191.469 165.022 191.51 164.973 191.559 164.934C191.608 164.895 191.665 164.866 191.726 164.849C191.786 164.832 191.849 164.827 191.912 164.835L218.147 167.796C218.274 167.804 218.393 167.862 218.478 167.957C218.562 168.051 218.605 168.176 218.597 168.303C218.59 168.429 218.532 168.548 218.437 168.632C218.342 168.716 218.217 168.759 218.09 168.752Z" fill="#D1D3D4"/>
<path d="M226.142 180.53H226.085L218.032 179.575C217.97 179.568 217.909 179.548 217.854 179.517C217.798 179.486 217.75 179.444 217.711 179.395C217.672 179.345 217.643 179.288 217.626 179.227C217.608 179.167 217.604 179.103 217.611 179.04C217.619 178.977 217.638 178.917 217.67 178.862C217.701 178.807 217.742 178.758 217.792 178.719C217.842 178.68 217.899 178.651 217.96 178.634C218.021 178.617 218.084 178.612 218.147 178.62L226.2 179.575C226.263 179.579 226.324 179.595 226.381 179.622C226.438 179.65 226.488 179.688 226.53 179.735C226.572 179.782 226.604 179.837 226.624 179.896C226.645 179.956 226.654 180.019 226.65 180.081C226.646 180.144 226.63 180.206 226.602 180.262C226.575 180.319 226.536 180.369 226.489 180.411C226.442 180.453 226.387 180.485 226.328 180.505C226.268 180.526 226.205 180.534 226.142 180.53Z" fill="#D1D3D4"/>
<path d="M209.109 178.601H209.051L183.974 175.735C183.847 175.721 183.731 175.657 183.651 175.558C183.571 175.458 183.534 175.331 183.548 175.205C183.562 175.078 183.626 174.962 183.726 174.882C183.825 174.803 183.952 174.766 184.079 174.78L209.166 177.646C209.291 177.66 209.406 177.723 209.485 177.822C209.564 177.92 209.601 178.046 209.587 178.171C209.573 178.288 209.517 178.397 209.429 178.476C209.341 178.555 209.227 178.599 209.109 178.601Z" fill="#D1D3D4"/>
<path d="M221.115 190.418C217.326 186.925 214.412 182.593 212.608 177.772C210.803 172.95 210.159 167.773 210.727 162.657L142.744 150.42C142.744 150.42 148.575 173.127 156.331 181.046L221.115 190.418Z" fill="white"/>
<path d="M221.115 190.895H221.048L156.274 181.524C156.168 181.506 156.071 181.456 155.996 181.381C148.24 173.461 142.524 151.47 142.285 150.534C142.265 150.457 142.265 150.377 142.285 150.3C142.305 150.223 142.344 150.152 142.399 150.095C142.454 150.034 142.523 149.988 142.6 149.961C142.677 149.935 142.759 149.928 142.84 149.942L210.822 162.179C210.94 162.205 211.044 162.272 211.114 162.369C211.185 162.466 211.217 162.586 211.205 162.705C210.668 167.742 211.313 172.836 213.088 177.582C214.862 182.329 217.719 186.599 221.431 190.055C221.511 190.115 221.57 190.2 221.598 190.295C221.627 190.391 221.623 190.494 221.589 190.588C221.555 190.682 221.491 190.763 221.408 190.818C221.324 190.873 221.225 190.9 221.125 190.895H221.115ZM156.57 180.597L219.689 189.73C216.264 186.234 213.642 182.037 212.004 177.43C210.365 172.823 209.75 167.916 210.2 163.049L143.405 151.022C144.477 154.929 149.82 173.557 156.57 180.597Z" fill="#231F20"/>
<path d="M248.041 111.014H247.993L205.863 106.237C205.799 106.232 205.737 106.213 205.681 106.182C205.625 106.152 205.576 106.11 205.537 106.06C205.497 106.01 205.468 105.953 205.452 105.891C205.436 105.83 205.432 105.765 205.441 105.702C205.456 105.577 205.519 105.463 205.618 105.384C205.717 105.305 205.842 105.269 205.968 105.282L248.098 110.058C248.225 110.065 248.344 110.121 248.43 110.215C248.515 110.309 248.559 110.433 248.553 110.56C248.546 110.687 248.49 110.806 248.396 110.891C248.301 110.976 248.177 111.02 248.05 111.014H248.041Z" fill="#D1D3D4"/>
<path d="M246.279 121.828H246.221L238.312 120.93C238.249 120.922 238.189 120.902 238.133 120.871C238.078 120.84 238.03 120.799 237.99 120.749C237.951 120.7 237.922 120.643 237.905 120.582C237.888 120.521 237.883 120.457 237.891 120.395C237.898 120.332 237.918 120.271 237.949 120.216C237.98 120.161 238.022 120.113 238.072 120.074C238.122 120.035 238.179 120.006 238.24 119.989C238.3 119.972 238.364 119.967 238.427 119.974L246.326 120.863C246.389 120.866 246.451 120.881 246.508 120.908C246.565 120.935 246.616 120.973 246.658 121.02C246.7 121.066 246.733 121.121 246.754 121.18C246.775 121.239 246.784 121.302 246.781 121.364C246.778 121.427 246.763 121.489 246.736 121.545C246.709 121.602 246.671 121.653 246.624 121.695C246.577 121.737 246.523 121.77 246.464 121.791C246.404 121.812 246.341 121.821 246.279 121.818V121.828Z" fill="#D1D3D4"/>
<path d="M229.513 119.927L204.158 117.061C204.031 117.047 203.915 116.983 203.835 116.884C203.755 116.784 203.718 116.657 203.732 116.531C203.746 116.404 203.81 116.288 203.91 116.208C204.009 116.128 204.137 116.091 204.264 116.105L229.618 118.971C229.681 118.975 229.743 118.991 229.799 119.019C229.856 119.046 229.906 119.084 229.948 119.131C229.99 119.178 230.022 119.233 230.043 119.293C230.063 119.352 230.072 119.415 230.068 119.478C230.064 119.54 230.048 119.602 230.021 119.658C229.993 119.715 229.955 119.765 229.908 119.807C229.861 119.849 229.806 119.881 229.746 119.901C229.687 119.922 229.624 119.93 229.561 119.927H229.513Z" fill="#D1D3D4"/>
<path d="M243.674 131.906H243.617L230.585 130.435C230.459 130.418 230.344 130.353 230.265 130.253C230.187 130.153 230.15 130.026 230.164 129.9C230.181 129.774 230.246 129.659 230.346 129.581C230.446 129.502 230.573 129.466 230.7 129.48L243.722 130.96C243.785 130.966 243.846 130.985 243.901 131.014C243.956 131.044 244.005 131.085 244.044 131.134C244.084 131.183 244.113 131.239 244.13 131.3C244.147 131.36 244.151 131.423 244.143 131.486C244.13 131.601 244.074 131.707 243.988 131.784C243.902 131.861 243.79 131.905 243.674 131.906Z" fill="#D1D3D4"/>
<path d="M218.09 129.011H218.032L201.506 127.101C201.443 127.094 201.382 127.075 201.327 127.044C201.271 127.014 201.222 126.973 201.183 126.924C201.143 126.875 201.114 126.818 201.096 126.757C201.078 126.697 201.073 126.633 201.08 126.571C201.087 126.508 201.106 126.447 201.136 126.392C201.167 126.337 201.208 126.288 201.257 126.248C201.307 126.209 201.363 126.179 201.424 126.162C201.485 126.144 201.548 126.139 201.611 126.146L218.147 128.008C218.274 128.025 218.388 128.09 218.467 128.19C218.546 128.29 218.582 128.417 218.569 128.543C218.564 128.668 218.511 128.785 218.422 128.872C218.333 128.959 218.214 129.009 218.09 129.011Z" fill="#D1D3D4"/>
<path d="M241.453 141.449H241.395L230.528 140.179C230.402 140.162 230.287 140.097 230.208 139.997C230.129 139.897 230.093 139.77 230.107 139.644C230.126 139.519 230.192 139.406 230.291 139.328C230.391 139.25 230.517 139.212 230.643 139.224L241.501 140.456C241.628 140.462 241.747 140.519 241.832 140.613C241.918 140.707 241.962 140.831 241.956 140.957C241.949 141.084 241.893 141.203 241.798 141.288C241.704 141.373 241.58 141.418 241.453 141.411V141.449Z" fill="#D1D3D4"/>
<path d="M218.99 138.908H218.933L199.275 136.683C199.15 136.668 199.035 136.605 198.956 136.506C198.877 136.408 198.84 136.282 198.854 136.157C198.871 136.031 198.936 135.917 199.036 135.838C199.136 135.76 199.263 135.723 199.39 135.737L219.038 137.963C219.165 137.963 219.287 138.013 219.376 138.103C219.466 138.192 219.517 138.314 219.517 138.44C219.517 138.567 219.466 138.688 219.376 138.778C219.287 138.868 219.165 138.918 219.038 138.918L218.99 138.908Z" fill="#D1D3D4"/>
<path d="M239.145 152.015L229.503 150.926C229.378 150.912 229.263 150.848 229.184 150.75C229.105 150.651 229.068 150.526 229.082 150.401C229.088 150.338 229.106 150.277 229.136 150.222C229.166 150.167 229.207 150.118 229.256 150.079C229.305 150.04 229.362 150.011 229.422 149.994C229.483 149.977 229.546 149.972 229.608 149.98L239.25 151.069C239.377 151.077 239.496 151.134 239.581 151.229C239.665 151.324 239.708 151.449 239.701 151.576C239.693 151.702 239.635 151.821 239.54 151.905C239.445 151.989 239.32 152.032 239.193 152.025L239.145 152.015Z" fill="#D1D3D4"/>
<path d="M223.49 150.248H223.433L196.977 147.248C196.852 147.234 196.737 147.17 196.658 147.072C196.579 146.973 196.542 146.848 196.556 146.723C196.562 146.66 196.58 146.599 196.61 146.544C196.64 146.489 196.681 146.44 196.73 146.401C196.779 146.362 196.835 146.333 196.896 146.316C196.957 146.299 197.02 146.294 197.082 146.302L223.538 149.292C223.665 149.299 223.784 149.355 223.87 149.449C223.955 149.543 223.999 149.667 223.993 149.794C223.987 149.921 223.93 150.039 223.836 150.125C223.741 150.21 223.617 150.254 223.49 150.248Z" fill="#D1D3D4"/>
<path d="M236.713 160.565H236.656L225.166 159.266C225.04 159.251 224.926 159.188 224.847 159.089C224.768 158.991 224.731 158.865 224.744 158.74C224.75 158.678 224.769 158.617 224.799 158.562C224.829 158.507 224.869 158.458 224.918 158.419C224.968 158.379 225.024 158.35 225.085 158.333C225.145 158.316 225.209 158.312 225.271 158.32L236.761 159.619C236.888 159.627 237.007 159.684 237.091 159.779C237.176 159.874 237.219 159.999 237.211 160.125C237.203 160.252 237.146 160.37 237.051 160.455C236.955 160.539 236.831 160.582 236.704 160.574L236.713 160.565Z" fill="#D1D3D4"/>
<path d="M220.024 158.683L194.593 155.817C194.466 155.803 194.35 155.739 194.27 155.64C194.19 155.541 194.153 155.414 194.167 155.287C194.181 155.16 194.245 155.044 194.344 154.965C194.444 154.885 194.571 154.848 194.698 154.862L220.129 157.728C220.256 157.735 220.375 157.793 220.459 157.888C220.544 157.983 220.587 158.107 220.579 158.234C220.572 158.361 220.514 158.479 220.419 158.563C220.324 158.648 220.199 158.691 220.072 158.683H220.024Z" fill="#D1D3D4"/>
<path d="M87.7804 96.602L109.761 143.737C111.581 147.641 116.228 149.333 120.14 147.517L192.639 113.865C196.551 112.049 198.247 107.412 196.427 103.509L174.447 56.3736C172.627 52.4702 167.98 50.7781 164.067 52.5941L91.5686 86.2461C87.6562 88.0621 85.9601 92.6986 87.7804 96.602Z" fill="white"/>
<path d="M116.863 148.777C115.283 148.779 113.735 148.33 112.401 147.484C111.068 146.638 110.005 145.429 109.337 144L87.3146 96.8658C86.3885 94.8768 86.2918 92.6023 87.0459 90.5423C87.8 88.4823 89.3431 86.8053 91.3361 85.8799L163.838 52.2249C165.832 51.3009 168.111 51.2045 170.176 51.9569C172.241 52.7092 173.922 54.2488 174.849 56.2372L196.824 103.371C197.284 104.355 197.545 105.42 197.593 106.505C197.64 107.59 197.473 108.674 197.1 109.694C196.728 110.714 196.157 111.651 195.421 112.451C194.685 113.252 193.799 113.899 192.812 114.357L120.31 148.012C119.23 148.513 118.054 148.773 116.863 148.777ZM167.362 52.3491C166.297 52.3498 165.245 52.5812 164.278 53.0274L91.7765 86.6824C90.0151 87.5017 88.6516 88.9851 87.9855 90.8067C87.3195 92.6283 87.4053 94.6392 88.2242 96.3977L110.247 143.541C111.07 145.3 112.558 146.66 114.386 147.325C116.213 147.989 118.23 147.903 119.994 147.086L192.458 113.431C194.219 112.611 195.583 111.128 196.249 109.306C196.915 107.485 196.829 105.474 196.01 103.715L173.987 56.5715C173.398 55.3136 172.462 54.2488 171.289 53.5012C170.115 52.7536 168.754 52.3541 167.362 52.3491Z" fill="#231F20"/>
<path d="M151.192 75.158L156.737 87.0502C158.053 89.8725 161.413 91.096 164.242 89.7829L172.681 85.866C175.509 84.553 176.736 81.2006 175.42 78.3783L169.874 66.4861C168.558 63.6638 165.198 62.4403 162.369 63.7534L153.931 67.6703C151.102 68.9833 149.875 72.3357 151.192 75.158Z" fill="#5094D1"/>
<path d="M99.2527 93.0468C97.5123 93.8546 96.7578 95.9172 97.5675 97.6536C98.3773 99.3901 100.445 100.143 102.185 99.335L118.428 91.7954C120.168 90.9875 120.923 88.925 120.113 87.1885C119.303 85.4521 117.236 84.6993 115.496 85.5072L99.2527 93.0468Z" fill="#D1D3D4"/>
<path d="M169.395 105.66L170.95 108.995C171.359 109.87 172.401 110.25 173.278 109.843L185.502 104.169C186.379 103.761 186.759 102.722 186.351 101.846L184.796 98.5116C184.388 97.6362 183.346 97.2567 182.468 97.664L170.245 103.338C169.367 103.745 168.987 104.785 169.395 105.66Z" fill="#D1D3D4"/>
<path d="M150.738 114.33L152.293 117.664C152.702 118.54 153.744 118.919 154.621 118.512L166.845 112.838C167.722 112.431 168.102 111.391 167.694 110.516L166.139 107.181C165.731 106.306 164.689 105.926 163.811 106.333L151.588 112.007C150.71 112.414 150.33 113.454 150.738 114.33Z" fill="#D1D3D4"/>
<path d="M132.069 122.985L133.624 126.319C134.032 127.195 135.074 127.574 135.951 127.167L148.175 121.493C149.052 121.086 149.433 120.046 149.025 119.171L147.469 115.836C147.061 114.961 146.019 114.581 145.142 114.989L132.918 120.662C132.041 121.07 131.66 122.109 132.069 122.985Z" fill="#D1D3D4"/>
<path d="M113.412 131.645L114.967 134.979C115.375 135.855 116.417 136.234 117.295 135.827L129.518 130.153C130.395 129.746 130.776 128.706 130.368 127.831L128.813 124.496C128.404 123.621 127.362 123.241 126.485 123.648L114.261 129.322C113.384 129.73 113.003 130.769 113.412 131.645Z" fill="#D1D3D4"/>
<path d="M249.553 88.593C249.473 88.5938 249.394 88.5739 249.324 88.5355C249.253 88.497 249.194 88.4412 249.151 88.3733L236.311 68.3121C236.25 68.2059 236.233 68.0804 236.262 67.9616C236.291 67.8429 236.365 67.7398 236.468 67.6736C236.571 67.6075 236.696 67.5834 236.816 67.6062C236.937 67.629 237.044 67.697 237.115 67.7962L249.956 87.8574C250.024 87.9639 250.047 88.093 250.02 88.2166C249.993 88.3402 249.918 88.448 249.812 88.5166C249.736 88.569 249.646 88.5958 249.553 88.593Z" fill="white"/>
<path d="M210.727 82.7656C210.638 82.7656 210.551 82.7416 210.475 82.6962C210.4 82.6508 210.338 82.5856 210.296 82.5077L203.737 69.8692C203.707 69.8141 203.689 69.7537 203.683 69.6915C203.677 69.6293 203.683 69.5664 203.702 69.5068C203.721 69.4471 203.751 69.3918 203.792 69.3441C203.832 69.2964 203.882 69.2573 203.938 69.2291C203.994 69.1992 204.055 69.1807 204.118 69.1746C204.181 69.1685 204.245 69.175 204.306 69.1936C204.366 69.2123 204.422 69.2428 204.471 69.2833C204.52 69.3238 204.56 69.3736 204.589 69.4297L211.148 82.0683C211.206 82.1813 211.217 82.3125 211.18 82.4338C211.142 82.5552 211.059 82.6571 210.947 82.7179C210.877 82.7464 210.802 82.7626 210.727 82.7656Z" fill="white"/>
<path d="M103.764 156.83L99.7524 161.425C97.1959 164.615 89.0667 162.38 81.6173 156.409C74.168 150.439 70.1848 143.045 72.77 139.844L76.7915 135.25L103.764 156.83Z" fill="white"/>
<path d="M95.9607 163.364C92.1307 163.364 86.606 161.004 81.311 156.782C77.9503 154.195 75.1273 150.979 72.9999 147.315C71.2285 144 71.0083 141.249 72.3679 139.548L76.399 134.934C76.4804 134.841 76.5946 134.784 76.7178 134.773C76.8409 134.762 76.9634 134.8 77.0597 134.877L104.061 156.419C104.113 156.457 104.156 156.506 104.187 156.562C104.219 156.618 104.238 156.68 104.243 156.744C104.254 156.875 104.212 157.005 104.128 157.107L100.107 161.702C99.5891 162.277 98.9461 162.725 98.2274 163.014C97.5086 163.302 96.7332 163.422 95.9607 163.364ZM76.8107 135.909L73.1052 140.179C72.0232 141.526 72.2913 144 73.8425 146.866C75.9076 150.422 78.6496 153.54 81.9142 156.046C89.0284 161.778 97.0236 164.061 99.379 161.138L103.075 156.897L76.8107 135.909Z" fill="#231F20"/>
<path d="M103.761 156.822C106.32 153.634 102.348 146.219 94.889 140.26C87.4304 134.3 79.3099 132.053 76.7513 135.24C74.1928 138.428 78.165 145.843 85.6236 151.802C93.0821 157.762 101.203 160.009 103.761 156.822Z" fill="white"/>
<path d="M99.9727 158.759C96.1427 158.759 90.6083 156.4 85.3325 152.187C81.9665 149.603 79.1399 146.387 77.0118 142.72C75.2404 139.405 75.0202 136.654 76.3894 134.953C77.7491 133.253 80.4971 132.861 84.1165 133.864C88.1679 135.134 91.9314 137.181 95.1947 139.892C102.979 146.111 106.905 153.677 104.138 157.088C103.618 157.665 102.972 158.116 102.25 158.406C101.528 158.696 100.749 158.817 99.9727 158.759ZM80.545 134.285C79.9183 134.225 79.2864 134.308 78.6962 134.526C78.106 134.745 77.5728 135.093 77.1363 135.546C76.0352 136.912 76.3033 139.367 77.864 142.233C79.9263 145.788 82.665 148.906 85.9261 151.413C93.0404 157.145 101.045 159.428 103.391 156.505C105.737 153.582 101.715 146.293 94.5915 140.609C91.4316 137.978 87.7848 135.991 83.8579 134.762C82.7806 134.453 81.666 134.293 80.545 134.285Z" fill="#231F20"/>
<path d="M83.9824 137.867L85.7347 139.529H85.9357C86.5006 139.634 87.0369 139.711 87.6114 139.854C89.121 140.257 90.5473 140.923 91.8244 141.822C92.6228 142.362 93.3471 143.005 93.9787 143.733C94.3757 144.127 94.64 144.634 94.7352 145.185C94.7547 145.379 94.7137 145.576 94.6178 145.746C94.5219 145.917 94.3757 146.055 94.199 146.14C93.9213 146.331 93.6149 146.503 93.3085 146.694L96.6023 149.818C97.1672 149.417 96.9183 148.738 96.1427 147.907L98.163 147.563C98.7775 148.095 99.2789 148.745 99.6376 149.474C99.7898 149.748 99.8557 150.061 99.8267 150.373C99.7976 150.685 99.675 150.981 99.4748 151.222C99.2737 151.442 98.996 151.633 98.7471 151.853L99.944 152.989L98.029 153.591L96.8034 152.435C96.2097 152.435 95.6544 152.435 95.0416 152.435C93.8603 152.323 92.7089 151.999 91.6424 151.48C90.1956 150.842 88.8929 149.919 87.8124 148.767C86.7113 147.563 86.4719 146.618 87.1517 145.977C87.6058 145.588 88.1331 145.292 88.7029 145.108L88.9327 145.022L85.591 141.87H85.4953C85.4195 142.073 85.3681 142.285 85.3421 142.5C85.4508 142.932 85.6959 143.317 86.0411 143.599L82.91 143.79C82.6611 143.522 82.4121 143.264 82.1919 143.007C81.3876 142.051 81.0812 141.258 81.3301 140.637C81.494 140.337 81.7306 140.083 82.0183 139.898C82.306 139.713 82.6356 139.602 82.9771 139.577C83.0824 139.577 83.0824 139.52 82.9771 139.415C82.3738 138.861 81.7802 138.297 81.1865 137.733L83.9824 137.867ZM91.5467 147.515C91.2499 147.754 90.8669 147.936 90.9435 148.385C91.0201 148.834 92.0637 149.77 93.0308 150.095C93.5065 150.264 94.0101 150.342 94.5149 150.324L91.5467 147.515ZM90.7807 144.315C91.0392 144.172 91.2977 144.057 91.336 143.799C91.4031 143.322 90.3785 142.414 89.3253 142.032C88.8753 141.86 88.4444 141.765 87.9465 141.621L90.7807 144.315Z" fill="#D1D3D4"/>
<path d="M134.893 205.301L137.238 210.928C138.962 214.634 133.341 220.892 124.686 224.923C116.03 228.954 107.604 229.203 105.871 225.506L103.525 219.87L134.893 205.301Z" fill="white"/>
<path d="M112.152 228.61C108.81 228.61 106.34 227.655 105.45 225.745L103.094 220.099C103.048 219.984 103.047 219.856 103.091 219.741C103.136 219.626 103.222 219.532 103.334 219.478L134.701 204.91C134.76 204.883 134.824 204.87 134.888 204.87C134.952 204.87 135.016 204.883 135.075 204.91C135.135 204.934 135.19 204.97 135.236 205.016C135.282 205.062 135.318 205.117 135.343 205.177L137.689 210.804C139.546 214.787 133.935 221.207 124.896 225.41C120.919 227.352 116.578 228.443 112.152 228.61ZM104.147 220.108L106.311 225.315C107.891 228.696 116.212 228.324 124.504 224.484C132.796 220.643 138.407 214.529 136.817 211.109L134.663 205.922L104.147 220.108Z" fill="#231F20"/>
<path d="M122.332 219.294C130.994 215.27 136.616 209.006 134.888 205.304C133.16 201.602 124.737 201.864 116.075 205.888C107.412 209.913 101.791 216.177 103.519 219.878C105.247 223.58 113.67 223.319 122.332 219.294Z" fill="white"/>
<path d="M109.777 222.965C106.33 222.965 103.965 221.952 103.075 220.099C101.16 216.106 106.819 209.677 115.858 205.483C124.896 201.289 133.437 201.127 135.304 205.129C137.172 209.132 131.561 215.552 122.522 219.755C118.705 221.612 114.561 222.709 110.323 222.984L109.777 222.965ZM128.669 203.228C124.366 203.405 120.147 204.472 116.279 206.362C108.016 210.183 102.376 216.316 103.956 219.736C104.703 221.322 107.039 222.162 110.314 222.067C114.423 221.8 118.441 220.733 122.139 218.924C130.402 215.103 136.042 208.97 134.452 205.55C133.725 203.945 131.58 203.228 128.669 203.228Z" fill="#231F20"/>
<path d="M109.078 214.577L111.348 213.746L111.472 213.584C111.817 213.125 112.114 212.628 112.506 212.227C113.541 211.066 114.773 210.096 116.145 209.361C116.988 208.89 117.889 208.53 118.826 208.291C119.358 208.119 119.931 208.119 120.463 208.291C120.638 208.363 120.788 208.485 120.893 208.641C120.999 208.797 121.056 208.982 121.057 209.17C121.057 209.504 121.124 209.858 121.152 210.211L125.423 208.654C125.308 207.966 124.599 207.89 123.508 208.215L124.092 206.304C124.854 205.993 125.672 205.837 126.495 205.846C126.813 205.831 127.127 205.914 127.395 206.086C127.663 206.257 127.87 206.507 127.989 206.801C128.093 207.114 128.176 207.433 128.238 207.756L129.789 207.193L129.483 209.17L127.903 209.762C127.635 210.288 127.405 210.794 127.099 211.329C126.484 212.337 125.692 213.227 124.762 213.956C123.555 214.969 122.149 215.721 120.635 216.163C119.065 216.621 118.117 216.411 117.84 215.523C117.69 214.946 117.658 214.345 117.744 213.756C117.744 213.67 117.744 213.584 117.744 213.507L113.435 215.103L113.358 215.169C113.504 215.329 113.672 215.467 113.856 215.58C114.29 215.679 114.745 215.632 115.149 215.446L113.933 218.312C113.579 218.417 113.244 218.522 112.918 218.599C111.702 218.905 110.85 218.828 110.4 218.322C110.208 218.046 110.088 217.728 110.049 217.394C110.011 217.061 110.055 216.723 110.18 216.411C110.18 216.316 110.18 216.297 110.026 216.354L107.719 217.204L109.078 214.577ZM121.105 212.093C121.191 212.466 121.181 212.886 121.612 213.049C122.078 213.043 122.538 212.942 122.963 212.751C123.388 212.561 123.769 212.285 124.082 211.94C124.446 211.588 124.738 211.17 124.944 210.708L121.105 212.093ZM117.887 211.358C117.887 211.071 117.887 210.775 117.667 210.632C117.275 210.364 116.011 210.871 115.187 211.644C114.843 211.969 114.565 212.313 114.23 212.695L117.887 211.358Z" fill="#D1D3D4"/>
<path d="M111.961 170.146C108.552 175.811 112.372 188.364 112.372 188.364L117.418 192.032C119.217 193.112 121.211 193.827 123.287 194.138C125.363 194.448 127.48 194.348 129.517 193.842C131.554 193.337 133.471 192.436 135.159 191.191C136.847 189.946 138.273 188.382 139.355 186.587C140.437 184.792 141.154 182.803 141.465 180.732C141.776 178.661 141.676 176.549 141.169 174.516C140.662 172.484 139.759 170.571 138.511 168.887C137.264 167.203 135.696 165.781 133.897 164.701L128.305 161.96C128.305 161.96 115.369 164.491 111.961 170.146Z" fill="white"/>
<path d="M125.624 194.793C122.648 194.788 119.729 193.976 117.179 192.443L112.085 188.756C112.003 188.693 111.942 188.606 111.913 188.507C111.75 187.982 108.083 175.678 111.549 169.898C115.034 164.166 127.654 161.597 128.19 161.491C128.287 161.464 128.39 161.464 128.487 161.491L134.098 164.233C137.187 166.082 139.583 168.89 140.92 172.227C142.256 175.564 142.46 179.247 141.498 182.71C140.536 186.173 138.463 189.227 135.596 191.402C132.729 193.578 129.226 194.755 125.624 194.755V194.793ZM112.784 188.106L117.706 191.669C121.229 193.769 125.444 194.389 129.425 193.394C133.406 192.398 136.829 189.868 138.943 186.358C141.057 182.843 141.687 178.634 140.694 174.657C139.701 170.679 137.167 167.257 133.648 165.141L128.219 162.495C126.754 162.8 115.436 165.36 112.372 170.423C109.308 175.525 112.372 186.644 112.784 188.077V188.106Z" fill="#231F20"/>
<path d="M122.177 192.223C131.003 192.223 138.158 185.085 138.158 176.279C138.158 167.474 131.003 160.336 122.177 160.336C113.351 160.336 106.197 167.474 106.197 176.279C106.197 185.085 113.351 192.223 122.177 192.223Z" fill="white"/>
<path d="M122.148 192.72C119.614 192.713 117.115 192.123 114.847 190.994C112.579 189.866 110.602 188.23 109.072 186.214C107.541 184.199 106.498 181.858 106.024 179.374C105.549 176.89 105.656 174.33 106.336 171.894C107.015 169.458 108.25 167.211 109.943 165.33C111.636 163.448 113.742 161.981 116.096 161.045C118.45 160.108 120.989 159.727 123.516 159.93C126.042 160.134 128.487 160.916 130.661 162.217C133.75 164.067 136.146 166.877 137.481 170.217C138.815 173.556 139.015 177.24 138.048 180.703C137.082 184.166 135.003 187.218 132.131 189.388C129.258 191.559 125.752 192.73 122.148 192.72ZM122.206 160.832C118.455 160.827 114.83 162.178 112.002 164.635C109.173 167.093 107.334 170.49 106.824 174.197C106.315 177.904 107.169 181.67 109.23 184.796C111.29 187.922 114.417 190.198 118.031 191.2C121.644 192.202 125.499 191.863 128.881 190.246C132.264 188.629 134.944 185.844 136.425 182.406C137.906 178.968 138.087 175.111 136.936 171.55C135.784 167.989 133.378 164.965 130.163 163.039C127.761 161.592 125.011 160.823 122.206 160.813V160.832Z" fill="#231F20"/>
<path d="M113.215 168.971L115.206 170.175C115.34 170.252 115.407 170.242 115.503 170.127C116.285 169.26 117.273 168.603 118.376 168.217C119.527 167.812 120.786 167.839 121.918 168.293C122.225 168.417 122.522 168.561 122.876 168.704L121.018 171.78C120.551 171.506 120.004 171.398 119.467 171.474C119.055 171.582 118.649 171.713 118.251 171.866V171.942L122.081 174.254L122.359 173.968C123.026 173.247 123.775 172.606 124.59 172.057C125.19 171.626 125.897 171.366 126.634 171.305C127.371 171.245 128.111 171.386 128.774 171.713C130.064 172.238 131.095 173.246 131.647 174.522C132.101 175.558 132.215 176.712 131.972 177.817C131.829 178.505 131.599 179.184 131.398 179.89L132.891 180.788L131.187 183.654L129.655 182.699C129.148 183.177 128.698 183.654 128.209 184.075C127.258 184.906 126.054 185.394 124.791 185.46C123.705 185.486 122.635 185.19 121.717 184.61L123.537 181.581C124.076 181.878 124.699 181.989 125.308 181.897C125.917 181.806 126.479 181.517 126.907 181.075L122.78 178.61C122.273 179.078 121.765 179.566 121.248 180.024C120.642 180.605 119.902 181.028 119.094 181.257C118.264 181.463 117.389 181.403 116.595 181.085C115.605 180.74 114.73 180.128 114.067 179.317C113.592 178.73 113.252 178.045 113.072 177.312C112.892 176.579 112.875 175.816 113.023 175.076C113.138 174.474 113.378 173.891 113.55 173.309C113.55 173.242 113.55 173.175 113.627 173.098L111.558 171.856L113.215 168.971ZM128.611 178.2C128.833 177.699 128.906 177.145 128.822 176.604C128.736 176.144 128.484 175.731 128.114 175.444C127.743 175.157 127.279 175.016 126.811 175.047C126.149 175.229 125.549 175.589 125.078 176.088L128.611 178.2ZM116.212 174.636C116.144 175.105 116.112 175.577 116.116 176.05C116.137 176.306 116.214 176.554 116.342 176.778C116.469 177.001 116.643 177.194 116.853 177.343C117.063 177.492 117.302 177.594 117.555 177.641C117.808 177.689 118.069 177.68 118.318 177.617C118.822 177.397 119.273 177.071 119.64 176.662L116.212 174.636Z" fill="#D1D3D4"/>
</svg>
