<svg width="67" height="86" viewBox="0 0 67 86" fill="none" xmlns="http://www.w3.org/2000/svg">
<path fill-rule="evenodd" clip-rule="evenodd" d="M50.6315 1.4H16.255V3.222C16.255 5.26545 14.5985 6.922 12.555 6.922H10.7775C8.73405 6.922 7.0775 5.26545 7.0775 3.222V1.4H3C2.11634 1.4 1.4 2.11634 1.4 3V60.7755C1.4 61.6591 2.11635 62.3755 3 62.3755H20.0311C20.3282 61.6371 20.6857 60.9233 21.1005 60.2414L19.0172 57.7288C18.9725 57.6747 18.9376 57.6156 18.9125 57.5535H9.22211C7.56526 57.5535 6.22211 56.2104 6.22211 54.5535V21.666C6.22211 20.0092 7.56526 18.666 9.22211 18.666H57.6646C59.3215 18.666 60.6646 20.0092 60.6646 21.666V54.5535C60.6646 56.2104 59.3215 57.5535 57.6646 57.5535H47.975C47.95 57.6157 47.9151 57.675 47.8703 57.7291L45.7903 60.2381C46.2098 60.9198 46.5699 61.6348 46.8671 62.3755H63.8865C64.7701 62.3755 65.4865 61.6591 65.4865 60.7755V3C65.4865 2.11635 64.7701 1.4 63.8865 1.4H59.809V3.222C59.809 5.26545 58.1524 6.922 56.109 6.922H54.3315C52.288 6.922 50.6315 5.26545 50.6315 3.222V1.4ZM47.3451 63.7755H63.8865C65.5434 63.7755 66.8865 62.4323 66.8865 60.7755V3C66.8865 1.34315 65.5434 0 63.8865 0H3C1.34315 0 0 1.34314 0 3V60.7755C0 62.4323 1.34315 63.7755 3 63.7755H19.5489C19.5117 63.9044 19.4763 64.0338 19.4426 64.1638L16.163 64.4804C15.8205 64.5129 15.5579 64.7992 15.555 65.1431V70.1851C15.5579 70.529 15.8205 70.8153 16.163 70.8478L19.4371 71.164C19.7875 72.5492 20.3468 73.8733 21.0963 75.0901L19.0162 77.5991C18.7969 77.864 18.8154 78.2523 19.0588 78.4951L22.6234 82.0523C22.8662 82.295 23.2543 82.3132 23.5185 82.0939L26.033 80.0093C27.2538 80.7513 28.5775 81.3093 29.961 81.6649L30.2772 84.9393C30.3094 85.2828 30.5948 85.547 30.9399 85.5525H35.9895C36.3343 85.547 36.62 85.2828 36.6518 84.9393L36.9681 81.6707C38.3555 81.322 39.6815 80.7636 40.9006 80.0152L43.4106 82.0952C43.6751 82.3142 44.0629 82.296 44.3056 82.0536L47.8699 78.4961C48.1137 78.253 48.1319 77.8646 47.9122 77.5997L45.8289 75.0871C46.5709 73.8677 47.1296 72.546 47.4871 71.164L50.7238 70.8481C51.0663 70.8153 51.3286 70.529 51.3312 70.1851V65.1431C51.3286 64.7992 51.066 64.5129 50.7235 64.4807L47.4494 64.1645C47.4165 64.0342 47.3817 63.9046 47.3451 63.7755ZM58.409 1.4V3.222C58.409 4.49225 57.3792 5.522 56.109 5.522H54.3315C53.0612 5.522 52.0315 4.49225 52.0315 3.222V1.4H58.409ZM8.4775 1.4V3.222C8.4775 4.49225 9.50725 5.522 10.7775 5.522H12.555C13.8253 5.522 14.855 4.49225 14.855 3.222V1.4H8.4775ZM9.22211 19.666H22.8326V31.3878H7.22211V21.666C7.22211 20.5615 8.11754 19.666 9.22211 19.666ZM23.8326 19.666V31.3878H42.2764V19.666H23.8326ZM7.22211 32.3878H22.8326V45.3873H7.22211V32.3878ZM23.8326 32.3878V45.3873H42.2764V32.3878H23.8326ZM7.22211 46.3873H22.8326V53.1334C22.7566 53.1658 22.6855 53.213 22.6238 53.2746L19.3392 56.5535H9.22211C8.11754 56.5535 7.22211 55.6581 7.22211 54.5535V46.3873ZM26.0291 55.313L23.8326 53.493V46.3873H42.2764V54.1756L40.8967 55.3195C39.676 54.5772 38.3523 54.0192 36.9687 53.6636L36.6525 50.3892C36.6206 50.0457 36.335 49.7812 35.9898 49.776H30.9403C30.5951 49.7815 30.3097 50.0457 30.2776 50.3892L29.9613 53.6578C28.5742 54.0062 27.2482 54.5646 26.0291 55.313ZM43.4112 53.2346L43.2764 53.3465V46.3873H59.6646V54.5535C59.6646 55.6581 58.7692 56.5535 57.6646 56.5535H47.551L44.3092 53.2788C44.0664 53.0335 43.6768 53.0143 43.4112 53.2346ZM45.6652 56.5535H45.6782L43.7921 54.6478L41.3777 56.6488C41.1541 56.8334 40.8369 56.8519 40.5931 56.6946C39.2571 55.8197 37.7731 55.1941 36.2137 54.8486C35.929 54.7856 35.7175 54.546 35.6895 54.2558L35.3856 51.1072H31.5444L31.2406 54.2558C31.2133 54.547 31.0027 54.7882 30.7176 54.8541C29.1579 55.1882 27.6746 55.8119 26.3447 56.693C26.1 56.8545 25.7782 56.8373 25.5527 56.6501L23.1353 54.6458L20.429 57.3466L22.432 59.7626C22.6179 59.9872 22.6361 60.3067 22.4765 60.5508C21.6016 61.8859 20.9744 63.3676 20.6253 64.925C20.5616 65.2067 20.3241 65.4157 20.0368 65.4434L16.8862 65.7472V69.581L20.0364 69.8852C20.3257 69.9125 20.5646 70.1227 20.6289 70.4058C20.9659 71.9639 21.5919 73.4449 22.4746 74.7722C22.6374 75.0169 22.6205 75.3393 22.433 75.5656L20.4294 77.9819L23.1356 80.683L25.5527 78.6794C25.7763 78.4948 26.0935 78.4763 26.3372 78.6336C27.6733 79.5085 29.1573 80.1341 30.7167 80.4796C31.0014 80.5426 31.2129 80.7822 31.2406 81.0724L31.5444 84.221H35.3856L35.6895 81.0724C35.7171 80.7815 35.9274 80.5404 36.2121 80.4744C37.7721 80.1403 39.2554 79.5166 40.5853 78.6355C40.8297 78.4737 41.1515 78.4912 41.3774 78.6784L43.7944 80.6827L46.5007 77.9819L44.4977 75.5659C44.3121 75.3413 44.2939 75.0218 44.4532 74.7777C45.3284 73.4426 45.9554 71.9606 46.3044 70.4032C46.3684 70.1218 46.6054 69.9128 46.8927 69.8852L50 69.5816V65.7472L46.8501 65.443C46.5608 65.4157 46.322 65.2055 46.2576 64.9224C45.9206 63.3643 45.2946 61.8833 44.4119 60.556C44.2491 60.3112 44.266 59.9888 44.4535 59.7626L46.4576 57.3459L45.6652 56.5535ZM59.6646 45.3873H43.2764V32.3878H59.6646V45.3873ZM59.6646 31.3878H43.2764V19.666H57.6646C58.7692 19.666 59.6646 20.5615 59.6646 21.666V31.3878ZM33.4551 78.2824C39.3179 78.2824 44.0879 73.5192 44.0879 67.6643C44.0879 61.8094 39.3182 57.0461 33.4551 57.0461C27.5918 57.0461 22.822 61.8094 22.822 67.6643C22.822 73.5192 27.5921 78.2824 33.4551 78.2824ZM33.4551 58.3773C38.584 58.3773 42.7567 62.5435 42.7567 67.6643C42.7567 72.785 38.584 76.9512 33.4551 76.9512C28.326 76.9512 24.1533 72.785 24.1533 67.6643C24.1533 62.5435 28.3263 58.3773 33.4551 58.3773ZM38.1831 69.8854H33.4406C33.073 69.8854 32.775 69.5874 32.775 69.2198V64.0613C32.775 63.6938 33.073 63.3957 33.4406 63.3957C33.8082 63.3957 34.1062 63.6938 34.1062 64.0613V68.5542H38.1831C38.5507 68.5542 38.8487 68.8522 38.8487 69.2198C38.8487 69.5874 38.5507 69.8854 38.1831 69.8854Z" fill="#131414"/>
<path fill-rule="evenodd" clip-rule="evenodd" d="M50.6315 1.4H16.255V3.222C16.255 5.26545 14.5985 6.922 12.555 6.922H10.7775C8.73405 6.922 7.0775 5.26545 7.0775 3.222V1.4H3C2.11634 1.4 1.4 2.11634 1.4 3V60.7755C1.4 61.6591 2.11635 62.3755 3 62.3755H20.0311C20.3282 61.6371 20.6857 60.9233 21.1005 60.2414L19.0172 57.7288C18.9725 57.6747 18.9376 57.6156 18.9125 57.5535H9.22211C7.56526 57.5535 6.22211 56.2104 6.22211 54.5535V21.666C6.22211 20.0092 7.56526 18.666 9.22211 18.666H57.6646C59.3215 18.666 60.6646 20.0092 60.6646 21.666V54.5535C60.6646 56.2104 59.3215 57.5535 57.6646 57.5535H47.975C47.95 57.6157 47.9151 57.675 47.8703 57.7291L45.7903 60.2381C46.2098 60.9198 46.5699 61.6348 46.8671 62.3755H63.8865C64.7701 62.3755 65.4865 61.6591 65.4865 60.7755V3C65.4865 2.11635 64.7701 1.4 63.8865 1.4H59.809V3.222C59.809 5.26545 58.1524 6.922 56.109 6.922H54.3315C52.288 6.922 50.6315 5.26545 50.6315 3.222V1.4ZM47.3451 63.7755H63.8865C65.5434 63.7755 66.8865 62.4323 66.8865 60.7755V3C66.8865 1.34315 65.5434 0 63.8865 0H3C1.34315 0 0 1.34314 0 3V60.7755C0 62.4323 1.34315 63.7755 3 63.7755H19.5489C19.5117 63.9044 19.4763 64.0338 19.4426 64.1638L16.163 64.4804C15.8205 64.5129 15.5579 64.7992 15.555 65.1431V70.1851C15.5579 70.529 15.8205 70.8153 16.163 70.8478L19.4371 71.164C19.7875 72.5492 20.3468 73.8733 21.0963 75.0901L19.0162 77.5991C18.7969 77.864 18.8154 78.2523 19.0588 78.4951L22.6234 82.0523C22.8662 82.295 23.2543 82.3132 23.5185 82.0939L26.033 80.0093C27.2538 80.7513 28.5775 81.3093 29.961 81.6649L30.2772 84.9393C30.3094 85.2828 30.5948 85.547 30.9399 85.5525H35.9895C36.3343 85.547 36.62 85.2828 36.6518 84.9393L36.9681 81.6707C38.3555 81.322 39.6815 80.7636 40.9006 80.0152L43.4106 82.0952C43.6751 82.3142 44.0629 82.296 44.3056 82.0536L47.8699 78.4961C48.1137 78.253 48.1319 77.8646 47.9122 77.5997L45.8289 75.0871C46.5709 73.8677 47.1296 72.546 47.4871 71.164L50.7238 70.8481C51.0663 70.8153 51.3286 70.529 51.3312 70.1851V65.1431C51.3286 64.7992 51.066 64.5129 50.7235 64.4807L47.4494 64.1645C47.4165 64.0342 47.3817 63.9046 47.3451 63.7755ZM58.409 1.4V3.222C58.409 4.49225 57.3792 5.522 56.109 5.522H54.3315C53.0612 5.522 52.0315 4.49225 52.0315 3.222V1.4H58.409ZM8.4775 1.4V3.222C8.4775 4.49225 9.50725 5.522 10.7775 5.522H12.555C13.8253 5.522 14.855 4.49225 14.855 3.222V1.4H8.4775ZM9.22211 19.666H22.8326V31.3878H7.22211V21.666C7.22211 20.5615 8.11754 19.666 9.22211 19.666ZM23.8326 19.666V31.3878H42.2764V19.666H23.8326ZM7.22211 32.3878H22.8326V45.3873H7.22211V32.3878ZM23.8326 32.3878V45.3873H42.2764V32.3878H23.8326ZM7.22211 46.3873H22.8326V53.1334C22.7566 53.1658 22.6855 53.213 22.6238 53.2746L19.3392 56.5535H9.22211C8.11754 56.5535 7.22211 55.6581 7.22211 54.5535V46.3873ZM26.0291 55.313L23.8326 53.493V46.3873H42.2764V54.1756L40.8967 55.3195C39.676 54.5772 38.3523 54.0192 36.9687 53.6636L36.6525 50.3892C36.6206 50.0457 36.335 49.7812 35.9898 49.776H30.9403C30.5951 49.7815 30.3097 50.0457 30.2776 50.3892L29.9613 53.6578C28.5742 54.0062 27.2482 54.5646 26.0291 55.313ZM43.4112 53.2346L43.2764 53.3465V46.3873H59.6646V54.5535C59.6646 55.6581 58.7692 56.5535 57.6646 56.5535H47.551L44.3092 53.2788C44.0664 53.0335 43.6768 53.0143 43.4112 53.2346ZM45.6652 56.5535H45.6782L43.7921 54.6478L41.3777 56.6488C41.1541 56.8334 40.8369 56.8519 40.5931 56.6946C39.2571 55.8197 37.7731 55.1941 36.2137 54.8486C35.929 54.7856 35.7175 54.546 35.6895 54.2558L35.3856 51.1072H31.5444L31.2406 54.2558C31.2133 54.547 31.0027 54.7882 30.7176 54.8541C29.1579 55.1882 27.6746 55.8119 26.3447 56.693C26.1 56.8545 25.7782 56.8373 25.5527 56.6501L23.1353 54.6458L20.429 57.3466L22.432 59.7626C22.6179 59.9872 22.6361 60.3067 22.4765 60.5508C21.6016 61.8859 20.9744 63.3676 20.6253 64.925C20.5616 65.2067 20.3241 65.4157 20.0368 65.4434L16.8862 65.7472V69.581L20.0364 69.8852C20.3257 69.9125 20.5646 70.1227 20.6289 70.4058C20.9659 71.9639 21.5919 73.4449 22.4746 74.7722C22.6374 75.0169 22.6205 75.3393 22.433 75.5656L20.4294 77.9819L23.1356 80.683L25.5527 78.6794C25.7763 78.4948 26.0935 78.4763 26.3372 78.6336C27.6733 79.5085 29.1573 80.1341 30.7167 80.4796C31.0014 80.5426 31.2129 80.7822 31.2406 81.0724L31.5444 84.221H35.3856L35.6895 81.0724C35.7171 80.7815 35.9274 80.5404 36.2121 80.4744C37.7721 80.1403 39.2554 79.5166 40.5853 78.6355C40.8297 78.4737 41.1515 78.4912 41.3774 78.6784L43.7944 80.6827L46.5007 77.9819L44.4977 75.5659C44.3121 75.3413 44.2939 75.0218 44.4532 74.7777C45.3284 73.4426 45.9554 71.9606 46.3044 70.4032C46.3684 70.1218 46.6054 69.9128 46.8927 69.8852L50 69.5816V65.7472L46.8501 65.443C46.5608 65.4157 46.322 65.2055 46.2576 64.9224C45.9206 63.3643 45.2946 61.8833 44.4119 60.556C44.2491 60.3112 44.266 59.9888 44.4535 59.7626L46.4576 57.3459L45.6652 56.5535ZM59.6646 45.3873H43.2764V32.3878H59.6646V45.3873ZM59.6646 31.3878H43.2764V19.666H57.6646C58.7692 19.666 59.6646 20.5615 59.6646 21.666V31.3878ZM33.4551 78.2824C39.3179 78.2824 44.0879 73.5192 44.0879 67.6643C44.0879 61.8094 39.3182 57.0461 33.4551 57.0461C27.5918 57.0461 22.822 61.8094 22.822 67.6643C22.822 73.5192 27.5921 78.2824 33.4551 78.2824ZM33.4551 58.3773C38.584 58.3773 42.7567 62.5435 42.7567 67.6643C42.7567 72.785 38.584 76.9512 33.4551 76.9512C28.326 76.9512 24.1533 72.785 24.1533 67.6643C24.1533 62.5435 28.3263 58.3773 33.4551 58.3773ZM38.1831 69.8854H33.4406C33.073 69.8854 32.775 69.5874 32.775 69.2198V64.0613C32.775 63.6938 33.073 63.3957 33.4406 63.3957C33.8082 63.3957 34.1062 63.6938 34.1062 64.0613V68.5542H38.1831C38.5507 68.5542 38.8487 68.8522 38.8487 69.2198C38.8487 69.5874 38.5507 69.8854 38.1831 69.8854Z" fill="#131414"/>
<path fill-rule="evenodd" clip-rule="evenodd" d="M50.6315 1.4H16.255V3.222C16.255 5.26545 14.5985 6.922 12.555 6.922H10.7775C8.73405 6.922 7.0775 5.26545 7.0775 3.222V1.4H3C2.11634 1.4 1.4 2.11634 1.4 3V60.7755C1.4 61.6591 2.11635 62.3755 3 62.3755H20.0311C20.3282 61.6371 20.6857 60.9233 21.1005 60.2414L19.0172 57.7288C18.9725 57.6747 18.9376 57.6156 18.9125 57.5535H9.22211C7.56526 57.5535 6.22211 56.2104 6.22211 54.5535V21.666C6.22211 20.0092 7.56526 18.666 9.22211 18.666H57.6646C59.3215 18.666 60.6646 20.0092 60.6646 21.666V54.5535C60.6646 56.2104 59.3215 57.5535 57.6646 57.5535H47.975C47.95 57.6157 47.9151 57.675 47.8703 57.7291L45.7903 60.2381C46.2098 60.9198 46.5699 61.6348 46.8671 62.3755H63.8865C64.7701 62.3755 65.4865 61.6591 65.4865 60.7755V3C65.4865 2.11635 64.7701 1.4 63.8865 1.4H59.809V3.222C59.809 5.26545 58.1524 6.922 56.109 6.922H54.3315C52.288 6.922 50.6315 5.26545 50.6315 3.222V1.4ZM47.3451 63.7755H63.8865C65.5434 63.7755 66.8865 62.4323 66.8865 60.7755V3C66.8865 1.34315 65.5434 0 63.8865 0H3C1.34315 0 0 1.34314 0 3V60.7755C0 62.4323 1.34315 63.7755 3 63.7755H19.5489C19.5117 63.9044 19.4763 64.0338 19.4426 64.1638L16.163 64.4804C15.8205 64.5129 15.5579 64.7992 15.555 65.1431V70.1851C15.5579 70.529 15.8205 70.8153 16.163 70.8478L19.4371 71.164C19.7875 72.5492 20.3468 73.8733 21.0963 75.0901L19.0162 77.5991C18.7969 77.864 18.8154 78.2523 19.0588 78.4951L22.6234 82.0523C22.8662 82.295 23.2543 82.3132 23.5185 82.0939L26.033 80.0093C27.2538 80.7513 28.5775 81.3093 29.961 81.6649L30.2772 84.9393C30.3094 85.2828 30.5948 85.547 30.9399 85.5525H35.9895C36.3343 85.547 36.62 85.2828 36.6518 84.9393L36.9681 81.6707C38.3555 81.322 39.6815 80.7636 40.9006 80.0152L43.4106 82.0952C43.6751 82.3142 44.0629 82.296 44.3056 82.0536L47.8699 78.4961C48.1137 78.253 48.1319 77.8646 47.9122 77.5997L45.8289 75.0871C46.5709 73.8677 47.1296 72.546 47.4871 71.164L50.7238 70.8481C51.0663 70.8153 51.3286 70.529 51.3312 70.1851V65.1431C51.3286 64.7992 51.066 64.5129 50.7235 64.4807L47.4494 64.1645C47.4165 64.0342 47.3817 63.9046 47.3451 63.7755ZM58.409 1.4V3.222C58.409 4.49225 57.3792 5.522 56.109 5.522H54.3315C53.0612 5.522 52.0315 4.49225 52.0315 3.222V1.4H58.409ZM8.4775 1.4V3.222C8.4775 4.49225 9.50725 5.522 10.7775 5.522H12.555C13.8253 5.522 14.855 4.49225 14.855 3.222V1.4H8.4775ZM9.22211 19.666H22.8326V31.3878H7.22211V21.666C7.22211 20.5615 8.11754 19.666 9.22211 19.666ZM23.8326 19.666V31.3878H42.2764V19.666H23.8326ZM7.22211 32.3878H22.8326V45.3873H7.22211V32.3878ZM23.8326 32.3878V45.3873H42.2764V32.3878H23.8326ZM7.22211 46.3873H22.8326V53.1334C22.7566 53.1658 22.6855 53.213 22.6238 53.2746L19.3392 56.5535H9.22211C8.11754 56.5535 7.22211 55.6581 7.22211 54.5535V46.3873ZM26.0291 55.313L23.8326 53.493V46.3873H42.2764V54.1756L40.8967 55.3195C39.676 54.5772 38.3523 54.0192 36.9687 53.6636L36.6525 50.3892C36.6206 50.0457 36.335 49.7812 35.9898 49.776H30.9403C30.5951 49.7815 30.3097 50.0457 30.2776 50.3892L29.9613 53.6578C28.5742 54.0062 27.2482 54.5646 26.0291 55.313ZM43.4112 53.2346L43.2764 53.3465V46.3873H59.6646V54.5535C59.6646 55.6581 58.7692 56.5535 57.6646 56.5535H47.551L44.3092 53.2788C44.0664 53.0335 43.6768 53.0143 43.4112 53.2346ZM45.6652 56.5535H45.6782L43.7921 54.6478L41.3777 56.6488C41.1541 56.8334 40.8369 56.8519 40.5931 56.6946C39.2571 55.8197 37.7731 55.1941 36.2137 54.8486C35.929 54.7856 35.7175 54.546 35.6895 54.2558L35.3856 51.1072H31.5444L31.2406 54.2558C31.2133 54.547 31.0027 54.7882 30.7176 54.8541C29.1579 55.1882 27.6746 55.8119 26.3447 56.693C26.1 56.8545 25.7782 56.8373 25.5527 56.6501L23.1353 54.6458L20.429 57.3466L22.432 59.7626C22.6179 59.9872 22.6361 60.3067 22.4765 60.5508C21.6016 61.8859 20.9744 63.3676 20.6253 64.925C20.5616 65.2067 20.3241 65.4157 20.0368 65.4434L16.8862 65.7472V69.581L20.0364 69.8852C20.3257 69.9125 20.5646 70.1227 20.6289 70.4058C20.9659 71.9639 21.5919 73.4449 22.4746 74.7722C22.6374 75.0169 22.6205 75.3393 22.433 75.5656L20.4294 77.9819L23.1356 80.683L25.5527 78.6794C25.7763 78.4948 26.0935 78.4763 26.3372 78.6336C27.6733 79.5085 29.1573 80.1341 30.7167 80.4796C31.0014 80.5426 31.2129 80.7822 31.2406 81.0724L31.5444 84.221H35.3856L35.6895 81.0724C35.7171 80.7815 35.9274 80.5404 36.2121 80.4744C37.7721 80.1403 39.2554 79.5166 40.5853 78.6355C40.8297 78.4737 41.1515 78.4912 41.3774 78.6784L43.7944 80.6827L46.5007 77.9819L44.4977 75.5659C44.3121 75.3413 44.2939 75.0218 44.4532 74.7777C45.3284 73.4426 45.9554 71.9606 46.3044 70.4032C46.3684 70.1218 46.6054 69.9128 46.8927 69.8852L50 69.5816V65.7472L46.8501 65.443C46.5608 65.4157 46.322 65.2055 46.2576 64.9224C45.9206 63.3643 45.2946 61.8833 44.4119 60.556C44.2491 60.3112 44.266 59.9888 44.4535 59.7626L46.4576 57.3459L45.6652 56.5535ZM59.6646 45.3873H43.2764V32.3878H59.6646V45.3873ZM59.6646 31.3878H43.2764V19.666H57.6646C58.7692 19.666 59.6646 20.5615 59.6646 21.666V31.3878ZM33.4551 78.2824C39.3179 78.2824 44.0879 73.5192 44.0879 67.6643C44.0879 61.8094 39.3182 57.0461 33.4551 57.0461C27.5918 57.0461 22.822 61.8094 22.822 67.6643C22.822 73.5192 27.5921 78.2824 33.4551 78.2824ZM33.4551 58.3773C38.584 58.3773 42.7567 62.5435 42.7567 67.6643C42.7567 72.785 38.584 76.9512 33.4551 76.9512C28.326 76.9512 24.1533 72.785 24.1533 67.6643C24.1533 62.5435 28.3263 58.3773 33.4551 58.3773ZM38.1831 69.8854H33.4406C33.073 69.8854 32.775 69.5874 32.775 69.2198V64.0613C32.775 63.6938 33.073 63.3957 33.4406 63.3957C33.8082 63.3957 34.1062 63.6938 34.1062 64.0613V68.5542H38.1831C38.5507 68.5542 38.8487 68.8522 38.8487 69.2198C38.8487 69.5874 38.5507 69.8854 38.1831 69.8854Z" fill="#2A2447"/>
</svg>
