<svg width="72" height="85" viewBox="0 0 72 85" fill="none" xmlns="http://www.w3.org/2000/svg">
<path fill-rule="evenodd" clip-rule="evenodd" d="M36.0228 57.5979C41.96 57.5979 46.7731 52.7848 46.7731 46.8476C46.7731 40.9104 41.96 36.0973 36.0228 36.0973C30.0855 36.0973 25.2724 40.9104 25.2724 46.8476C25.2724 52.7848 30.0855 57.5979 36.0228 57.5979ZM48.1731 46.8476C48.1731 52.1794 44.7388 56.7091 39.9616 58.3453H40.5885C46.057 58.3453 50.6712 62.0032 52.1177 67.0057V64.1365C52.1177 59.9915 55.27 56.5828 59.308 56.1769C56.4126 55.0597 54.3586 52.2501 54.3586 48.9608C54.3586 44.6905 57.8204 41.2288 62.0907 41.2288C66.361 41.2288 69.8227 44.6905 69.8227 48.9608C69.8227 52.2552 67.7623 55.0684 64.8599 56.1821C68.8738 56.6111 72 60.0087 72 64.1365V72.8097C72 73.362 71.5523 73.8097 71 73.8097H53.1177C52.9234 73.8097 52.742 73.7543 52.5885 73.6584V83.8551C52.5885 84.4073 52.1408 84.8551 51.5885 84.8551H20.4512C19.899 84.8551 19.4512 84.4073 19.4512 83.8551V73.6322C19.2897 73.7441 19.0937 73.8097 18.8824 73.8097H0.999998C0.447714 73.8097 0 73.362 0 72.8097V64.1365C0 59.9991 3.14083 56.5952 7.16827 56.1792C4.26986 55.0635 2.21313 52.2523 2.21313 48.9608C2.21313 44.6905 5.67488 41.2288 9.94516 41.2288C14.2154 41.2288 17.6772 44.6905 17.6772 48.9608C17.6772 52.253 15.6197 55.0646 12.7204 56.1799C16.7448 56.5988 19.8824 60.0012 19.8824 64.1365V67.1462C21.2824 62.0718 25.9316 58.3453 31.4512 58.3453H32.0839C27.3067 56.7091 23.8724 52.1794 23.8724 46.8476C23.8724 40.1372 29.3123 34.6973 36.0228 34.6973C42.7332 34.6973 48.1731 40.1372 48.1731 46.8476ZM16.2772 48.9608C16.2772 52.4579 13.4422 55.2928 9.94516 55.2928C6.44808 55.2928 3.61313 52.4579 3.61313 48.9608C3.61313 45.4637 6.44808 42.6288 9.94516 42.6288C13.4422 42.6288 16.2772 45.4637 16.2772 48.9608ZM64 57.5365H60.1177C56.4726 57.5365 53.5177 60.4914 53.5177 64.1365V72.4097H70.6V64.1365C70.6 60.4914 67.6451 57.5365 64 57.5365ZM8 57.5365H11.8824C15.5274 57.5365 18.4824 60.4914 18.4824 64.1365V72.4097H1.4V64.1365C1.4 60.4914 4.35492 57.5365 8 57.5365ZM31.4512 59.7453H40.5885C46.4427 59.7453 51.1885 64.491 51.1885 70.3453V83.4551H20.8512V70.3453C20.8512 64.491 25.597 59.7453 31.4512 59.7453ZM68.4227 48.9608C68.4227 52.4579 65.5878 55.2928 62.0907 55.2928C58.5936 55.2928 55.7586 52.4579 55.7586 48.9608C55.7586 45.4637 58.5936 42.6288 62.0907 42.6288C65.5878 42.6288 68.4227 45.4637 68.4227 48.9608Z" fill="#2A2447"/>
<path d="M17.1275 38.4506C16.0137 36.6486 15.1828 34.6886 14.6639 32.6377L9.79994 32.1703C9.28874 32.1232 8.89554 31.7009 8.88732 31.1912V23.7272C8.89554 23.217 9.28874 22.7952 9.79994 22.7476L14.6726 22.2802C15.2017 20.2351 16.0321 18.2784 17.1363 16.4741L14.0342 12.7572C13.7077 12.3666 13.7348 11.793 14.0961 11.4341L19.3895 6.16507C19.7508 5.80525 20.3288 5.77787 20.7229 6.10214L24.4566 9.17672C26.2673 8.06891 28.2377 7.24214 30.299 6.72426L30.7695 1.88468C30.8179 1.37833 31.244 0.990163 31.7557 0.98584L39.2588 0.98584C39.7705 0.990163 40.1966 1.37833 40.245 1.88468L40.716 6.73243C42.772 7.26087 44.7385 8.08669 46.5531 9.18297L50.2921 6.10358C50.6862 5.77931 51.2642 5.80621 51.6255 6.16603L56.9203 11.4346C57.2816 11.794 57.3082 12.3671 56.9822 12.7577L53.887 16.4683C55.0008 18.2703 55.8317 20.2303 56.3501 22.2807L61.2141 22.7481C61.7253 22.7957 62.1185 23.2175 62.1267 23.7277V31.1917C62.119 31.7019 61.7253 32.1242 61.2141 32.1712L56.3414 32.6387C55.8123 34.6838 54.9819 36.6404 53.8773 38.4448" stroke="#2A2447"/>
<path d="M46.8917 33.5927C48.3354 31.4041 49.1654 28.8579 49.2926 26.2269C49.4198 23.5959 48.8395 20.9794 47.6138 18.6577C46.3882 16.3361 44.5634 14.3968 42.3351 13.0478C40.1067 11.6988 37.5589 10.991 34.9645 11.0001C32.3702 11.0092 29.8272 11.735 27.6081 13.0996C25.3891 14.4642 23.5775 16.4162 22.3677 18.7465C21.158 21.0767 20.5955 23.6972 20.7407 26.3273C20.8858 28.9573 21.7331 31.4976 23.1918 33.676" stroke="#2A2447"/>
</svg>
