<svg width="69" height="82" viewBox="0 0 69 82" fill="none" xmlns="http://www.w3.org/2000/svg">
<path fill-rule="evenodd" clip-rule="evenodd" d="M20.2957 53.0894L19.7086 53.1468C19.5279 53.1641 19.3789 53.2956 19.3387 53.4726C19.1191 54.452 18.7248 55.3841 18.1744 56.2237C18.0743 56.3772 18.0857 56.5782 18.2024 56.7194L19.4621 58.2389L17.7601 59.9374L16.24 58.6769C16.0979 58.5592 15.8956 58.5481 15.7419 58.6499C14.9055 59.204 13.9726 59.5963 12.9915 59.8064C12.8124 59.8479 12.6802 59.9995 12.6628 60.1825L12.4717 62.1627H10.0559L9.86483 60.1825C9.84746 60 9.7144 59.8493 9.53534 59.8097C8.55465 59.5924 7.62137 59.1989 6.78109 58.6487C6.62779 58.5498 6.4283 58.5614 6.28767 58.6775L4.76757 59.9376L3.06555 58.2389L4.32566 56.7192C4.4436 56.5769 4.45423 56.3742 4.35183 56.2203C3.79668 55.3855 3.40301 54.4541 3.19105 53.4742C3.15058 53.2962 3.00035 53.1639 2.81844 53.1468L0.837212 52.9555V50.5444L2.81864 50.3533C2.99933 50.3359 3.14874 50.2045 3.1888 50.0273C3.40833 49.0478 3.80281 48.116 4.35305 47.2763C4.45341 47.1228 4.44196 46.9219 4.32505 46.7807L3.06535 45.2612L4.76737 43.5627L6.28767 44.8232C6.42953 44.9409 6.63188 44.9517 6.78579 44.8502C7.62218 44.296 8.55505 43.9038 9.53596 43.6937C9.71521 43.6522 9.84766 43.5005 9.86483 43.3174L10.0559 41.3372H11.6684L11.2498 40.5H9.67597C9.4589 40.5035 9.27944 40.6696 9.2592 40.8857L9.06032 42.9413C8.18796 43.1604 7.35401 43.5116 6.58732 43.9823L5.00855 42.6742C4.84238 42.5364 4.59853 42.5476 4.44564 42.7003L2.20402 44.938C2.05092 45.0907 2.03948 45.335 2.17745 45.5016L3.48763 47.0817C3.0212 47.8486 2.66984 48.6797 2.445 49.5486L0.382428 49.7477C0.166993 49.7681 0.00183957 49.9482 0 50.1644V53.3354C0.00183957 53.5517 0.166993 53.7318 0.382428 53.7522L2.44153 53.9511C2.66187 54.8222 3.01364 55.6549 3.48498 56.4202L2.17683 57.9981C2.03886 58.1647 2.05051 58.4089 2.20361 58.5616L4.44544 60.7987C4.59812 60.9514 4.84218 60.9629 5.00835 60.8249L6.58977 59.5139C7.35749 59.9805 8.19 60.3315 9.06012 60.5551L9.259 62.6144C9.27923 62.8304 9.4587 62.9966 9.67577 63.0001H12.8515C13.0684 62.9966 13.248 62.8304 13.2681 62.6144L13.4669 60.5588C14.3395 60.3395 15.1734 59.9883 15.9401 59.5176L17.5187 60.8257C17.6851 60.9635 17.9289 60.952 18.0816 60.7995L20.3232 58.5622C20.4765 58.4093 20.488 58.1651 20.3498 57.9985L19.0396 56.4183C19.5063 55.6514 19.8576 54.8202 20.0825 53.9511L20.6469 53.896C20.5383 53.6403 20.4198 53.3673 20.2957 53.0894ZM12.6264 42.94L13.1511 43.727C13.0984 43.7142 13.0455 43.7019 12.9925 43.6902C12.8135 43.6506 12.6804 43.4999 12.6628 43.3174L12.6264 42.94Z" fill="#2A2447"/>
<path d="M14.3497 34.8528C14.819 34.8528 15.1993 34.4725 15.1993 34.0031C15.1993 29.7398 16.8713 25.7432 19.9075 22.7495C22.943 19.7562 26.977 18.1395 31.2305 18.2007C31.7073 18.2106 32.0855 17.8323 32.092 17.3633C32.0984 16.894 31.7236 16.5083 31.2542 16.5018C26.5318 16.4349 22.076 18.2248 18.7143 21.5397C15.3519 24.8552 13.5001 29.2817 13.5001 34.0035C13.5001 34.4725 13.8807 34.8528 14.3497 34.8528Z" fill="#2A2447"/>
<path d="M45.8505 18.2828C41.7877 14.2313 36.3655 12.0002 30.5829 12.0002C25.0314 12.0002 19.718 14.1863 15.6225 18.1561C11.5254 22.1272 9.17679 27.369 9.01 32.9163C8.81046 39.548 11.6041 45.8045 16.6749 50.081C19.1224 52.145 20.5258 55.1415 20.5258 58.3018V58.6463C20.5258 60.9274 22.3813 62.7829 24.6624 62.7829H36.5038C38.7849 62.7829 40.6404 60.9274 40.6404 58.6463V58.3038C40.6404 55.1557 42.0634 52.1423 44.5443 50.0363C49.388 45.9246 52.1661 39.9273 52.1661 33.5818C52.1661 27.7771 49.9231 22.3439 45.8505 18.2828ZM32.3362 61.1282H28.8294V49.4208C28.8294 49.2368 28.9793 49.0872 29.1633 49.0872H32.0023C32.1863 49.0872 32.3362 49.2368 32.3362 49.4208V61.1282ZM43.4738 48.7748C40.6215 51.1959 38.9858 54.6689 38.9858 58.3038V58.6463C38.9858 60.015 37.8725 61.1282 36.5038 61.1282H33.9911V50.128L40.2764 32.0089C40.4263 31.5771 40.1976 31.1058 39.7661 30.9562C39.3336 30.8063 38.863 31.035 38.7134 31.4665L33.0669 47.744C32.7588 47.5478 32.3944 47.4326 32.0026 47.4326H29.1636C28.7721 47.4326 28.4075 47.5481 28.0994 47.744L22.4528 31.4665C22.3029 31.035 21.8317 30.8057 21.4001 30.9562C20.9683 31.1058 20.7399 31.5771 20.8898 32.0089L27.1751 50.128V61.1282H24.6624C23.2937 61.1282 22.1805 60.015 22.1805 58.6463V58.3018C22.1805 54.6527 20.5626 51.1952 17.7414 48.8159C13.0592 44.867 10.4793 39.0897 10.6636 32.9659C10.9843 22.3178 19.9199 13.6549 30.5829 13.6549C41.5716 13.6549 50.5115 22.5938 50.5115 33.5815C50.5115 39.4401 47.9462 44.9778 43.4738 48.7748Z" fill="#2A2447"/>
<path d="M38.2762 63.4407C37.8192 63.4407 37.4489 63.811 37.4489 64.268V65.7092H23.7149V64.268C23.7149 63.811 23.3446 63.4407 22.8876 63.4407C22.4306 63.4407 22.0603 63.811 22.0603 64.268V71.7052C22.0603 73.1735 22.6295 74.5564 23.663 75.5995L25.0505 76.9996C25.4218 77.3742 25.8878 77.6423 26.3908 77.7849V78.7022C26.3908 80.3052 27.6946 81.6091 29.2976 81.6091H32.2806C33.8836 81.6091 35.1874 80.3052 35.1874 78.7022V77.634C35.5299 77.4811 35.8463 77.2683 36.1127 76.9996L37.5002 75.5995C38.5337 74.5564 39.1029 73.1735 39.1029 71.7052V64.268C39.1035 63.811 38.7332 63.4407 38.2762 63.4407ZM37.4489 67.3638V69.4145H23.7149V67.3638H37.4489ZM32.2809 79.9544H29.2979C28.6076 79.9544 28.0457 79.3925 28.0457 78.7022V77.9031H33.5334V78.7022C33.5331 79.3929 32.9715 79.9544 32.2809 79.9544ZM36.3254 74.4346L34.9379 75.8348C34.6774 76.0975 34.3157 76.2484 33.9454 76.2484H27.2184C26.8481 76.2484 26.4867 76.0975 26.226 75.8348L24.8384 74.4346C24.114 73.7036 23.7149 72.7343 23.7149 71.7052V71.0695H37.4489V71.7052C37.4489 72.734 37.0498 73.7036 36.3254 74.4346Z" fill="#2A2447"/>
<path fill-rule="evenodd" clip-rule="evenodd" d="M51.1112 34.5002H54.2054C54.5379 34.4949 54.8134 34.2401 54.8441 33.9088L55.149 30.7568C56.487 30.4206 57.7657 29.8821 58.9413 29.1603L61.3617 31.1662C61.6168 31.3774 61.9907 31.3598 62.2248 31.126L65.662 27.6955C65.897 27.4611 65.9146 27.0865 65.7027 26.8311L63.6938 24.4082C64.4093 23.2323 64.948 21.9576 65.2928 20.625L68.414 20.3204C68.7443 20.2887 68.9972 20.0126 68.9997 19.681V14.8188C68.9972 14.4872 68.744 14.2111 68.4137 14.1801L65.2564 13.8752C64.9186 12.5391 64.3789 11.2626 63.6565 10.0889L65.6623 7.66939C65.8729 7.4149 65.8563 7.04257 65.624 6.80815L62.2283 3.3779C61.9942 3.14128 61.6184 3.12279 61.3623 3.33528L58.9375 5.34579C57.7603 4.62996 56.4838 4.09184 55.1497 3.74898L54.8447 0.591399C54.814 0.260128 54.5385 0.00501452 54.2057 0H49.3363C49.0034 0.00532792 48.7283 0.260128 48.6972 0.591399L48.3923 3.74334C47.0547 4.07931 45.776 4.61774 44.6004 5.33952L42.1796 3.33371C41.9248 3.12248 41.5509 3.13971 41.3165 3.37383L37.8794 6.80501C37.6446 7.03913 37.6271 7.41365 37.8386 7.66907L39.8475 10.092C39.1324 11.2679 38.5936 12.5422 38.2489 13.8745L37.6719 13.9302C38.2318 14.1533 38.7072 14.44 39.1934 14.7332C39.2322 14.7566 39.2711 14.78 39.3101 14.8035C39.3464 14.7444 39.3735 14.6788 39.3893 14.6085C39.7259 13.1067 40.3308 11.6779 41.1745 10.3904C41.3284 10.155 41.3108 9.84694 41.1316 9.63038L39.2 7.30051L41.8098 4.69609L44.1409 6.62888C44.3584 6.8094 44.6687 6.82601 44.9047 6.67025C46.1872 5.8206 47.6175 5.21917 49.1216 4.89699C49.3964 4.83337 49.5995 4.60082 49.6259 4.32L49.9189 1.28372H53.623L53.9161 4.32C53.943 4.59988 54.1471 4.83086 54.4216 4.89166C55.9253 5.22481 57.3564 5.82812 58.6448 6.67181C58.8798 6.8235 59.1857 6.80564 59.4013 6.62762L61.7296 4.69797L64.3021 7.29737L62.3674 9.63038C62.1866 9.84851 62.1703 10.1594 62.3273 10.3954C63.1785 11.6754 63.7821 13.1036 64.1071 14.606C64.1692 14.879 64.3996 15.0818 64.6785 15.1081L67.716 15.4015V19.099L64.7195 19.3918C64.4425 19.4184 64.214 19.6199 64.1523 19.8913C63.8157 21.3932 63.2111 22.8223 62.3671 24.1098C62.2135 24.3452 62.2311 24.6532 62.41 24.8698L64.3416 27.1997L61.7318 29.8041L59.401 27.8713C59.1832 27.6908 58.8729 27.6739 58.6373 27.8299C57.3548 28.6796 55.9244 29.281 54.42 29.6032C54.1455 29.6668 53.9427 29.8994 53.9161 30.1799L53.623 33.2162H51.041C51.0785 33.6788 51.1004 34.1114 51.1112 34.5002Z" fill="#2A2447"/>
<path fill-rule="evenodd" clip-rule="evenodd" d="M62.0094 17.2503C62.0094 22.8963 57.4095 27.4896 51.7559 27.4896C51.0269 27.4896 50.3155 27.4133 49.6291 27.2681C49.5872 27.178 49.5441 27.0887 49.4999 27.0002C49.2921 26.5846 49.0715 26.1563 48.8405 25.7204C49.7549 26.035 50.7358 26.2059 51.7559 26.2059C56.7018 26.2059 60.7256 22.1883 60.7256 17.2503C60.7256 12.3123 56.7018 8.2947 51.7559 8.2947C46.9564 8.2947 43.0249 12.078 42.7964 16.8145C42.3694 16.4063 41.9639 16.092 41.5913 15.8974C42.2562 10.8885 46.561 7.01099 51.7559 7.01099C57.4098 7.01099 62.0094 11.6043 62.0094 17.2503Z" fill="#2A2447"/>
<path fill-rule="evenodd" clip-rule="evenodd" d="M17.3402 48.8406C17.7631 49.7221 18 50.709 18 51.7503C18 55.4723 14.9719 58.5003 11.2501 58.5003C7.52814 58.5003 4.5 55.4723 4.5 51.7503C4.5 48.0283 7.52793 45.0002 11.2501 45.0002C12.4645 45.0002 13.605 45.3226 14.5906 45.8862L15 46.5004L17.3402 48.8406ZM17.155 51.7503C17.155 48.495 14.506 45.8465 11.2501 45.8465C7.99421 45.8465 5.34508 48.495 5.34508 51.7503C5.34508 55.0055 7.994 57.654 11.2501 57.654C14.506 57.654 17.155 55.0055 17.155 51.7503Z" fill="#2A2447"/>
</svg>
