<svg width="70" height="70" viewBox="0 0 70 70" fill="none" xmlns="http://www.w3.org/2000/svg">
<path fill-rule="evenodd" clip-rule="evenodd" d="M69 35C69 53.7777 53.7777 69 35 69C16.2223 69 1 53.7777 1 35C1 16.2223 16.2223 1 35 1C53.7777 1 69 16.2223 69 35ZM70 35C70 54.33 54.33 70 35 70C15.67 70 0 54.33 0 35C0 15.67 15.67 0 35 0C54.33 0 70 15.67 70 35ZM47.215 24.8873L46.5652 25.6997H47.6055H50.4655V34.9997V35.4997H50.9655H55.4455H55.9455V34.9997V25.6997H58.8055H59.8458L59.1959 24.8873L53.5959 17.8873L53.2055 17.3993L52.815 17.8873L47.215 24.8873ZM50.9655 24.6997H48.6458L53.2055 19L57.7652 24.6997H55.4455H54.9455V25.1997V34.4997H51.4655V25.1997V24.6997H50.9655ZM42.4027 32.2C42.4027 35.4446 40.3146 38.2014 37.4089 39.2H32.5965C29.6909 38.2014 27.6027 35.4446 27.6027 32.2C27.6027 28.1131 30.9158 24.8 35.0027 24.8C39.0896 24.8 42.4027 28.1131 42.4027 32.2ZM26.6027 32.2C26.6027 35.13 28.1029 37.7097 30.377 39.2127C26.7093 39.4328 23.8027 42.4769 23.8027 46.2V56.4C23.8027 56.9523 24.2504 57.4 24.8027 57.4H45.2027C45.755 57.4 46.2027 56.9523 46.2027 56.4V46.2C46.2027 42.4769 43.2962 39.4328 39.6284 39.2127C41.9026 37.7097 43.4027 35.13 43.4027 32.2C43.4027 27.5608 39.6419 23.8 35.0027 23.8C30.3635 23.8 26.6027 27.5608 26.6027 32.2ZM30.8027 40.2H32.4341C33.2437 40.4597 34.1068 40.6 35.0027 40.6C35.8986 40.6 36.7618 40.4597 37.5714 40.2H39.2027C42.5164 40.2 45.2027 42.8863 45.2027 46.2V56.4H24.8027L24.8027 46.2C24.8027 42.8863 27.489 40.2 30.8027 40.2ZM10.1652 25.6998L10.815 24.8875L16.415 17.8875L16.8055 17.3994L17.1959 17.8875L22.7959 24.8875L23.4458 25.6998H22.4055H19.5455V34.9998V35.4998H19.0455H14.5655H14.0655V34.9998V25.6998H11.2055H10.1652ZM12.2458 24.6998H14.5655H15.0655V25.1998V34.4998H18.5455V25.1998V24.6998H19.0455H21.3652L16.8055 19.0002L12.2458 24.6998Z" fill="#22B0E7"/>
</svg>
