<svg width="70" height="70" viewBox="0 0 70 70" fill="none" xmlns="http://www.w3.org/2000/svg">
<path fill-rule="evenodd" clip-rule="evenodd" d="M69 35C69 53.7777 53.7777 69 35 69C16.2223 69 1 53.7777 1 35C1 16.2223 16.2223 1 35 1C53.7777 1 69 16.2223 69 35ZM70 35C70 54.33 54.33 70 35 70C15.67 70 0 54.33 0 35C0 15.67 15.67 0 35 0C54.33 0 70 15.67 70 35ZM38.1062 33.6C41.0119 32.6014 43.1 29.8446 43.1 26.6C43.1 22.5131 39.7869 19.2 35.7 19.2C31.6131 19.2 28.3 22.5131 28.3 26.6C28.3 29.8446 30.3881 32.6014 33.2938 33.6H38.1062ZM31.0743 33.6127C28.8002 32.1096 27.3 29.53 27.3 26.6C27.3 21.9608 31.0608 18.2 35.7 18.2C40.3392 18.2 44.1 21.9608 44.1 26.6C44.1 29.53 42.5998 32.1096 40.3257 33.6127C42.4407 33.7396 44.3026 34.8056 45.5 36.3993V36.15C45.5 33.8611 47.038 31.9314 49.1369 31.3381C47.8037 30.2754 46.9492 28.6375 46.9492 26.8C46.9492 23.5967 49.546 21 52.7492 21C55.9525 21 58.5492 23.5967 58.5492 26.8C58.5492 28.6373 57.6949 30.275 56.3619 31.3377C58.4614 31.9307 60 33.8607 60 36.15V43.2C60 43.7523 59.5523 44.2 59 44.2H46.9V50.8C46.9 51.3523 46.4523 51.8 45.9 51.8H25.5C24.9477 51.8 24.5 51.3523 24.5 50.8V44.2H12.2C11.6477 44.2 11.2 43.7523 11.2 43.2V36.15C11.2 33.8596 12.74 31.929 14.841 31.3369C13.5085 30.2742 12.6547 28.6368 12.6547 26.8C12.6547 23.5967 15.2514 21 18.4547 21C21.6579 21 24.2547 23.5967 24.2547 26.8C24.2547 28.6379 23.3998 30.2762 22.066 31.3389C24.1634 31.9332 25.7 33.8622 25.7 36.15V36.6796C26.884 34.9314 28.8376 33.7469 31.0743 33.6127ZM47.9492 26.8C47.9492 28.7247 49.0821 30.3848 50.7174 31.15H54.7811C56.4164 30.3848 57.5492 28.7247 57.5492 26.8C57.5492 24.149 55.4002 22 52.7492 22C50.0983 22 47.9492 24.149 47.9492 26.8ZM50.5 32.15H50.5053C51.1956 32.4398 51.9537 32.6 52.7492 32.6C53.5447 32.6 54.3029 32.4398 54.9931 32.15H55C57.2091 32.15 59 33.9409 59 36.15V43.2H46.9V40.6C46.9 39.7801 46.759 38.9931 46.5 38.2619V36.15C46.5 33.9409 48.2909 32.15 50.5 32.15ZM33.1313 34.6H31.5C28.7194 34.6 26.3806 36.4915 25.7 39.058V43.2C25.7 43.4252 25.6256 43.6329 25.5 43.8001L25.5 50.8L45.9 50.8V44.0001C45.6571 43.8176 45.5 43.5272 45.5 43.2V38.4414C44.6332 36.1942 42.4528 34.6 39.9 34.6H38.2687C37.459 34.8597 36.5959 35 35.7 35C34.8041 35 33.941 34.8597 33.1313 34.6ZM23.2547 26.8C23.2547 28.7247 22.1218 30.3848 20.4865 31.15H16.4228C14.7875 30.3848 13.6547 28.7247 13.6547 26.8C13.6547 24.149 15.8037 22 18.4547 22C21.1057 22 23.2547 24.149 23.2547 26.8ZM16.2 32.15H16.2108C16.901 32.4398 17.6592 32.6 18.4547 32.6C19.2502 32.6 20.0083 32.4398 20.6986 32.15H20.7C22.9091 32.15 24.7 33.9409 24.7 36.15V38.9318C24.5693 39.4664 24.5 40.0251 24.5 40.6V43.2H12.2V36.15C12.2 33.9409 13.9909 32.15 16.2 32.15Z" fill="#22B0E7"/>
</svg>
