<svg width="70" height="70" viewBox="0 0 70 70" fill="none" xmlns="http://www.w3.org/2000/svg">
<path fill-rule="evenodd" clip-rule="evenodd" d="M69 35C69 53.7777 53.7777 69 35 69C16.2223 69 1 53.7777 1 35C1 16.2223 16.2223 1 35 1C53.7777 1 69 16.2223 69 35ZM70 35C70 54.33 54.33 70 35 70C15.67 70 0 54.33 0 35C0 15.67 15.67 0 35 0C54.33 0 70 15.67 70 35ZM28.9 15H19.8C18.6954 15 17.8 15.8954 17.8 17V53C17.8 54.1046 18.6954 55 19.8 55H50.2C51.3046 55 52.2 54.1046 52.2 53V17C52.2 15.8954 51.3046 15 50.2 15H41.1V15.2C41.1 17.133 39.533 18.7 37.6 18.7H32.4C30.467 18.7 28.9 17.133 28.9 15.2V15ZM40.1 15V15.2C40.1 16.5807 38.9807 17.7 37.6 17.7H32.4C31.0193 17.7 29.9 16.5807 29.9 15.2V15H40.1ZM34.5 28C34.5 27.7239 34.7239 27.5 35 27.5H46.2C46.4761 27.5 46.7 27.7239 46.7 28C46.7 28.2761 46.4761 28.5 46.2 28.5H35C34.7239 28.5 34.5 28.2761 34.5 28ZM34.5 36.4C34.5 36.1239 34.7239 35.9 35 35.9H46.2C46.4761 35.9 46.7 36.1239 46.7 36.4C46.7 36.6761 46.4761 36.9 46.2 36.9H35C34.7239 36.9 34.5 36.6761 34.5 36.4ZM34.5 44.8C34.5 44.5239 34.7239 44.3 35 44.3H46.2C46.4761 44.3 46.7 44.5239 46.7 44.8C46.7 45.0761 46.4761 45.3 46.2 45.3H35C34.7239 45.3 34.5 45.0761 34.5 44.8ZM19.8 14C18.1431 14 16.8 15.3431 16.8 17V53C16.8 54.6569 18.1431 56 19.8 56H50.2C51.8569 56 53.2 54.6569 53.2 53V17C53.2 15.3431 51.8569 14 50.2 14H19.8ZM31.1293 24.8237C31.3371 25.0056 31.3581 25.3214 31.1763 25.5293L26.2763 31.1293C26.177 31.2427 26.0318 31.3053 25.8812 31.2996C25.7305 31.294 25.5905 31.2206 25.5 31.1L23.4 28.3C23.2343 28.0791 23.2791 27.7657 23.5 27.6C23.7209 27.4343 24.0343 27.4791 24.2 27.7L25.9299 30.0065L30.4237 24.8707C30.6056 24.6629 30.9214 24.6419 31.1293 24.8237ZM31.1763 33.9293C31.3581 33.7214 31.3371 33.4056 31.1293 33.2237C30.9214 33.0419 30.6056 33.0629 30.4237 33.2707L25.9299 38.4065L24.2 36.1C24.0343 35.8791 23.7209 35.8343 23.5 36C23.2791 36.1657 23.2343 36.4791 23.4 36.7L25.5 39.5C25.5905 39.6206 25.7305 39.694 25.8812 39.6996C26.0318 39.7053 26.177 39.6427 26.2763 39.5293L31.1763 33.9293ZM31.1293 41.6237C31.3371 41.8056 31.3581 42.1214 31.1763 42.3293L26.2763 47.9293C26.177 48.0427 26.0318 48.1053 25.8812 48.0996C25.7305 48.094 25.5905 48.0206 25.5 47.9L23.4 45.1C23.2343 44.8791 23.2791 44.5657 23.5 44.4C23.7209 44.2343 24.0343 44.2791 24.2 44.5L25.9299 46.8065L30.4237 41.6707C30.6056 41.4629 30.9214 41.4419 31.1293 41.6237Z" fill="#22B0E7"/>
</svg>
