<svg width="70" height="70" viewBox="0 0 70 70" fill="none" xmlns="http://www.w3.org/2000/svg">
<path fill-rule="evenodd" clip-rule="evenodd" d="M69 35C69 53.7777 53.7777 69 35 69C16.2223 69 1 53.7777 1 35C1 16.2223 16.2223 1 35 1C53.7777 1 69 16.2223 69 35ZM70 35C70 54.33 54.33 70 35 70C15.67 70 0 54.33 0 35C0 15.67 15.67 0 35 0C54.33 0 70 15.67 70 35ZM24.8285 13.3C24.8285 13.0239 25.0524 12.8 25.3285 12.8H42.6376H50.2103C50.4865 12.8 50.7103 13.0239 50.7103 13.3V57.1545H55.6194C55.8956 57.1545 56.1194 57.3784 56.1194 57.6545C56.1194 57.9307 55.8956 58.1545 55.6194 58.1545H50.2103H32.533C32.3606 58.2955 32.1404 58.38 31.9004 58.38H17.1004C16.5481 58.38 16.1004 57.9323 16.1004 57.38V48.26C16.1004 45.6628 18.0807 43.528 20.6138 43.2834C18.8985 42.0658 17.7793 40.0635 17.7793 37.7999C17.7793 34.0886 20.7879 31.0799 24.4993 31.0799C24.6097 31.0799 24.7194 31.0826 24.8285 31.0878V13.3ZM31.7 55.3C31.7 55.1391 31.7769 54.9921 31.9004 54.8997V48.26C31.9004 46.0509 30.1095 44.26 27.9004 44.26H26.3564C25.7666 44.4293 25.1435 44.5199 24.4993 44.5199C23.8551 44.5199 23.232 44.4293 22.6422 44.26H21.1004C18.8913 44.26 17.1004 46.0509 17.1004 48.26V57.38H31.7V55.3ZM32.9004 55.616V57.1545H49.7103V13.8H43.1376V30.6091V52.2454C43.1376 52.4675 42.9912 52.663 42.778 52.7253L32.9004 55.616ZM32.9004 48.26V54.5741L42.1376 51.8708V31.1091H38.3103C38.0342 31.1091 37.8103 30.8852 37.8103 30.6091C37.8103 30.3329 38.0342 30.1091 38.3103 30.1091H42.1376V13.8H25.8285V31.2113C28.9032 31.8283 31.2193 34.5436 31.2193 37.7999C31.2193 40.0634 30.1002 42.0656 28.3851 43.2832C30.9191 43.5269 32.9004 45.6621 32.9004 48.26ZM25.3285 32.1909C25.2253 32.1909 25.1294 32.1596 25.0498 32.1061C24.8686 32.0888 24.685 32.0799 24.4993 32.0799C21.3402 32.0799 18.7793 34.6408 18.7793 37.7999C18.7793 40.3634 20.4657 42.5331 22.7896 43.26H26.209C28.5329 42.5331 30.2193 40.3634 30.2193 37.7999C30.2193 34.9779 28.1758 32.6333 25.4878 32.165C25.4378 32.1818 25.3842 32.1909 25.3285 32.1909ZM13.6536 22.0464C13.4583 21.8512 13.1417 21.8512 12.9464 22.0464C12.7512 22.2417 12.7512 22.5583 12.9464 22.7536L16.0929 25.9L12.9464 29.0464C12.7512 29.2417 12.7512 29.5583 12.9464 29.7536C13.1417 29.9488 13.4583 29.9488 13.6536 29.7536L16.8 26.6071L19.9464 29.7536C20.1417 29.9488 20.4583 29.9488 20.6536 29.7536C20.8488 29.5583 20.8488 29.2417 20.6536 29.0464L17.5071 25.9L20.6536 22.7536C20.8488 22.5583 20.8488 22.2417 20.6536 22.0464C20.4583 21.8512 20.1417 21.8512 19.9464 22.0464L16.8 25.1929L13.6536 22.0464Z" fill="#22B0E7"/>
</svg>
