<svg width="70" height="70" viewBox="0 0 70 70" fill="none" xmlns="http://www.w3.org/2000/svg">
<path d="M54.0999 25.4V46C54.0999 47.3807 52.9806 48.5 51.5999 48.5H18.3999C17.0192 48.5 15.8999 47.3807 15.8999 46V35.7V25.4C15.8999 24.0193 17.0192 22.9 18.3999 22.9H34.9999H51.5999C52.9806 22.9 54.0999 24.0193 54.0999 25.4Z" stroke="#22B0E7"/>
<path d="M31.1499 19.6H38.8499C39.8164 19.6 40.5999 20.3835 40.5999 21.35C40.5999 22.3165 39.8164 23.1 38.8499 23.1H31.1499C30.1834 23.1 29.3999 22.3165 29.3999 21.35C29.3999 20.3835 30.1834 19.6 31.1499 19.6Z" stroke="#22B0E7" stroke-linejoin="round"/>
<path d="M30.0511 33.4301L33.021 36.4L30.0511 39.3698L32.031 41.3497L35.0009 38.3799L37.9707 41.3497L39.9506 39.3698L36.9808 36.4L39.9506 33.4301L37.9707 31.4502L35.0009 34.4201L32.031 31.4502L30.0511 33.4301Z" stroke="#22B0E7" stroke-linecap="round" stroke-linejoin="round"/>
<circle cx="35" cy="35" r="34.5" stroke="#22B0E7"/>
</svg>
