<svg width="70" height="70" viewBox="0 0 70 70" fill="none" xmlns="http://www.w3.org/2000/svg">
<circle cx="35" cy="35" r="34.5" stroke="#22B0E7"/>
<path fill-rule="evenodd" clip-rule="evenodd" d="M47.8787 47.1715C50.8248 44.0522 52.631 39.8448 52.631 35.2155C52.631 25.5972 44.8338 17.8 35.2155 17.8C25.5972 17.8 17.8 25.5972 17.8 35.2155C17.8 44.8338 25.5972 52.631 35.2155 52.631C39.8448 52.631 44.0523 50.8247 47.1715 47.8786L47.1385 47.8454L47.8467 47.1394L47.8787 47.1715ZM48.585 47.88C51.7126 44.5794 53.631 40.1215 53.631 35.2155C53.631 25.0449 45.3861 16.8 35.2155 16.8C25.0449 16.8 16.8 25.0449 16.8 35.2155C16.8 45.3861 25.0449 53.631 35.2155 53.631C40.1204 53.631 44.5774 51.7134 47.8778 48.587L50.1714 50.8879L49.7509 51.3084L49.3974 51.662L49.7509 52.0155L55.9388 58.2034L56.2923 58.5569L56.6459 58.2034L58.1929 56.6564L58.5464 56.3028L58.1929 55.9493L52.005 49.7614L51.6515 49.4079L51.2979 49.7614L50.8785 50.1808L48.585 47.88ZM37.6975 33.8288C39.3975 32.977 40.5644 31.2187 40.5644 29.1878C40.5644 26.3226 38.2417 24 35.3766 24C32.5114 24 30.1887 26.3226 30.1887 29.1878C30.1887 31.2187 31.3557 32.977 33.0556 33.8288H37.6975ZM31.451 33.9713C30.0697 32.8364 29.1887 31.115 29.1887 29.1878C29.1887 25.7704 31.9591 23 35.3766 23C38.794 23 41.5644 25.7704 41.5644 29.1878C41.5644 31.1151 40.6833 32.8367 39.3018 33.9715C41.4882 34.5058 43.1107 36.4778 43.1107 38.8288V46.7514C43.1107 47.3037 42.663 47.7514 42.1107 47.7514H28.6411C28.0888 47.7514 27.6411 47.3037 27.6411 46.7514V38.8288C27.6411 36.4774 29.2641 34.5052 31.451 33.9713ZM32.8295 34.8288H32.6411C30.4319 34.8288 28.6411 36.6196 28.6411 38.8288V46.7514H42.1107V38.8288C42.1107 36.6196 40.3198 34.8288 38.1107 34.8288H37.9237C37.1469 35.1801 36.2846 35.3757 35.3766 35.3757C34.4686 35.3757 33.6063 35.1801 32.8295 34.8288ZM51.2315 51.242L51.6515 50.8221L57.1322 56.3028L56.2923 57.1427L50.8116 51.662L51.2315 51.242Z" fill="#22B0E7"/>
</svg>
