<svg width="70" height="70" viewBox="0 0 70 70" fill="none" xmlns="http://www.w3.org/2000/svg">
<circle cx="35" cy="35" r="34.5" stroke="#22B0E7"/>
<path d="M46 47.6L49.6667 53L57 44" stroke="#22B0E7" stroke-linecap="round" stroke-linejoin="round"/>
<path fill-rule="evenodd" clip-rule="evenodd" d="M22.5295 27.186H28.7371V33H20.5295V29.186C20.5295 28.0815 21.425 27.186 22.5295 27.186ZM29.7371 27.186V33H39.7685V27.186H29.7371ZM20.5295 34H28.7371V40.7442H20.5295V34ZM29.7371 34V40.7442H39.7685V34H29.7371ZM20.5295 41.7442H28.7371V46.6977H22.5295C21.425 46.6977 20.5295 45.8022 20.5295 44.6977V41.7442ZM29.7371 41.7442V46.6977H39.7685V41.7442H29.7371ZM44.9927 46.6977H40.7685V41.7442H49.4173V43.5H50.4173V29.186C50.4173 27.5292 49.0741 26.186 47.4173 26.186H22.5295C20.8727 26.186 19.5295 27.5292 19.5295 29.186V44.6977C19.5295 46.3545 20.8727 47.6977 22.5295 47.6977H44.4672L44.5707 47.3714L44.9927 46.6977ZM49.4173 40.7442H40.7685V34H49.4173V40.7442ZM49.4173 33H40.7685V27.186H47.4173C48.5219 27.186 49.4173 28.0815 49.4173 29.186V33Z" fill="#131414"/>
<path fill-rule="evenodd" clip-rule="evenodd" d="M22.5295 27.186H28.7371V33H20.5295V29.186C20.5295 28.0815 21.425 27.186 22.5295 27.186ZM29.7371 27.186V33H39.7685V27.186H29.7371ZM20.5295 34H28.7371V40.7442H20.5295V34ZM29.7371 34V40.7442H39.7685V34H29.7371ZM20.5295 41.7442H28.7371V46.6977H22.5295C21.425 46.6977 20.5295 45.8022 20.5295 44.6977V41.7442ZM29.7371 41.7442V46.6977H39.7685V41.7442H29.7371ZM44.9927 46.6977H40.7685V41.7442H49.4173V43.5H50.4173V29.186C50.4173 27.5292 49.0741 26.186 47.4173 26.186H22.5295C20.8727 26.186 19.5295 27.5292 19.5295 29.186V44.6977C19.5295 46.3545 20.8727 47.6977 22.5295 47.6977H44.4672L44.5707 47.3714L44.9927 46.6977ZM49.4173 40.7442H40.7685V34H49.4173V40.7442ZM49.4173 33H40.7685V27.186H47.4173C48.5219 27.186 49.4173 28.0815 49.4173 29.186V33Z" fill="#131414"/>
<path fill-rule="evenodd" clip-rule="evenodd" d="M22.5295 27.186H28.7371V33H20.5295V29.186C20.5295 28.0815 21.425 27.186 22.5295 27.186ZM29.7371 27.186V33H39.7685V27.186H29.7371ZM20.5295 34H28.7371V40.7442H20.5295V34ZM29.7371 34V40.7442H39.7685V34H29.7371ZM20.5295 41.7442H28.7371V46.6977H22.5295C21.425 46.6977 20.5295 45.8022 20.5295 44.6977V41.7442ZM29.7371 41.7442V46.6977H39.7685V41.7442H29.7371ZM44.9927 46.6977H40.7685V41.7442H49.4173V43.5H50.4173V29.186C50.4173 27.5292 49.0741 26.186 47.4173 26.186H22.5295C20.8727 26.186 19.5295 27.5292 19.5295 29.186V44.6977C19.5295 46.3545 20.8727 47.6977 22.5295 47.6977H44.4672L44.5707 47.3714L44.9927 46.6977ZM49.4173 40.7442H40.7685V34H49.4173V40.7442ZM49.4173 33H40.7685V27.186H47.4173C48.5219 27.186 49.4173 28.0815 49.4173 29.186V33Z" fill="#22B0E7"/>
<circle cx="50" cy="50" r="6.5" stroke="#22B0E7"/>
<path fill-rule="evenodd" clip-rule="evenodd" d="M25.3372 17H44.6628V17.4005C44.6628 18.8968 45.8758 20.1098 47.3721 20.1098C48.8684 20.1098 50.0814 18.8968 50.0814 17.4005V17H51C52.1046 17 53 17.8954 53 19V43.5354L53.9798 44.04L54 44.0596V19C54 17.3431 52.6569 16 51 16H19C17.3431 16 16 17.3431 16 19V50C16 51.6569 17.3431 53 19 53H44.3571L44.0714 52H19C17.8954 52 17 51.1046 17 50V19C17 17.8954 17.8954 17 19 17H19.9186V17.4005C19.9186 18.8968 21.1316 20.1098 22.6279 20.1098C24.1242 20.1098 25.3372 18.8968 25.3372 17.4005V17ZM49.0814 17.4005V17H45.6628V17.4005C45.6628 18.3445 46.4281 19.1098 47.3721 19.1098C48.3161 19.1098 49.0814 18.3445 49.0814 17.4005ZM20.9186 17.4005V17H24.3372V17.4005C24.3372 18.3445 23.5719 19.1098 22.6279 19.1098C21.6839 19.1098 20.9186 18.3445 20.9186 17.4005Z" fill="#131414"/>
<path fill-rule="evenodd" clip-rule="evenodd" d="M25.3372 17H44.6628V17.4005C44.6628 18.8968 45.8758 20.1098 47.3721 20.1098C48.8684 20.1098 50.0814 18.8968 50.0814 17.4005V17H51C52.1046 17 53 17.8954 53 19V43.5354L53.9798 44.04L54 44.0596V19C54 17.3431 52.6569 16 51 16H19C17.3431 16 16 17.3431 16 19V50C16 51.6569 17.3431 53 19 53H44.3571L44.0714 52H19C17.8954 52 17 51.1046 17 50V19C17 17.8954 17.8954 17 19 17H19.9186V17.4005C19.9186 18.8968 21.1316 20.1098 22.6279 20.1098C24.1242 20.1098 25.3372 18.8968 25.3372 17.4005V17ZM49.0814 17.4005V17H45.6628V17.4005C45.6628 18.3445 46.4281 19.1098 47.3721 19.1098C48.3161 19.1098 49.0814 18.3445 49.0814 17.4005ZM20.9186 17.4005V17H24.3372V17.4005C24.3372 18.3445 23.5719 19.1098 22.6279 19.1098C21.6839 19.1098 20.9186 18.3445 20.9186 17.4005Z" fill="#131414"/>
<path fill-rule="evenodd" clip-rule="evenodd" d="M25.3372 17H44.6628V17.4005C44.6628 18.8968 45.8758 20.1098 47.3721 20.1098C48.8684 20.1098 50.0814 18.8968 50.0814 17.4005V17H51C52.1046 17 53 17.8954 53 19V43.5354L53.9798 44.04L54 44.0596V19C54 17.3431 52.6569 16 51 16H19C17.3431 16 16 17.3431 16 19V50C16 51.6569 17.3431 53 19 53H44.3571L44.0714 52H19C17.8954 52 17 51.1046 17 50V19C17 17.8954 17.8954 17 19 17H19.9186V17.4005C19.9186 18.8968 21.1316 20.1098 22.6279 20.1098C24.1242 20.1098 25.3372 18.8968 25.3372 17.4005V17ZM49.0814 17.4005V17H45.6628V17.4005C45.6628 18.3445 46.4281 19.1098 47.3721 19.1098C48.3161 19.1098 49.0814 18.3445 49.0814 17.4005ZM20.9186 17.4005V17H24.3372V17.4005C24.3372 18.3445 23.5719 19.1098 22.6279 19.1098C21.6839 19.1098 20.9186 18.3445 20.9186 17.4005Z" fill="#22B0E7"/>
</svg>
