<svg width="70" height="70" viewBox="0 0 70 70" fill="none" xmlns="http://www.w3.org/2000/svg">
<path fill-rule="evenodd" clip-rule="evenodd" d="M69 35C69 53.7777 53.7777 69 35 69C16.2223 69 1 53.7777 1 35C1 16.2223 16.2223 1 35 1C53.7777 1 69 16.2223 69 35ZM70 35C70 54.33 54.33 70 35 70C15.67 70 0 54.33 0 35C0 15.67 15.67 0 35 0C54.33 0 70 15.67 70 35ZM48 25C48 32.1797 42.1797 38 35 38C27.8203 38 22 32.1797 22 25C22 17.8203 27.8203 12 35 12C42.1797 12 48 17.8203 48 25ZM49 25C49 32.732 42.732 39 35 39C27.268 39 21 32.732 21 25C21 17.268 27.268 11 35 11C42.732 11 49 17.268 49 25ZM35.5 24C37.433 24 39 22.433 39 20.5C39 18.567 37.433 17 35.5 17C33.567 17 32 18.567 32 20.5C32 22.433 33.567 24 35.5 24ZM40 20.5C40 21.9925 39.2734 23.3153 38.1546 24.134C40.3594 24.6552 42 26.636 42 29V32C42 32.5523 41.5523 33 41 33H30C29.4477 33 29 32.5523 29 32V29C29 26.636 30.6406 24.6552 32.8454 24.134C31.7266 23.3153 31 21.9925 31 20.5C31 18.0147 33.0147 16 35.5 16C37.9853 16 40 18.0147 40 20.5ZM34 25H35.5H37C39.2091 25 41 26.7909 41 29V32H30V29C30 26.7909 31.7909 25 34 25ZM27.9759 49.8333L28.6057 49.0258L35.1057 40.6925L35.5 40.187L35.8942 40.6925L42.3942 49.0258L43.0241 49.8333H42H38.6V61V61.5H38.1H32.9H32.4V61V49.8333H29H27.9759ZM30.0241 48.8333H32.9H33.4V49.3333V60.5H37.6V49.3333V48.8333H38.1H40.9759L35.5 41.813L30.0241 48.8333Z" fill="#22B0E7"/>
</svg>
