<svg width="50" height="50" viewBox="0 0 50 50" fill="none" xmlns="http://www.w3.org/2000/svg">
<circle cx="25" cy="25" r="24.5" stroke="#22B0E7"/>
<path d="M15.0635 16.2314H27.8381C29.2509 16.2314 30.4015 17.3573 30.4015 18.7899V29.0971C30.4015 30.5023 29.2476 31.6556 27.8381 31.6556H15.0635C13.6539 31.6556 12.5 30.5023 12.5 29.0971V18.7899C12.5 17.3847 13.6539 16.2314 15.0635 16.2314Z" stroke="#22B0E7"/>
<path d="M37.8154 17.9067L37.8306 17.9042L37.8456 17.9008C38.7206 17.6992 39.5003 18.3706 39.5003 19.1875V28.6382C39.5003 28.8777 39.4363 29.0989 39.3212 29.3076C38.9345 29.9603 38.137 30.1724 37.4958 29.7971L37.4916 29.7947L32.9336 27.1861V20.6693L37.4621 18.0609L37.4622 18.0609L37.4695 18.0565C37.6073 17.974 37.726 17.9216 37.8154 17.9067Z" stroke="#22B0E7"/>
</svg>
