<svg width="50" height="50" viewBox="0 0 50 50" fill="none" xmlns="http://www.w3.org/2000/svg">
<circle cx="25" cy="25" r="24.5" stroke="#22B0E7"/>
<path d="M38.5 17.6801V30.6494C38.5 32.0301 37.3807 33.1494 36 33.1494H14C12.6193 33.1494 11.5 32.0301 11.5 30.6494V24.1648V17.6801C11.5 16.2994 12.6193 15.1801 14 15.1801H25H36C37.3807 15.1801 38.5 16.2994 38.5 17.6801Z" stroke="#22B0E7"/>
<path d="M22.25 14H27.75C28.4404 14 29 14.5596 29 15.25C29 15.9404 28.4404 16.5 27.75 16.5H22.25C21.5596 16.5 21 15.9404 21 15.25C21 14.5596 21.5596 14 22.25 14Z" stroke="#22B0E7" stroke-linejoin="round"/>
</svg>
