<svg width="70" height="70" viewBox="0 0 70 70" fill="none" xmlns="http://www.w3.org/2000/svg">
<circle cx="35" cy="35" r="34.5" stroke="#22B0E7"/>
<path d="M34.9999 48.4999H34.4999H18.3999C17.0192 48.4999 15.8999 47.3806 15.8999 45.9999V25.3999C15.8999 24.0192 17.0192 22.8999 18.3999 22.8999H51.5999C52.9806 22.8999 54.0999 24.0192 54.0999 25.3999V45.9999C54.0999 47.3806 52.9806 48.4999 51.5999 48.4999H35.4999H34.9999ZM34.9999 52.2999H35.4999H35.6999C35.8104 52.2999 35.8999 52.3894 35.8999 52.4999C35.8999 52.6104 35.8104 52.6999 35.6999 52.6999H34.2999C34.1894 52.6999 34.0999 52.6104 34.0999 52.4999C34.0999 52.3894 34.1894 52.2999 34.2999 52.2999H34.4999H34.9999Z" stroke="#22B0E7" stroke-linecap="round"/>
<path d="M35 48.2998V52.4998" stroke="#22B0E7"/>
</svg>
