<svg width="136" height="32" viewBox="0 0 136 32" fill="none" xmlns="http://www.w3.org/2000/svg">
<path d="M6.81948 31.8001H0V1.6001H6.81948V14.0001L17.341 1.6001H26.4986L13.8338 15.4001L27.2779 31.8001H17.9255L6.81948 18.0001V31.8001Z" fill="white"/>
<path d="M99.5653 7.6C101.61 7.6 103.267 5.89868 103.267 3.8C103.267 1.70132 101.61 0 99.5653 0C97.5207 0 95.8633 1.70132 95.8633 3.8C95.8633 5.89868 97.5207 7.6 99.5653 7.6Z" fill="white"/>
<path d="M36.6315 31.8001H29.6172V1.6001H36.6315V31.8001Z" fill="white"/>
<path d="M55.1396 31.8001H48.3201V7.6001H40.1367V1.6001H63.5178V7.6001H55.1396V31.8001Z" fill="white"/>
<path d="M73.8468 31.8001H67.0273V1.6001H73.8468V14.0001L84.3683 1.6001H93.5259L80.8612 15.4001L94.3053 31.8001H84.9528L73.8468 18.0001V31.8001Z" fill="white"/>
<path d="M102.878 31.8001H95.8633V10.6001H102.878V31.8001Z" fill="white"/>
<path d="M115.737 31.8001H108.723V1.6001H117.491L129.181 21.2001V1.6001H136.001V31.8001H127.622L115.737 12.2001V31.8001Z" fill="white"/>
</svg>
