<svg width="173" height="168" viewBox="0 0 173 168" fill="none" xmlns="http://www.w3.org/2000/svg">
<path d="M122.149 165.08H64.0142L66.5515 156.814L68.9962 148.84H117.167L118.068 151.779L122.149 165.08Z" fill="white"/>
<path d="M122.148 165.412H63.9875C63.9359 165.413 63.8848 165.402 63.8386 165.378C63.7925 165.355 63.7526 165.321 63.7225 165.279C63.6911 165.237 63.6699 165.188 63.6607 165.136C63.6515 165.084 63.6545 165.031 63.6695 164.981L68.6515 148.741C68.6727 148.673 68.7151 148.614 68.7723 148.572C68.8296 148.53 68.8987 148.508 68.9695 148.509H117.14C117.211 148.508 117.28 148.53 117.337 148.572C117.394 148.614 117.437 148.673 117.458 148.741L122.466 164.954C122.481 165.005 122.484 165.058 122.475 165.11C122.466 165.162 122.445 165.211 122.413 165.253C122.386 165.3 122.348 165.339 122.301 165.367C122.255 165.395 122.202 165.41 122.148 165.412V165.412ZM64.4645 164.749H121.698L116.921 149.172H69.2212L64.4645 164.749Z" fill="#231F20"/>
<path d="M118.068 151.779L66.5515 156.814L68.9961 148.84H117.167L118.068 151.779Z" fill="#231F20"/>
<path d="M66.5512 157.106C66.5082 157.106 66.4657 157.097 66.4267 157.078C66.3878 157.06 66.3534 157.033 66.326 157C66.2963 156.962 66.2761 156.918 66.2669 156.87C66.2577 156.823 66.2598 156.774 66.273 156.728L68.7176 148.767C68.7369 148.708 68.774 148.657 68.8239 148.62C68.8738 148.583 68.9339 148.563 68.9959 148.562H117.166C117.228 148.563 117.288 148.583 117.338 148.62C117.388 148.657 117.425 148.708 117.444 148.767L118.345 151.706C118.358 151.747 118.362 151.79 118.356 151.833C118.35 151.875 118.335 151.916 118.312 151.952C118.287 151.988 118.255 152.019 118.217 152.041C118.18 152.064 118.137 152.079 118.094 152.084L66.5777 157.12L66.5512 157.106ZM69.2012 149.145L66.9487 156.496L117.67 151.534L116.934 149.145H69.2012Z" fill="#231F20"/>
<path d="M55.8123 164.291H130.344C130.962 164.291 131.555 164.537 131.993 164.975C132.43 165.413 132.676 166.007 132.676 166.626V167.608H53.4803V166.666C53.475 166.356 53.5315 166.048 53.6463 165.76C53.7611 165.472 53.9321 165.21 54.1491 164.989C54.3662 164.768 54.6251 164.592 54.9106 164.472C55.1962 164.352 55.5027 164.291 55.8123 164.291Z" fill="white"/>
<path d="M132.675 167.92H53.4802C53.3923 167.92 53.3081 167.885 53.246 167.823C53.1838 167.76 53.1489 167.676 53.1489 167.588V166.653C53.1489 165.949 53.4281 165.274 53.9251 164.776C54.4221 164.279 55.0961 163.999 55.7989 163.999H130.343C131.046 163.999 131.72 164.279 132.217 164.776C132.714 165.274 132.993 165.949 132.993 166.653V167.608C132.989 167.69 132.953 167.768 132.895 167.825C132.836 167.883 132.758 167.917 132.675 167.92ZM53.8379 167.256H132.344V166.653C132.344 166.125 132.135 165.619 131.762 165.245C131.389 164.872 130.884 164.662 130.357 164.662H55.8188C55.2917 164.662 54.7862 164.872 54.4134 165.245C54.0407 165.619 53.8313 166.125 53.8313 166.653L53.8379 167.256Z" fill="#231F20"/>
<path d="M168.325 42.3582H17.8379C15.5767 42.3582 13.7437 44.1937 13.7437 46.458V145.344C13.7437 147.608 15.5767 149.444 17.8379 149.444H168.325C170.586 149.444 172.419 147.608 172.419 145.344V46.458C172.419 44.1937 170.586 42.3582 168.325 42.3582Z" fill="white"/>
<path d="M168.325 149.769H17.8312C16.6593 149.769 15.5353 149.303 14.7066 148.473C13.8779 147.643 13.4124 146.518 13.4124 145.344V46.4513C13.4124 45.8702 13.5266 45.2949 13.7487 44.758C13.9708 44.2212 14.2963 43.7334 14.7066 43.3225C15.1169 42.9116 15.6041 42.5857 16.1402 42.3633C16.6763 42.1409 17.2509 42.0265 17.8312 42.0265H168.325C169.497 42.0265 170.622 42.4924 171.452 43.3221C172.281 44.1517 172.748 45.2772 172.75 46.4513V145.344C172.748 146.518 172.281 147.644 171.452 148.473C170.622 149.303 169.497 149.769 168.325 149.769ZM17.8312 42.6899C16.835 42.6899 15.8795 43.0862 15.1751 43.7916C14.4706 44.497 14.0749 45.4537 14.0749 46.4513V145.344C14.0749 146.342 14.4706 147.299 15.1751 148.004C15.8795 148.709 16.835 149.106 17.8312 149.106H168.325C169.322 149.106 170.278 148.71 170.983 148.004C171.689 147.299 172.086 146.342 172.088 145.344V46.4513C172.086 45.4531 171.689 44.4964 170.983 43.7912C170.278 43.0859 169.322 42.6899 168.325 42.6899H17.8312Z" fill="#231F20"/>
<path d="M166.397 48.9391H19.7588V142.856H166.397V48.9391Z" fill="white"/>
<path d="M166.397 143.188H19.7592C19.6714 143.188 19.5871 143.153 19.525 143.091C19.4629 143.029 19.428 142.944 19.428 142.856V48.9391C19.428 48.8511 19.4629 48.7667 19.525 48.7045C19.5871 48.6423 19.6714 48.6074 19.7592 48.6074H166.397C166.485 48.6074 166.569 48.6423 166.631 48.7045C166.693 48.7667 166.728 48.8511 166.728 48.9391V142.856C166.728 142.944 166.693 143.029 166.631 143.091C166.569 143.153 166.485 143.188 166.397 143.188ZM20.0905 142.525H166.066V49.2708H20.0905V142.525Z" fill="#231F20"/>
<path d="M61.0789 58.3527C61.0789 58.3527 42.403 68.5359 40.6606 96.5645L64.2456 101.208L70.4798 79.3758L61.0789 58.3527Z" fill="#5094D1"/>
<path d="M66.2866 42.6302C62.2387 38.1523 58.2836 33.1967 57.1308 27.2659C56.7688 25.912 56.8596 24.4767 57.3892 23.1793C58.0053 21.9322 59.5423 21.0631 60.8276 21.6005C60.2446 20.0282 61.1919 18.2835 62.2917 17.0495C64.9817 13.9835 68.7062 12.0184 72.7526 11.5301C72.1325 11.1286 71.6242 10.5763 71.2752 9.92464C71.1105 9.59401 71.0734 9.21411 71.1712 8.85783C71.2691 8.50154 71.4948 8.19398 71.8052 7.99415C72.1359 7.86471 72.4961 7.83025 72.8453 7.89464C74.1627 8.06074 75.4034 8.60702 76.4162 9.46689C75.5483 9.08876 75.502 7.71552 76.2108 7.09193C76.5905 6.81115 77.0444 6.64879 77.5158 6.62519C77.9872 6.60159 78.4551 6.71779 78.8608 6.95925C79.6698 7.45293 80.3688 8.10775 80.9146 8.8831C80.834 8.69578 80.8007 8.49145 80.8177 8.28819C80.8348 8.08492 80.9016 7.88901 81.0124 7.71779C81.1231 7.54657 81.2742 7.40533 81.4525 7.30658C81.6307 7.20783 81.8305 7.15461 82.0342 7.15163C82.3696 7.19497 82.6898 7.31778 82.9683 7.50987C86.7976 9.79859 89.1627 14.1439 89.494 18.6218C89.7208 23.1251 88.3608 27.5652 85.6515 31.1667C82.9414 34.737 79.4693 37.6562 75.4887 39.7112C72.3352 41.4228 68.3734 42.7032 65.2597 40.9054" fill="white"/>
<path d="M66.2862 42.9619C66.2401 42.9626 66.1945 42.9535 66.1522 42.9352C66.1099 42.9169 66.0721 42.8898 66.0411 42.8557C61.9269 38.2982 57.9652 33.2696 56.8058 27.3322C56.4348 25.9038 56.5347 24.3936 57.0907 23.0268C57.3829 22.418 57.8513 21.9115 58.4351 21.5731C59.0188 21.2347 59.6907 21.0801 60.3634 21.1294C60.0785 19.4112 61.2578 17.7328 62.0395 16.8306C64.6081 13.9074 68.1031 11.9585 71.9373 11.3111C71.5191 10.9721 71.1818 10.5437 70.9502 10.0573C70.7477 9.65162 70.7033 9.18495 70.8258 8.74831C70.9483 8.31167 71.2288 7.93637 71.6127 7.69561C71.9986 7.53772 72.4217 7.49397 72.8317 7.56956C73.7084 7.67755 74.5575 7.94748 75.3359 8.36564C75.3193 8.08367 75.3647 7.80148 75.4688 7.53899C75.573 7.2765 75.7334 7.04009 75.9388 6.84646C76.3695 6.51853 76.8877 6.32586 77.4278 6.2928C77.9679 6.25973 78.5056 6.38776 78.973 6.6607C79.5701 6.98521 80.1041 7.41437 80.5498 7.92779C80.5966 7.79071 80.6588 7.65939 80.7353 7.53639C80.8733 7.31041 81.0686 7.12507 81.3013 6.99922C81.534 6.87337 81.7959 6.8115 82.0603 6.81992C82.4471 6.86741 82.8172 7.0061 83.1402 7.22459C86.9098 9.48015 89.4737 13.8586 89.8248 18.5952C90.0653 23.1782 88.6809 27.6989 85.916 31.359C83.1816 34.9679 79.6723 37.9152 75.6473 39.9832C71.7319 42.0995 68.3598 42.6368 65.7495 41.5024C66.0079 41.8009 66.2729 42.0995 66.5379 42.3914C66.569 42.4222 66.5936 42.4589 66.6104 42.4993C66.6272 42.5397 66.6359 42.5831 66.6359 42.6269C66.6359 42.6707 66.6272 42.714 66.6104 42.7544C66.5936 42.7949 66.569 42.8315 66.5379 42.8624C66.4703 42.9273 66.3799 42.963 66.2862 42.9619V42.9619ZM65.2527 40.5736C65.3106 40.5766 65.3672 40.5925 65.4183 40.6201C68.4989 42.398 72.507 40.9451 75.3558 39.4193C79.2868 37.3803 82.7118 34.4856 85.3794 30.9477C88.0425 27.4194 89.3815 23.0656 89.1623 18.6483C88.8178 14.0974 86.3798 9.94453 82.789 7.79512C82.555 7.63402 82.2879 7.52748 82.0073 7.48332C81.8632 7.48971 81.7227 7.53066 81.5977 7.60271C81.4727 7.67477 81.3668 7.77582 81.2889 7.89739C81.211 8.01895 81.1634 8.15747 81.15 8.30129C81.1367 8.44511 81.1581 8.59003 81.2123 8.72387C81.2519 8.79659 81.2623 8.88171 81.2414 8.96185C81.2205 9.04199 81.1698 9.11111 81.0997 9.15508C81.0319 9.2014 80.9491 9.22031 80.868 9.208C80.7869 9.19569 80.7134 9.15308 80.6624 9.08874C80.1362 8.35499 79.4724 7.73084 78.708 7.25113C78.3586 7.04454 77.957 6.9434 77.5515 6.95988C77.1461 6.97636 76.754 7.10974 76.4224 7.344C76.2754 7.48866 76.1655 7.66676 76.102 7.86313C76.0386 8.0595 76.0235 8.26831 76.058 8.47178C76.0815 8.62376 76.138 8.76871 76.2237 8.89636C76.3562 8.99587 76.4953 9.10201 76.6212 9.21479C76.6819 9.26537 76.7222 9.33639 76.7343 9.41455C76.7465 9.49271 76.7299 9.57264 76.6874 9.63936C76.6452 9.70598 76.581 9.7557 76.5059 9.77993C76.4309 9.80416 76.3498 9.80137 76.2767 9.77204C76.0745 9.6806 75.8955 9.54452 75.7533 9.374C74.8783 8.75266 73.8631 8.35833 72.7985 8.22632C72.5129 8.17102 72.2176 8.19394 71.9439 8.29266C71.7115 8.45534 71.5453 8.69645 71.476 8.97181C71.4066 9.24717 71.4387 9.53834 71.5663 9.79195C71.9038 10.3886 72.3813 10.8941 72.9575 11.2647C73.0095 11.3053 73.0485 11.3602 73.0696 11.4226C73.0908 11.4851 73.0933 11.5524 73.0768 11.6163C73.0603 11.681 73.0239 11.7388 72.9728 11.7817C72.9217 11.8246 72.8584 11.8502 72.7919 11.8551C68.8291 12.3427 65.1826 14.2687 62.5431 17.2684C61.7679 18.1574 60.5556 19.8889 61.1452 21.4877C61.1675 21.5487 61.1714 21.6149 61.1565 21.6782C61.1415 21.7414 61.1083 21.7989 61.061 21.8434C61.0138 21.8879 60.9545 21.9175 60.8905 21.9286C60.8265 21.9397 60.7608 21.9317 60.7013 21.9056C59.575 21.428 58.2103 22.2705 57.6936 23.3253C57.1768 24.3801 57.137 25.5278 57.4617 27.2062C58.4422 32.248 61.5493 36.6596 65.0142 40.6864C65.0436 40.6516 65.0801 40.6236 65.1212 40.6041C65.1623 40.5847 65.2072 40.5743 65.2527 40.5736Z" fill="#231F20"/>
<path d="M130.496 142.856H68.8833C68.2937 137.291 67.8564 133.522 67.8564 133.522L126.766 121.986C127.17 124.805 128.548 132.448 130.496 142.856Z" fill="#231F20"/>
<path d="M130.496 143.148H68.883C68.8111 143.149 68.7416 143.123 68.6878 143.075C68.634 143.027 68.5997 142.961 68.5915 142.89C68.0085 137.383 67.5713 133.602 67.5646 133.556C67.5568 133.482 67.577 133.408 67.6213 133.349C67.6655 133.29 67.7305 133.25 67.8031 133.237L126.713 121.701C126.75 121.691 126.789 121.69 126.827 121.698C126.865 121.706 126.901 121.723 126.931 121.747C126.964 121.77 126.993 121.8 127.014 121.834C127.036 121.868 127.05 121.906 127.057 121.946C127.448 124.666 128.74 131.897 130.787 142.803C130.796 142.845 130.795 142.888 130.785 142.93C130.775 142.971 130.755 143.01 130.727 143.042C130.699 143.076 130.664 143.104 130.624 143.122C130.584 143.14 130.54 143.149 130.496 143.148V143.148ZM69.1414 142.565H130.144C128.203 132.202 126.951 125.237 126.514 122.331L68.1675 133.774C68.2802 134.697 68.6578 138.027 69.1414 142.565V142.565Z" fill="#231F20"/>
<path d="M99.8354 33.117C99.8354 33.117 101.432 37.0974 106.54 41.1906L110.8 36.5932L102.287 25.6803L99.8354 33.117Z" fill="white"/>
<path d="M106.54 41.5621C106.465 41.5612 106.393 41.5355 106.334 41.4891C101.22 37.3893 99.5968 33.4421 99.5306 33.2763C99.5038 33.2012 99.5038 33.1191 99.5306 33.0441L101.982 25.614C102 25.5564 102.034 25.5049 102.08 25.4652C102.125 25.4254 102.181 25.3989 102.24 25.3884C102.299 25.3762 102.36 25.3809 102.416 25.4021C102.473 25.4232 102.522 25.4599 102.558 25.5079L111.058 36.3876C111.109 36.4477 111.138 36.5241 111.138 36.6032C111.138 36.6823 111.109 36.7587 111.058 36.8188L106.805 41.4228C106.774 41.4645 106.734 41.4986 106.688 41.5228C106.642 41.5469 106.592 41.5603 106.54 41.5621V41.5621ZM100.186 33.1369C100.478 33.8003 102.174 37.2301 106.507 40.7727L110.362 36.5733L102.412 26.3769L100.186 33.1369Z" fill="#231F20"/>
<path d="M109.925 32.8384C109.925 32.8384 101.512 39.7112 102.413 41.2636C103.314 42.8159 115.252 51.4666 115.258 51.4666C114.251 50.7435 110.223 51.4666 109.071 51.4666C103.771 51.5861 98.4994 51.9089 93.2568 52.4352C85.8691 53.1485 78.5293 54.2937 71.2751 55.865C68.3733 56.5284 63.6033 56.7937 61.0792 58.3527C58.5551 59.9117 59.2507 62.0744 59.9861 64.9336C60.3107 66.1941 60.6486 67.4678 60.9136 68.7415C65.7034 89.831 66.1076 111.988 67.8499 133.522C67.8499 133.522 111.701 134.849 129.416 123.319L119.638 73.1001C119.638 73.1001 154.498 75.8465 158.063 62.5388C161.627 49.231 109.925 32.8384 109.925 32.8384Z" fill="#5094D1"/>
<path d="M88.2742 48.1032L91.2489 58.0542C91.2489 58.0542 91.3217 62.9833 84.2197 63.4344C77.1177 63.8855 74.7261 59.6265 74.7261 59.6265L69.8435 40.8987C69.8435 40.8987 73.1228 36.7857 68.3926 26.5759C68.3926 26.5759 79.5756 26.5759 89.0162 22.2639C89.0162 22.2639 92.8852 34.278 93.6537 39.6515C94.4222 45.0251 88.2742 48.1032 88.2742 48.1032Z" fill="white"/>
<path d="M83.2 63.786C76.787 63.786 74.5875 59.9449 74.4616 59.8056C74.4569 59.7793 74.4569 59.7523 74.4616 59.726L69.5723 40.9916C69.5603 40.9411 69.56 40.8885 69.5715 40.8379C69.583 40.7873 69.6059 40.74 69.6386 40.6997C69.6386 40.6599 72.7126 36.5866 68.1414 26.7285C68.1196 26.6775 68.1108 26.622 68.1155 26.5668C68.1202 26.5115 68.1385 26.4583 68.1686 26.4118C68.1987 26.3653 68.2397 26.3269 68.2881 26.3C68.3365 26.2731 68.3908 26.2585 68.4461 26.2575C68.5521 26.2575 79.6688 26.1912 88.9372 21.972C88.9798 21.9523 89.0261 21.9421 89.073 21.9421C89.1199 21.9421 89.1663 21.9523 89.2088 21.972C89.2508 21.9909 89.2884 22.0183 89.3192 22.0526C89.35 22.0869 89.3733 22.1272 89.3877 22.171C89.4275 22.297 93.27 34.278 94.0252 39.6184C94.7473 44.5341 89.8647 47.6388 88.7252 48.3022L91.6203 57.9812C91.6268 58.0119 91.6268 58.0435 91.6203 58.0741C91.6203 58.1272 91.6203 63.3216 84.2798 63.786C83.8625 63.7727 83.5113 63.786 83.2 63.786ZM75.038 59.4739C75.2897 59.8985 77.688 63.4941 84.1937 63.0828C90.6133 62.6781 90.9048 58.5849 90.9181 58.0874L87.9567 48.1961C87.9347 48.121 87.9399 48.0405 87.9714 47.9689C88.0029 47.8973 88.0588 47.8391 88.129 47.8047C88.1886 47.8047 94.0915 44.7464 93.3428 39.6781C92.6472 34.9016 89.4606 24.7118 88.818 22.6884C80.6295 26.3106 71.1756 26.8015 68.9032 26.8678C72.9643 35.9232 70.7383 40.1358 70.2282 40.9385L75.038 59.4739Z" fill="#231F20"/>
<path d="M72.8051 39.3795C72.3006 38.5386 71.5351 37.8862 70.6255 37.522C69.7741 37.2221 68.878 37.0696 67.9755 37.0709C67.478 37.0186 66.9752 37.0799 66.5047 37.25C66.1866 37.4155 65.9032 37.6407 65.67 37.9134C65.0641 38.4851 64.6813 39.2541 64.5901 40.0827C64.5993 40.7533 64.7722 41.4115 65.0936 42C65.3848 42.6666 65.7635 43.2913 66.2198 43.8575C66.6895 44.4123 67.2648 44.8681 67.912 45.1983C68.5593 45.5285 69.2656 45.7266 69.99 45.7809C70.7144 45.8352 71.4423 45.7448 72.1315 45.5148C72.8206 45.2848 73.4572 44.9199 74.0042 44.4413" fill="white"/>
<path d="M70.3668 46.0998C70.2211 46.0998 70.082 46.0998 69.9362 46.0998C68.394 45.9753 66.9643 45.2427 65.9612 44.0631C65.4841 43.4751 65.0875 42.8258 64.782 42.1326C64.444 41.4945 64.2623 40.7851 64.252 40.0628C64.3433 39.1514 64.7596 38.3035 65.4246 37.6746C65.6885 37.3801 66.0083 37.141 66.3653 36.9714C66.8804 36.7761 67.4339 36.7034 67.9818 36.7591C68.9316 36.7557 69.8749 36.915 70.771 37.2301C71.7441 37.6242 72.5643 38.3221 73.1096 39.2203C73.1324 39.2577 73.1476 39.2993 73.1543 39.3426C73.161 39.3859 73.1591 39.4301 73.1486 39.4727C73.1381 39.5153 73.1193 39.5553 73.0933 39.5906C73.0673 39.6258 73.0345 39.6556 72.997 39.6781C72.9211 39.7225 72.8309 39.7356 72.7456 39.7145C72.6602 39.6935 72.5864 39.6399 72.5398 39.5653C72.0795 38.7915 71.3827 38.1867 70.5523 37.8404C69.7251 37.5567 68.8563 37.4132 67.9818 37.4159C67.5343 37.3656 67.0813 37.4178 66.6568 37.5685C66.3805 37.7086 66.1332 37.9 65.9281 38.1323C65.3808 38.6465 65.0314 39.3368 64.941 40.0827C64.9568 40.6998 65.118 41.3044 65.4113 41.8474C65.6888 42.4879 66.0545 43.0864 66.4978 43.6253C67.394 44.6706 68.6646 45.3211 70.0356 45.4364C70.716 45.4865 71.3995 45.4009 72.0466 45.1846C72.6937 44.9682 73.2915 44.6254 73.8052 44.1759C73.8354 44.145 73.8715 44.1205 73.9113 44.1037C73.9511 44.087 73.9939 44.0783 74.0371 44.0783C74.0803 44.0783 74.123 44.087 74.1628 44.1037C74.2027 44.1205 74.2387 44.145 74.269 44.1759C74.3 44.2067 74.3247 44.2434 74.3415 44.2838C74.3583 44.3243 74.3669 44.3676 74.3669 44.4114C74.3669 44.4552 74.3583 44.4986 74.3415 44.539C74.3247 44.5794 74.3 44.6161 74.269 44.6469C73.1895 45.5929 71.8012 46.1098 70.3668 46.0998V46.0998Z" fill="#231F20"/>
<path d="M86.4395 31.6509C86.4395 31.6509 91.6467 35.5783 91.1432 36.7458C90.6397 37.9134 88.1553 38.1323 88.1553 38.1323" fill="white"/>
<path d="M88.1555 38.464C88.0732 38.4626 87.9944 38.4306 87.9344 38.3742C87.8744 38.3178 87.8375 38.241 87.8309 38.1588C87.8264 38.1156 87.8305 38.0719 87.8431 38.0303C87.8557 37.9887 87.8766 37.95 87.9044 37.9166C87.9321 37.8832 87.9664 37.8558 88.005 37.8358C88.0435 37.8159 88.0857 37.8039 88.129 37.8006C88.7915 37.7475 90.4942 37.4291 90.8387 36.6198C91.0573 36.1222 88.9042 33.9264 86.2409 31.9163C86.2061 31.8901 86.1768 31.8574 86.1546 31.8199C86.1325 31.7824 86.1179 31.7409 86.1117 31.6978C86.1056 31.6547 86.108 31.6108 86.1188 31.5686C86.1296 31.5264 86.1486 31.4867 86.1747 31.4519C86.2008 31.417 86.2335 31.3877 86.2709 31.3655C86.3083 31.3433 86.3497 31.3287 86.3928 31.3225C86.4359 31.3164 86.4797 31.3188 86.5219 31.3296C86.564 31.3404 86.6036 31.3594 86.6384 31.3856C88.2682 32.6128 91.998 35.6048 91.4482 36.8785C90.8983 38.1522 88.4603 38.4375 88.1887 38.4574L88.1555 38.464Z" fill="#231F20"/>
<path d="M78.3706 30.5829C78.3706 30.5829 79.5167 27.5113 82.1999 29.4285Z" fill="white"/>
<path d="M78.3705 30.9477H78.2512C78.2101 30.9323 78.1725 30.9088 78.1406 30.8787C78.1086 30.8486 78.083 30.8124 78.0651 30.7723C78.0472 30.7322 78.0375 30.6889 78.0365 30.645C78.0354 30.6011 78.0431 30.5574 78.0591 30.5165C78.2119 30.0821 78.4535 29.6843 78.7683 29.3485C79.0831 29.0127 79.4643 28.7463 79.8876 28.5661C80.3193 28.4608 80.7698 28.46 81.2019 28.5638C81.6339 28.6677 82.035 28.8731 82.372 29.1632C82.4418 29.216 82.4885 29.294 82.5021 29.3806C82.5157 29.4672 82.4952 29.5558 82.4448 29.6275C82.3932 29.6971 82.3165 29.7436 82.2311 29.7573C82.1457 29.7709 82.0583 29.7505 81.9877 29.7005C81.7313 29.4749 81.4262 29.312 81.0962 29.2245C80.7663 29.137 80.4206 29.1274 80.0863 29.1963C79.7607 29.3408 79.4666 29.5482 79.2211 29.8066C78.9756 30.065 78.7833 30.3694 78.6553 30.7023C78.6401 30.7682 78.6042 30.8275 78.553 30.8716C78.5018 30.9158 78.4378 30.9424 78.3705 30.9477Z" fill="#231F20"/>
<path d="M85.519 28.5396C85.519 28.5396 85.9033 26.6157 88.8315 28.0221Z" fill="white"/>
<path d="M85.519 28.8646H85.4461C85.4043 28.856 85.3647 28.8391 85.3294 28.8151C85.2942 28.791 85.264 28.7602 85.2406 28.7245C85.2172 28.6888 85.2011 28.6488 85.1932 28.6068C85.1852 28.5648 85.1856 28.5217 85.1944 28.4799C85.2516 28.2455 85.3588 28.0263 85.5086 27.8374C85.6584 27.6484 85.8473 27.4942 86.0622 27.3853C86.7777 27.027 87.7582 27.1464 88.9772 27.7302C89.0572 27.7681 89.1188 27.8361 89.1487 27.9195C89.1785 28.0028 89.174 28.0946 89.1362 28.1747C89.0985 28.2548 89.0305 28.3165 88.9472 28.3464C88.864 28.3762 88.7723 28.3717 88.6924 28.3339C87.6854 27.8496 86.8771 27.7236 86.367 27.9757C86.2359 28.0402 86.1209 28.1333 86.0303 28.2481C85.9398 28.3629 85.876 28.4964 85.8436 28.6391C85.82 28.706 85.7759 28.7638 85.7177 28.8043C85.6594 28.8448 85.5899 28.8659 85.519 28.8646Z" fill="#231F20"/>
<path d="M88.2747 48.1032C88.2747 48.1032 83.0873 49.5428 80.2849 48.7666C80.2849 48.7666 83.922 54.1534 89.9707 54.0738L88.2747 48.1032Z" fill="#231F20"/>
<path d="M89.8713 54.4453C83.7763 54.4453 80.1657 49.1978 80.0133 48.9723C79.9745 48.9181 79.9536 48.8532 79.9536 48.7865C79.9536 48.7199 79.9745 48.6549 80.0133 48.6008C80.0516 48.5457 80.1056 48.5035 80.1683 48.4798C80.231 48.4561 80.2994 48.452 80.3645 48.4681C83.0476 49.1912 88.1289 47.8047 88.1819 47.8047C88.2663 47.7823 88.356 47.7941 88.4316 47.8376C88.5073 47.8811 88.5628 47.9527 88.5861 48.0369L90.2821 54.0075C90.295 54.057 90.297 54.1089 90.2878 54.1593C90.2787 54.2097 90.2586 54.2575 90.2291 54.2993C90.1975 54.3398 90.1574 54.3727 90.1115 54.3957C90.0657 54.4186 90.0153 54.431 89.9641 54.432L89.8713 54.4453ZM81.08 49.2708C82.2393 50.6374 85.2404 53.6227 89.5334 53.7753L88.0428 48.5079C86.9894 48.7799 83.5709 49.5693 81.08 49.2708V49.2708Z" fill="#231F20"/>
<path d="M131.496 3.55597L87.1748 43.1144L141.169 25.4614L131.496 3.55597Z" fill="white"/>
<path d="M87.1746 43.4461C87.1163 43.4444 87.0594 43.4277 87.0095 43.3975C86.9595 43.3672 86.9183 43.3246 86.8897 43.2736C86.8509 43.2082 86.8363 43.1311 86.8484 43.056C86.8605 42.9808 86.8986 42.9123 86.956 42.8623L131.271 3.31051C131.31 3.27549 131.356 3.25007 131.407 3.23626C131.458 3.22244 131.511 3.2206 131.562 3.2309C131.614 3.24071 131.662 3.26351 131.703 3.29716C131.743 3.3308 131.775 3.3742 131.794 3.42328L141.473 25.3154C141.493 25.3569 141.503 25.4022 141.503 25.4481C141.503 25.494 141.493 25.5393 141.473 25.5808C141.454 25.6228 141.427 25.6605 141.393 25.6913C141.358 25.7222 141.318 25.7455 141.274 25.7599L87.2806 43.413C87.2476 43.4306 87.2117 43.4418 87.1746 43.4461V43.4461ZM131.377 4.10659L88.5791 42.3051L140.718 25.2557L131.377 4.10659Z" fill="#231F20"/>
<path d="M99.8355 33.117C102.485 32.7919 105.394 30.1118 105.135 27.2393C104.851 23.5176 101.326 25.1496 99.6963 26.9938C98.802 28.0088 96.6422 31.5912 98.0732 32.772C98.3283 32.946 98.616 33.0663 98.919 33.1256C99.2219 33.1849 99.5337 33.182 99.8355 33.117V33.117Z" fill="white"/>
<path d="M99.3649 33.4819C98.838 33.509 98.3187 33.3467 97.9008 33.0242C97.7225 32.8735 97.5779 32.687 97.4763 32.4767C97.3747 32.2664 97.3185 32.037 97.3112 31.8035C97.1787 30.1649 98.6826 27.6772 99.4842 26.7749C100.644 25.4482 102.638 24.3071 104.036 24.7848C104.632 24.9904 105.361 25.5742 105.5 27.2261C105.745 30.3241 102.671 33.1237 99.8751 33.462C99.7055 33.4779 99.5352 33.4845 99.3649 33.4819ZM103.34 25.3287C102.273 25.3287 100.856 26.2243 99.9811 27.2128C99.2192 28.0752 97.8611 30.3905 97.9936 31.7504C97.996 31.8951 98.0285 32.0376 98.0889 32.1689C98.1494 32.3003 98.2365 32.4176 98.3447 32.5134C98.5592 32.6575 98.8011 32.756 99.0552 32.8028C99.3093 32.8496 99.5703 32.8436 99.8221 32.7853V32.7853C102.28 32.4934 105.076 29.9659 104.87 27.2659C104.784 26.231 104.446 25.6007 103.85 25.4017C103.685 25.3507 103.513 25.326 103.34 25.3287V25.3287Z" fill="#231F20"/>
<path d="M84.6245 41.0645C84.6245 41.0645 88.7122 42.0862 87.5594 45.2838Z" fill="white"/>
<path d="M87.5589 45.6154C87.5217 45.6217 87.4836 45.6217 87.4463 45.6154C87.3638 45.5855 87.2964 45.524 87.2592 45.4443C87.2219 45.3647 87.2177 45.2736 87.2476 45.1909C87.3842 44.8749 87.4491 44.5325 87.4376 44.1883C87.4262 43.8442 87.3386 43.5069 87.1813 43.2007C86.5188 41.8739 84.5644 41.3896 84.5313 41.3896C84.4457 41.3676 84.3721 41.313 84.3263 41.2373C84.2805 41.1617 84.2661 41.0711 84.2862 40.9849C84.297 40.9426 84.316 40.9029 84.3422 40.868C84.3684 40.8331 84.4012 40.8037 84.4388 40.7815C84.4763 40.7593 84.5178 40.7447 84.561 40.7387C84.6042 40.7326 84.6481 40.7351 84.6903 40.7461C84.7831 40.7461 86.9163 41.3166 87.7511 42.8889C87.9512 43.2735 88.0644 43.6975 88.0828 44.1309C88.1011 44.5642 88.024 44.9963 87.8571 45.3965C87.8363 45.4596 87.7965 45.5146 87.743 45.5538C87.6896 45.5931 87.6252 45.6146 87.5589 45.6154V45.6154Z" fill="#231F20"/>
<path d="M141.165 25.4434C144.468 24.2065 145.252 18.1293 142.915 11.8696C140.578 5.60998 136.005 1.53826 132.701 2.77517C129.397 4.01209 128.613 10.0893 130.951 16.3489C133.288 22.6086 137.861 26.6803 141.165 25.4434Z" fill="#231F20"/>
<path d="M139.95 26.0054C136.677 26.0054 132.748 22.1113 130.675 16.479C128.277 10.0573 129.151 3.77492 132.616 2.47466C134.338 1.81126 136.392 2.47466 138.419 4.2791C140.6 6.35785 142.257 8.92462 143.256 11.7689V11.7689C144.366 14.5712 144.798 17.5972 144.514 20.5987C144.163 23.2921 143.03 25.1297 141.315 25.7666C140.879 25.9321 140.416 26.0131 139.95 26.0054V26.0054ZM133.987 2.8926C133.598 2.88967 133.212 2.95942 132.848 3.09825C129.721 4.26583 129.025 10.1634 131.291 16.2468C133.557 22.3302 137.923 26.3039 141.056 25.1496C142.534 24.599 143.521 22.9538 143.832 20.5058C144.103 17.6115 143.682 14.6943 142.606 11.9944V11.9944C141.654 9.25036 140.065 6.772 137.969 4.76338C136.571 3.5361 135.186 2.8926 133.961 2.8926H133.987Z" fill="#231F20"/>
<path d="M133.265 65.0531C133.212 65.0515 133.16 65.0379 133.113 65.0133C120.452 58.4191 105.864 44.6403 105.718 44.501C105.687 44.4707 105.663 44.4346 105.646 44.3947C105.629 44.3548 105.621 44.312 105.621 44.2688C105.621 44.2255 105.629 44.1827 105.646 44.1429C105.663 44.103 105.687 44.0669 105.718 44.0366C105.749 44.0055 105.786 43.9808 105.826 43.964C105.866 43.9471 105.91 43.9385 105.953 43.9385C105.997 43.9385 106.041 43.9471 106.081 43.964C106.121 43.9808 106.158 44.0055 106.189 44.0366C106.334 44.1759 120.856 57.8884 133.431 64.4361C133.47 64.4558 133.505 64.4831 133.534 64.5166C133.563 64.5501 133.585 64.589 133.598 64.631C133.612 64.673 133.617 64.7173 133.613 64.7613C133.609 64.8053 133.597 64.8481 133.576 64.8872C133.545 64.9409 133.499 64.9848 133.444 65.014C133.389 65.0433 133.327 65.0568 133.265 65.0531Z" fill="#231F20"/>
<path d="M126.263 107.464C126.185 107.465 126.11 107.438 126.05 107.388C125.99 107.338 125.951 107.269 125.938 107.192L118.213 65.7761C118.198 65.69 118.217 65.6012 118.267 65.5291C118.316 65.457 118.392 65.4075 118.478 65.3914C118.521 65.3828 118.565 65.3829 118.608 65.3916C118.65 65.4004 118.691 65.4177 118.727 65.4424C118.762 65.4672 118.793 65.4989 118.816 65.5357C118.84 65.5726 118.855 65.6137 118.862 65.6567L126.581 107.073C126.596 107.159 126.577 107.248 126.527 107.32C126.478 107.392 126.402 107.441 126.316 107.457L126.263 107.464Z" fill="#231F20"/>
<path d="M74.2807 66.8845L1.07715 87.0479L14.4046 135.565L87.6082 115.401L74.2807 66.8845Z" fill="white"/>
<path d="M14.3995 135.897C14.3267 135.899 14.2555 135.876 14.1968 135.833C14.1381 135.79 14.0953 135.729 14.0749 135.659L0.752023 87.1376C0.729674 87.0531 0.741489 86.9633 0.784903 86.8875C0.828316 86.8118 0.899822 86.7562 0.983897 86.7329L74.1901 66.5722C74.2714 66.5423 74.3607 66.5423 74.4419 66.5722C74.5188 66.6153 74.5758 66.6867 74.6009 66.7712L87.9238 115.292C87.9461 115.377 87.9343 115.467 87.8909 115.542C87.8475 115.618 87.776 115.674 87.6919 115.697L14.4856 135.891L14.3995 135.897ZM1.48077 87.2835L14.6314 135.161L87.1752 115.199L74.0444 67.3019L1.48077 87.2835Z" fill="#231F20"/>
<path d="M53.9371 124.984C53.9371 124.984 54.0828 126.431 52.049 127.85C50.0151 129.27 43.3901 131.121 41.9723 130.418C40.1186 129.595 38.5507 128.24 37.4673 126.524C36.3146 124.487 34.8173 121.92 35.6057 120.944C36.3941 119.969 37.9973 121.475 39.8523 124.659C39.8523 124.659 37.5535 118.908 38.9646 118.55C40.3757 118.191 41.3562 119.677 43.2973 122.437C43.2973 122.437 40.8262 116.367 42.6812 116.4C44.5362 116.433 48.604 123.246 48.604 122.888C48.604 122.53 46.219 116.692 48.2528 117.753C50.2867 118.815 51.8767 124.839 51.8767 124.839L53.9371 124.984Z" fill="white"/>
<path d="M42.96 130.902C42.5728 130.923 42.1857 130.857 41.8271 130.71C39.9157 129.859 38.301 128.457 37.1896 126.683L37.0638 126.457C35.8381 124.295 34.4535 121.847 35.3678 120.732C35.4734 120.59 35.6135 120.478 35.7747 120.406C35.9359 120.334 36.1128 120.305 36.2886 120.321C36.9511 120.374 37.7594 121.024 38.6869 122.251C38.3026 120.924 38.0244 119.379 38.3556 118.682C38.4074 118.572 38.483 118.474 38.5769 118.396C38.6708 118.318 38.7807 118.262 38.8989 118.231C40.1245 117.926 41.0123 118.729 42.2114 120.327C41.7741 118.881 41.423 117.176 41.9199 116.46C42.0044 116.332 42.1212 116.228 42.2584 116.159C42.3956 116.091 42.5485 116.059 42.7016 116.068C44.0266 116.068 45.9346 118.576 47.7101 121.104C47.1006 119.113 46.8952 117.886 47.412 117.448C47.5776 117.302 47.8956 117.19 48.419 117.448C50.3469 118.457 51.8243 123.366 52.1489 124.513L53.9774 124.639C54.0551 124.645 54.1283 124.679 54.1841 124.733C54.2398 124.788 54.2745 124.86 54.2821 124.938C54.2821 125.004 54.4212 126.597 52.2549 128.109C50.5655 129.29 45.504 130.902 42.96 130.902ZM36.1893 120.951C36.1257 120.954 36.0635 120.97 36.0073 121C35.9511 121.03 35.9024 121.072 35.8646 121.123C35.2419 121.886 36.6795 124.44 37.6269 126.106L37.7528 126.331C38.8071 127.99 40.3286 129.299 42.1253 130.093C43.3178 130.69 49.7771 129.005 51.864 127.552C52.2892 127.306 52.6611 126.977 52.9579 126.585C53.2548 126.193 53.4708 125.746 53.5931 125.27L51.8507 125.144C51.7825 125.136 51.718 125.109 51.665 125.066C51.612 125.022 51.5729 124.964 51.5526 124.898C51.122 123.26 49.6579 118.841 48.0944 118.025C48.0122 117.969 47.9158 117.937 47.8161 117.933C47.6571 118.092 47.6704 118.921 48.6708 121.913C48.7944 122.214 48.8833 122.527 48.9357 122.848C48.9355 122.922 48.9123 122.993 48.8696 123.052C48.8268 123.112 48.7666 123.157 48.6972 123.18C48.419 123.266 48.3925 123.22 47.5776 122.052C46.564 120.586 43.8676 116.745 42.6751 116.692C42.6322 116.688 42.589 116.695 42.5495 116.712C42.5101 116.73 42.4758 116.757 42.4499 116.791C41.9861 117.455 42.8474 120.407 43.6093 122.271C43.6397 122.346 43.641 122.43 43.6128 122.506C43.5846 122.583 43.529 122.645 43.4569 122.682C43.3868 122.723 43.304 122.735 43.2252 122.717C43.1464 122.698 43.0776 122.65 43.0329 122.583L42.801 122.258C40.9394 119.604 40.151 118.563 39.0513 118.835C39.0115 118.835 38.9718 118.835 38.932 118.941C38.5279 119.737 39.4686 122.769 40.1576 124.5C40.1809 124.576 40.1762 124.658 40.1446 124.73C40.1129 124.803 40.0563 124.862 39.9851 124.896C39.9138 124.931 39.8326 124.938 39.7561 124.918C39.6796 124.898 39.6128 124.851 39.568 124.785C37.5341 121.303 36.494 120.964 36.2555 120.944L36.1893 120.951Z" fill="#231F20"/>
<path d="M27.1521 92.3851L29.398 91.7217L34.0355 96.0338L32.5515 90.8128L34.2077 90.3484L36.3343 97.8581L34.1746 98.4751L29.3847 94.0568L30.9018 99.4038L29.2456 99.8748L27.1521 92.3851Z" fill="#D1D3D4"/>
<path d="M35.8582 89.9106L40.9528 88.4644L41.3834 89.9902L37.9384 90.972L38.3359 92.3718L41.5954 91.4497L42.026 92.9755L38.7732 93.8976L39.2038 95.4301L42.8409 94.3952L43.2715 95.921L37.9715 97.4269L35.8582 89.9106Z" fill="#D1D3D4"/>
<path d="M41.6812 88.2587L43.4832 87.7413L46.047 92.2192L46.2524 86.9585L47.7894 86.5206L50.7508 91.0251L50.605 85.7179L52.2812 85.2403L52.2215 93.3802L50.7441 93.7981L47.6171 89.0681L47.4383 94.7402L46.0205 95.1448L41.6812 88.2587Z" fill="#D1D3D4"/>
<path d="M19.7461 110.363C19.5287 110.213 19.2791 110.115 19.0173 110.078C18.7261 110.041 18.4304 110.066 18.1495 110.151C17.8503 110.235 17.5725 110.382 17.3346 110.582C17.1074 110.774 16.9224 111.011 16.7913 111.279C16.6556 111.562 16.5746 111.868 16.5528 112.181C16.529 112.521 16.5672 112.863 16.6655 113.189C16.7528 113.521 16.9011 113.834 17.1027 114.111C17.2785 114.373 17.5035 114.599 17.7652 114.775C18.0109 114.938 18.2888 115.047 18.5801 115.093C18.8746 115.14 19.1757 115.119 19.4612 115.033C19.7701 114.956 20.0542 114.801 20.2861 114.583C20.5181 114.365 20.6903 114.09 20.7862 113.786L22.4557 114.45C22.2752 114.969 21.9541 115.429 21.5282 115.776C21.1137 116.118 20.6334 116.371 20.1171 116.519C19.5653 116.683 18.9885 116.746 18.4145 116.705C17.8892 116.67 17.3771 116.525 16.9106 116.281C16.4361 116.013 16.0266 115.644 15.7115 115.199C15.3655 114.747 15.1112 114.231 14.9628 113.68C14.796 113.124 14.7398 112.54 14.7972 111.962C14.8534 111.437 15.0205 110.931 15.2875 110.476C15.5569 110.02 15.9178 109.624 16.3475 109.315C16.8077 108.974 17.3263 108.72 17.8778 108.565C18.095 108.506 18.3165 108.464 18.5403 108.439C18.7825 108.413 19.0269 108.413 19.2691 108.439C19.5216 108.461 19.7706 108.512 20.0111 108.592C20.248 108.682 20.471 108.805 20.6736 108.957L19.7461 110.363Z" fill="#D1D3D4"/>
<path d="M24.0124 107.04L25.3771 106.655L30.7699 113.236L28.9083 113.766L27.8085 112.36L24.9001 113.209L24.7279 114.98L22.906 115.498L24.0124 107.04ZM25.2645 109.03L25.0194 111.624L26.8479 111.1L25.2645 109.03Z" fill="#D1D3D4"/>
<path d="M29.3918 105.514L31.8961 104.797L35.0098 109.209L35.3543 103.815L37.8453 103.106L39.9786 110.622L38.3223 111.086L36.686 105.328L36.3481 111.65L35.0893 112.008L31.5582 106.787L33.1813 112.546L31.5251 113.017L29.3918 105.514Z" fill="#D1D3D4"/>
<path d="M39.3955 102.668L42.1846 101.872C42.5548 101.767 42.9342 101.698 43.3175 101.666C43.6569 101.636 43.9988 101.672 44.3245 101.772C44.6358 101.879 44.9158 102.061 45.1394 102.303C45.4009 102.602 45.5872 102.959 45.6827 103.344C45.8035 103.719 45.8375 104.116 45.782 104.505C45.7301 104.827 45.598 105.131 45.3978 105.388C45.1871 105.646 44.9255 105.859 44.6293 106.011C44.2882 106.192 43.9283 106.334 43.556 106.436L42.3503 106.781L43.1784 109.706L41.5288 110.177L39.3955 102.668ZM41.9528 105.381L43.0525 105.063C43.1973 105.026 43.3373 104.972 43.4699 104.903C43.5947 104.84 43.7069 104.755 43.8011 104.651C43.8935 104.553 43.9575 104.432 43.9866 104.3C44.0256 104.147 44.0256 103.988 43.9866 103.835C43.9445 103.67 43.8519 103.521 43.7217 103.411C43.5998 103.317 43.4562 103.255 43.3043 103.232C43.1397 103.205 42.972 103.205 42.8074 103.232C42.6415 103.258 42.4777 103.295 42.3171 103.344L41.4691 103.583L41.9528 105.381Z" fill="#D1D3D4"/>
<path d="M47.7563 100.286L49.1277 99.9014L54.5204 106.482L52.6522 107.013L51.5524 105.607L48.6441 106.436L48.4652 108.207L46.6433 108.725L47.7563 100.286ZM49.0151 102.276L48.7633 104.87L50.5984 104.346L49.0151 102.276Z" fill="#D1D3D4"/>
<path d="M53.1226 98.767L54.7722 98.296L56.9054 105.806L55.2492 106.277L53.1226 98.767Z" fill="#D1D3D4"/>
<path d="M65.0474 102.92C64.6391 103.308 64.18 103.638 63.6827 103.902C63.1799 104.165 62.6516 104.376 62.1059 104.532C61.5565 104.696 60.9818 104.759 60.4099 104.718C59.8826 104.682 59.3683 104.537 58.8994 104.293C58.4343 104.046 58.0276 103.703 57.7069 103.285C57.3536 102.824 57.0927 102.299 56.9384 101.739C56.7733 101.18 56.7193 100.594 56.7794 100.014C56.8336 99.4891 57.0009 98.9821 57.2697 98.5281C57.5387 98.0756 57.8971 97.6828 58.3231 97.3738C58.7898 97.0384 59.3125 96.789 59.8667 96.6374C60.4262 96.4731 61.0061 96.3882 61.5892 96.3853C62.1259 96.3847 62.655 96.512 63.1328 96.7569L62.3246 98.3623C62.0451 98.194 61.7338 98.0856 61.4103 98.0438C61.0373 98.0101 60.6612 98.0507 60.3039 98.1633C59.9737 98.2532 59.665 98.4088 59.3963 98.621C59.1507 98.8138 58.9477 99.0555 58.8001 99.3308C58.6547 99.6133 58.5691 99.9227 58.5483 100.24C58.5303 100.588 58.5775 100.937 58.6874 101.268C58.7784 101.6 58.9288 101.912 59.1313 102.19C59.3044 102.445 59.5304 102.66 59.7938 102.82C60.0611 102.98 60.3591 103.082 60.6683 103.119C61.009 103.156 61.3536 103.124 61.6819 103.026C61.9977 102.94 62.2991 102.809 62.5763 102.635C62.7762 102.513 62.9628 102.371 63.1328 102.21L62.7883 100.989L61.4633 101.374L61.0261 99.8417L63.9609 99.0124L65.0474 102.92Z" fill="#D1D3D4"/>
<path d="M64.5239 95.523L66.7698 94.8596L71.4404 99.1783L69.9498 93.9706L71.6061 93.4996L73.7327 101.009L71.5729 101.626L66.7831 97.208L68.3002 102.555L66.6439 103.026L64.5239 95.523Z" fill="#D1D3D4"/>
<path d="M157.817 70.6057C157.693 70.4821 157.525 70.4128 157.35 70.4128C157.175 70.4128 157.007 70.4821 156.883 70.6057C156.295 71.3104 155.904 72.1593 155.752 73.0652C155.599 73.9711 155.69 74.9013 156.015 75.7603C156.038 75.8444 156.078 75.9231 156.131 75.992C156.185 76.0609 156.251 76.1185 156.327 76.1617C156.402 76.2048 156.486 76.2325 156.572 76.2434C156.659 76.2542 156.746 76.2478 156.83 76.2247C156.914 76.2016 156.993 76.1623 157.062 76.1088C157.131 76.0553 157.188 75.9887 157.231 75.913C157.274 75.8372 157.302 75.7536 157.313 75.6671C157.324 75.5806 157.317 75.4928 157.294 75.4087C157.226 75.24 157.168 75.0672 157.122 74.8912C157.122 74.7917 157.075 74.6922 157.056 74.5927C157.053 74.5485 157.053 74.5042 157.056 74.46V74.46C157.042 74.2767 157.042 74.0927 157.056 73.9094C157.056 73.8165 157.056 73.7303 157.056 73.6374C157.056 73.5446 157.056 73.5445 157.056 73.4981C157.054 73.4716 157.054 73.445 157.056 73.4185C157.081 73.2442 157.117 73.0714 157.162 72.901C157.162 72.8148 157.215 72.7286 157.248 72.6423C157.281 72.5561 157.334 72.4101 157.301 72.4831C157.376 72.3041 157.464 72.1311 157.566 71.9657C157.612 71.8861 157.665 71.8131 157.718 71.7335C157.74 71.695 157.767 71.6594 157.798 71.6273V71.6273L157.837 71.5809C157.903 71.5174 157.955 71.4409 157.99 71.3562C158.026 71.2716 158.043 71.1806 158.041 71.0889C158.039 70.9973 158.018 70.9071 157.98 70.8239C157.941 70.7407 157.886 70.6664 157.817 70.6057V70.6057Z" fill="#E6E7E8"/>
<path d="M150.205 112.99C149.41 112.177 148.471 111.518 147.436 111.046C147.36 110.677 147.21 110.326 146.996 110.015C146.782 109.704 146.508 109.439 146.19 109.235C144.733 108.313 142.779 108.764 141.248 109.235C140.44 109.487 140.784 110.774 141.606 110.509C142.573 110.133 143.612 109.977 144.647 110.051C145.147 110.109 145.604 110.362 145.919 110.755C145.839 110.755 145.766 110.755 145.687 110.755C145.264 110.773 144.851 110.888 144.479 111.09C144.107 111.292 143.786 111.577 143.54 111.922C143.299 112.25 143.186 112.654 143.221 113.06C143.256 113.465 143.438 113.844 143.733 114.125C144.958 115.173 146.707 114.125 147.244 112.864C147.302 112.726 147.351 112.584 147.39 112.44C148.076 112.846 148.709 113.339 149.271 113.906C149.894 114.536 150.835 113.574 150.205 112.99ZM145.005 113.229C144.62 113.269 144.422 113.076 144.62 112.718C144.76 112.518 144.949 112.356 145.167 112.247C145.386 112.138 145.628 112.086 145.872 112.095C145.956 112.088 146.04 112.088 146.124 112.095C146.071 112.371 145.935 112.626 145.736 112.824C145.536 113.023 145.281 113.157 145.005 113.209V113.229Z" fill="#E6E7E8"/>
<path d="M41.8934 137.549L41.847 137.496L41.741 137.344L41.5224 137.032C41.3832 136.826 41.2507 136.607 41.1315 136.368C41.0122 136.13 40.8996 135.917 40.7936 135.705C40.7936 135.705 40.681 135.479 40.7936 135.645C40.7936 135.592 40.7472 135.526 40.7207 135.473C40.6942 135.42 40.6346 135.234 40.5949 135.115C40.5719 135.03 40.5325 134.952 40.4791 134.883C40.4257 134.814 40.3593 134.756 40.2836 134.713C40.2079 134.67 40.1245 134.642 40.0381 134.631C39.9517 134.621 39.864 134.627 39.78 134.65C39.696 134.673 39.6174 134.713 39.5486 134.766C39.4798 134.82 39.4223 134.886 39.3792 134.962C39.3361 135.038 39.3084 135.121 39.2976 135.208C39.2868 135.294 39.2931 135.382 39.3163 135.466C39.6934 136.564 40.2583 137.587 40.9857 138.491C41.1099 138.615 41.2778 138.684 41.4528 138.684C41.6278 138.684 41.7957 138.615 41.9199 138.491C41.9825 138.43 42.0323 138.357 42.0664 138.276C42.1005 138.195 42.1183 138.108 42.1186 138.02C42.0991 137.842 42.0196 137.676 41.8934 137.549V137.549Z" fill="#E6E7E8"/>
<path d="M144.296 126.683C144.212 126.66 144.124 126.653 144.038 126.664C143.951 126.675 143.868 126.703 143.792 126.746C143.716 126.789 143.65 126.847 143.597 126.915C143.543 126.984 143.504 127.063 143.481 127.147L143.441 127.24C143.408 127.313 143.375 127.379 143.348 127.446C143.322 127.512 143.209 127.731 143.13 127.87C142.978 128.159 142.812 128.44 142.633 128.713C142.547 128.845 142.454 128.978 142.361 129.104L142.242 129.263C142.211 129.297 142.182 129.333 142.156 129.37C141.944 129.622 141.725 129.867 141.493 130.099C141.424 130.159 141.368 130.232 141.328 130.314C141.288 130.397 141.266 130.486 141.262 130.578C141.259 130.669 141.274 130.76 141.307 130.845C141.341 130.93 141.391 131.008 141.456 131.072C141.52 131.137 141.598 131.187 141.683 131.221C141.768 131.254 141.859 131.27 141.95 131.266C142.041 131.263 142.131 131.24 142.213 131.2C142.295 131.16 142.368 131.104 142.427 131.035C143.439 130.007 144.239 128.79 144.779 127.452C144.812 127.287 144.78 127.115 144.69 126.972C144.6 126.829 144.459 126.725 144.296 126.683Z" fill="#E6E7E8"/>
<path d="M160.209 91.443C160.165 91.3676 160.107 91.3015 160.037 91.2487C159.968 91.1958 159.889 91.1572 159.805 91.135C159.72 91.1128 159.632 91.1075 159.546 91.1194C159.46 91.1312 159.376 91.1601 159.301 91.2042L154.498 94.2625C154.423 94.3064 154.357 94.3647 154.304 94.4342C154.251 94.5037 154.213 94.5829 154.19 94.6673C154.168 94.7518 154.163 94.8397 154.175 94.9262C154.187 95.0127 154.216 95.096 154.26 95.1713C154.303 95.2468 154.362 95.3129 154.431 95.3657C154.5 95.4186 154.58 95.4572 154.664 95.4794C154.748 95.5016 154.836 95.5069 154.922 95.495C155.009 95.4831 155.092 95.4543 155.167 95.4102L159.97 92.3519C160.046 92.308 160.112 92.2496 160.164 92.1802C160.217 92.1107 160.256 92.0315 160.278 91.947C160.3 91.8626 160.305 91.7746 160.294 91.6881C160.282 91.6017 160.253 91.5184 160.209 91.443Z" fill="#E6E7E8"/>
<path d="M162.177 132.481C161.775 132.089 161.276 131.81 160.732 131.672C160.274 131.576 159.842 131.381 159.467 131.101C159.069 130.716 159.228 130.106 159.328 129.628C159.512 129.037 159.533 128.406 159.387 127.804C159.023 126.696 157.85 125.873 156.81 126.696C156.687 126.82 156.618 126.988 156.618 127.164C156.618 127.339 156.687 127.507 156.81 127.631C156.872 127.694 156.945 127.743 157.026 127.777C157.107 127.81 157.193 127.828 157.281 127.828C157.368 127.828 157.455 127.81 157.535 127.777C157.616 127.743 157.689 127.694 157.751 127.631C157.678 127.691 157.705 127.631 157.751 127.698C157.851 127.77 157.935 127.863 157.996 127.97C158.081 128.128 158.133 128.302 158.149 128.481C158.165 128.66 158.145 128.84 158.089 129.011C157.897 130.033 157.678 131.121 158.46 131.957C159.076 132.62 159.97 132.746 160.759 133.071C161.041 133.176 161.276 133.379 161.421 133.642C161.468 133.738 161.505 133.838 161.534 133.94C161.539 133.971 161.539 134.003 161.534 134.033H161.488C161.343 134.125 161.24 134.269 161.2 134.435C161.159 134.601 161.184 134.777 161.269 134.925C161.355 135.073 161.494 135.183 161.658 135.23C161.823 135.278 161.999 135.26 162.15 135.181C163.197 134.584 162.892 133.257 162.177 132.481Z" fill="#E6E7E8"/>
<path d="M61.6421 128.467L62.775 127.286C63.3713 126.676 62.4371 125.734 61.8409 126.351L60.549 127.678C60.0919 128.149 59.6281 128.613 59.8136 129.336C59.8995 129.615 60.0081 129.885 60.1383 130.146C60.2575 130.431 60.3834 130.71 60.5026 130.995C60.7478 131.579 60.9929 132.156 61.2446 132.74C61.2828 132.824 61.3383 132.9 61.4075 132.962C61.4767 133.023 61.5581 133.07 61.6463 133.098C61.7346 133.126 61.8279 133.136 61.92 133.126C62.0122 133.116 62.1012 133.087 62.1813 133.04C62.2615 132.993 62.3309 132.93 62.3853 132.855C62.4396 132.78 62.4775 132.694 62.4966 132.603C62.5157 132.512 62.5156 132.418 62.4962 132.328C62.4768 132.237 62.4387 132.151 62.3841 132.076C61.98 131.114 61.5494 130.159 61.1585 129.184C61.1347 129.132 61.1147 129.079 61.0989 129.025C61.2942 128.853 61.4759 128.667 61.6421 128.467V128.467Z" fill="#E6E7E8"/>
<path d="M53.7054 135.042C53.6801 134.957 53.6319 134.881 53.5663 134.823L53.4338 134.723C53.3315 134.662 53.2148 134.63 53.0959 134.63H52.9237C52.8129 134.657 52.7119 134.715 52.6322 134.796L52.1353 135.3C52.0699 135.357 52.0216 135.43 51.9962 135.513C51.9563 135.591 51.9359 135.677 51.9365 135.765C51.9358 135.854 51.9562 135.943 51.9962 136.023C52.0234 136.105 52.0714 136.178 52.1353 136.236L52.2678 136.342C52.3688 136.399 52.483 136.429 52.599 136.428H52.7779C52.8884 136.397 52.9888 136.337 53.0694 136.256L53.5663 135.758C53.6277 135.696 53.6763 135.623 53.7092 135.542C53.7422 135.461 53.7589 135.374 53.7584 135.287C53.7632 135.202 53.7449 135.117 53.7054 135.042V135.042Z" fill="#E6E7E8"/>
<path d="M47.1931 60.5618C46.9417 60.2353 46.6052 59.9845 46.2206 59.8371C45.8361 59.6896 45.4184 59.6511 45.0135 59.726C45.4839 58.6756 46.1888 57.7473 47.0738 57.0127C47.7363 56.4687 46.789 55.5333 46.1331 56.0773C44.8715 57.1477 43.9408 58.5561 43.45 60.1373C43.4411 60.1755 43.43 60.2131 43.4168 60.2501C43.238 60.3496 43.0657 60.4557 42.9067 60.5618C42.2017 61.0595 41.6262 61.7193 41.2285 62.4858C40.8308 63.2522 40.6225 64.103 40.6211 64.9668C40.6211 65.1427 40.6909 65.3115 40.8151 65.4359C40.9394 65.5603 41.1079 65.6302 41.2836 65.6302C41.4593 65.6302 41.6278 65.5603 41.752 65.4359C41.8763 65.3115 41.9461 65.1427 41.9461 64.9668C41.9378 63.9884 42.2945 63.0421 42.9465 62.3132L43.1386 62.1208C43.1494 62.2513 43.1738 62.3802 43.2115 62.5056C43.3409 62.8697 43.5928 63.1774 43.924 63.3759C44.2552 63.5744 44.6451 63.6514 45.0267 63.5936C45.8379 63.5619 46.61 63.2366 47.1997 62.6781C47.4357 62.3757 47.5634 62.0026 47.5622 61.6188C47.561 61.235 47.431 60.8628 47.1931 60.5618V60.5618ZM46.2126 61.7294C46.1 62.0479 45.2983 62.2004 45.0068 62.2402C44.5232 62.3066 44.3907 62.1142 44.4371 61.6498C44.4371 61.4906 44.4636 61.3314 44.5166 61.1722C44.8615 61.0357 45.2362 60.9923 45.6031 61.0461C45.8813 61.0926 46.3451 61.3646 46.2126 61.7294V61.7294Z" fill="#E6E7E8"/>
<path d="M32.7836 57.6959C32.7449 57.3356 32.6222 56.9894 32.4254 56.6852C32.2286 56.381 31.9633 56.1273 31.6508 55.9446C31.0943 55.5863 30.3258 55.4006 29.9216 54.8831C29.7468 54.663 29.6317 54.4013 29.5876 54.1235C29.5435 53.8457 29.5718 53.5612 29.6699 53.2976C29.7164 53.1278 29.6937 52.9465 29.6068 52.7935C29.5198 52.6404 29.3757 52.5283 29.2061 52.4816C29.0366 52.435 28.8555 52.4578 28.7026 52.5448C28.5498 52.6319 28.4378 52.7762 28.3913 52.946C28.1803 53.6215 28.2141 54.3498 28.4868 55.0027C28.7595 55.6556 29.2535 56.1912 29.8819 56.5151C30.18 56.6743 30.498 56.807 30.7895 56.9728C30.9226 57.043 31.049 57.1251 31.1671 57.2183C31.2058 57.2526 31.2413 57.2904 31.2731 57.3311V57.3311L31.3129 57.3908L31.3725 57.5036C31.3877 57.5405 31.4009 57.5781 31.4123 57.6163C31.4271 57.664 31.4382 57.7128 31.4454 57.7623C31.4454 57.7623 31.4454 57.8618 31.4454 57.8751C31.4475 57.886 31.4475 57.8973 31.4454 57.9082C31.4454 57.9082 31.4454 57.9082 31.4454 57.9082V57.9679C31.2875 58.0226 31.1561 58.1351 31.0774 58.2827C30.9988 58.4303 30.9788 58.6022 31.0214 58.764C31.0444 58.8481 31.0837 58.9269 31.1371 58.9957C31.1905 59.0646 31.257 59.1222 31.3327 59.1654C31.4084 59.2085 31.4918 59.2363 31.5782 59.2471C31.6646 59.2579 31.7523 59.2515 31.8363 59.2284C32.1375 59.1085 32.3922 58.8949 32.5628 58.6189C32.7334 58.3429 32.8108 58.0194 32.7836 57.6959V57.6959Z" fill="#E6E7E8"/>
<path d="M131.987 77.2264C131.596 76.888 130.768 76.563 130.86 75.8996C130.953 75.2362 131.755 74.6723 132.272 74.3273C132.98 73.8629 132.318 72.7086 131.609 73.1863C130.536 73.8961 129.184 75.1035 129.622 76.5563C129.855 77.1542 130.285 77.6548 130.841 77.976C130.966 78.0623 131.417 78.3475 131.41 78.5333C131.41 78.6129 131.218 78.6991 131.139 78.7456C130.132 79.263 128.959 79.5682 128.972 80.9613C129.07 81.6596 129.295 82.334 129.635 82.9515C129.781 83.3097 129.979 83.9665 129.542 84.1722C128.767 84.5238 129.436 85.6648 130.205 85.3132C131.384 84.7759 131.212 83.2434 130.768 82.2616C130.556 81.7972 129.986 80.9348 130.456 80.4969C130.865 80.2148 131.311 79.9915 131.781 79.8335C132.941 79.3094 132.941 78.049 131.987 77.2264Z" fill="#E6E7E8"/>
<path d="M143.66 87.6417C142.844 87.5766 142.036 87.8327 141.406 88.3556C140.776 88.8784 140.375 89.6267 140.288 90.4413C140.288 90.6403 140.288 90.846 140.255 91.045C140.245 91.1827 140.194 91.3143 140.109 91.4231C139.982 91.5603 139.819 91.6591 139.639 91.7084C139.057 91.8507 138.451 91.8643 137.863 91.7482C137.779 91.725 137.691 91.7187 137.605 91.7295C137.519 91.7403 137.435 91.7681 137.359 91.8112C137.284 91.8543 137.217 91.912 137.164 91.9808C137.111 92.0497 137.071 92.1285 137.048 92.2126C137.001 92.3815 137.023 92.5621 137.109 92.715C137.194 92.8679 137.337 92.9806 137.505 93.0285C138.83 93.2541 140.765 93.2939 141.401 91.8079C141.532 91.3778 141.602 90.9309 141.606 90.4811C141.646 90.185 141.765 89.9052 141.951 89.6717C142.148 89.4129 142.41 89.2109 142.71 89.0863C143.01 88.9616 143.338 88.9187 143.66 88.9619C143.836 88.9619 144.004 88.892 144.128 88.7676C144.253 88.6432 144.322 88.4744 144.322 88.2985C144.322 88.1226 144.253 87.9538 144.128 87.8294C144.004 87.705 143.836 87.6351 143.66 87.6351V87.6417Z" fill="#E6E7E8"/>
<path d="M136.253 116.208C136.23 116.124 136.191 116.045 136.137 115.976C136.084 115.907 136.018 115.849 135.942 115.806C135.866 115.763 135.783 115.735 135.696 115.725C135.61 115.714 135.522 115.72 135.438 115.743C134.334 116.016 133.349 116.639 132.629 117.521C132.511 117.65 132.443 117.817 132.437 117.992C132.44 118.168 132.508 118.336 132.629 118.463C132.691 118.525 132.764 118.575 132.845 118.608C132.926 118.642 133.012 118.659 133.1 118.659C133.187 118.659 133.274 118.642 133.355 118.608C133.435 118.575 133.509 118.525 133.57 118.463C133.722 118.268 133.891 118.086 134.074 117.919L134.206 117.8C134.231 117.786 134.253 117.768 134.272 117.747L134.325 117.707L134.392 117.661L134.557 117.548C134.77 117.421 134.991 117.311 135.22 117.216H135.286L135.458 117.15C135.578 117.11 135.7 117.077 135.823 117.05C135.907 117.024 135.984 116.981 136.052 116.924C136.119 116.867 136.174 116.798 136.214 116.719C136.254 116.641 136.279 116.555 136.285 116.467C136.292 116.38 136.281 116.291 136.253 116.208Z" fill="#E6E7E8"/>
<path d="M39.1109 72.0784C38.6923 71.6018 38.1088 71.3019 37.4781 71.2391C36.8474 71.1763 36.2163 71.3553 35.7122 71.7401C35.3106 71.3515 34.835 71.0479 34.3137 70.8473C33.7924 70.6467 33.2361 70.5533 32.678 70.5725C31.9796 70.6125 31.2997 70.8122 30.6905 71.1563C30.0886 70.7189 29.3521 70.5075 28.6102 70.5592C26.7353 70.7317 25.6091 72.5494 25.4633 74.2677C25.3905 75.1234 26.7155 75.1168 26.7883 74.2677C26.8042 73.7521 26.9743 73.2532 27.2767 72.8356C27.5792 72.418 27.9999 72.1011 28.4844 71.9258C28.8935 71.8266 29.3248 71.8809 29.6967 72.0784V72.0784C29.5162 72.375 29.4328 72.7206 29.4582 73.0669C29.4837 73.3954 29.6366 73.7009 29.8843 73.9179C30.132 74.1349 30.4547 74.2462 30.7832 74.2278C31.6047 74.188 31.8962 73.4185 31.7439 72.702C31.7053 72.5208 31.6452 72.3449 31.565 72.1779C31.9315 71.9948 32.3347 71.8973 32.7442 71.8927C33.1989 71.8753 33.6509 71.9696 34.0609 72.1673C34.4708 72.3651 34.8262 72.6602 35.0961 73.0271C35.1548 73.1261 35.2381 73.2081 35.338 73.2651C35.4379 73.322 35.5509 73.352 35.6659 73.352C35.7808 73.352 35.8938 73.322 35.9937 73.2651C36.0936 73.2081 36.177 73.1261 36.2356 73.0271C36.3488 72.8786 36.4946 72.7582 36.6618 72.6753C36.829 72.5925 37.013 72.5494 37.1996 72.5494C37.3861 72.5494 37.5701 72.5925 37.7373 72.6753C37.9045 72.7582 38.0503 72.8786 38.1635 73.0271C38.7067 73.6905 39.6409 72.7418 39.1109 72.0784Z" fill="#E6E7E8"/>
</svg>
