<svg width="164" height="162" viewBox="0 0 164 162" fill="none" xmlns="http://www.w3.org/2000/svg">
<g clip-path="url(#clip0)">
<path d="M37.7323 33.5C37.7323 33.5 26.4152 40.293 24.5681 52.1438C23.292 60.2955 24.5681 99.5 24.5681 99.5H38.001L37.7323 33.5Z" fill="#5094D1"/>
<path d="M41.4266 76.988L40.001 149.295L52.1588 150.126L60.5778 98.5963L71.6395 152L85.001 149.295L74.1746 72L41.4266 76.988Z" fill="#231F20"/>
<path d="M66.0409 147.825C65.9841 147.825 65.9286 147.809 65.8809 147.778C65.8146 147.735 65.7679 147.667 65.7506 147.59L56.3298 101.655L49.1724 145.911C49.1595 145.983 49.1204 146.048 49.0626 146.094C49.0047 146.139 48.9321 146.162 48.8584 146.158L38.146 145.418C38.0695 145.414 37.9978 145.38 37.9458 145.324C37.8939 145.268 37.8658 145.195 37.8675 145.119L39.1236 80.7776C39.1243 80.7089 39.1498 80.6428 39.1954 80.5911C39.2411 80.5394 39.3039 80.5056 39.3725 80.4958L68.2272 76.0572C68.2655 76.0508 68.3046 76.0521 68.3423 76.0612C68.38 76.0703 68.4155 76.0869 68.4464 76.1101C68.4788 76.1337 68.506 76.1635 68.5264 76.1978C68.5468 76.2322 68.5599 76.2702 68.5649 76.3097L78.1101 145.084C78.1206 145.158 78.1019 145.234 78.0578 145.295C78.0137 145.356 77.9476 145.398 77.8731 145.412L66.1001 147.819L66.0409 147.825ZM56.2943 99.7177C56.3626 99.7177 56.4288 99.7411 56.4817 99.7838C56.5346 99.8266 56.5709 99.8862 56.5846 99.9525L66.272 147.185L77.4821 144.896L68.0021 76.6855L39.7102 81.0418L38.4659 144.86L48.6273 145.559L56.0039 99.9702C56.0149 99.9027 56.0494 99.8411 56.1013 99.7961C56.1532 99.7511 56.2194 99.7254 56.2883 99.7236L56.2943 99.7177Z" fill="#231F20"/>
<path d="M161.48 0H79.5217C78.1295 0 77.001 1.10632 77.001 2.47104V51.5289C77.001 52.8937 78.1295 54 79.5217 54H161.48C162.872 54 164.001 52.8937 164.001 51.5289V2.47104C164.001 1.10632 162.872 0 161.48 0Z" fill="white"/>
<path d="M161.174 54H79.8277C79.078 54 78.359 53.7095 77.8289 53.1923C77.2988 52.6752 77.001 51.9738 77.001 51.2424V2.75756C77.001 2.02621 77.2988 1.32482 77.8289 0.807672C78.359 0.290529 79.078 0 79.8277 0H161.174C161.924 0 162.643 0.290529 163.173 0.807672C163.703 1.32482 164.001 2.02621 164.001 2.75756V51.2149C164.005 51.5793 163.934 51.9409 163.794 52.2786C163.653 52.6164 163.446 52.9236 163.183 53.1826C162.92 53.4416 162.607 53.6472 162.262 53.7875C161.918 53.9278 161.548 54 161.174 54V54ZM79.8277 0.66871C79.2654 0.66871 78.7262 0.886605 78.3286 1.27446C77.931 1.66232 77.7077 2.18837 77.7077 2.73688V51.2149C77.7077 51.7634 77.931 52.2894 78.3286 52.6773C78.7262 53.0651 79.2654 53.283 79.8277 53.283H161.174C161.736 53.283 162.276 53.0651 162.673 52.6773C163.071 52.2894 163.294 51.7634 163.294 51.2149V2.75756C163.294 2.20905 163.071 1.683 162.673 1.29515C162.276 0.907288 161.736 0.689391 161.174 0.689391L79.8277 0.66871Z" fill="#D1D3D4"/>
<path d="M158.649 51H82.3527C82.2594 51 82.17 50.9636 82.104 50.8988C82.038 50.8341 82.001 50.7462 82.001 50.6546V5.3454C82.001 5.25379 82.038 5.16594 82.104 5.10117C82.17 5.03639 82.2594 5 82.3527 5H158.649C158.743 5 158.832 5.03639 158.898 5.10117C158.964 5.16594 159.001 5.25379 159.001 5.3454V50.6546C159.001 50.7462 158.964 50.8341 158.898 50.8988C158.832 50.9636 158.743 51 158.649 51ZM82.6763 50.3092H158.298V5.69079H82.7185L82.6763 50.3092Z" fill="#D1D3D4"/>
<path d="M107.968 15.1793L120.814 27.7321C120.878 27.8034 120.957 27.8597 121.046 27.8967C121.135 27.9338 121.231 27.9506 121.328 27.9459H141.001C140.908 30.937 140.08 33.862 138.589 36.4733C137.097 39.0845 134.985 41.3051 132.432 42.9469C129.879 44.5888 126.96 45.6035 123.921 45.9051C120.883 46.2068 117.815 45.7865 114.978 44.6799C112.14 43.5733 109.617 41.813 107.621 39.548C105.625 37.283 104.216 34.58 103.512 31.6681C102.809 28.7561 102.832 25.7209 103.579 22.8194C104.327 19.918 105.777 17.2358 107.807 15L107.968 15.1793Z" fill="#5094D1"/>
<path d="M122.001 9V27H122.198L140.611 26.9585C141.013 26.9585 141.02 26.9585 140.991 26.5638C140.758 23.1372 139.54 19.8363 137.468 17.0185C135.396 14.2008 132.55 11.9737 129.237 10.5785C127.215 9.74305 125.062 9.22624 122.863 9.04846L122.001 9Z" fill="#D1D3D4"/>
<path d="M121.001 26V9C118.976 9.10166 116.979 9.51748 115.085 10.2323C112.819 11.1193 110.752 12.4384 109.001 14.1146L121.001 26Z" fill="#D1D3D4"/>
<path d="M46.5526 19C45.894 16.5767 45.3961 14.1127 45.0622 11.624C44.8434 9.12436 45.1784 6.47447 46.6004 4.40509C47.1395 3.54491 47.9502 2.88882 48.9044 2.5406C49.6722 2.4351 50.454 2.50993 51.1878 2.75915C51.884 2.24895 52.6075 1.77701 53.355 1.34542C54.9876 0.617742 56.7388 0.191965 58.5235 0.0887686C61.0394 -0.150268 63.9518 -0.0205048 65.5516 1.93277C66.7275 3.36699 66.8301 5.34758 66.8779 7.22573L67.001 11.9723" fill="white"/>
<path d="M46.8512 19C46.773 19 46.6972 18.9731 46.6367 18.924C46.5762 18.8748 46.5347 18.8064 46.5194 18.7304C46.38 18.1123 46.2274 17.5007 46.0747 16.8891C45.6045 15.1497 45.2651 13.3781 45.0593 11.589C44.8867 9.6162 45.0128 6.72938 46.6189 4.41466C47.0274 3.59541 47.7322 2.95855 48.593 2.63077C49.4539 2.303 50.4077 2.30834 51.2648 2.64575C51.9037 2.17159 52.5684 1.73254 53.2559 1.33057C54.8793 0.615057 56.6192 0.194101 58.3928 0.0877229C61.8573 -0.247648 64.1869 0.377062 65.5142 1.98816C66.8416 3.59925 66.8416 5.69696 66.8748 7.28175L67.0009 11.8849C67.0027 11.9745 66.969 12.0612 66.9069 12.1264C66.8448 12.1915 66.7594 12.23 66.6691 12.2334C66.6236 12.2371 66.5779 12.2313 66.5348 12.2163C66.4918 12.2014 66.4524 12.1777 66.4193 12.1466C66.3861 12.1156 66.3599 12.0781 66.3423 12.0364C66.3247 11.9947 66.3162 11.9498 66.3173 11.9046L66.1912 7.30148C66.1447 5.36817 66.0186 3.66501 64.9833 2.41559C63.8152 0.995196 61.6648 0.442822 58.4592 0.765041C56.7786 0.873525 55.131 1.27884 53.5943 1.96185C52.8853 2.36346 52.1985 2.80248 51.5369 3.27703C51.4936 3.30865 51.4432 3.32936 51.39 3.33738C51.3368 3.3454 51.2824 3.34049 51.2316 3.32306C50.5933 3.10114 49.9112 3.03131 49.2405 3.11921C48.3922 3.43407 47.6716 4.01628 47.1897 4.77634C45.6964 6.92666 45.5836 9.62277 45.7495 11.5101C45.9501 13.2644 46.2852 15.001 46.7517 16.705C46.8977 17.3231 47.0503 17.9413 47.1897 18.566C47.2004 18.6092 47.2022 18.6542 47.1948 18.6981C47.1875 18.742 47.1712 18.784 47.147 18.8215C47.1228 18.859 47.0912 18.8913 47.054 18.9163C47.0169 18.9413 46.975 18.9586 46.9309 18.9671L46.8512 19Z" fill="#231F20"/>
<path d="M76.001 83.5173C73.3239 71.08 68.097 33.7284 66.9057 33.1931C64.0078 31.8714 48.6884 30.4109 45.2217 36.233C44.1442 38.057 47.2897 76.4197 48.6751 87L76.001 83.5173Z" fill="#231F20"/>
<path d="M61.167 38.6087L59.1681 43.1754L64.001 70.3365L60.5714 76L55.0061 72.0315L56.9571 42.956L52.001 37L61.167 38.6087Z" fill="white"/>
<path d="M60.4059 76.9999C60.3336 77.0014 60.2629 76.9778 60.205 76.9329L54.9364 72.9128C54.8912 72.8782 54.8551 72.8325 54.8313 72.7799C54.8076 72.7272 54.7969 72.6693 54.8003 72.6113L56.6667 43.4584L52.0591 37.5621C52.0212 37.5037 52.001 37.4349 52.001 37.3645C52.001 37.2941 52.0212 37.2253 52.0591 37.1668C52.0948 37.1065 52.1473 37.0588 52.2098 37.03C52.2723 37.0013 52.3418 36.9929 52.409 37.006L61.0799 38.6275C61.1298 38.6367 61.1768 38.6578 61.2173 38.6893C61.2579 38.7207 61.2907 38.7615 61.3132 38.8084C61.3354 38.8541 61.347 38.9046 61.347 38.9558C61.347 39.007 61.3354 39.0575 61.3132 39.1032L59.4598 43.6125L64.501 70.5C64.5149 70.5813 65.0512 70.3695 64.501 71L60.7105 76.8324C60.6871 76.874 60.6553 76.9099 60.6173 76.9377C60.5793 76.9654 60.5359 76.9844 60.4902 76.9932L60.4059 76.9999ZM55.4808 72.4906L60.3022 76.149L63.501 71L58.7664 43.6259C58.7471 43.5649 58.7471 43.4992 58.7664 43.4383L60.4967 39.264L53.1219 37.8838L57.2435 43.1636C57.2955 43.2319 57.321 43.318 57.3148 43.4048L55.4808 72.4906Z" fill="#231F20"/>
<path d="M54.8618 91.6473L49.4888 34.0568L64.2644 33.5443L66.9508 91.6473L81.001 90.2563C78.8317 71.2879 77.0989 36.2265 75.2855 34.2698C68.4686 26.9487 50.9932 29.3912 50.9932 29.3912C50.9932 29.3912 38.4139 29.9902 34.4245 37.2914C33.4238 39.1217 34.4917 88.0932 34.6327 96L54.8618 91.6473Z" fill="#5094D1"/>
<path d="M36.501 93.9999C36.3701 93.9999 36.2443 93.9646 36.1509 93.9016C36.0574 93.8386 36.0036 93.7528 36.0011 93.6628C36.0011 93.167 36.0011 44.0844 36.0011 43.344C35.9998 43.2992 36.0115 43.2546 36.0356 43.213C36.0597 43.1713 36.0956 43.1333 36.1412 43.1013C36.1869 43.0693 36.2414 43.0439 36.3015 43.0265C36.3616 43.0092 36.4262 43.0003 36.4914 43.0003C36.5566 42.9985 36.6216 43.0057 36.6827 43.0214C36.7438 43.0372 36.7998 43.0611 36.8472 43.0919C36.8947 43.1227 36.9327 43.1597 36.9591 43.2007C36.9855 43.2417 36.9997 43.2859 37.001 43.3308C37.001 44.0447 37.001 91.6334 37.001 93.6628C37.001 93.7076 36.988 93.752 36.9628 93.7934C36.9375 93.8347 36.9005 93.8722 36.854 93.9036C36.8074 93.9349 36.7522 93.9596 36.6916 93.9762C36.631 93.9927 36.5662 94.0008 36.501 93.9999V93.9999Z" fill="#231F20"/>
<path d="M34.3017 95.9872C34.2247 95.9764 34.1536 95.9419 34.0996 95.8889C34.0455 95.8359 34.0116 95.7674 34.0031 95.6943C33.9946 95.6211 34.0119 95.5473 34.0525 95.4845C34.093 95.4217 34.1545 95.3733 34.2272 95.347L54.2624 91.1985L53.8696 81.3457C53.8676 81.2589 53.9009 81.1746 53.9626 81.1103C54.0244 81.046 54.1099 81.0065 54.2015 81C54.294 80.9998 54.3831 81.0326 54.451 81.092C54.5188 81.1514 54.5604 81.2329 54.5672 81.3201L55.0007 91.4738C55.0039 91.5514 54.9777 91.6276 54.9268 91.6886C54.8759 91.7496 54.8036 91.7915 54.723 91.8067L34.4033 96L34.3017 95.9872Z" fill="#231F20"/>
<path d="M63.0103 29.3561L63.8453 34.5741C63.8453 34.5741 62.9962 42.1737 57.0529 40.8438C51.1095 39.5139 48.7588 34.3298 48.7588 34.3298L48.001 20.5351C48.001 20.5351 52.3725 18.2281 50.9902 9C55.8614 10.9793 61.1956 11.6475 66.4275 10.9338C66.4275 10.9338 68.5326 20.4334 67.873 24.8642C67.7679 26.0574 67.2157 27.1724 66.3203 27.9996C65.4248 28.8268 64.2477 29.3092 63.0103 29.3561V29.3561Z" fill="white"/>
<path d="M58.388 41.099C57.9316 41.0952 57.4772 41.0416 57.0329 40.9395C55.2517 40.4989 53.59 39.6824 52.1635 38.547C50.7371 37.4116 49.5803 35.9845 48.7737 34.3654C48.7674 34.3257 48.7674 34.2853 48.7737 34.2457L48.0013 20.7451C47.9983 20.6805 48.0139 20.6163 48.0462 20.5599C48.0786 20.5035 48.1264 20.4571 48.1843 20.4261C48.2249 20.4261 52.1682 18.1328 50.8944 9.49134C50.8844 9.42941 50.8924 9.36596 50.9176 9.30833C50.9428 9.25069 50.9841 9.20122 51.0367 9.16563C51.0882 9.1295 51.1486 9.1074 51.2117 9.10156C51.2748 9.09573 51.3383 9.10636 51.3958 9.13239C56.037 11.0207 61.1081 11.6586 66.0847 10.9803C66.1721 10.9697 66.2603 10.9909 66.3328 11.0399C66.4052 11.0889 66.4568 11.1624 66.4777 11.2462C66.559 11.6318 68.5103 20.6521 67.8734 25.0193C67.7676 26.1974 67.2508 27.3036 66.4103 28.1513C65.5697 28.9989 64.4568 29.5362 63.2594 29.6724L64.0047 34.4252C64.0115 34.4558 64.0115 34.4876 64.0047 34.5182C64.0047 34.6778 63.5304 38.5664 61.0371 40.3014C60.2641 40.8391 59.3354 41.1188 58.388 41.099V41.099ZM49.4309 34.146C49.6952 34.6844 51.9988 39.0916 57.1752 40.2748C57.7568 40.4365 58.3675 40.4716 58.9644 40.3774C59.5613 40.2833 60.13 40.0622 60.6306 39.7297C62.7377 38.2606 63.2459 34.8905 63.3001 34.4717L62.5006 29.3866C62.4941 29.3381 62.498 29.2888 62.512 29.2419C62.526 29.195 62.5498 29.1514 62.5819 29.114C62.615 29.0771 62.6556 29.0474 62.7011 29.0268C62.7466 29.0062 62.796 28.9951 62.8461 28.9944C63.9531 28.952 65.0055 28.5122 65.8037 27.7586C66.6019 27.0049 67.0901 25.9899 67.1756 24.9063C67.7379 21.1041 66.1932 13.3335 65.8205 11.6916C61.0212 12.264 56.152 11.6729 51.6397 9.96994C52.6018 17.6608 49.5123 20.3131 48.6857 20.8781L49.4309 34.146Z" fill="#231F20"/>
<path d="M59.9626 17C59.9626 17 62.6525 21.9279 61.8523 22.6701C61.052 23.4123 59.001 22.6701 59.001 22.6701" fill="white"/>
<path d="M60.6845 22.9965C60.1723 22.9786 59.6655 22.8579 59.183 22.639C59.1142 22.6073 59.0581 22.5423 59.0271 22.4582C58.996 22.374 58.9925 22.2777 59.0174 22.1903C59.0291 22.1465 59.0477 22.1061 59.0719 22.0716C59.0962 22.0371 59.1258 22.0092 59.1588 21.9896C59.1918 21.97 59.2275 21.959 59.264 21.9573C59.3004 21.9557 59.3367 21.9634 59.3707 21.98C59.7626 22.1553 60.9826 22.5478 61.4298 22.0361C61.6948 21.7207 60.9274 19.085 59.8289 16.5194C59.8106 16.4792 59.799 16.4347 59.7947 16.3885C59.7904 16.3424 59.7935 16.2957 59.8038 16.2511C59.8141 16.2066 59.8314 16.1651 59.8547 16.1293C59.878 16.0935 59.9068 16.0641 59.9393 16.0428C59.9708 16.0207 60.0054 16.0068 60.0411 16.002C60.0768 15.9971 60.113 16.0013 60.1474 16.0144C60.1818 16.0274 60.2139 16.049 60.2416 16.078C60.2694 16.1069 60.2924 16.1426 60.3092 16.183C61.0102 17.8092 62.5504 21.6856 61.7997 22.5548C61.4825 22.8691 61.0862 23.0261 60.6845 22.9965V22.9965Z" fill="#231F20"/>
<path d="M55.1473 17.013C55.4547 17.0002 55.6799 16.4245 55.6503 15.7272C55.6207 15.0298 55.3474 14.475 55.04 14.4878C54.7326 14.5006 54.5074 15.0763 54.537 15.7736C54.5666 16.4709 54.8399 17.0258 55.1473 17.013Z" fill="#231F20"/>
<path d="M64.0594 17.0141C64.3668 17.0013 64.592 16.4256 64.5624 15.7283C64.5328 15.0309 64.2596 14.4761 63.9521 14.4889C63.6447 14.5017 63.4195 15.0774 63.4491 15.7747C63.4788 16.472 63.752 17.0269 64.0594 17.0141Z" fill="#231F20"/>
<path d="M52.001 18.0357C51.4952 17.1237 50.8263 16.3232 50.0311 15.6786C49.6176 15.2987 49.103 15.0618 48.5572 15C48.1091 15.0024 47.671 15.1386 47.2938 15.3929C46.7271 15.7409 46.2369 16.211 45.8552 16.7723C45.4736 17.3337 45.2092 17.9736 45.0794 18.65C44.9554 19.2774 44.9787 19.9271 45.1473 20.5429C45.4718 21.4968 46.1071 22.299 46.9405 22.8071C47.7653 23.3102 48.6429 23.7105 49.5557 24" fill="white"/>
<path d="M49.5068 23.9952C49.4719 24.0016 49.4363 24.0016 49.4014 23.9952C48.5357 23.7205 47.7031 23.339 46.9204 22.8584C46.0983 22.343 45.4725 21.5358 45.1528 20.5782C44.9769 19.9537 44.9534 19.2918 45.0845 18.6549C45.212 17.9818 45.4712 17.3449 45.8452 16.7857C46.2193 16.2265 46.6998 15.7577 47.2554 15.4098C47.6525 15.142 48.1128 14.9999 48.5827 15C49.1458 15.0647 49.6776 15.3088 50.1085 15.7006C50.8593 16.3275 51.4908 17.1014 51.9692 17.9808C52.0041 18.0582 52.0105 18.1466 51.9872 18.2288C51.964 18.311 51.9127 18.3809 51.8435 18.4249C51.7743 18.4688 51.6921 18.4835 51.6132 18.4662C51.5343 18.4488 51.4644 18.4006 51.4172 18.3311C50.9835 17.522 50.4088 16.8086 49.7239 16.2293C49.3967 15.926 48.9937 15.7308 48.5641 15.6675C48.2163 15.6756 47.8773 15.7853 47.5841 15.9848C47.108 16.285 46.6963 16.6883 46.3758 17.1688C46.0553 17.6492 45.833 18.1961 45.7234 18.7739C45.6172 19.2989 45.6343 19.8438 45.773 20.3601C46.0494 21.1636 46.5802 21.8391 47.274 22.2702C48.0085 22.7186 48.7889 23.0757 49.5999 23.3343C49.6803 23.3643 49.7464 23.427 49.7836 23.5087C49.8208 23.5905 49.8261 23.6846 49.7983 23.7705C49.7755 23.8341 49.7358 23.8892 49.684 23.9291C49.6322 23.969 49.5707 23.992 49.5068 23.9952V23.9952Z" fill="#231F20"/>
<path d="M63.2178 29.4781C59.7163 29.9337 56.1371 29.4159 53.001 28C53.001 28 58.1956 34.877 64.001 33.9061L63.2178 29.4781Z" fill="#231F20"/>
<path d="M62.6126 35C57.4941 35 53.2601 28.786 53.0711 28.5051C53.0256 28.4479 53.001 28.3779 53.001 28.3058C53.001 28.2337 53.0256 28.1636 53.0711 28.1065C53.1216 28.0538 53.1883 28.0184 53.2613 28.0055C53.3343 27.9925 53.4097 28.0027 53.4762 28.0346C56.3596 29.4692 59.6346 29.9947 62.8421 29.5375C62.9327 29.5199 63.0269 29.5362 63.1055 29.5832C63.1434 29.6091 63.1755 29.6421 63.1998 29.6803C63.2242 29.7184 63.2403 29.761 63.2473 29.8054L63.9968 34.523C64.0105 34.6061 63.9899 34.6911 63.9393 34.7596C63.8888 34.828 63.8124 34.8745 63.7267 34.8889C63.3602 34.9626 62.9869 34.9998 62.6126 35ZM54.3946 29.1193C55.9004 30.988 59.4118 34.3545 63.2473 33.871L62.6328 30.2105C59.8377 30.5637 56.9958 30.1963 54.3946 29.1454V29.1193Z" fill="#231F20"/>
<path d="M60.001 27C60.5533 27 61.001 26.3284 61.001 25.5C61.001 24.6716 60.5533 24 60.001 24C59.4487 24 59.001 24.6716 59.001 25.5C59.001 26.3284 59.4487 27 60.001 27Z" fill="#231F20"/>
<path d="M55.501 20C54.611 20 53.7409 19.7361 53.0009 19.2416C52.2609 18.7471 51.6841 18.0443 51.3435 17.2221C51.0029 16.3998 50.9138 15.495 51.0874 14.6221C51.2611 13.7492 51.6897 12.9474 52.319 12.318C52.9483 11.6887 53.7502 11.2601 54.6231 11.0865C55.496 10.9128 56.4008 11.0019 57.2231 11.3425C58.0453 11.6831 58.7481 12.2599 59.2426 12.9999C59.7371 13.74 60.001 14.61 60.001 15.5C59.9992 16.6929 59.5245 17.8365 58.681 18.68C57.8375 19.5236 56.6939 19.9982 55.501 20V20ZM55.501 11.6887C54.7472 11.6887 54.0103 11.9122 53.3835 12.331C52.7568 12.7498 52.2683 13.3451 51.9798 14.0415C51.6913 14.7379 51.6159 15.5042 51.7629 16.2435C51.91 16.9829 52.273 17.662 52.806 18.195C53.339 18.728 54.0181 19.091 54.7574 19.2381C55.4968 19.3851 56.2631 19.3096 56.9595 19.0212C57.6559 18.7327 58.2512 18.2442 58.6699 17.6174C59.0887 16.9907 59.3123 16.2538 59.3123 15.5C59.3052 14.4932 58.9008 13.53 58.187 12.8199C57.4732 12.1099 56.5078 11.7105 55.501 11.7088V11.6887Z" fill="#231F20"/>
<path d="M64.501 20C63.611 20 62.7409 19.7361 62.0009 19.2416C61.2609 18.7471 60.6841 18.0443 60.3435 17.2221C60.0029 16.3998 59.9138 15.495 60.0874 14.6221C60.2611 13.7492 60.6897 12.9474 61.319 12.318C61.9483 11.6887 62.7502 11.2601 63.6231 11.0865C64.496 10.9128 65.4008 11.0019 66.2231 11.3425C67.0453 11.6831 67.7481 12.2599 68.2426 12.9999C68.7371 13.74 69.001 14.61 69.001 15.5C68.9992 16.6929 68.5245 17.8365 67.681 18.68C66.8375 19.5236 65.6939 19.9982 64.501 20V20ZM64.501 11.6887C63.7472 11.6887 63.0103 11.9122 62.3835 12.331C61.7568 12.7498 61.2683 13.3451 60.9798 14.0415C60.6913 14.7379 60.6159 15.5042 60.7629 16.2435C60.91 16.9829 61.273 17.662 61.806 18.195C62.339 18.728 63.0181 19.091 63.7574 19.2381C64.4967 19.3851 65.2631 19.3096 65.9595 19.0212C66.6559 18.7327 67.2512 18.2442 67.6699 17.6174C68.0887 16.9907 68.3123 16.2538 68.3123 15.5C68.307 14.4927 67.9031 13.5284 67.1889 12.818C66.4747 12.1075 65.5083 11.7088 64.501 11.7088V11.6887Z" fill="#231F20"/>
<path d="M110.002 42.1946C109.948 41.5603 113.09 39.6505 113.597 39.1174C115.4 37.1873 117.22 35.2528 119.059 33.3138C119.543 32.6626 120.246 32.2075 121.039 32.0316C121.185 32.0091 121.335 32.0352 121.465 32.1058C121.843 32.3285 121.695 32.9021 121.465 33.2935C120.668 34.8348 119.765 36.3185 118.761 37.734C121.465 35.8714 124.207 34.0876 126.987 32.3825C127.419 32.1193 127.967 31.8494 128.413 32.0991C128.548 32.1945 128.662 32.3159 128.749 32.4561C128.836 32.5964 128.894 32.7526 128.92 32.9156C129.15 34.2932 128.887 35.7077 128.176 36.9107C126.209 40.791 122.675 43.5376 119.119 45.886C117.396 47.0197 115.916 48.3221 114.246 49.5368C113.915 49.7798 110.833 51.6153 110.867 52L110.002 42.1946Z" fill="white"/>
<path d="M110.256 51.9674C110.169 51.9648 110.087 51.9323 110.023 51.876C109.959 51.8197 109.918 51.7432 109.909 51.6606V51.6606L109.738 49.8526C109.473 47.1048 109.003 42.1901 109.003 42.1705C108.955 41.6222 109.793 40.9826 111.584 39.7555C111.977 39.5017 112.354 39.2271 112.715 38.9331L116.345 35.2324L118.259 33.32C118.811 32.6465 119.596 32.1837 120.472 32.0146C120.706 31.9758 120.946 32.0149 121.153 32.1256C121.63 32.3997 121.691 33.0132 121.31 33.7181C120.785 34.6972 120.206 35.6762 119.593 36.59C121.821 35.141 124.095 33.7377 126.404 32.3997C126.649 32.2036 126.945 32.0742 127.26 32.0248C127.575 31.9755 127.898 32.008 128.195 32.119C128.376 32.2319 128.529 32.3796 128.647 32.5527C128.764 32.7258 128.842 32.9204 128.876 33.1242C129.183 34.3056 128.924 35.6436 128.1 37.2166C126.057 41.1327 122.27 43.8609 118.851 46.0279C117.816 46.6806 116.808 47.4181 115.895 48.1295C115.262 48.606 114.628 49.0825 113.961 49.5524L113.382 49.9114C112.422 50.4405 111.51 51.0476 110.658 51.7259C110.642 51.7994 110.601 51.8659 110.542 51.9153C110.483 51.9648 110.409 51.9945 110.331 52L110.256 51.9674ZM109.704 42.1378C109.738 42.4968 110.188 47.157 110.44 49.7939C110.481 50.2508 110.515 50.5902 110.535 50.8513C110.978 50.5184 111.707 50.0419 112.912 49.3109C113.185 49.1477 113.382 49.0237 113.457 48.9715C114.138 48.5081 114.744 48.0382 115.378 47.5617C116.331 46.8503 117.312 46.1062 118.381 45.4339C121.718 43.3127 125.396 40.6432 127.385 36.8772C128.068 35.7908 128.325 34.5061 128.107 33.2547C128.093 33.1404 128.055 33.0299 127.995 32.9301C127.936 32.8302 127.855 32.743 127.759 32.6738C127.473 32.5172 127.031 32.7326 126.677 32.9414C123.884 34.5732 121.105 36.3158 118.415 38.1042C118.348 38.1514 118.266 38.1735 118.183 38.1663C118.1 38.159 118.023 38.123 117.966 38.0651C117.906 38.0097 117.87 37.9359 117.862 37.8569C117.855 37.7779 117.877 37.699 117.925 37.6343C118.936 36.2785 119.846 34.8565 120.649 33.3787C120.826 33.0589 120.867 32.726 120.751 32.6738C120.68 32.6519 120.604 32.6519 120.533 32.6738C119.824 32.837 119.198 33.2374 118.769 33.803L116.89 35.7219L113.225 39.4096C112.837 39.7386 112.425 40.0418 111.993 40.3168C111.291 40.7933 109.827 41.7919 109.704 42.1378Z" fill="#231F20"/>
<path d="M100.628 12H88.3739C88.275 12 88.1801 11.9473 88.1102 11.8536C88.0403 11.7598 88.001 11.6326 88.001 11.5C88.001 11.3674 88.0403 11.2402 88.1102 11.1464C88.1801 11.0527 88.275 11 88.3739 11H100.628C100.727 11 100.822 11.0527 100.892 11.1464C100.962 11.2402 101.001 11.3674 101.001 11.5C101.001 11.6326 100.962 11.7598 100.892 11.8536C100.822 11.9473 100.727 12 100.628 12Z" fill="#D1D3D4"/>
<path d="M100.628 9H88.3739C88.275 9 88.1801 8.94732 88.1102 8.85355C88.0403 8.75979 88.001 8.63261 88.001 8.5C88.001 8.36739 88.0403 8.24021 88.1102 8.14645C88.1801 8.05268 88.275 8 88.3739 8H100.628C100.727 8 100.822 8.05268 100.892 8.14645C100.962 8.24021 101.001 8.36739 101.001 8.5C101.001 8.63261 100.962 8.75979 100.892 8.85355C100.822 8.94732 100.727 9 100.628 9Z" fill="#D1D3D4"/>
<path d="M152.628 45H140.374C140.275 45 140.18 44.9473 140.11 44.8536C140.04 44.7598 140.001 44.6326 140.001 44.5C140.001 44.3674 140.04 44.2402 140.11 44.1464C140.18 44.0527 140.275 44 140.374 44H152.628C152.727 44 152.822 44.0527 152.892 44.1464C152.962 44.2402 153.001 44.3674 153.001 44.5C153.001 44.6326 152.962 44.7598 152.892 44.8536C152.822 44.9473 152.727 45 152.628 45Z" fill="#D1D3D4"/>
<path d="M152.628 42H140.374C140.275 42 140.18 41.9473 140.11 41.8536C140.04 41.7598 140.001 41.6326 140.001 41.5C140.001 41.3674 140.04 41.2402 140.11 41.1464C140.18 41.0527 140.275 41 140.374 41H152.628C152.727 41 152.822 41.0527 152.892 41.1464C152.962 41.2402 153.001 41.3674 153.001 41.5C153.001 41.6326 152.962 41.7598 152.892 41.8536C152.822 41.9473 152.727 42 152.628 42Z" fill="#D1D3D4"/>
<path d="M96.6416 15H88.3604C88.2651 15 88.1737 14.9473 88.1063 14.8536C88.0388 14.7598 88.001 14.6326 88.001 14.5C88.0028 14.3682 88.0413 14.2425 88.1083 14.1493C88.1753 14.0561 88.2657 14.0026 88.3604 14H96.6416C96.7369 14 96.8283 14.0527 96.8957 14.1464C96.9631 14.2402 97.001 14.3674 97.001 14.5C97.001 14.6326 96.9631 14.7598 96.8957 14.8536C96.8283 14.9473 96.7369 15 96.6416 15Z" fill="#D1D3D4"/>
<path d="M138.735 108.976C139.398 104.867 146.242 103.88 145.904 108.7C145.85 110.373 145.204 111.973 144.079 113.221C143.506 113.829 142.764 114.255 141.946 114.444C141.129 114.633 140.273 114.578 139.487 114.284" fill="white"/>
<path d="M140.915 114.877C140.381 114.882 139.851 114.774 139.363 114.56C139.326 114.544 139.293 114.52 139.265 114.492C139.238 114.463 139.216 114.429 139.202 114.392C139.188 114.355 139.181 114.315 139.182 114.276C139.183 114.236 139.192 114.197 139.209 114.161C139.225 114.124 139.248 114.092 139.277 114.064C139.306 114.037 139.341 114.016 139.378 114.002C139.415 113.987 139.455 113.981 139.495 113.982C139.535 113.983 139.575 113.992 139.611 114.008C140.339 114.281 141.133 114.331 141.89 114.153C142.647 113.976 143.333 113.577 143.86 113.01C144.932 111.811 145.546 110.278 145.596 108.677C145.762 106.329 144.15 105.882 143.451 105.806C142.445 105.711 141.438 105.986 140.624 106.58C139.81 107.173 139.245 108.043 139.037 109.023C139.031 109.063 139.017 109.101 138.996 109.134C138.976 109.168 138.948 109.198 138.915 109.221C138.883 109.244 138.845 109.26 138.806 109.269C138.767 109.277 138.727 109.278 138.687 109.27C138.607 109.257 138.536 109.213 138.488 109.149C138.44 109.084 138.42 109.003 138.432 108.924C138.66 107.786 139.307 106.774 140.249 106.085C141.191 105.396 142.358 105.081 143.522 105.201C144.926 105.36 146.372 106.376 146.206 108.724C146.144 110.462 145.469 112.124 144.298 113.421C143.409 114.331 142.193 114.854 140.915 114.877V114.877Z" fill="#231F20"/>
<path d="M121.682 108.976C121.018 104.867 114.175 103.88 114.513 108.7C114.567 110.373 115.213 111.973 116.338 113.221C116.911 113.829 117.653 114.255 118.471 114.444C119.288 114.633 120.144 114.578 120.93 114.284" fill="white"/>
<path d="M119.502 114.877C118.226 114.857 117.01 114.338 116.119 113.433C114.948 112.136 114.273 110.474 114.211 108.736C114.045 106.387 115.485 105.377 116.895 105.213C118.059 105.094 119.225 105.41 120.167 106.098C121.108 106.787 121.756 107.798 121.985 108.935C121.997 109.015 121.977 109.095 121.929 109.16C121.881 109.225 121.81 109.269 121.73 109.282C121.691 109.289 121.65 109.289 121.611 109.28C121.572 109.272 121.534 109.256 121.502 109.233C121.469 109.21 121.441 109.18 121.421 109.146C121.4 109.112 121.386 109.074 121.38 109.035C121.172 108.054 120.606 107.183 119.791 106.59C118.975 105.996 117.967 105.721 116.96 105.818C116.261 105.894 114.65 106.334 114.815 108.689C114.866 110.289 115.483 111.82 116.557 113.016C117.083 113.585 117.769 113.985 118.526 114.164C119.283 114.343 120.077 114.292 120.806 114.02C120.879 113.987 120.963 113.985 121.039 114.013C121.115 114.042 121.176 114.099 121.209 114.172C121.242 114.246 121.244 114.329 121.215 114.404C121.186 114.478 121.128 114.539 121.054 114.572C120.565 114.781 120.036 114.885 119.502 114.877V114.877Z" fill="#231F20"/>
<path d="M141.377 109.276L140.192 97.2636C140.192 97.2636 136.904 93.2595 130.191 93.2595C123.478 93.2595 120.189 97.2636 120.189 97.2636L119.686 107.873C119.686 113.104 121.043 116.245 123.099 118.035L122.571 129.39C122.571 129.39 124.426 133.388 129.829 133.388C131.336 133.43 132.828 133.083 134.16 132.382C135.491 131.682 136.616 130.651 137.425 129.39L136.951 119.11C139.061 117.889 140.601 115.2 141.377 109.276Z" fill="white"/>
<path d="M130.209 93.2595C136.922 93.2595 140.21 97.2636 140.21 97.2636L141.395 109.276C140.619 115.2 139.079 117.889 136.987 119.11L137.461 129.39C136.652 130.651 135.527 131.682 134.196 132.382C132.864 133.083 131.372 133.43 129.865 133.388C124.462 133.388 122.607 129.39 122.607 129.39L123.134 118.035C121.078 116.274 119.722 113.104 119.722 107.873L120.225 97.2636C120.225 97.2636 123.508 93.2595 130.227 93.2595H130.209ZM130.227 92.6724C123.3 92.6724 119.893 96.7352 119.751 96.9055C119.667 97.0064 119.619 97.1325 119.615 97.2636L119.111 107.867C119.111 112.693 120.255 116.198 122.506 118.311L121.997 129.39C121.996 129.485 122.016 129.58 122.056 129.666C122.139 129.848 124.136 134.017 129.865 134.017C131.482 134.065 133.083 133.692 134.51 132.936C135.936 132.18 137.138 131.067 137.994 129.707C138.049 129.608 138.076 129.497 138.071 129.384L137.603 119.433C139.926 117.883 141.283 114.736 141.988 109.352C141.991 109.307 141.991 109.262 141.988 109.217L140.803 97.2108C140.793 97.0899 140.745 96.975 140.666 96.882C140.524 96.7117 137.111 92.649 130.191 92.649L130.227 92.6724Z" fill="#231F20"/>
<path d="M154.981 135.349C148.303 126.214 136.862 125.404 130.019 125.404C123.175 125.404 111.734 126.214 105.057 135.349C98.3792 144.485 98.6932 161.616 98.6932 161.616H161.338C161.338 161.616 161.658 144.485 154.981 135.349Z" fill="#231F20"/>
<path d="M161.338 161.91H98.6934C98.6163 161.909 98.5426 161.878 98.4876 161.825C98.4325 161.771 98.4001 161.699 98.3971 161.622C98.3971 161.446 98.1542 144.285 104.814 135.202C112.173 125.134 125.605 125.134 130.019 125.134C147.859 125.134 153.399 132.713 155.218 135.202C161.878 144.309 161.641 161.47 161.635 161.622C161.633 161.699 161.601 161.772 161.546 161.826C161.49 161.88 161.416 161.91 161.338 161.91V161.91ZM98.9896 161.323H161.042C161.042 159.039 160.811 143.827 154.738 135.49C148.303 126.684 137.555 125.668 130.019 125.668C122.482 125.668 111.734 126.684 105.294 135.49C99.2207 143.827 98.9896 159.039 98.9896 161.323V161.323Z" fill="#231F20"/>
<path d="M109.465 156.62C109.39 156.621 109.317 156.593 109.261 156.543C109.205 156.493 109.17 156.424 109.163 156.35L107.107 136.506C107.118 136.439 107.15 136.378 107.2 136.332C107.249 136.286 107.313 136.258 107.38 136.251C107.448 136.244 107.516 136.26 107.574 136.295C107.631 136.331 107.676 136.384 107.699 136.447L109.755 156.286C109.764 156.366 109.74 156.446 109.689 156.508C109.638 156.571 109.564 156.611 109.483 156.62H109.465Z" fill="white"/>
<path d="M147.705 161.916H147.676C147.596 161.904 147.524 161.862 147.475 161.798C147.426 161.735 147.405 161.655 147.415 161.575L149.874 143.469C149.879 143.43 149.892 143.391 149.912 143.357C149.932 143.323 149.959 143.292 149.991 143.268C150.023 143.244 150.059 143.227 150.098 143.217C150.137 143.207 150.178 143.205 150.217 143.211C150.297 143.222 150.369 143.265 150.418 143.328C150.467 143.392 150.488 143.472 150.478 143.551L148.019 161.658C148.009 161.732 147.971 161.799 147.913 161.847C147.855 161.895 147.781 161.92 147.705 161.916V161.916Z" fill="white"/>
<path d="M118.092 126.619C118.092 126.619 118.287 124.206 119.348 123.537C120.408 122.867 137.425 121.775 139.404 123.537C140.616 124.715 141.323 126.311 141.377 127.993C141.377 127.993 121.67 126.202 118.092 126.619Z" fill="#5094D1"/>
<path d="M143.889 127.476H143.801C129.059 122.985 116.741 127.423 116.617 127.476C116.538 127.504 116.451 127.5 116.376 127.465C116.3 127.43 116.242 127.366 116.214 127.288C116.185 127.21 116.189 127.125 116.225 127.05C116.261 126.975 116.325 126.917 116.403 126.889C116.528 126.842 129.035 122.327 143.978 126.889C144.049 126.909 144.109 126.954 144.149 127.015C144.189 127.076 144.204 127.149 144.193 127.221C144.183 127.293 144.146 127.358 144.09 127.405C144.034 127.452 143.963 127.477 143.889 127.476Z" fill="#231F20"/>
<path d="M115.242 110.761C115.064 111.454 114.887 112.153 114.703 112.845C113.773 116.368 112.748 119.891 112.7 123.501C112.653 127.112 113.708 130.928 116.362 133.418C118.767 135.672 122.127 136.57 125.374 137.228C128.716 137.903 132.17 138.402 135.541 137.868C138.912 137.334 142.23 135.584 143.943 132.654C145.72 129.619 145.531 125.838 144.837 122.392C143.961 118.024 142.574 113.791 142.562 109.335C142.562 104.509 142.764 99.5885 141.377 94.9034C140.743 92.7605 139.695 90.6117 137.822 89.367C135.95 88.1223 133.082 88.1282 131.684 89.866C132.099 89.3611 127.536 88.2221 127.104 88.2221C125.946 88.1851 124.806 88.5051 123.839 89.138C120.515 91.1048 118.969 93.4768 118.258 97.2049C117.393 101.757 116.388 106.276 115.242 110.761Z" fill="white"/>
<path d="M132.537 138.402C130.104 138.349 127.682 138.054 125.308 137.522C121.99 136.846 118.578 135.913 116.154 133.635C113.731 131.357 112.339 127.646 112.392 123.496C112.439 120.12 113.328 116.797 114.169 113.579L114.389 112.769C114.572 112.076 114.75 111.384 114.928 110.685C116.065 106.229 117.084 101.673 117.95 97.1462C118.696 93.236 120.355 90.8406 123.679 88.8797C124.694 88.2185 125.889 87.8824 127.104 87.9168C127.281 87.9168 130.736 88.6448 131.731 89.3611C133.349 87.7818 136.187 87.9227 137.982 89.1145C139.647 90.2242 140.85 92.0912 141.655 94.8212C142.876 98.931 142.84 103.293 142.84 107.491C142.84 108.078 142.84 108.724 142.84 109.335C142.84 112.523 143.587 115.681 144.304 118.728C144.582 119.902 144.867 121.124 145.11 122.333C145.998 126.783 145.702 130.212 144.179 132.807C142.574 135.555 139.351 137.557 135.559 138.167C134.559 138.326 133.549 138.404 132.537 138.402V138.402ZM115.538 110.838C115.36 111.53 115.183 112.229 114.993 112.922L114.78 113.738C113.926 116.914 113.05 120.196 113.002 123.501C112.949 127.488 114.246 131.022 116.557 133.195C118.868 135.367 122.186 136.271 125.445 136.929C128.703 137.586 132.128 138.103 135.517 137.569C139.131 136.981 142.195 135.091 143.705 132.502C145.151 130.042 145.43 126.754 144.571 122.451C144.328 121.247 144.043 120.037 143.765 118.863C143.042 115.781 142.295 112.599 142.283 109.335C142.283 108.747 142.283 108.107 142.283 107.485C142.283 103.334 142.283 99.0367 141.098 94.9915C140.334 92.4023 139.214 90.641 137.674 89.6194C135.991 88.4981 133.289 88.41 131.95 90.0539C131.909 90.104 131.852 90.1397 131.789 90.1557C131.725 90.1718 131.658 90.1674 131.597 90.1431C131.537 90.1189 131.485 90.0762 131.451 90.0211C131.416 89.966 131.4 89.9014 131.405 89.8367C130.872 89.4022 127.542 88.5392 127.121 88.5216C126.022 88.4896 124.94 88.7951 124.023 89.3963C120.871 91.2633 119.283 93.5413 118.578 97.2636C117.713 101.796 116.693 106.364 115.55 110.838H115.538Z" fill="#231F20"/>
<path d="M40.3025 108.976C40.9661 104.867 47.8095 103.88 47.4718 108.7C47.4179 110.373 46.7718 111.973 45.6469 113.221C45.0739 113.829 44.3315 114.255 43.5139 114.444C42.6963 114.633 41.8405 114.578 41.055 114.284" fill="white"/>
<path d="M42.483 114.877C41.9486 114.882 41.4194 114.774 40.9306 114.56C40.8573 114.526 40.8001 114.466 40.7713 114.391C40.7425 114.317 40.7444 114.234 40.7766 114.161C40.7926 114.124 40.8158 114.091 40.8448 114.064C40.8739 114.036 40.9082 114.015 40.9457 114C40.9832 113.986 41.0232 113.98 41.0633 113.981C41.1035 113.982 41.1429 113.991 41.1795 114.008C41.9072 114.281 42.7007 114.331 43.4578 114.153C44.2149 113.976 44.9009 113.577 45.4277 113.01C46.5014 111.812 47.1177 110.279 47.1696 108.677C47.3355 106.329 45.7239 105.882 45.0248 105.806C44.0176 105.709 43.0099 105.984 42.1944 106.578C41.3789 107.171 40.8129 108.042 40.6047 109.023C40.6021 109.065 40.5905 109.106 40.5709 109.143C40.5513 109.18 40.5239 109.213 40.4907 109.239C40.4575 109.265 40.4191 109.284 40.3781 109.295C40.3371 109.305 40.2943 109.307 40.2525 109.3C40.2107 109.293 40.1709 109.277 40.1357 109.254C40.1004 109.23 40.0705 109.2 40.0478 109.165C40.0252 109.129 40.0103 109.089 40.0042 109.048C39.998 109.006 40.0008 108.964 40.0122 108.924C40.2381 107.786 40.8848 106.774 41.8255 106.085C42.7661 105.397 43.9326 105.081 45.0959 105.201C46.506 105.36 47.9458 106.375 47.7858 108.724C47.7186 110.462 47.0418 112.123 45.872 113.421C44.9817 114.332 43.7628 114.856 42.483 114.877Z" fill="#231F20"/>
<path d="M23.2504 108.976C22.5868 104.867 15.7435 103.88 16.0812 108.7C16.1351 110.373 16.7811 111.973 17.9061 113.221C18.4791 113.829 19.2215 114.255 20.039 114.444C20.8566 114.633 21.7124 114.578 22.498 114.284" fill="white"/>
<path d="M21.0699 114.877C19.7939 114.857 18.5776 114.338 17.6868 113.433C16.5161 112.136 15.8411 110.474 15.7789 108.736C15.613 106.387 17.0587 105.377 18.4629 105.213C19.6267 105.094 20.7933 105.41 21.7346 106.098C22.6759 106.787 23.3241 107.798 23.5525 108.935C23.5645 109.015 23.5445 109.095 23.4968 109.16C23.4491 109.225 23.3776 109.269 23.2977 109.282C23.2584 109.289 23.2178 109.289 23.1786 109.28C23.1394 109.272 23.1023 109.256 23.0696 109.233C23.0369 109.21 23.0093 109.18 22.9884 109.146C22.9676 109.112 22.9539 109.074 22.9482 109.035C22.7423 108.048 22.1747 107.172 21.3552 106.576C20.5356 105.98 19.5221 105.705 18.5103 105.806C17.8112 105.882 16.1996 106.323 16.3655 108.677C16.4141 110.276 17.0286 111.808 18.1015 113.004C18.6271 113.573 19.3129 113.973 20.0702 114.152C20.8275 114.331 21.6215 114.281 22.3497 114.008C22.3863 113.992 22.4257 113.983 22.4658 113.982C22.5058 113.981 22.5457 113.987 22.5831 114.002C22.6205 114.016 22.6547 114.037 22.6838 114.064C22.7129 114.092 22.7363 114.124 22.7526 114.161C22.769 114.197 22.778 114.236 22.7791 114.276C22.7802 114.315 22.7734 114.355 22.7591 114.392C22.7448 114.429 22.7232 114.463 22.6957 114.492C22.6682 114.52 22.6352 114.544 22.5986 114.56C22.1171 114.77 21.5963 114.878 21.0699 114.877V114.877Z" fill="#231F20"/>
<path d="M42.9448 109.276L41.7598 97.2636C41.7598 97.2636 38.4773 93.2595 31.7584 93.2595C25.0394 93.2595 21.757 97.2636 21.757 97.2636L21.2593 107.873C21.2593 113.104 22.6102 116.245 24.6662 118.035L24.1448 129.39C24.1448 129.39 25.9934 133.388 31.397 133.388C32.9039 133.43 34.3959 133.083 35.7273 132.382C37.0586 131.682 38.1838 130.651 38.9928 129.39L38.5188 119.11C40.6281 117.889 42.1686 115.2 42.9448 109.276Z" fill="white"/>
<path d="M31.7767 93.2595C38.4957 93.2595 41.7781 97.2636 41.7781 97.2636L42.9631 109.276C42.187 115.2 40.6465 117.889 38.5549 119.11L39.0289 129.39C38.2199 130.651 37.0947 131.682 35.7634 132.382C34.432 133.083 32.94 133.43 31.4331 133.388C26.0295 133.388 24.1809 129.39 24.1809 129.39L24.7023 118.035C22.6463 116.274 21.2954 113.104 21.2954 107.873L21.7931 97.2636C21.7931 97.2636 25.0815 93.2595 31.7945 93.2595H31.7767ZM31.7945 92.6724C24.8682 92.6724 21.4613 96.7352 21.3191 96.9055C21.2346 97.0064 21.1866 97.1325 21.1828 97.2636L20.6792 107.867C20.6792 112.693 21.8227 116.198 24.0801 118.311L23.5706 129.39C23.5656 129.485 23.5839 129.58 23.6239 129.666C23.7069 129.848 25.7036 134.017 31.4331 134.017C33.0505 134.064 34.6523 133.691 36.0793 132.935C37.5064 132.179 38.7091 131.066 39.5681 129.707C39.6207 129.608 39.6453 129.496 39.6392 129.384L39.183 119.456C41.5056 117.906 42.8624 114.759 43.5734 109.376C43.5794 109.331 43.5794 109.285 43.5734 109.241L42.3884 97.2342C42.3784 97.1133 42.3307 96.9985 42.2521 96.9055C42.1099 96.7352 38.6971 92.6724 31.7767 92.6724H31.7945Z" fill="#231F20"/>
<path d="M19.8372 111.519C21.3481 112.658 22.9893 113.474 23.641 115.628C23.7107 115.954 23.8435 116.263 24.0321 116.538C24.2171 116.741 24.4488 116.896 24.7075 116.99C25.4324 117.302 26.2166 117.454 27.0064 117.437C27.3238 117.38 27.6503 117.398 27.9592 117.489C28.2681 117.581 28.5507 117.744 28.7839 117.965C29.4605 118.397 30.2344 118.656 31.0367 118.72C31.8389 118.783 32.6446 118.649 33.3817 118.329C33.7437 118.117 34.1483 117.987 34.5667 117.947C34.9539 118.003 35.3323 118.107 35.6925 118.259C37.4226 118.711 38.8742 117.349 40.0059 116.28C40.5984 115.722 40.9243 115.64 41.2442 114.865C41.5642 114.09 41.1494 113.256 41.7538 112.587C41.9949 112.357 42.2659 112.159 42.5596 112C43.6912 111.225 44.106 109.781 44.4319 108.477C44.8554 107.017 45.1137 105.515 45.2021 103.998C45.1416 103.395 45.2438 102.787 45.4984 102.236C45.68 101.985 45.878 101.746 46.0909 101.52C46.3629 101.19 46.5476 100.799 46.6283 100.38C46.709 99.9622 46.6832 99.5306 46.553 99.1247C46.3279 98.4554 45.8243 97.8742 45.765 97.1697C45.7354 96.7822 45.848 96.3888 45.8302 95.9954C45.7709 94.7273 44.4497 93.9406 43.2943 93.3887C43.555 90.9698 40.3851 90.7115 38.8387 89.866C37.8743 89.2362 36.7522 88.8845 35.5977 88.8503C34.9045 88.8856 34.2409 89.138 33.5536 89.2026C31.9242 89.3611 30.1526 88.5216 28.7069 89.2907C28.3104 89.5771 27.8832 89.8193 27.433 90.0128C26.9531 90.0969 26.4607 90.0809 25.9873 89.9658C24.4414 89.7927 22.8873 90.2129 21.6443 91.1401C20.7864 92.0129 19.9943 92.947 19.2743 93.9347C18.7989 93.9878 18.3403 94.1407 17.9292 94.3833C17.5181 94.6258 17.1639 94.9525 16.8903 95.3414C16.6167 95.7303 16.4299 96.1726 16.3424 96.6387C16.2549 97.1048 16.2687 97.5841 16.3829 98.0445C16.461 98.2493 16.5166 98.4619 16.5488 98.6785C16.5473 98.9226 16.5135 99.1654 16.4481 99.4007C16.3578 99.9319 16.3996 100.477 16.57 100.988C16.7403 101.5 17.0341 101.963 17.4257 102.336C17.107 102.621 16.8544 102.97 16.6853 103.361C16.5163 103.751 16.4349 104.174 16.4467 104.599C16.4586 105.023 16.5634 105.441 16.7539 105.822C16.9444 106.202 17.2161 106.538 17.5501 106.804C17.412 107.419 17.4273 108.058 17.5945 108.666C17.7618 109.273 18.076 109.831 18.51 110.292C18.9074 110.746 19.3522 111.157 19.8372 111.519V111.519Z" fill="white"/>
<path d="M31.4562 119.022C30.4561 119.027 29.4762 118.743 28.6359 118.206L28.4641 118.088C28.2858 117.948 28.0857 117.837 27.8716 117.76C27.6518 117.712 27.426 117.699 27.202 117.718H27.0243C26.1895 117.742 25.3598 117.581 24.595 117.249C24.2935 117.135 24.0234 116.952 23.807 116.714C23.6096 116.451 23.4721 116.149 23.4041 115.828L23.3626 115.699C22.8472 114.02 21.6859 113.198 20.4475 112.323C20.1868 112.141 19.9261 111.953 19.6654 111.736C19.1498 111.364 18.6769 110.936 18.2553 110.462C17.8272 109.989 17.5114 109.427 17.3309 108.818C17.1505 108.208 17.11 107.566 17.2125 106.939C16.5785 106.351 16.2009 105.541 16.16 104.682C16.1191 103.822 16.418 102.981 16.9933 102.336C16.6398 101.932 16.3802 101.456 16.2328 100.942C16.0853 100.428 16.0537 99.8874 16.1401 99.3596L16.1756 99.1834C16.2143 99.0278 16.2342 98.8682 16.2349 98.7079C16.2139 98.5695 16.1782 98.4337 16.1282 98.3028L16.0808 98.1443C15.9571 97.6512 15.9386 97.1381 16.0264 96.6375C16.1142 96.137 16.3065 95.6602 16.5909 95.2374C16.8753 94.8147 17.2455 94.4555 17.678 94.1826C18.1105 93.9098 18.5957 93.7294 19.1026 93.6529C19.8281 92.6824 20.62 91.7624 21.4726 90.8994C22.7746 89.9219 24.4053 89.4764 26.0289 89.6547L26.2955 89.6958C26.5992 89.7919 26.9229 89.8078 27.2346 89.7419C27.5464 89.676 27.8354 89.5306 28.073 89.32C28.2311 89.2075 28.3953 89.1036 28.5648 89.0089C29.5365 88.4922 30.6208 88.639 31.6695 88.7799C32.2814 88.8863 32.9036 88.9237 33.524 88.8914C33.8293 88.855 34.132 88.8001 34.4305 88.7271C34.8092 88.6302 35.1959 88.5673 35.5859 88.5392C36.7947 88.5728 37.971 88.9343 38.9869 89.5842C39.43 89.8048 39.8895 89.9912 40.3615 90.142C41.8427 90.6645 43.6854 91.3162 43.6143 93.1832C44.7993 93.7703 46.0672 94.604 46.1324 95.9602C46.1369 96.1564 46.127 96.3526 46.1028 96.5473C46.0828 96.7327 46.0828 96.9197 46.1028 97.1051C46.1638 97.488 46.3007 97.8552 46.5057 98.1854C46.6518 98.4422 46.7747 98.7114 46.873 98.9897C47.0172 99.4444 47.0455 99.9273 46.9556 100.395C46.8656 100.864 46.6602 101.302 46.3576 101.673C46.2794 101.767 46.1963 101.857 46.1087 101.943C45.9821 102.069 45.8671 102.207 45.7651 102.354C45.5591 102.792 45.4732 103.276 45.5162 103.757V103.962C45.4293 105.503 45.169 107.029 44.7401 108.513C44.3668 110.01 43.9342 111.448 42.7433 112.229C42.6604 112.288 42.5715 112.341 42.4826 112.393C42.3022 112.491 42.1366 112.614 41.9909 112.757C41.7543 113.081 41.6506 113.482 41.7005 113.879C41.7168 114.242 41.6625 114.605 41.5405 114.947C41.3619 115.417 41.0489 115.825 40.64 116.121C40.5155 116.221 40.3852 116.333 40.2311 116.48C39.0876 117.554 37.5293 119.028 35.6274 118.529C35.4852 118.488 35.3489 118.441 35.2067 118.388C34.9795 118.265 34.7215 118.209 34.4632 118.227C34.205 118.244 33.9572 118.335 33.7492 118.488L33.5418 118.581C32.8861 118.874 32.1751 119.024 31.4562 119.022ZM27.4568 117.108C27.6564 117.101 27.856 117.123 28.0493 117.172C28.3324 117.27 28.5983 117.41 28.8373 117.589L28.9973 117.701C29.6294 118.104 30.3524 118.347 31.1019 118.406C31.8515 118.466 32.6042 118.34 33.2929 118.041L33.4944 117.947C33.8323 117.77 34.2033 117.662 34.5846 117.63C34.8763 117.649 35.1627 117.717 35.4319 117.83C35.5501 117.877 35.6708 117.918 35.7933 117.953C37.3575 118.364 38.7202 117.084 39.8104 116.051C39.9763 115.893 40.1245 115.775 40.2548 115.669C40.5863 115.439 40.8385 115.113 40.9777 114.736C41.0699 114.464 41.1101 114.177 41.0962 113.89C41.0427 113.348 41.2018 112.805 41.5405 112.376C41.7216 112.184 41.9339 112.023 42.1686 111.9L42.3997 111.748C43.4188 111.055 43.8098 109.763 44.1772 108.383C44.5948 106.944 44.8492 105.463 44.9356 103.968V103.769C44.8883 103.177 45.0072 102.583 45.2792 102.054C45.3984 101.868 45.5397 101.697 45.6999 101.544L45.9191 101.303C46.1563 101.012 46.3171 100.667 46.3874 100.299C46.4577 99.9314 46.4352 99.5522 46.322 99.1952C46.23 98.9503 46.1191 98.7128 45.9902 98.4848C45.7489 98.0831 45.5899 97.6382 45.5221 97.1755C45.5011 96.951 45.5011 96.7249 45.5221 96.5004C45.5461 96.3312 45.556 96.1604 45.5518 95.9896C45.4984 94.8799 44.266 94.1519 43.1818 93.6412C43.125 93.6138 43.0781 93.5699 43.0474 93.5153C43.0167 93.4607 43.0036 93.3981 43.01 93.3359C43.1759 91.7741 41.6472 91.2399 40.1719 90.7173C39.6697 90.5587 39.1805 90.3624 38.7084 90.1302C37.7942 89.5296 36.7296 89.1922 35.6333 89.1556C35.2773 89.1843 34.9245 89.2432 34.5787 89.3318C34.2566 89.4096 33.9301 89.4684 33.601 89.5079C32.9331 89.5451 32.2631 89.5057 31.6043 89.3905C30.6089 89.2555 29.6668 89.1263 28.867 89.5549C28.718 89.6392 28.5736 89.7313 28.4344 89.8308C28.1648 90.0406 27.8599 90.2016 27.5338 90.3064C27.1022 90.3974 26.6561 90.3974 26.2244 90.3064L25.9637 90.2653C24.48 90.1101 22.9933 90.531 21.8162 91.4395C21.0014 92.2746 20.2396 93.1589 19.5351 94.0874C19.5145 94.1418 19.4782 94.1892 19.4309 94.2236C19.3835 94.258 19.3271 94.278 19.2685 94.2811C18.8392 94.3324 18.4258 94.4729 18.0552 94.6935C17.6846 94.9141 17.3652 95.2098 17.118 95.5612C16.8707 95.9126 16.7012 96.3118 16.6205 96.7327C16.5398 97.1536 16.5497 97.5866 16.6496 98.0034L16.697 98.1443C16.7677 98.3334 16.8135 98.5307 16.8333 98.7314C16.838 98.9469 16.8141 99.162 16.7622 99.3713L16.7266 99.5298C16.6522 100.01 16.6952 100.502 16.8519 100.962C17.0086 101.423 17.2745 101.84 17.6272 102.178C17.6596 102.206 17.6849 102.242 17.7014 102.281C17.7178 102.321 17.7249 102.364 17.722 102.407C17.7223 102.45 17.7122 102.493 17.6926 102.532C17.6731 102.57 17.6446 102.604 17.6095 102.63C17.3303 102.887 17.1096 103.201 16.9623 103.549C16.8149 103.898 16.7442 104.273 16.7548 104.651C16.7655 105.029 16.8573 105.4 17.024 105.74C17.1908 106.08 17.4288 106.381 17.722 106.622C17.7716 106.658 17.8093 106.708 17.8304 106.766C17.8514 106.823 17.855 106.886 17.8405 106.945C17.7174 107.505 17.7322 108.086 17.8838 108.639C18.0354 109.192 18.3194 109.7 18.7115 110.121C19.1046 110.558 19.5435 110.951 20.0209 111.295C20.2757 111.489 20.5364 111.671 20.7912 111.853C22.0591 112.746 23.3626 113.667 23.9374 115.546L23.9788 115.681C24.0267 115.924 24.1256 116.154 24.2692 116.356C24.4269 116.515 24.6167 116.639 24.8261 116.72C25.5121 117.013 26.2539 117.155 27.0006 117.137H27.4568V117.108Z" fill="#231F20"/>
<path d="M19.6602 126.619C19.6602 126.619 19.8557 124.206 20.9222 123.537C21.9887 122.867 38.9994 121.775 40.9724 123.537C42.1845 124.715 42.8912 126.311 42.9454 127.993C42.9454 127.993 23.2507 126.202 19.6602 126.619Z" fill="#5094D1"/>
<path d="M56.5486 135.349C49.8711 126.214 38.43 125.404 31.5866 125.404C24.7432 125.404 13.302 126.214 6.62456 135.349C-0.0529146 144.485 0.26111 161.616 0.26111 161.616H62.9061C62.9061 161.616 63.2261 144.485 56.5486 135.349Z" fill="white"/>
<path d="M62.9063 161.916H0.261307C0.221907 161.917 0.182745 161.91 0.146116 161.895C0.109486 161.881 0.0761264 161.859 0.0479864 161.832C0.0198465 161.805 -0.00250816 161.772 -0.0177653 161.736C-0.0330224 161.7 -0.040877 161.661 -0.0408691 161.622C-0.0408691 161.446 -0.283795 144.279 6.3759 135.173C13.7703 125.075 27.1727 125.075 31.5868 125.075C49.4329 125.075 54.9728 132.66 56.7977 135.15C63.4574 144.256 63.2204 161.423 63.2144 161.599C63.2169 161.64 63.2107 161.681 63.1962 161.72C63.1818 161.759 63.1594 161.794 63.1304 161.824C63.1015 161.854 63.0666 161.878 63.0281 161.893C62.9895 161.909 62.948 161.917 62.9063 161.916V161.916ZM0.569407 161.329H62.6042C62.6042 159.016 62.3612 143.833 56.3 135.543C49.8654 126.736 39.1175 125.727 31.5868 125.727C24.0561 125.727 13.3082 126.742 6.87361 135.543C0.806407 143.821 0.569407 158.998 0.569407 161.311V161.329Z" fill="#231F20"/>
<path d="M13.5216 161.916C13.445 161.918 13.3707 161.89 13.3144 161.838C13.258 161.787 13.224 161.716 13.2194 161.64L11.6197 140.68C11.6131 140.6 11.6386 140.521 11.6908 140.459C11.7429 140.398 11.8174 140.359 11.8981 140.351C11.9796 140.347 12.0597 140.373 12.1216 140.426C12.1836 140.478 12.2224 140.553 12.2299 140.633L13.8297 161.593C13.8346 161.673 13.8075 161.752 13.7543 161.812C13.7011 161.873 13.626 161.91 13.5453 161.916H13.5216Z" fill="#231F20"/>
<path d="M50.9435 161.916C50.9038 161.913 50.8651 161.902 50.8295 161.884C50.794 161.866 50.7624 161.842 50.7365 161.812C50.7106 161.782 50.691 161.747 50.6787 161.709C50.6665 161.672 50.6618 161.632 50.6651 161.593L52.2826 141.244C52.2856 141.204 52.2964 141.166 52.3144 141.131C52.3324 141.096 52.3573 141.064 52.3876 141.039C52.4179 141.013 52.453 140.994 52.4909 140.981C52.5288 140.969 52.5687 140.965 52.6084 140.968C52.6487 140.97 52.6881 140.98 52.7243 140.998C52.7605 141.015 52.7928 141.04 52.8193 141.07C52.8458 141.1 52.866 141.135 52.8786 141.173C52.8912 141.211 52.8961 141.251 52.8928 141.291L51.2694 161.64C51.2664 161.679 51.2556 161.718 51.2376 161.753C51.2195 161.788 51.1947 161.819 51.1644 161.845C51.1341 161.871 51.099 161.89 51.0611 161.902C51.0232 161.915 50.9832 161.919 50.9435 161.916Z" fill="#231F20"/>
<path d="M96.0508 112.71C96.7144 108.601 103.558 107.62 103.22 112.434C103.168 114.107 102.522 115.708 101.395 116.955C100.822 117.564 100.08 117.99 99.2629 118.18C98.4454 118.37 97.5894 118.316 96.8033 118.024" fill="white"/>
<path d="M98.2311 118.617C97.697 118.619 97.1682 118.511 96.6787 118.3C96.6417 118.283 96.6083 118.26 96.5805 118.23C96.5527 118.201 96.531 118.167 96.5167 118.129C96.5024 118.091 96.4957 118.051 96.4971 118.011C96.4985 117.971 96.5078 117.931 96.5247 117.895C96.5583 117.822 96.6193 117.765 96.6947 117.737C96.77 117.708 96.8536 117.71 96.9276 117.742C97.6554 118.015 98.4488 118.065 99.2059 117.887C99.963 117.71 100.649 117.311 101.176 116.744C102.248 115.545 102.863 114.012 102.912 112.411C103.078 110.063 101.466 109.622 100.767 109.54C98.9895 109.335 96.7024 110.603 96.3529 112.757C96.3397 112.837 96.2957 112.907 96.2303 112.955C96.1649 113.002 96.0833 113.022 96.0033 113.01C95.9234 112.997 95.8519 112.953 95.8042 112.888C95.7566 112.824 95.7365 112.743 95.7485 112.663C95.9744 111.525 96.622 110.512 97.564 109.823C98.5059 109.134 99.6738 108.82 100.838 108.941C102.242 109.1 103.688 110.115 103.522 112.464C103.461 114.204 102.784 115.867 101.608 117.161C101.17 117.612 100.646 117.973 100.066 118.223C99.4867 118.472 98.863 118.606 98.2311 118.617V118.617Z" fill="#231F20"/>
<path d="M78.9921 112.71C78.3344 108.601 71.491 107.62 71.8287 112.434C71.8755 114.108 72.5225 115.711 73.6536 116.955C74.2264 117.564 74.9685 117.99 75.7859 118.18C76.6033 118.37 77.4593 118.316 78.2455 118.024" fill="white"/>
<path d="M76.8186 118.617C76.1861 118.607 75.5618 118.474 74.9812 118.225C74.4007 117.977 73.8754 117.617 73.4354 117.167C72.2647 115.87 71.5878 114.208 71.5216 112.47C71.3557 110.121 72.8014 109.117 74.2056 108.947C75.3699 108.825 76.5378 109.14 77.4798 109.829C78.4217 110.518 79.0693 111.531 79.2952 112.669C79.302 112.708 79.3009 112.748 79.2921 112.787C79.2832 112.825 79.2668 112.862 79.2436 112.894C79.2205 112.926 79.1911 112.953 79.1573 112.974C79.1234 112.995 79.0857 113.009 79.0464 113.016C78.9656 113.028 78.8833 113.008 78.817 112.961C78.7506 112.914 78.7054 112.843 78.6909 112.763C78.3472 110.614 76.0898 109.34 74.2767 109.546C73.5776 109.628 71.966 110.068 72.1319 112.417C72.1808 114.019 72.7975 115.553 73.8738 116.75C74.3996 117.317 75.0847 117.715 75.8407 117.893C76.5968 118.07 77.3892 118.02 78.1161 117.748C78.155 117.731 78.1969 117.722 78.2392 117.722C78.2815 117.721 78.3236 117.729 78.3629 117.744C78.4023 117.76 78.4381 117.783 78.4685 117.812C78.4988 117.842 78.523 117.877 78.5398 117.915C78.5565 117.954 78.5654 117.995 78.566 118.037C78.5665 118.079 78.5588 118.121 78.5431 118.16C78.5274 118.199 78.5041 118.234 78.4746 118.264C78.445 118.294 78.4098 118.318 78.3709 118.335C77.8786 118.534 77.3501 118.63 76.8186 118.617V118.617Z" fill="#231F20"/>
<path d="M98.6934 113.016L97.5084 101.003C97.5084 101.003 94.2201 96.9935 87.507 96.9935C80.794 96.9935 77.5234 101.003 77.5234 101.003L77.0198 111.607C77.0198 116.838 78.3707 119.979 80.4267 121.769L79.9052 133.13C79.9052 133.13 81.7598 137.128 87.1634 137.128C88.6701 137.168 90.1617 136.821 91.4929 136.121C92.824 135.42 93.9493 134.39 94.7592 133.13L94.2852 122.844C96.3768 121.623 97.9054 118.94 98.6934 113.016Z" fill="white"/>
<path d="M87.524 96.9935C94.237 96.9935 97.5254 101.003 97.5254 101.003L98.7104 113.016C97.9342 118.94 96.3937 121.623 94.3022 122.844L94.7762 133.13C93.9663 134.39 92.841 135.42 91.5098 136.121C90.1787 136.821 88.6871 137.168 87.1803 137.128C81.7767 137.128 79.9222 133.13 79.9222 133.13L80.4436 121.769C78.3876 119.979 77.0367 116.838 77.0367 111.607L77.5226 101.003C77.5226 101.003 80.805 96.9935 87.524 96.9935ZM87.524 96.4064C80.5977 96.4064 77.1849 100.463 77.0486 100.639C76.9653 100.739 76.9174 100.863 76.9123 100.992L76.4087 111.571C76.4087 116.403 77.5522 119.908 79.8037 122.022L79.2942 133.095C79.2912 133.191 79.3094 133.288 79.3475 133.377C79.4304 133.553 81.4331 137.727 87.1626 137.727C88.78 137.775 90.3818 137.401 91.8082 136.644C93.2346 135.887 94.4357 134.773 95.2917 133.412C95.3471 133.315 95.3738 133.206 95.3687 133.095L94.9421 123.167C97.2588 121.623 98.6215 118.47 99.3266 113.092C99.3326 113.047 99.3326 113.002 99.3266 112.957L98.1416 100.945C98.1321 100.827 98.0866 100.714 98.0113 100.622C97.8691 100.446 94.4563 96.3888 87.5359 96.3888L87.524 96.4064Z" fill="#231F20"/>
<path d="M76.3679 113.961C76.5812 114.548 76.8063 115.094 77.0493 115.652C77.6418 116.973 79.283 118.517 80.0592 119.762C80.9894 121.229 80.859 120.936 82.5299 121.094C86.1654 121.482 89.8299 121.523 93.4734 121.218C94.3325 121.147 95.2509 121.018 95.8434 120.396C96.1281 120.048 96.3433 119.649 96.4773 119.221C97.8756 115.699 99.1456 112.121 100.287 108.489C100.807 107.019 100.989 105.453 100.82 103.904C100.785 103.493 100.56 100.005 99.6354 100.322C100.228 100.111 101.046 100.504 101.674 100.669C100.933 98.9721 99.3806 97.1462 97.5261 97.2166C97.9467 94.7801 95.6478 93.1362 93.3015 92.3025C90.9552 91.4688 88.3719 91.7859 85.9071 92.1675C83.7158 92.4187 81.5714 92.9761 79.5378 93.8232C75.6865 95.5845 73.2039 100.446 73.9446 104.667C74.4652 107.832 75.2764 110.943 76.3679 113.961V113.961Z" fill="white"/>
<path d="M88.6686 121.699C86.6062 121.698 84.5453 121.588 82.4947 121.37L81.7719 121.312C80.7231 121.241 80.5869 121.147 79.7988 119.897C79.4216 119.347 79.012 118.819 78.5724 118.317C77.8693 117.551 77.2717 116.696 76.7949 115.775C76.5579 115.223 76.3268 114.648 76.1076 114.067C75.0097 111.032 74.1965 107.903 73.6783 104.72C72.9199 100.393 75.5091 95.379 79.4433 93.5648C81.4996 92.706 83.6678 92.1388 85.8838 91.8798C88.3901 91.4923 91.0326 91.1812 93.4263 92.0325C96.3888 93.0834 98.0419 94.8976 97.8938 96.9289C99.7898 97.064 101.271 98.9251 101.982 100.557C102.005 100.609 102.013 100.666 102.005 100.723C101.996 100.779 101.972 100.831 101.935 100.874C101.897 100.917 101.848 100.948 101.794 100.966C101.74 100.983 101.682 100.986 101.627 100.974C101.467 100.933 101.301 100.874 101.129 100.821C100.957 100.769 100.744 100.698 100.536 100.651C100.911 101.672 101.112 102.747 101.129 103.833V103.892C101.296 105.478 101.112 107.081 100.59 108.589C99.4461 112.2 98.1663 115.816 96.768 119.345C96.6167 119.8 96.3817 120.224 96.0748 120.595C95.4112 121.3 94.398 121.441 93.5034 121.517C91.8997 121.642 90.2881 121.703 88.6686 121.699ZM76.6586 113.855C76.8719 114.442 77.097 114.994 77.3281 115.534C77.7946 116.401 78.3699 117.206 79.0404 117.93C79.5016 118.45 79.929 119 80.3202 119.574C81.0016 120.648 81.0016 120.648 81.8133 120.707L82.5599 120.766C86.1773 121.155 89.8242 121.198 93.45 120.895C94.2321 120.83 95.115 120.713 95.6245 120.167C95.8862 119.852 96.087 119.491 96.217 119.104C97.6094 115.581 98.8892 111.988 100.021 108.395C100.526 106.962 100.702 105.436 100.536 103.927V103.863C100.317 101.027 99.849 100.645 99.7957 100.61H99.7661C99.7272 100.623 99.6861 100.629 99.6451 100.626C99.604 100.623 99.564 100.613 99.5271 100.595C99.4902 100.577 99.4573 100.552 99.4302 100.521C99.4031 100.491 99.3823 100.455 99.3691 100.416C99.3559 100.378 99.3505 100.337 99.3531 100.296C99.3558 100.256 99.3665 100.216 99.3847 100.18C99.4028 100.143 99.4281 100.11 99.4589 100.084C99.4898 100.057 99.5257 100.036 99.5646 100.023V100.023C100.083 99.9042 100.627 99.9515 101.117 100.158C100.317 98.7079 99.0018 97.4221 97.562 97.5043C97.5177 97.5049 97.4737 97.4963 97.4329 97.4791C97.3921 97.4619 97.3554 97.4365 97.325 97.4045C97.2943 97.3706 97.2715 97.3304 97.2582 97.2868C97.2448 97.2431 97.2414 97.1972 97.248 97.1521C97.7101 94.4748 94.5876 93.0423 93.2249 92.5785C90.9615 91.78 88.4019 92.0794 85.9786 92.4552C83.8195 92.7012 81.7067 93.2508 79.704 94.0873C76.0009 95.8134 73.5657 100.546 74.2767 104.608C74.7924 107.755 75.5976 110.848 76.6823 113.849L76.6586 113.855Z" fill="#231F20"/>
<path d="M75.3899 130.359C75.3899 130.359 75.5854 127.94 76.646 127.277C77.7066 126.613 94.7232 125.515 96.6962 127.277C97.9112 128.451 98.6203 130.046 98.6751 131.727C98.6751 131.727 78.9864 129.936 75.3899 130.359Z" fill="white"/>
<path d="M98.6932 132.032H98.6636C98.4681 132.032 78.9452 130.271 75.4435 130.658C75.3984 130.664 75.3526 130.66 75.3094 130.646C75.2663 130.632 75.227 130.608 75.1947 130.576C75.1624 130.545 75.1372 130.507 75.1209 130.466C75.1045 130.424 75.0973 130.38 75.0999 130.335C75.0999 130.071 75.3428 127.746 76.5041 127.018C77.3454 126.49 94.7057 125.098 96.9217 127.048C98.2071 128.284 98.9517 129.97 98.9954 131.744C98.9958 131.787 98.987 131.828 98.9696 131.867C98.9522 131.905 98.9267 131.94 98.8947 131.968C98.8384 132.014 98.7663 132.037 98.6932 132.032ZM77.0373 129.989C82.4469 129.989 95.9263 131.163 98.3674 131.392C98.2497 129.915 97.5925 128.531 96.5188 127.5C95.7604 126.83 91.8735 126.519 86.3751 126.678C81.2382 126.824 77.2329 127.265 76.8359 127.535C76.1841 127.94 75.8701 129.249 75.7575 130.024C76.1012 130.001 76.5337 129.989 77.0373 129.989V129.989Z" fill="#231F20"/>
<path d="M112.298 139.083C105.614 129.954 94.1791 129.138 87.3298 129.138C80.4805 129.138 69.0453 129.954 62.3678 139.083C55.6903 148.213 56.0103 161.616 56.0103 161.616H118.643C118.643 161.616 118.975 148.219 112.298 139.083Z" fill="#5094D1"/>
<path d="M118.642 161.916H56.0092C55.9295 161.916 55.8528 161.885 55.7954 161.831C55.7379 161.776 55.7041 161.701 55.7011 161.622C55.7011 161.487 55.4581 148.019 62.1238 138.907C69.4826 128.838 82.9146 128.838 87.3287 128.838C105.181 128.838 110.721 136.418 112.54 138.907C119.235 148.019 118.962 161.476 118.962 161.622C118.961 161.662 118.951 161.702 118.934 161.738C118.917 161.775 118.893 161.808 118.864 161.835C118.834 161.862 118.799 161.883 118.761 161.897C118.723 161.911 118.683 161.917 118.642 161.916V161.916ZM56.2995 161.329H118.352C118.352 159.315 118.044 147.479 112.048 139.283C105.613 130.476 94.8653 129.461 87.3287 129.461C79.7921 129.461 69.0501 130.476 62.6155 139.283C56.6194 147.461 56.3173 159.297 56.3113 161.311L56.2995 161.329Z" fill="#5094D1"/>
<path d="M68.3812 161.916C68.3021 161.918 68.2255 161.888 68.1679 161.834C68.1102 161.781 68.0762 161.707 68.0731 161.628L67.2733 143.522C67.2715 143.442 67.3007 143.365 67.3547 143.306C67.4087 143.247 67.4834 143.211 67.5636 143.205C67.6445 143.205 67.7225 143.235 67.7819 143.289C67.8412 143.344 67.8775 143.418 67.8835 143.498L68.6834 161.605C68.685 161.644 68.6788 161.683 68.665 161.72C68.6513 161.757 68.6303 161.791 68.6034 161.82C68.5764 161.849 68.5439 161.872 68.5079 161.889C68.4718 161.905 68.4328 161.914 68.3931 161.916H68.3812Z" fill="#231F20"/>
<path d="M105.56 161.916C105.521 161.914 105.482 161.904 105.446 161.887C105.41 161.869 105.378 161.845 105.352 161.816C105.325 161.786 105.305 161.752 105.292 161.715C105.279 161.678 105.274 161.638 105.276 161.599L106.2 144.796C106.202 144.756 106.211 144.717 106.228 144.681C106.245 144.646 106.27 144.614 106.299 144.587C106.329 144.561 106.364 144.541 106.402 144.528C106.44 144.516 106.48 144.511 106.52 144.514C106.56 144.516 106.6 144.525 106.636 144.542C106.673 144.559 106.706 144.582 106.733 144.612C106.76 144.642 106.781 144.676 106.794 144.714C106.807 144.751 106.813 144.791 106.811 144.831L105.851 161.634C105.845 161.708 105.812 161.777 105.759 161.829C105.706 161.881 105.635 161.912 105.56 161.916V161.916Z" fill="#231F20"/>
<path d="M75.2883 34.3C75.2883 34.3 89.9957 45.8065 93.0256 47.3143C96.0556 48.822 108.525 40.5889 108.525 40.5889L117.001 47.9755C117.001 47.9755 102.366 65.6453 93.0256 65.2948C83.685 64.9444 72.001 48.8154 72.001 48.8154" fill="#5094D1"/>
<path d="M117.353 43C117.286 42.9997 117.22 42.9813 117.163 42.9469C117.085 42.8967 117.03 42.8187 117.01 42.7296C116.989 42.6404 117.005 42.547 117.054 42.4692C119.09 39.3973 117.998 37.5794 117.984 37.5595C117.953 37.5212 117.931 37.477 117.918 37.4297C117.906 37.3824 117.904 37.3331 117.913 37.285C117.922 37.2369 117.941 37.1912 117.969 37.1509C117.997 37.1105 118.033 37.0765 118.076 37.0509C118.118 37.0254 118.166 37.009 118.216 37.0028C118.265 36.9966 118.315 37.0007 118.363 37.0149C118.411 37.0291 118.455 37.0531 118.493 37.0852C118.53 37.1173 118.56 37.1568 118.581 37.2012C118.642 37.2941 119.939 39.4106 117.645 42.8408C117.613 42.8888 117.57 42.9285 117.519 42.9563C117.468 42.9841 117.411 42.9991 117.353 43V43Z" fill="#231F20"/>
<path d="M61.7633 94.1461C61.69 94.1462 61.6189 94.1213 61.5618 94.0756C61.5314 94.0478 61.5069 94.0143 61.4896 93.977C61.4723 93.9397 61.4626 93.8994 61.4611 93.8584L60.762 78.8519C60.7587 78.7719 60.7873 78.6938 60.8417 78.6345C60.896 78.5752 60.9716 78.5394 61.0523 78.5349C61.133 78.5316 61.2118 78.56 61.2717 78.6138C61.3315 78.6676 61.3676 78.7426 61.3722 78.8225L62.0536 93.5002L74.1288 92.326C74.1729 92.3096 74.2204 92.3034 74.2674 92.3079C74.3144 92.3125 74.3597 92.3277 74.3998 92.3524C74.4399 92.3771 74.4737 92.4106 74.4987 92.4503C74.5237 92.49 74.5391 92.5348 74.5438 92.5814C74.5485 92.628 74.5424 92.6749 74.5258 92.7188C74.5093 92.7626 74.4828 92.8021 74.4484 92.8341C74.414 92.8662 74.3726 92.89 74.3275 92.9037C74.2823 92.9174 74.2346 92.9206 74.188 92.9131L61.7633 94.1461Z" fill="#231F20"/>
</g>
<defs>
<clipPath id="clip0">
<rect width="164" height="162" fill="white"/>
</clipPath>
</defs>
</svg>
